<svg xmlns="http://www.w3.org/2000/svg" xmlns:rdkit="http://www.rdkit.org/xml" xmlns:xlink="http://www.w3.org/1999/xlink" version="1.1" baseProfile="full" xml:space="preserve" width="800px" height="600px" viewBox="0 0 800 600">
<!-- END OF HEADER -->
<rect style="opacity:1.0;fill:#FFFFFF;stroke:none" width="800.0" height="600.0" x="0.0" y="0.0"> </rect>
<rect style="opacity:1.0;fill:#FFFFFF;stroke:none" width="800.0" height="600.0" x="0.0" y="0.0"> </rect>
<rect style="opacity:1.0;fill:#FFFFFF;stroke:none" width="800.0" height="600.0" x="0.0" y="0.0"> </rect>
<rect style="opacity:1.0;fill:#FFFFFF;stroke:none" width="800.0" height="600.0" x="0.0" y="0.0"> </rect>
<rect style="opacity:1.0;fill:#FFFFFF;stroke:none" width="800.0" height="600.0" x="0.0" y="0.0"> </rect>
<rect style="opacity:1.0;fill:#FFFFFF;stroke:none" width="800.0" height="600.0" x="0.0" y="0.0"> </rect>
<rect style="opacity:1.0;fill:#FFFFFF;stroke:none" width="800.0" height="600.0" x="0.0" y="0.0"> </rect>
<rect style="opacity:1.0;fill:#FFFFFF;stroke:none" width="800.0" height="600.0" x="0.0" y="0.0"> </rect>
<rect style="opacity:1.0;fill:#FFFFFF;stroke:none" width="800.0" height="600.0" x="0.0" y="0.0"> </rect>
<rect style="opacity:1.0;fill:#FFFFFF;stroke:none" width="800.0" height="600.0" x="0.0" y="0.0"> </rect>
<rect style="opacity:1.0;fill:#FFFFFF;stroke:none" width="800.0" height="600.0" x="0.0" y="0.0"> </rect>
<path class="bond-0 atom-0 atom-1" d="M 190.9,71.1 L 156.5,102.8" style="fill:none;fill-rule:evenodd;stroke:#000000;stroke-width:2.0px;stroke-linecap:butt;stroke-linejoin:miter;stroke-opacity:1"/>
<path class="bond-1 atom-1 atom-2" d="M 156.5,102.8 L 111.7,88.8" style="fill:none;fill-rule:evenodd;stroke:#000000;stroke-width:2.0px;stroke-linecap:butt;stroke-linejoin:miter;stroke-opacity:1"/>
<path class="bond-2 atom-2 atom-3" d="M 111.7,88.8 L 98.1,101.4" style="fill:none;fill-rule:evenodd;stroke:#000000;stroke-width:2.0px;stroke-linecap:butt;stroke-linejoin:miter;stroke-opacity:1"/>
<path class="bond-2 atom-2 atom-3" d="M 98.1,101.4 L 84.5,113.9" style="fill:none;fill-rule:evenodd;stroke:#FF0000;stroke-width:2.0px;stroke-linecap:butt;stroke-linejoin:miter;stroke-opacity:1"/>
<path class="bond-4 atom-2 atom-5" d="M 111.7,88.8 L 107.5,70.0" style="fill:none;fill-rule:evenodd;stroke:#000000;stroke-width:2.0px;stroke-linecap:butt;stroke-linejoin:miter;stroke-opacity:1"/>
<path class="bond-4 atom-2 atom-5" d="M 107.5,70.0 L 103.3,51.2" style="fill:none;fill-rule:evenodd;stroke:#FF0000;stroke-width:2.0px;stroke-linecap:butt;stroke-linejoin:miter;stroke-opacity:1"/>
<path class="bond-3 atom-3 atom-4" d="M 70.0,118.3 L 51.3,112.4" style="fill:none;fill-rule:evenodd;stroke:#FF0000;stroke-width:2.0px;stroke-linecap:butt;stroke-linejoin:miter;stroke-opacity:1"/>
<path class="bond-3 atom-3 atom-4" d="M 51.3,112.4 L 32.6,106.6" style="fill:none;fill-rule:evenodd;stroke:#000000;stroke-width:2.0px;stroke-linecap:butt;stroke-linejoin:miter;stroke-opacity:1"/>
<path class="bond-5 atom-5 atom-6" d="M 94.2,40.9 L 75.5,35.0" style="fill:none;fill-rule:evenodd;stroke:#FF0000;stroke-width:2.0px;stroke-linecap:butt;stroke-linejoin:miter;stroke-opacity:1"/>
<path class="bond-5 atom-5 atom-6" d="M 75.5,35.0 L 56.8,29.1" style="fill:none;fill-rule:evenodd;stroke:#000000;stroke-width:2.0px;stroke-linecap:butt;stroke-linejoin:miter;stroke-opacity:1"/>
<path class="atom-3" d="M 71.2 120.6 Q 71.2 117.4, 72.8 115.6 Q 74.3 113.9, 77.3 113.9 Q 80.2 113.9, 81.8 115.6 Q 83.4 117.4, 83.4 120.6 Q 83.4 123.8, 81.8 125.7 Q 80.2 127.5, 77.3 127.5 Q 74.4 127.5, 72.8 125.7 Q 71.2 123.8, 71.2 120.6 M 77.3 126.0 Q 79.3 126.0, 80.4 124.6 Q 81.5 123.3, 81.5 120.6 Q 81.5 118.0, 80.4 116.7 Q 79.3 115.4, 77.3 115.4 Q 75.3 115.4, 74.2 116.7 Q 73.1 118.0, 73.1 120.6 Q 73.1 123.3, 74.2 124.6 Q 75.3 126.0, 77.3 126.0 " fill="#FF0000"/>
<path class="atom-5" d="M 95.4 43.2 Q 95.4 40.0, 97.0 38.2 Q 98.5 36.4, 101.5 36.4 Q 104.4 36.4, 106.0 38.2 Q 107.6 40.0, 107.6 43.2 Q 107.6 46.4, 106.0 48.2 Q 104.4 50.0, 101.5 50.0 Q 98.6 50.0, 97.0 48.2 Q 95.4 46.4, 95.4 43.2 M 101.5 48.5 Q 103.5 48.5, 104.6 47.2 Q 105.7 45.8, 105.7 43.2 Q 105.7 40.6, 104.6 39.2 Q 103.5 37.9, 101.5 37.9 Q 99.5 37.9, 98.4 39.2 Q 97.3 40.5, 97.3 43.2 Q 97.3 45.8, 98.4 47.2 Q 99.5 48.5, 101.5 48.5 " fill="#FF0000"/>
<path class="note" d="M 185.6 68.8 Q 184.4 68.8, 183.8 67.9 Q 183.2 67.0, 183.2 65.4 Q 183.2 63.8, 183.8 62.9 Q 184.4 62.0, 185.6 62.0 Q 186.8 62.0, 187.4 62.9 Q 188.0 63.8, 188.0 65.4 Q 188.0 67.0, 187.4 67.9 Q 186.8 68.8, 185.6 68.8 M 185.6 68.0 Q 186.3 68.0, 186.7 67.3 Q 187.1 66.7, 187.1 65.4 Q 187.1 64.1, 186.7 63.4 Q 186.3 62.7, 185.6 62.7 Q 184.9 62.7, 184.5 63.4 Q 184.1 64.1, 184.1 65.4 Q 184.1 66.7, 184.5 67.3 Q 184.9 68.0, 185.6 68.0 " fill="#000000"/>
<path class="note" d="M 156.5 113.0 L 158.0 113.0 L 158.0 108.1 L 156.4 108.6 L 156.2 108.0 L 158.2 107.1 L 158.9 107.2 L 158.9 113.0 L 160.2 113.0 L 160.2 113.8 L 156.5 113.8 L 156.5 113.0 " fill="#000000"/>
<path class="note" d="M 111.2 94.4 Q 111.5 93.8, 112.1 93.5 Q 112.6 93.1, 113.4 93.1 Q 114.4 93.1, 115.0 93.6 Q 115.6 94.2, 115.6 95.1 Q 115.6 96.1, 114.8 97.0 Q 114.1 98.0, 112.6 99.1 L 115.7 99.1 L 115.7 99.8 L 111.2 99.8 L 111.2 99.2 Q 112.5 98.3, 113.2 97.6 Q 113.9 97.0, 114.3 96.4 Q 114.6 95.8, 114.6 95.2 Q 114.6 94.6, 114.3 94.2 Q 114.0 93.8, 113.4 93.8 Q 112.9 93.8, 112.6 94.1 Q 112.2 94.3, 111.9 94.8 L 111.2 94.4 " fill="#000000"/>
<path class="note" d="M 81.7 135.7 Q 82.3 135.8, 82.6 136.3 Q 82.9 136.7, 82.9 137.3 Q 82.9 137.9, 82.7 138.3 Q 82.4 138.8, 81.9 139.0 Q 81.3 139.2, 80.7 139.2 Q 80.0 139.2, 79.4 139.0 Q 78.9 138.8, 78.5 138.2 L 79.0 137.7 Q 79.4 138.2, 79.8 138.3 Q 80.1 138.5, 80.7 138.5 Q 81.3 138.5, 81.6 138.2 Q 82.0 137.9, 82.0 137.3 Q 82.0 136.7, 81.6 136.4 Q 81.2 136.0, 80.4 136.0 L 79.9 136.0 L 79.9 135.4 L 80.4 135.4 Q 81.1 135.4, 81.5 135.1 Q 81.9 134.7, 81.9 134.1 Q 81.9 133.7, 81.5 133.5 Q 81.2 133.2, 80.7 133.2 Q 80.1 133.2, 79.8 133.4 Q 79.4 133.6, 79.2 134.1 L 78.5 133.7 Q 78.8 133.2, 79.3 132.8 Q 79.9 132.4, 80.7 132.4 Q 81.6 132.4, 82.2 132.9 Q 82.8 133.4, 82.8 134.1 Q 82.8 134.7, 82.5 135.1 Q 82.2 135.4, 81.7 135.7 " fill="#000000"/>
<path class="note" d="M 32.0 115.1 L 32.8 115.1 L 32.8 115.8 L 32.0 115.8 L 32.0 117.4 L 31.1 117.4 L 31.1 115.8 L 27.7 115.8 L 27.7 115.2 L 30.6 110.7 L 32.0 110.7 L 32.0 115.1 M 28.8 115.1 L 31.1 115.1 L 31.1 111.3 L 28.8 115.1 " fill="#000000"/>
<path class="note" d="M 113.1 31.7 Q 113.7 31.7, 114.2 32.0 Q 114.7 32.2, 114.9 32.7 Q 115.2 33.1, 115.2 33.8 Q 115.2 34.4, 114.9 34.9 Q 114.6 35.4, 114.0 35.7 Q 113.5 35.9, 112.8 35.9 Q 112.2 35.9, 111.7 35.7 Q 111.1 35.5, 110.7 35.1 L 111.3 34.5 Q 111.6 34.8, 112.0 35.0 Q 112.4 35.2, 112.9 35.2 Q 113.5 35.2, 113.9 34.8 Q 114.3 34.4, 114.3 33.8 Q 114.3 33.1, 113.9 32.8 Q 113.5 32.4, 112.8 32.4 Q 112.2 32.4, 111.6 32.7 L 111.1 32.4 L 111.4 29.2 L 114.8 29.2 L 114.7 30.0 L 112.2 30.0 L 112.0 31.9 Q 112.6 31.7, 113.1 31.7 " fill="#000000"/>
<path class="note" d="M 54.7 35.8 Q 55.3 35.8, 55.8 36.1 Q 56.2 36.3, 56.5 36.8 Q 56.8 37.2, 56.8 37.8 Q 56.8 38.5, 56.5 39.0 Q 56.2 39.5, 55.7 39.7 Q 55.2 40.0, 54.5 40.0 Q 53.3 40.0, 52.7 39.2 Q 52.2 38.4, 52.2 36.8 Q 52.2 35.1, 52.9 34.2 Q 53.6 33.2, 55.0 33.2 Q 55.4 33.2, 55.8 33.3 Q 56.2 33.4, 56.5 33.6 L 56.1 34.3 Q 55.6 34.0, 55.0 34.0 Q 54.1 34.0, 53.6 34.6 Q 53.2 35.2, 53.1 36.5 Q 53.4 36.1, 53.9 36.0 Q 54.3 35.8, 54.7 35.8 M 54.5 39.3 Q 54.9 39.3, 55.2 39.1 Q 55.5 38.9, 55.6 38.6 Q 55.8 38.2, 55.8 37.8 Q 55.8 37.2, 55.5 36.9 Q 55.2 36.6, 54.6 36.6 Q 54.2 36.6, 53.8 36.7 Q 53.4 36.9, 53.1 37.2 Q 53.1 38.3, 53.5 38.8 Q 53.8 39.3, 54.5 39.3 " fill="#000000"/>
<path d="M 88.8 192.9 L 91.3 192.9 L 91.3 184.4 L 88.5 185.2 L 88.2 184.3 L 91.6 182.8 L 92.8 182.9 L 92.8 192.9 L 95.0 192.9 L 95.0 194.1 L 88.8 194.1 L 88.8 192.9 " fill="#000000"/>
<path d="M 96.0 192.5 L 97.6 192.5 L 97.6 194.1 L 96.0 194.1 L 96.0 192.5 " fill="#000000"/>
<path d="M 102.8 194.3 Q 100.7 194.3, 99.6 192.7 Q 98.6 191.2, 98.6 188.5 Q 98.6 185.7, 99.6 184.2 Q 100.7 182.7, 102.8 182.7 Q 104.9 182.7, 105.9 184.2 Q 106.9 185.7, 106.9 188.5 Q 106.9 191.2, 105.9 192.7 Q 104.8 194.3, 102.8 194.3 M 102.8 193.0 Q 104.0 193.0, 104.6 191.9 Q 105.3 190.7, 105.3 188.5 Q 105.3 186.2, 104.6 185.1 Q 104.0 184.0, 102.8 184.0 Q 101.5 184.0, 100.9 185.1 Q 100.2 186.2, 100.2 188.5 Q 100.2 190.7, 100.9 191.9 Q 101.5 193.0, 102.8 193.0 " fill="#000000"/>
<path class="bond-0 atom-0 atom-1" d="M 390.9,71.1 L 356.5,102.8" style="fill:none;fill-rule:evenodd;stroke:#000000;stroke-width:2.0px;stroke-linecap:butt;stroke-linejoin:miter;stroke-opacity:1"/>
<path class="bond-1 atom-1 atom-2" d="M 356.5,102.8 L 311.7,88.8" style="fill:none;fill-rule:evenodd;stroke:#000000;stroke-width:2.0px;stroke-linecap:butt;stroke-linejoin:miter;stroke-opacity:1"/>
<path class="bond-2 atom-2 atom-3" d="M 311.7,88.8 L 277.3,120.6" style="fill:none;fill-rule:evenodd;stroke:#000000;stroke-width:2.0px;stroke-linecap:butt;stroke-linejoin:miter;stroke-opacity:1"/>
<path class="bond-4 atom-2 atom-5" d="M 311.7,88.8 L 307.5,70.0" style="fill:none;fill-rule:evenodd;stroke:#000000;stroke-width:2.0px;stroke-linecap:butt;stroke-linejoin:miter;stroke-opacity:1"/>
<path class="bond-4 atom-2 atom-5" d="M 307.5,70.0 L 303.3,51.2" style="fill:none;fill-rule:evenodd;stroke:#FF0000;stroke-width:2.0px;stroke-linecap:butt;stroke-linejoin:miter;stroke-opacity:1"/>
<path class="bond-3 atom-3 atom-4" d="M 277.3,120.6 L 232.6,106.6" style="fill:none;fill-rule:evenodd;stroke:#000000;stroke-width:2.0px;stroke-linecap:butt;stroke-linejoin:miter;stroke-opacity:1"/>
<path class="bond-5 atom-5 atom-6" d="M 294.2,40.9 L 275.5,35.0" style="fill:none;fill-rule:evenodd;stroke:#FF0000;stroke-width:2.0px;stroke-linecap:butt;stroke-linejoin:miter;stroke-opacity:1"/>
<path class="bond-5 atom-5 atom-6" d="M 275.5,35.0 L 256.8,29.1" style="fill:none;fill-rule:evenodd;stroke:#000000;stroke-width:2.0px;stroke-linecap:butt;stroke-linejoin:miter;stroke-opacity:1"/>
<path class="atom-5" d="M 295.4 43.2 Q 295.4 40.0, 297.0 38.2 Q 298.5 36.4, 301.5 36.4 Q 304.4 36.4, 306.0 38.2 Q 307.6 40.0, 307.6 43.2 Q 307.6 46.4, 306.0 48.2 Q 304.4 50.0, 301.5 50.0 Q 298.6 50.0, 297.0 48.2 Q 295.4 46.4, 295.4 43.2 M 301.5 48.5 Q 303.5 48.5, 304.6 47.2 Q 305.7 45.8, 305.7 43.2 Q 305.7 40.6, 304.6 39.2 Q 303.5 37.9, 301.5 37.9 Q 299.5 37.9, 298.4 39.2 Q 297.3 40.5, 297.3 43.2 Q 297.3 45.8, 298.4 47.2 Q 299.5 48.5, 301.5 48.5 " fill="#FF0000"/>
<path class="note" d="M 385.6 68.8 Q 384.4 68.8, 383.8 67.9 Q 383.2 67.0, 383.2 65.4 Q 383.2 63.8, 383.8 62.9 Q 384.4 62.0, 385.6 62.0 Q 386.8 62.0, 387.4 62.9 Q 388.0 63.8, 388.0 65.4 Q 388.0 67.0, 387.4 67.9 Q 386.8 68.8, 385.6 68.8 M 385.6 68.0 Q 386.3 68.0, 386.7 67.3 Q 387.1 66.7, 387.1 65.4 Q 387.1 64.1, 386.7 63.4 Q 386.3 62.7, 385.6 62.7 Q 384.9 62.7, 384.5 63.4 Q 384.1 64.1, 384.1 65.4 Q 384.1 66.7, 384.5 67.3 Q 384.9 68.0, 385.6 68.0 " fill="#000000"/>
<path class="note" d="M 356.5 113.0 L 358.0 113.0 L 358.0 108.1 L 356.4 108.6 L 356.2 108.0 L 358.2 107.1 L 358.9 107.2 L 358.9 113.0 L 360.2 113.0 L 360.2 113.8 L 356.5 113.8 L 356.5 113.0 " fill="#000000"/>
<path class="note" d="M 311.2 94.4 Q 311.5 93.8, 312.1 93.5 Q 312.6 93.1, 313.4 93.1 Q 314.4 93.1, 315.0 93.6 Q 315.6 94.2, 315.6 95.1 Q 315.6 96.1, 314.8 97.0 Q 314.1 98.0, 312.6 99.1 L 315.7 99.1 L 315.7 99.8 L 311.2 99.8 L 311.2 99.2 Q 312.5 98.3, 313.2 97.6 Q 313.9 97.0, 314.3 96.4 Q 314.6 95.8, 314.6 95.2 Q 314.6 94.6, 314.3 94.2 Q 314.0 93.8, 313.4 93.8 Q 312.9 93.8, 312.6 94.1 Q 312.2 94.3, 311.9 94.8 L 311.2 94.4 " fill="#000000"/>
<path class="note" d="M 279.9 128.0 Q 280.6 128.2, 280.9 128.7 Q 281.2 129.1, 281.2 129.7 Q 281.2 130.3, 280.9 130.7 Q 280.7 131.2, 280.1 131.4 Q 279.6 131.6, 279.0 131.6 Q 278.2 131.6, 277.7 131.4 Q 277.2 131.1, 276.8 130.6 L 277.3 130.1 Q 277.7 130.5, 278.1 130.7 Q 278.4 130.9, 279.0 130.9 Q 279.6 130.9, 279.9 130.6 Q 280.3 130.2, 280.3 129.7 Q 280.3 129.0, 279.9 128.7 Q 279.5 128.4, 278.7 128.4 L 278.2 128.4 L 278.2 127.8 L 278.7 127.8 Q 279.4 127.7, 279.8 127.4 Q 280.1 127.1, 280.1 126.5 Q 280.1 126.1, 279.8 125.8 Q 279.5 125.6, 279.0 125.6 Q 278.4 125.6, 278.1 125.8 Q 277.7 126.0, 277.5 126.5 L 276.8 126.1 Q 277.1 125.6, 277.6 125.2 Q 278.2 124.8, 279.0 124.8 Q 279.9 124.8, 280.5 125.3 Q 281.1 125.7, 281.1 126.5 Q 281.1 127.1, 280.8 127.4 Q 280.5 127.8, 279.9 128.0 " fill="#000000"/>
<path class="note" d="M 232.0 115.1 L 232.8 115.1 L 232.8 115.8 L 232.0 115.8 L 232.0 117.4 L 231.1 117.4 L 231.1 115.8 L 227.7 115.8 L 227.7 115.2 L 230.6 110.7 L 232.0 110.7 L 232.0 115.1 M 228.8 115.1 L 231.1 115.1 L 231.1 111.3 L 228.8 115.1 " fill="#000000"/>
<path class="note" d="M 313.1 31.7 Q 313.7 31.7, 314.2 32.0 Q 314.7 32.2, 314.9 32.7 Q 315.2 33.1, 315.2 33.8 Q 315.2 34.4, 314.9 34.9 Q 314.6 35.4, 314.0 35.7 Q 313.5 35.9, 312.8 35.9 Q 312.2 35.9, 311.7 35.7 Q 311.1 35.5, 310.7 35.1 L 311.3 34.5 Q 311.6 34.8, 312.0 35.0 Q 312.4 35.2, 312.9 35.2 Q 313.5 35.2, 313.9 34.8 Q 314.3 34.4, 314.3 33.8 Q 314.3 33.1, 313.9 32.8 Q 313.5 32.4, 312.8 32.4 Q 312.2 32.4, 311.6 32.7 L 311.1 32.4 L 311.4 29.2 L 314.8 29.2 L 314.7 30.0 L 312.2 30.0 L 312.0 31.9 Q 312.6 31.7, 313.1 31.7 " fill="#000000"/>
<path class="note" d="M 254.7 35.8 Q 255.3 35.8, 255.8 36.1 Q 256.2 36.3, 256.5 36.8 Q 256.8 37.2, 256.8 37.8 Q 256.8 38.5, 256.5 39.0 Q 256.2 39.5, 255.7 39.7 Q 255.2 40.0, 254.5 40.0 Q 253.3 40.0, 252.7 39.2 Q 252.2 38.4, 252.2 36.8 Q 252.2 35.1, 252.9 34.2 Q 253.6 33.2, 255.0 33.2 Q 255.4 33.2, 255.8 33.3 Q 256.2 33.4, 256.5 33.6 L 256.1 34.3 Q 255.6 34.0, 255.0 34.0 Q 254.1 34.0, 253.6 34.6 Q 253.2 35.2, 253.1 36.5 Q 253.4 36.1, 253.9 36.0 Q 254.3 35.8, 254.7 35.8 M 254.5 39.3 Q 254.9 39.3, 255.2 39.1 Q 255.5 38.9, 255.6 38.6 Q 255.8 38.2, 255.8 37.8 Q 255.8 37.2, 255.5 36.9 Q 255.2 36.6, 254.6 36.6 Q 254.2 36.6, 253.8 36.7 Q 253.4 36.9, 253.1 37.2 Q 253.1 38.3, 253.5 38.8 Q 253.8 39.3, 254.5 39.3 " fill="#000000"/>
<path d="M 291.3 194.3 Q 289.3 194.3, 288.2 192.7 Q 287.2 191.2, 287.2 188.5 Q 287.2 185.7, 288.2 184.2 Q 289.2 182.7, 291.3 182.7 Q 293.4 182.7, 294.5 184.2 Q 295.5 185.7, 295.5 188.5 Q 295.5 191.2, 294.4 192.7 Q 293.4 194.3, 291.3 194.3 M 291.3 193.0 Q 292.6 193.0, 293.2 191.9 Q 293.9 190.7, 293.9 188.5 Q 293.9 186.2, 293.2 185.1 Q 292.6 184.0, 291.3 184.0 Q 290.1 184.0, 289.4 185.1 Q 288.8 186.2, 288.8 188.5 Q 288.8 190.7, 289.4 191.9 Q 290.1 193.0, 291.3 193.0 " fill="#000000"/>
<path d="M 296.5 192.5 L 298.1 192.5 L 298.1 194.1 L 296.5 194.1 L 296.5 192.5 " fill="#000000"/>
<path d="M 303.0 187.1 Q 304.0 187.1, 304.8 187.5 Q 305.6 187.9, 306.1 188.7 Q 306.5 189.5, 306.5 190.6 Q 306.5 191.7, 305.9 192.6 Q 305.4 193.4, 304.5 193.8 Q 303.5 194.3, 302.5 194.3 Q 301.4 194.3, 300.5 193.9 Q 299.5 193.5, 298.9 192.8 L 299.8 191.8 Q 300.3 192.4, 301.1 192.7 Q 301.8 193.0, 302.5 193.0 Q 303.5 193.0, 304.2 192.4 Q 304.9 191.7, 304.9 190.6 Q 304.9 189.4, 304.2 188.8 Q 303.5 188.3, 302.4 188.3 Q 301.4 188.3, 300.3 188.7 L 299.4 188.3 L 300.0 182.8 L 305.8 182.8 L 305.7 184.1 L 301.3 184.1 L 301.0 187.5 Q 302.0 187.1, 303.0 187.1 " fill="#000000"/>
<path class="bond-0 atom-0 atom-1" d="M 590.9,71.1 L 556.5,102.8" style="fill:none;fill-rule:evenodd;stroke:#000000;stroke-width:2.0px;stroke-linecap:butt;stroke-linejoin:miter;stroke-opacity:1"/>
<path class="bond-1 atom-1 atom-2" d="M 556.5,102.8 L 511.7,88.8" style="fill:none;fill-rule:evenodd;stroke:#000000;stroke-width:2.0px;stroke-linecap:butt;stroke-linejoin:miter;stroke-opacity:1"/>
<path class="bond-2 atom-2 atom-3" d="M 511.7,88.8 L 498.1,101.4" style="fill:none;fill-rule:evenodd;stroke:#000000;stroke-width:2.0px;stroke-linecap:butt;stroke-linejoin:miter;stroke-opacity:1"/>
<path class="bond-2 atom-2 atom-3" d="M 498.1,101.4 L 484.5,113.9" style="fill:none;fill-rule:evenodd;stroke:#FF0000;stroke-width:2.0px;stroke-linecap:butt;stroke-linejoin:miter;stroke-opacity:1"/>
<path class="bond-4 atom-2 atom-5" d="M 511.7,88.8 L 507.5,70.0" style="fill:none;fill-rule:evenodd;stroke:#000000;stroke-width:2.0px;stroke-linecap:butt;stroke-linejoin:miter;stroke-opacity:1"/>
<path class="bond-4 atom-2 atom-5" d="M 507.5,70.0 L 503.3,51.2" style="fill:none;fill-rule:evenodd;stroke:#FF0000;stroke-width:2.0px;stroke-linecap:butt;stroke-linejoin:miter;stroke-opacity:1"/>
<path class="bond-3 atom-3 atom-4" d="M 470.0,118.3 L 439.6,108.8" style="fill:none;fill-rule:evenodd;stroke:#FF0000;stroke-width:2.0px;stroke-linecap:butt;stroke-linejoin:miter;stroke-opacity:1"/>
<path class="bond-5 atom-5 atom-6" d="M 494.2,40.9 L 463.9,31.4" style="fill:none;fill-rule:evenodd;stroke:#FF0000;stroke-width:2.0px;stroke-linecap:butt;stroke-linejoin:miter;stroke-opacity:1"/>
<path class="atom-3" d="M 471.2 120.6 Q 471.2 117.4, 472.8 115.6 Q 474.3 113.9, 477.3 113.9 Q 480.2 113.9, 481.8 115.6 Q 483.4 117.4, 483.4 120.6 Q 483.4 123.8, 481.8 125.7 Q 480.2 127.5, 477.3 127.5 Q 474.4 127.5, 472.8 125.7 Q 471.2 123.8, 471.2 120.6 M 477.3 126.0 Q 479.3 126.0, 480.4 124.6 Q 481.5 123.3, 481.5 120.6 Q 481.5 118.0, 480.4 116.7 Q 479.3 115.4, 477.3 115.4 Q 475.3 115.4, 474.2 116.7 Q 473.1 118.0, 473.1 120.6 Q 473.1 123.3, 474.2 124.6 Q 475.3 126.0, 477.3 126.0 " fill="#FF0000"/>
<path class="atom-4" d="M 415.2 100.0 L 417.0 100.0 L 417.0 105.7 L 423.7 105.7 L 423.7 100.0 L 425.5 100.0 L 425.5 113.3 L 423.7 113.3 L 423.7 107.2 L 417.0 107.2 L 417.0 113.3 L 415.2 113.3 L 415.2 100.0 " fill="#FF0000"/>
<path class="atom-4" d="M 426.5 106.6 Q 426.5 103.4, 428.1 101.7 Q 429.6 99.9, 432.6 99.9 Q 435.5 99.9, 437.1 101.7 Q 438.7 103.4, 438.7 106.6 Q 438.7 109.8, 437.1 111.7 Q 435.5 113.5, 432.6 113.5 Q 429.7 113.5, 428.1 111.7 Q 426.5 109.9, 426.5 106.6 M 432.6 112.0 Q 434.6 112.0, 435.7 110.7 Q 436.8 109.3, 436.8 106.6 Q 436.8 104.0, 435.7 102.7 Q 434.6 101.4, 432.6 101.4 Q 430.6 101.4, 429.4 102.7 Q 428.4 104.0, 428.4 106.6 Q 428.4 109.3, 429.4 110.7 Q 430.6 112.0, 432.6 112.0 " fill="#FF0000"/>
<path class="atom-5" d="M 495.4 43.2 Q 495.4 40.0, 497.0 38.2 Q 498.5 36.4, 501.5 36.4 Q 504.4 36.4, 506.0 38.2 Q 507.6 40.0, 507.6 43.2 Q 507.6 46.4, 506.0 48.2 Q 504.4 50.0, 501.5 50.0 Q 498.6 50.0, 497.0 48.2 Q 495.4 46.4, 495.4 43.2 M 501.5 48.5 Q 503.5 48.5, 504.6 47.2 Q 505.7 45.8, 505.7 43.2 Q 505.7 40.6, 504.6 39.2 Q 503.5 37.9, 501.5 37.9 Q 499.5 37.9, 498.4 39.2 Q 497.3 40.5, 497.3 43.2 Q 497.3 45.8, 498.4 47.2 Q 499.5 48.5, 501.5 48.5 " fill="#FF0000"/>
<path class="atom-6" d="M 439.4 22.6 L 441.2 22.6 L 441.2 28.2 L 448.0 28.2 L 448.0 22.6 L 449.8 22.6 L 449.8 35.9 L 448.0 35.9 L 448.0 29.7 L 441.2 29.7 L 441.2 35.9 L 439.4 35.9 L 439.4 22.6 " fill="#FF0000"/>
<path class="atom-6" d="M 450.7 29.2 Q 450.7 26.0, 452.3 24.2 Q 453.8 22.4, 456.8 22.4 Q 459.7 22.4, 461.3 24.2 Q 462.9 26.0, 462.9 29.2 Q 462.9 32.4, 461.3 34.2 Q 459.7 36.1, 456.8 36.1 Q 453.9 36.1, 452.3 34.2 Q 450.7 32.4, 450.7 29.2 M 456.8 34.6 Q 458.8 34.6, 459.9 33.2 Q 461.0 31.8, 461.0 29.2 Q 461.0 26.6, 459.9 25.3 Q 458.8 23.9, 456.8 23.9 Q 454.8 23.9, 453.7 25.3 Q 452.6 26.6, 452.6 29.2 Q 452.6 31.9, 453.7 33.2 Q 454.8 34.6, 456.8 34.6 " fill="#FF0000"/>
<path class="note" d="M 585.6 68.8 Q 584.4 68.8, 583.8 67.9 Q 583.2 67.0, 583.2 65.4 Q 583.2 63.8, 583.8 62.9 Q 584.4 62.0, 585.6 62.0 Q 586.8 62.0, 587.4 62.9 Q 588.0 63.8, 588.0 65.4 Q 588.0 67.0, 587.4 67.9 Q 586.8 68.8, 585.6 68.8 M 585.6 68.0 Q 586.3 68.0, 586.7 67.3 Q 587.1 66.7, 587.1 65.4 Q 587.1 64.1, 586.7 63.4 Q 586.3 62.7, 585.6 62.7 Q 584.9 62.7, 584.5 63.4 Q 584.1 64.1, 584.1 65.4 Q 584.1 66.7, 584.5 67.3 Q 584.9 68.0, 585.6 68.0 " fill="#000000"/>
<path class="note" d="M 556.5 113.0 L 558.0 113.0 L 558.0 108.1 L 556.4 108.6 L 556.2 108.0 L 558.2 107.1 L 558.9 107.2 L 558.9 113.0 L 560.2 113.0 L 560.2 113.8 L 556.5 113.8 L 556.5 113.0 " fill="#000000"/>
<path class="note" d="M 511.2 94.4 Q 511.5 93.8, 512.1 93.5 Q 512.6 93.1, 513.4 93.1 Q 514.4 93.1, 515.0 93.6 Q 515.6 94.2, 515.6 95.1 Q 515.6 96.1, 514.8 97.0 Q 514.1 98.0, 512.6 99.1 L 515.7 99.1 L 515.7 99.8 L 511.2 99.8 L 511.2 99.2 Q 512.5 98.3, 513.2 97.6 Q 513.9 97.0, 514.3 96.4 Q 514.6 95.8, 514.6 95.2 Q 514.6 94.6, 514.3 94.2 Q 514.0 93.8, 513.4 93.8 Q 512.9 93.8, 512.6 94.1 Q 512.2 94.3, 511.9 94.8 L 511.2 94.4 " fill="#000000"/>
<path class="note" d="M 481.7 135.7 Q 482.3 135.8, 482.6 136.3 Q 482.9 136.7, 482.9 137.3 Q 482.9 137.9, 482.7 138.3 Q 482.4 138.8, 481.9 139.0 Q 481.3 139.2, 480.7 139.2 Q 480.0 139.2, 479.4 139.0 Q 478.9 138.8, 478.5 138.2 L 479.0 137.7 Q 479.4 138.2, 479.8 138.3 Q 480.1 138.5, 480.7 138.5 Q 481.3 138.5, 481.6 138.2 Q 482.0 137.9, 482.0 137.3 Q 482.0 136.7, 481.6 136.4 Q 481.2 136.0, 480.4 136.0 L 479.9 136.0 L 479.9 135.4 L 480.4 135.4 Q 481.1 135.4, 481.5 135.1 Q 481.9 134.7, 481.9 134.1 Q 481.9 133.7, 481.5 133.5 Q 481.2 133.2, 480.7 133.2 Q 480.1 133.2, 479.8 133.4 Q 479.4 133.6, 479.2 134.1 L 478.5 133.7 Q 478.8 133.2, 479.3 132.8 Q 479.9 132.4, 480.7 132.4 Q 481.6 132.4, 482.2 132.9 Q 482.8 133.4, 482.8 134.1 Q 482.8 134.7, 482.5 135.1 Q 482.2 135.4, 481.7 135.7 " fill="#000000"/>
<path class="note" d="M 419.4 103.0 L 420.2 103.0 L 420.2 103.7 L 419.4 103.7 L 419.4 105.2 L 418.5 105.2 L 418.5 103.7 L 415.1 103.7 L 415.1 103.1 L 418.0 98.6 L 419.4 98.6 L 419.4 103.0 M 416.2 103.0 L 418.5 103.0 L 418.5 99.2 L 416.2 103.0 " fill="#000000"/>
<path class="note" d="M 513.1 31.7 Q 513.7 31.7, 514.2 32.0 Q 514.7 32.2, 514.9 32.7 Q 515.2 33.1, 515.2 33.8 Q 515.2 34.4, 514.9 34.9 Q 514.6 35.4, 514.0 35.7 Q 513.5 35.9, 512.8 35.9 Q 512.2 35.9, 511.7 35.7 Q 511.1 35.5, 510.7 35.1 L 511.3 34.5 Q 511.6 34.8, 512.0 35.0 Q 512.4 35.2, 512.9 35.2 Q 513.5 35.2, 513.9 34.8 Q 514.3 34.4, 514.3 33.8 Q 514.3 33.1, 513.9 32.8 Q 513.5 32.4, 512.8 32.4 Q 512.2 32.4, 511.6 32.7 L 511.1 32.4 L 511.4 29.2 L 514.8 29.2 L 514.7 30.0 L 512.2 30.0 L 512.0 31.9 Q 512.6 31.7, 513.1 31.7 " fill="#000000"/>
<path class="note" d="M 442.2 23.7 Q 442.8 23.7, 443.2 24.0 Q 443.7 24.2, 443.9 24.7 Q 444.2 25.1, 444.2 25.7 Q 444.2 26.4, 443.9 26.9 Q 443.6 27.4, 443.1 27.6 Q 442.6 27.9, 441.9 27.9 Q 440.8 27.9, 440.2 27.1 Q 439.6 26.3, 439.6 24.7 Q 439.6 23.0, 440.3 22.1 Q 441.0 21.1, 442.5 21.1 Q 442.9 21.1, 443.2 21.2 Q 443.6 21.3, 443.9 21.5 L 443.5 22.1 Q 443.1 21.9, 442.5 21.9 Q 441.5 21.9, 441.1 22.5 Q 440.6 23.1, 440.5 24.3 Q 440.9 24.0, 441.3 23.9 Q 441.7 23.7, 442.2 23.7 M 442.0 27.2 Q 442.3 27.2, 442.6 27.0 Q 442.9 26.8, 443.1 26.4 Q 443.2 26.1, 443.2 25.7 Q 443.2 25.1, 442.9 24.8 Q 442.6 24.5, 442.0 24.5 Q 441.6 24.5, 441.2 24.6 Q 440.8 24.8, 440.5 25.1 Q 440.6 26.2, 440.9 26.7 Q 441.3 27.2, 442.0 27.2 " fill="#000000"/>
<path d="M 482.9 194.3 Q 480.8 194.3, 479.7 192.7 Q 478.7 191.2, 478.7 188.5 Q 478.7 185.7, 479.7 184.2 Q 480.8 182.7, 482.9 182.7 Q 485.0 182.7, 486.0 184.2 Q 487.0 185.7, 487.0 188.5 Q 487.0 191.2, 486.0 192.7 Q 484.9 194.3, 482.9 194.3 M 482.9 193.0 Q 484.1 193.0, 484.7 191.9 Q 485.4 190.7, 485.4 188.5 Q 485.4 186.2, 484.7 185.1 Q 484.1 184.0, 482.9 184.0 Q 481.6 184.0, 481.0 185.1 Q 480.3 186.2, 480.3 188.5 Q 480.3 190.7, 481.0 191.9 Q 481.6 193.0, 482.9 193.0 " fill="#000000"/>
<path d="M 488.0 192.5 L 489.6 192.5 L 489.6 194.1 L 488.0 194.1 L 488.0 192.5 " fill="#000000"/>
<path d="M 497.5 190.3 L 498.8 190.3 L 498.8 191.5 L 497.5 191.5 L 497.5 194.1 L 496.0 194.1 L 496.0 191.5 L 490.1 191.5 L 490.1 190.5 L 495.1 182.8 L 497.5 182.8 L 497.5 190.3 M 492.0 190.3 L 496.0 190.3 L 496.0 183.8 L 492.0 190.3 " fill="#000000"/>
<path d="M 505.1 184.1 L 499.1 184.1 L 499.1 182.8 L 506.7 182.8 L 506.7 184.0 L 502.1 194.1 L 500.5 194.1 L 505.1 184.1 " fill="#000000"/>
<path d="M 508.1 192.9 L 510.6 192.9 L 510.6 184.4 L 507.9 185.2 L 507.5 184.3 L 511.0 182.8 L 512.1 182.9 L 512.1 192.9 L 514.3 192.9 L 514.3 194.1 L 508.1 194.1 L 508.1 192.9 " fill="#000000"/>
<path class="bond-0 atom-0 atom-1" d="M 790.9,71.1 L 777.3,83.6" style="fill:none;fill-rule:evenodd;stroke:#000000;stroke-width:2.0px;stroke-linecap:butt;stroke-linejoin:miter;stroke-opacity:1"/>
<path class="bond-0 atom-0 atom-1" d="M 777.3,83.6 L 763.7,96.1" style="fill:none;fill-rule:evenodd;stroke:#FF0000;stroke-width:2.0px;stroke-linecap:butt;stroke-linejoin:miter;stroke-opacity:1"/>
<path class="bond-1 atom-1 atom-2" d="M 749.2,100.5 L 730.5,94.7" style="fill:none;fill-rule:evenodd;stroke:#FF0000;stroke-width:2.0px;stroke-linecap:butt;stroke-linejoin:miter;stroke-opacity:1"/>
<path class="bond-1 atom-1 atom-2" d="M 730.5,94.7 L 711.7,88.8" style="fill:none;fill-rule:evenodd;stroke:#000000;stroke-width:2.0px;stroke-linecap:butt;stroke-linejoin:miter;stroke-opacity:1"/>
<path class="bond-2 atom-2 atom-3" d="M 711.7,88.8 L 677.3,120.6" style="fill:none;fill-rule:evenodd;stroke:#000000;stroke-width:2.0px;stroke-linecap:butt;stroke-linejoin:miter;stroke-opacity:1"/>
<path class="bond-4 atom-2 atom-5" d="M 711.7,88.8 L 707.5,70.0" style="fill:none;fill-rule:evenodd;stroke:#000000;stroke-width:2.0px;stroke-linecap:butt;stroke-linejoin:miter;stroke-opacity:1"/>
<path class="bond-4 atom-2 atom-5" d="M 707.5,70.0 L 703.3,51.2" style="fill:none;fill-rule:evenodd;stroke:#FF0000;stroke-width:2.0px;stroke-linecap:butt;stroke-linejoin:miter;stroke-opacity:1"/>
<path class="bond-3 atom-3 atom-4" d="M 677.3,120.6 L 657.6,114.4" style="fill:none;fill-rule:evenodd;stroke:#000000;stroke-width:2.0px;stroke-linecap:butt;stroke-linejoin:miter;stroke-opacity:1"/>
<path class="bond-3 atom-3 atom-4" d="M 657.6,114.4 L 638.0,108.3" style="fill:none;fill-rule:evenodd;stroke:#CCCC00;stroke-width:2.0px;stroke-linecap:butt;stroke-linejoin:miter;stroke-opacity:1"/>
<path class="bond-5 atom-5 atom-6" d="M 694.2,40.9 L 675.5,35.0" style="fill:none;fill-rule:evenodd;stroke:#FF0000;stroke-width:2.0px;stroke-linecap:butt;stroke-linejoin:miter;stroke-opacity:1"/>
<path class="bond-5 atom-5 atom-6" d="M 675.5,35.0 L 656.8,29.1" style="fill:none;fill-rule:evenodd;stroke:#000000;stroke-width:2.0px;stroke-linecap:butt;stroke-linejoin:miter;stroke-opacity:1"/>
<path class="atom-1" d="M 750.4 102.8 Q 750.4 99.7, 751.9 97.9 Q 753.5 96.1, 756.5 96.1 Q 759.4 96.1, 761.0 97.9 Q 762.5 99.7, 762.5 102.8 Q 762.5 106.1, 760.9 107.9 Q 759.4 109.7, 756.5 109.7 Q 753.5 109.7, 751.9 107.9 Q 750.4 106.1, 750.4 102.8 M 756.5 108.2 Q 758.5 108.2, 759.6 106.9 Q 760.7 105.5, 760.7 102.8 Q 760.7 100.2, 759.6 98.9 Q 758.5 97.6, 756.5 97.6 Q 754.4 97.6, 753.3 98.9 Q 752.2 100.2, 752.2 102.8 Q 752.2 105.5, 753.3 106.9 Q 754.4 108.2, 756.5 108.2 " fill="#FF0000"/>
<path class="atom-4" d="M 628.8 111.1 Q 629.0 111.2, 629.6 111.5 Q 630.2 111.7, 630.9 111.9 Q 631.6 112.0, 632.3 112.0 Q 633.5 112.0, 634.2 111.4 Q 635.0 110.8, 635.0 109.8 Q 635.0 109.0, 634.6 108.6 Q 634.2 108.1, 633.7 107.9 Q 633.1 107.6, 632.2 107.4 Q 631.0 107.0, 630.3 106.7 Q 629.6 106.3, 629.1 105.6 Q 628.6 104.9, 628.6 103.7 Q 628.6 102.0, 629.7 101.0 Q 630.9 100.0, 633.1 100.0 Q 634.7 100.0, 636.4 100.7 L 636.0 102.1 Q 634.4 101.5, 633.2 101.5 Q 631.9 101.5, 631.2 102.0 Q 630.5 102.6, 630.5 103.5 Q 630.5 104.2, 630.8 104.6 Q 631.2 105.1, 631.7 105.3 Q 632.3 105.5, 633.2 105.8 Q 634.4 106.2, 635.1 106.6 Q 635.8 106.9, 636.3 107.7 Q 636.8 108.5, 636.8 109.8 Q 636.8 111.6, 635.6 112.6 Q 634.4 113.6, 632.3 113.6 Q 631.2 113.6, 630.3 113.3 Q 629.4 113.1, 628.3 112.6 L 628.8 111.1 " fill="#CCCC00"/>
<path class="atom-4" d="M 637.4 102.0 L 642.0 102.0 L 642.0 103.0 L 637.4 103.0 L 637.4 102.0 " fill="#CCCC00"/>
<path class="atom-5" d="M 695.4 43.2 Q 695.4 40.0, 697.0 38.2 Q 698.5 36.4, 701.5 36.4 Q 704.4 36.4, 706.0 38.2 Q 707.6 40.0, 707.6 43.2 Q 707.6 46.4, 706.0 48.2 Q 704.4 50.0, 701.5 50.0 Q 698.6 50.0, 697.0 48.2 Q 695.4 46.4, 695.4 43.2 M 701.5 48.5 Q 703.5 48.5, 704.6 47.2 Q 705.7 45.8, 705.7 43.2 Q 705.7 40.6, 704.6 39.2 Q 703.5 37.9, 701.5 37.9 Q 699.5 37.9, 698.4 39.2 Q 697.3 40.5, 697.3 43.2 Q 697.3 45.8, 698.4 47.2 Q 699.5 48.5, 701.5 48.5 " fill="#FF0000"/>
<path class="note" d="M 785.6 68.8 Q 784.4 68.8, 783.8 67.9 Q 783.2 67.0, 783.2 65.4 Q 783.2 63.8, 783.8 62.9 Q 784.4 62.0, 785.6 62.0 Q 786.8 62.0, 787.4 62.9 Q 788.0 63.8, 788.0 65.4 Q 788.0 67.0, 787.4 67.9 Q 786.8 68.8, 785.6 68.8 M 785.6 68.0 Q 786.3 68.0, 786.7 67.3 Q 787.1 66.7, 787.1 65.4 Q 787.1 64.1, 786.7 63.4 Q 786.3 62.7, 785.6 62.7 Q 784.9 62.7, 784.5 63.4 Q 784.1 64.1, 784.1 65.4 Q 784.1 66.7, 784.5 67.3 Q 784.9 68.0, 785.6 68.0 " fill="#000000"/>
<path class="note" d="M 758.2 120.6 L 759.7 120.6 L 759.7 115.7 L 758.1 116.2 L 757.9 115.6 L 759.9 114.7 L 760.6 114.8 L 760.6 120.6 L 761.9 120.6 L 761.9 121.4 L 758.2 121.4 L 758.2 120.6 " fill="#000000"/>
<path class="note" d="M 711.2 94.4 Q 711.5 93.8, 712.1 93.5 Q 712.6 93.1, 713.4 93.1 Q 714.4 93.1, 715.0 93.6 Q 715.6 94.2, 715.6 95.1 Q 715.6 96.1, 714.8 97.0 Q 714.1 98.0, 712.6 99.1 L 715.7 99.1 L 715.7 99.8 L 711.2 99.8 L 711.2 99.2 Q 712.5 98.3, 713.2 97.6 Q 713.9 97.0, 714.3 96.4 Q 714.6 95.8, 714.6 95.2 Q 714.6 94.6, 714.3 94.2 Q 714.0 93.8, 713.4 93.8 Q 712.9 93.8, 712.6 94.1 Q 712.2 94.3, 711.9 94.8 L 711.2 94.4 " fill="#000000"/>
<path class="note" d="M 679.9 128.0 Q 680.6 128.2, 680.9 128.7 Q 681.2 129.1, 681.2 129.7 Q 681.2 130.3, 680.9 130.7 Q 680.7 131.2, 680.1 131.4 Q 679.6 131.6, 679.0 131.6 Q 678.2 131.6, 677.7 131.4 Q 677.2 131.1, 676.8 130.6 L 677.3 130.1 Q 677.7 130.5, 678.1 130.7 Q 678.4 130.9, 679.0 130.9 Q 679.6 130.9, 679.9 130.6 Q 680.3 130.2, 680.3 129.7 Q 680.3 129.0, 679.9 128.7 Q 679.5 128.4, 678.7 128.4 L 678.2 128.4 L 678.2 127.8 L 678.7 127.8 Q 679.4 127.7, 679.8 127.4 Q 680.1 127.1, 680.1 126.5 Q 680.1 126.1, 679.8 125.8 Q 679.5 125.6, 679.0 125.6 Q 678.4 125.6, 678.1 125.8 Q 677.7 126.0, 677.5 126.5 L 676.8 126.1 Q 677.1 125.6, 677.6 125.2 Q 678.2 124.8, 679.0 124.8 Q 679.9 124.8, 680.5 125.3 Q 681.1 125.7, 681.1 126.5 Q 681.1 127.1, 680.8 127.4 Q 680.5 127.8, 679.9 128.0 " fill="#000000"/>
<path class="note" d="M 619.4 103.0 L 620.2 103.0 L 620.2 103.7 L 619.4 103.7 L 619.4 105.2 L 618.5 105.2 L 618.5 103.7 L 615.1 103.7 L 615.1 103.1 L 618.0 98.6 L 619.4 98.6 L 619.4 103.0 M 616.2 103.0 L 618.5 103.0 L 618.5 99.2 L 616.2 103.0 " fill="#000000"/>
<path class="note" d="M 713.1 31.7 Q 713.7 31.7, 714.2 32.0 Q 714.7 32.2, 714.9 32.7 Q 715.2 33.1, 715.2 33.8 Q 715.2 34.4, 714.9 34.9 Q 714.6 35.4, 714.0 35.7 Q 713.5 35.9, 712.8 35.9 Q 712.2 35.9, 711.7 35.7 Q 711.1 35.5, 710.7 35.1 L 711.3 34.5 Q 711.6 34.8, 712.0 35.0 Q 712.4 35.2, 712.9 35.2 Q 713.5 35.2, 713.9 34.8 Q 714.3 34.4, 714.3 33.8 Q 714.3 33.1, 713.9 32.8 Q 713.5 32.4, 712.8 32.4 Q 712.2 32.4, 711.6 32.7 L 711.1 32.4 L 711.4 29.2 L 714.8 29.2 L 714.7 30.0 L 712.2 30.0 L 712.0 31.9 Q 712.6 31.7, 713.1 31.7 " fill="#000000"/>
<path class="note" d="M 654.7 35.8 Q 655.3 35.8, 655.8 36.1 Q 656.2 36.3, 656.5 36.8 Q 656.8 37.2, 656.8 37.8 Q 656.8 38.5, 656.5 39.0 Q 656.2 39.5, 655.7 39.7 Q 655.2 40.0, 654.5 40.0 Q 653.3 40.0, 652.7 39.2 Q 652.2 38.4, 652.2 36.8 Q 652.2 35.1, 652.9 34.2 Q 653.6 33.2, 655.0 33.2 Q 655.4 33.2, 655.8 33.3 Q 656.2 33.4, 656.5 33.6 L 656.1 34.3 Q 655.6 34.0, 655.0 34.0 Q 654.1 34.0, 653.6 34.6 Q 653.2 35.2, 653.1 36.5 Q 653.4 36.1, 653.9 36.0 Q 654.3 35.8, 654.7 35.8 M 654.5 39.3 Q 654.9 39.3, 655.2 39.1 Q 655.5 38.9, 655.6 38.6 Q 655.8 38.2, 655.8 37.8 Q 655.8 37.2, 655.5 36.9 Q 655.2 36.6, 654.6 36.6 Q 654.2 36.6, 653.8 36.7 Q 653.4 36.9, 653.1 37.2 Q 653.1 38.3, 653.5 38.8 Q 653.8 39.3, 654.5 39.3 " fill="#000000"/>
<path d="M 682.9 194.3 Q 680.8 194.3, 679.7 192.7 Q 678.7 191.2, 678.7 188.5 Q 678.7 185.7, 679.7 184.2 Q 680.8 182.7, 682.9 182.7 Q 685.0 182.7, 686.0 184.2 Q 687.0 185.7, 687.0 188.5 Q 687.0 191.2, 686.0 192.7 Q 684.9 194.3, 682.9 194.3 M 682.9 193.0 Q 684.1 193.0, 684.7 191.9 Q 685.4 190.7, 685.4 188.5 Q 685.4 186.2, 684.7 185.1 Q 684.1 184.0, 682.9 184.0 Q 681.6 184.0, 681.0 185.1 Q 680.3 186.2, 680.3 188.5 Q 680.3 190.7, 681.0 191.9 Q 681.6 193.0, 682.9 193.0 " fill="#000000"/>
<path d="M 688.0 192.5 L 689.6 192.5 L 689.6 194.1 L 688.0 194.1 L 688.0 192.5 " fill="#000000"/>
<path d="M 697.5 190.3 L 698.8 190.3 L 698.8 191.5 L 697.5 191.5 L 697.5 194.1 L 696.0 194.1 L 696.0 191.5 L 690.1 191.5 L 690.1 190.5 L 695.1 182.8 L 697.5 182.8 L 697.5 190.3 M 692.0 190.3 L 696.0 190.3 L 696.0 183.8 L 692.0 190.3 " fill="#000000"/>
<path d="M 705.1 184.1 L 699.1 184.1 L 699.1 182.8 L 706.7 182.8 L 706.7 184.0 L 702.1 194.1 L 700.5 194.1 L 705.1 184.1 " fill="#000000"/>
<path d="M 708.1 192.9 L 710.6 192.9 L 710.6 184.4 L 707.9 185.2 L 707.5 184.3 L 711.0 182.8 L 712.1 182.9 L 712.1 192.9 L 714.3 192.9 L 714.3 194.1 L 708.1 194.1 L 708.1 192.9 " fill="#000000"/>
<path class="bond-0 atom-0 atom-1" d="M 190.9,271.1 L 177.3,283.6" style="fill:none;fill-rule:evenodd;stroke:#000000;stroke-width:2.0px;stroke-linecap:butt;stroke-linejoin:miter;stroke-opacity:1"/>
<path class="bond-0 atom-0 atom-1" d="M 177.3,283.6 L 163.7,296.1" style="fill:none;fill-rule:evenodd;stroke:#FF0000;stroke-width:2.0px;stroke-linecap:butt;stroke-linejoin:miter;stroke-opacity:1"/>
<path class="bond-1 atom-1 atom-2" d="M 149.2,300.5 L 130.5,294.7" style="fill:none;fill-rule:evenodd;stroke:#FF0000;stroke-width:2.0px;stroke-linecap:butt;stroke-linejoin:miter;stroke-opacity:1"/>
<path class="bond-1 atom-1 atom-2" d="M 130.5,294.7 L 111.7,288.8" style="fill:none;fill-rule:evenodd;stroke:#000000;stroke-width:2.0px;stroke-linecap:butt;stroke-linejoin:miter;stroke-opacity:1"/>
<path class="bond-2 atom-2 atom-3" d="M 111.7,288.8 L 77.3,320.6" style="fill:none;fill-rule:evenodd;stroke:#000000;stroke-width:2.0px;stroke-linecap:butt;stroke-linejoin:miter;stroke-opacity:1"/>
<path class="bond-4 atom-2 atom-5" d="M 111.7,288.8 L 107.5,270.0" style="fill:none;fill-rule:evenodd;stroke:#000000;stroke-width:2.0px;stroke-linecap:butt;stroke-linejoin:miter;stroke-opacity:1"/>
<path class="bond-4 atom-2 atom-5" d="M 107.5,270.0 L 103.3,251.2" style="fill:none;fill-rule:evenodd;stroke:#FF0000;stroke-width:2.0px;stroke-linecap:butt;stroke-linejoin:miter;stroke-opacity:1"/>
<path class="bond-3 atom-3 atom-4" d="M 77.3,320.6 L 56.9,314.2" style="fill:none;fill-rule:evenodd;stroke:#000000;stroke-width:2.0px;stroke-linecap:butt;stroke-linejoin:miter;stroke-opacity:1"/>
<path class="bond-3 atom-3 atom-4" d="M 56.9,314.2 L 36.5,307.8" style="fill:none;fill-rule:evenodd;stroke:#7F4C19;stroke-width:2.0px;stroke-linecap:butt;stroke-linejoin:miter;stroke-opacity:1"/>
<path class="bond-5 atom-5 atom-6" d="M 94.2,240.9 L 75.5,235.0" style="fill:none;fill-rule:evenodd;stroke:#FF0000;stroke-width:2.0px;stroke-linecap:butt;stroke-linejoin:miter;stroke-opacity:1"/>
<path class="bond-5 atom-5 atom-6" d="M 75.5,235.0 L 56.8,229.1" style="fill:none;fill-rule:evenodd;stroke:#000000;stroke-width:2.0px;stroke-linecap:butt;stroke-linejoin:miter;stroke-opacity:1"/>
<path class="atom-1" d="M 150.4 302.8 Q 150.4 299.7, 151.9 297.9 Q 153.5 296.1, 156.5 296.1 Q 159.4 296.1, 161.0 297.9 Q 162.5 299.7, 162.5 302.8 Q 162.5 306.1, 160.9 307.9 Q 159.4 309.7, 156.5 309.7 Q 153.5 309.7, 151.9 307.9 Q 150.4 306.1, 150.4 302.8 M 156.5 308.2 Q 158.5 308.2, 159.6 306.9 Q 160.7 305.5, 160.7 302.8 Q 160.7 300.2, 159.6 298.9 Q 158.5 297.6, 156.5 297.6 Q 154.4 297.6, 153.3 298.9 Q 152.2 300.2, 152.2 302.8 Q 152.2 305.5, 153.3 306.9 Q 154.4 308.2, 156.5 308.2 " fill="#FF0000"/>
<path class="atom-4" d="M 25.7 306.3 Q 26.9 306.6, 27.6 307.4 Q 28.2 308.2, 28.2 309.3 Q 28.2 311.1, 27.0 312.2 Q 25.9 313.2, 23.7 313.2 L 19.2 313.2 L 19.2 300.0 L 23.1 300.0 Q 25.4 300.0, 26.5 300.9 Q 27.7 301.8, 27.7 303.5 Q 27.7 305.5, 25.7 306.3 M 21.0 301.5 L 21.0 305.6 L 23.1 305.6 Q 24.4 305.6, 25.1 305.1 Q 25.8 304.5, 25.8 303.5 Q 25.8 301.5, 23.1 301.5 L 21.0 301.5 M 23.7 311.7 Q 25.0 311.7, 25.7 311.1 Q 26.3 310.5, 26.3 309.3 Q 26.3 308.2, 25.6 307.7 Q 24.8 307.1, 23.4 307.1 L 21.0 307.1 L 21.0 311.7 L 23.7 311.7 " fill="#7F4C19"/>
<path class="atom-4" d="M 31.2 303.6 L 31.4 304.9 Q 32.5 303.4, 34.1 303.4 Q 34.6 303.4, 35.3 303.6 L 35.1 305.2 Q 34.3 305.0, 33.8 305.0 Q 33.0 305.0, 32.5 305.3 Q 32.0 305.6, 31.6 306.3 L 31.6 313.2 L 29.8 313.2 L 29.8 303.6 L 31.2 303.6 " fill="#7F4C19"/>
<path class="atom-5" d="M 95.4 243.2 Q 95.4 240.0, 97.0 238.2 Q 98.5 236.4, 101.5 236.4 Q 104.4 236.4, 106.0 238.2 Q 107.6 240.0, 107.6 243.2 Q 107.6 246.4, 106.0 248.2 Q 104.4 250.0, 101.5 250.0 Q 98.6 250.0, 97.0 248.2 Q 95.4 246.4, 95.4 243.2 M 101.5 248.5 Q 103.5 248.5, 104.6 247.2 Q 105.7 245.8, 105.7 243.2 Q 105.7 240.6, 104.6 239.2 Q 103.5 237.9, 101.5 237.9 Q 99.5 237.9, 98.4 239.2 Q 97.3 240.5, 97.3 243.2 Q 97.3 245.8, 98.4 247.2 Q 99.5 248.5, 101.5 248.5 " fill="#FF0000"/>
<path class="note" d="M 185.6 268.8 Q 184.4 268.8, 183.8 267.9 Q 183.2 267.0, 183.2 265.4 Q 183.2 263.8, 183.8 262.9 Q 184.4 262.0, 185.6 262.0 Q 186.8 262.0, 187.4 262.9 Q 188.0 263.8, 188.0 265.4 Q 188.0 267.0, 187.4 267.9 Q 186.8 268.8, 185.6 268.8 M 185.6 268.0 Q 186.3 268.0, 186.7 267.3 Q 187.1 266.7, 187.1 265.4 Q 187.1 264.1, 186.7 263.4 Q 186.3 262.7, 185.6 262.7 Q 184.9 262.7, 184.5 263.4 Q 184.1 264.1, 184.1 265.4 Q 184.1 266.7, 184.5 267.3 Q 184.9 268.0, 185.6 268.0 " fill="#000000"/>
<path class="note" d="M 158.2 320.6 L 159.7 320.6 L 159.7 315.7 L 158.1 316.2 L 157.9 315.6 L 159.9 314.7 L 160.6 314.8 L 160.6 320.6 L 161.9 320.6 L 161.9 321.4 L 158.2 321.4 L 158.2 320.6 " fill="#000000"/>
<path class="note" d="M 111.2 294.4 Q 111.5 293.8, 112.1 293.5 Q 112.6 293.1, 113.4 293.1 Q 114.4 293.1, 115.0 293.6 Q 115.6 294.2, 115.6 295.1 Q 115.6 296.1, 114.8 297.0 Q 114.1 298.0, 112.6 299.1 L 115.7 299.1 L 115.7 299.8 L 111.2 299.8 L 111.2 299.2 Q 112.5 298.3, 113.2 297.6 Q 113.9 297.0, 114.3 296.4 Q 114.6 295.8, 114.6 295.2 Q 114.6 294.6, 114.3 294.2 Q 114.0 293.8, 113.4 293.8 Q 112.9 293.8, 112.6 294.1 Q 112.2 294.3, 111.9 294.8 L 111.2 294.4 " fill="#000000"/>
<path class="note" d="M 79.9 328.0 Q 80.6 328.2, 80.9 328.7 Q 81.2 329.1, 81.2 329.7 Q 81.2 330.3, 80.9 330.7 Q 80.7 331.2, 80.1 331.4 Q 79.6 331.6, 79.0 331.6 Q 78.2 331.6, 77.7 331.4 Q 77.2 331.1, 76.8 330.6 L 77.3 330.1 Q 77.7 330.5, 78.1 330.7 Q 78.4 330.9, 79.0 330.9 Q 79.6 330.9, 79.9 330.6 Q 80.3 330.2, 80.3 329.7 Q 80.3 329.0, 79.9 328.7 Q 79.5 328.4, 78.7 328.4 L 78.2 328.4 L 78.2 327.8 L 78.7 327.8 Q 79.4 327.7, 79.8 327.4 Q 80.1 327.1, 80.1 326.5 Q 80.1 326.1, 79.8 325.8 Q 79.5 325.6, 79.0 325.6 Q 78.4 325.6, 78.1 325.8 Q 77.7 326.0, 77.5 326.5 L 76.8 326.1 Q 77.1 325.6, 77.6 325.2 Q 78.2 324.8, 79.0 324.8 Q 79.9 324.8, 80.5 325.3 Q 81.1 325.7, 81.1 326.5 Q 81.1 327.1, 80.8 327.4 Q 80.5 327.8, 79.9 328.0 " fill="#000000"/>
<path class="note" d="M 19.4 303.0 L 20.2 303.0 L 20.2 303.7 L 19.4 303.7 L 19.4 305.2 L 18.5 305.2 L 18.5 303.7 L 15.1 303.7 L 15.1 303.1 L 18.0 298.6 L 19.4 298.6 L 19.4 303.0 M 16.2 303.0 L 18.5 303.0 L 18.5 299.2 L 16.2 303.0 " fill="#000000"/>
<path class="note" d="M 113.1 231.7 Q 113.7 231.7, 114.2 232.0 Q 114.7 232.2, 114.9 232.7 Q 115.2 233.1, 115.2 233.8 Q 115.2 234.4, 114.9 234.9 Q 114.6 235.4, 114.0 235.7 Q 113.5 235.9, 112.8 235.9 Q 112.2 235.9, 111.7 235.7 Q 111.1 235.5, 110.7 235.1 L 111.3 234.5 Q 111.6 234.8, 112.0 235.0 Q 112.4 235.2, 112.9 235.2 Q 113.5 235.2, 113.9 234.8 Q 114.3 234.4, 114.3 233.8 Q 114.3 233.1, 113.9 232.8 Q 113.5 232.4, 112.8 232.4 Q 112.2 232.4, 111.6 232.7 L 111.1 232.4 L 111.4 229.2 L 114.8 229.2 L 114.7 230.0 L 112.2 230.0 L 112.0 231.9 Q 112.6 231.7, 113.1 231.7 " fill="#000000"/>
<path class="note" d="M 54.7 235.8 Q 55.3 235.8, 55.8 236.1 Q 56.2 236.3, 56.5 236.8 Q 56.8 237.2, 56.8 237.8 Q 56.8 238.5, 56.5 239.0 Q 56.2 239.5, 55.7 239.7 Q 55.2 240.0, 54.5 240.0 Q 53.3 240.0, 52.7 239.2 Q 52.2 238.4, 52.2 236.8 Q 52.2 235.1, 52.9 234.2 Q 53.6 233.2, 55.0 233.2 Q 55.4 233.2, 55.8 233.3 Q 56.2 233.4, 56.5 233.6 L 56.1 234.3 Q 55.6 234.0, 55.0 234.0 Q 54.1 234.0, 53.6 234.6 Q 53.2 235.2, 53.1 236.5 Q 53.4 236.1, 53.9 236.0 Q 54.3 235.8, 54.7 235.8 M 54.5 239.3 Q 54.9 239.3, 55.2 239.1 Q 55.5 238.9, 55.6 238.6 Q 55.8 238.2, 55.8 237.8 Q 55.8 237.2, 55.5 236.9 Q 55.2 236.6, 54.6 236.6 Q 54.2 236.6, 53.8 236.7 Q 53.4 236.9, 53.1 237.2 Q 53.1 238.3, 53.5 238.8 Q 53.8 239.3, 54.5 239.3 " fill="#000000"/>
<path d="M 82.9 394.3 Q 80.8 394.3, 79.7 392.7 Q 78.7 391.2, 78.7 388.5 Q 78.7 385.7, 79.7 384.2 Q 80.8 382.7, 82.9 382.7 Q 85.0 382.7, 86.0 384.2 Q 87.0 385.7, 87.0 388.5 Q 87.0 391.2, 86.0 392.7 Q 84.9 394.3, 82.9 394.3 M 82.9 393.0 Q 84.1 393.0, 84.7 391.9 Q 85.4 390.7, 85.4 388.5 Q 85.4 386.2, 84.7 385.1 Q 84.1 384.0, 82.9 384.0 Q 81.6 384.0, 81.0 385.1 Q 80.3 386.2, 80.3 388.5 Q 80.3 390.7, 81.0 391.9 Q 81.6 393.0, 82.9 393.0 " fill="#000000"/>
<path d="M 88.0 392.5 L 89.6 392.5 L 89.6 394.1 L 88.0 394.1 L 88.0 392.5 " fill="#000000"/>
<path d="M 97.5 390.3 L 98.8 390.3 L 98.8 391.5 L 97.5 391.5 L 97.5 394.1 L 96.0 394.1 L 96.0 391.5 L 90.1 391.5 L 90.1 390.5 L 95.1 382.8 L 97.5 382.8 L 97.5 390.3 M 92.0 390.3 L 96.0 390.3 L 96.0 383.8 L 92.0 390.3 " fill="#000000"/>
<path d="M 105.1 384.1 L 99.1 384.1 L 99.1 382.8 L 106.7 382.8 L 106.7 384.0 L 102.1 394.1 L 100.5 394.1 L 105.1 384.1 " fill="#000000"/>
<path d="M 108.1 392.9 L 110.6 392.9 L 110.6 384.4 L 107.9 385.2 L 107.5 384.3 L 111.0 382.8 L 112.1 382.9 L 112.1 392.9 L 114.3 392.9 L 114.3 394.1 L 108.1 394.1 L 108.1 392.9 " fill="#000000"/>
<path class="bond-0 atom-0 atom-1" d="M 390.9,271.1 L 377.3,283.6" style="fill:none;fill-rule:evenodd;stroke:#000000;stroke-width:2.0px;stroke-linecap:butt;stroke-linejoin:miter;stroke-opacity:1"/>
<path class="bond-0 atom-0 atom-1" d="M 377.3,283.6 L 363.7,296.1" style="fill:none;fill-rule:evenodd;stroke:#FF0000;stroke-width:2.0px;stroke-linecap:butt;stroke-linejoin:miter;stroke-opacity:1"/>
<path class="bond-1 atom-1 atom-2" d="M 349.2,300.5 L 330.5,294.7" style="fill:none;fill-rule:evenodd;stroke:#FF0000;stroke-width:2.0px;stroke-linecap:butt;stroke-linejoin:miter;stroke-opacity:1"/>
<path class="bond-1 atom-1 atom-2" d="M 330.5,294.7 L 311.7,288.8" style="fill:none;fill-rule:evenodd;stroke:#000000;stroke-width:2.0px;stroke-linecap:butt;stroke-linejoin:miter;stroke-opacity:1"/>
<path class="bond-2 atom-2 atom-3" d="M 311.7,288.8 L 277.3,320.6" style="fill:none;fill-rule:evenodd;stroke:#000000;stroke-width:2.0px;stroke-linecap:butt;stroke-linejoin:miter;stroke-opacity:1"/>
<path class="bond-4 atom-2 atom-5" d="M 311.7,288.8 L 307.5,270.0" style="fill:none;fill-rule:evenodd;stroke:#000000;stroke-width:2.0px;stroke-linecap:butt;stroke-linejoin:miter;stroke-opacity:1"/>
<path class="bond-4 atom-2 atom-5" d="M 307.5,270.0 L 303.3,251.2" style="fill:none;fill-rule:evenodd;stroke:#FF0000;stroke-width:2.0px;stroke-linecap:butt;stroke-linejoin:miter;stroke-opacity:1"/>
<path class="bond-3 atom-3 atom-4" d="M 277.3,320.6 L 257.6,314.4" style="fill:none;fill-rule:evenodd;stroke:#000000;stroke-width:2.0px;stroke-linecap:butt;stroke-linejoin:miter;stroke-opacity:1"/>
<path class="bond-3 atom-3 atom-4" d="M 257.6,314.4 L 238.0,308.3" style="fill:none;fill-rule:evenodd;stroke:#FF7F00;stroke-width:2.0px;stroke-linecap:butt;stroke-linejoin:miter;stroke-opacity:1"/>
<path class="bond-5 atom-5 atom-6" d="M 294.2,240.9 L 275.5,235.0" style="fill:none;fill-rule:evenodd;stroke:#FF0000;stroke-width:2.0px;stroke-linecap:butt;stroke-linejoin:miter;stroke-opacity:1"/>
<path class="bond-5 atom-5 atom-6" d="M 275.5,235.0 L 256.8,229.1" style="fill:none;fill-rule:evenodd;stroke:#000000;stroke-width:2.0px;stroke-linecap:butt;stroke-linejoin:miter;stroke-opacity:1"/>
<path class="atom-1" d="M 350.4 302.8 Q 350.4 299.7, 351.9 297.9 Q 353.5 296.1, 356.5 296.1 Q 359.4 296.1, 361.0 297.9 Q 362.5 299.7, 362.5 302.8 Q 362.5 306.1, 360.9 307.9 Q 359.4 309.7, 356.5 309.7 Q 353.5 309.7, 351.9 307.9 Q 350.4 306.1, 350.4 302.8 M 356.5 308.2 Q 358.5 308.2, 359.6 306.9 Q 360.7 305.5, 360.7 302.8 Q 360.7 300.2, 359.6 298.9 Q 358.5 297.6, 356.5 297.6 Q 354.4 297.6, 353.3 298.9 Q 352.2 300.2, 352.2 302.8 Q 352.2 305.5, 353.3 306.9 Q 354.4 308.2, 356.5 308.2 " fill="#FF0000"/>
<path class="atom-4" d="M 209.8 300.0 L 211.6 300.0 L 211.6 305.6 L 218.4 305.6 L 218.4 300.0 L 220.2 300.0 L 220.2 313.2 L 218.4 313.2 L 218.4 307.1 L 211.6 307.1 L 211.6 313.2 L 209.8 313.2 L 209.8 300.0 " fill="#FF7F00"/>
<path class="atom-4" d="M 220.9 312.8 Q 221.2 311.9, 222.0 311.5 Q 222.7 311.0, 223.8 311.0 Q 225.1 311.0, 225.9 311.7 Q 226.6 312.4, 226.6 313.7 Q 226.6 315.0, 225.6 316.2 Q 224.7 317.4, 222.7 318.9 L 226.7 318.9 L 226.7 319.9 L 220.8 319.9 L 220.8 319.0 Q 222.5 317.9, 223.4 317.0 Q 224.4 316.1, 224.9 315.4 Q 225.4 314.6, 225.4 313.8 Q 225.4 312.9, 224.9 312.5 Q 224.5 312.0, 223.8 312.0 Q 223.1 312.0, 222.6 312.3 Q 222.1 312.6, 221.8 313.2 L 220.9 312.8 " fill="#FF7F00"/>
<path class="atom-4" d="M 232.3 300.0 Q 234.5 300.0, 235.7 301.0 Q 236.8 302.0, 236.8 303.9 Q 236.8 305.7, 235.6 306.7 Q 234.5 307.8, 232.3 307.8 L 230.1 307.8 L 230.1 313.2 L 228.3 313.2 L 228.3 300.0 L 232.3 300.0 M 232.3 306.3 Q 233.5 306.3, 234.2 305.7 Q 234.9 305.0, 234.9 303.9 Q 234.9 302.7, 234.2 302.1 Q 233.6 301.5, 232.3 301.5 L 230.1 301.5 L 230.1 306.3 L 232.3 306.3 " fill="#FF7F00"/>
<path class="atom-5" d="M 295.4 243.2 Q 295.4 240.0, 297.0 238.2 Q 298.5 236.4, 301.5 236.4 Q 304.4 236.4, 306.0 238.2 Q 307.6 240.0, 307.6 243.2 Q 307.6 246.4, 306.0 248.2 Q 304.4 250.0, 301.5 250.0 Q 298.6 250.0, 297.0 248.2 Q 295.4 246.4, 295.4 243.2 M 301.5 248.5 Q 303.5 248.5, 304.6 247.2 Q 305.7 245.8, 305.7 243.2 Q 305.7 240.6, 304.6 239.2 Q 303.5 237.9, 301.5 237.9 Q 299.5 237.9, 298.4 239.2 Q 297.3 240.5, 297.3 243.2 Q 297.3 245.8, 298.4 247.2 Q 299.5 248.5, 301.5 248.5 " fill="#FF0000"/>
<path class="note" d="M 385.6 268.8 Q 384.4 268.8, 383.8 267.9 Q 383.2 267.0, 383.2 265.4 Q 383.2 263.8, 383.8 262.9 Q 384.4 262.0, 385.6 262.0 Q 386.8 262.0, 387.4 262.9 Q 388.0 263.8, 388.0 265.4 Q 388.0 267.0, 387.4 267.9 Q 386.8 268.8, 385.6 268.8 M 385.6 268.0 Q 386.3 268.0, 386.7 267.3 Q 387.1 266.7, 387.1 265.4 Q 387.1 264.1, 386.7 263.4 Q 386.3 262.7, 385.6 262.7 Q 384.9 262.7, 384.5 263.4 Q 384.1 264.1, 384.1 265.4 Q 384.1 266.7, 384.5 267.3 Q 384.9 268.0, 385.6 268.0 " fill="#000000"/>
<path class="note" d="M 358.2 320.6 L 359.7 320.6 L 359.7 315.7 L 358.1 316.2 L 357.9 315.6 L 359.9 314.7 L 360.6 314.8 L 360.6 320.6 L 361.9 320.6 L 361.9 321.4 L 358.2 321.4 L 358.2 320.6 " fill="#000000"/>
<path class="note" d="M 311.2 294.4 Q 311.5 293.8, 312.1 293.5 Q 312.6 293.1, 313.4 293.1 Q 314.4 293.1, 315.0 293.6 Q 315.6 294.2, 315.6 295.1 Q 315.6 296.1, 314.8 297.0 Q 314.1 298.0, 312.6 299.1 L 315.7 299.1 L 315.7 299.8 L 311.2 299.8 L 311.2 299.2 Q 312.5 298.3, 313.2 297.6 Q 313.9 297.0, 314.3 296.4 Q 314.6 295.8, 314.6 295.2 Q 314.6 294.6, 314.3 294.2 Q 314.0 293.8, 313.4 293.8 Q 312.9 293.8, 312.6 294.1 Q 312.2 294.3, 311.9 294.8 L 311.2 294.4 " fill="#000000"/>
<path class="note" d="M 279.9 328.0 Q 280.6 328.2, 280.9 328.7 Q 281.2 329.1, 281.2 329.7 Q 281.2 330.3, 280.9 330.7 Q 280.7 331.2, 280.1 331.4 Q 279.6 331.6, 279.0 331.6 Q 278.2 331.6, 277.7 331.4 Q 277.2 331.1, 276.8 330.6 L 277.3 330.1 Q 277.7 330.5, 278.1 330.7 Q 278.4 330.9, 279.0 330.9 Q 279.6 330.9, 279.9 330.6 Q 280.3 330.2, 280.3 329.7 Q 280.3 329.0, 279.9 328.7 Q 279.5 328.4, 278.7 328.4 L 278.2 328.4 L 278.2 327.8 L 278.7 327.8 Q 279.4 327.7, 279.8 327.4 Q 280.1 327.1, 280.1 326.5 Q 280.1 326.1, 279.8 325.8 Q 279.5 325.6, 279.0 325.6 Q 278.4 325.6, 278.1 325.8 Q 277.7 326.0, 277.5 326.5 L 276.8 326.1 Q 277.1 325.6, 277.6 325.2 Q 278.2 324.8, 279.0 324.8 Q 279.9 324.8, 280.5 325.3 Q 281.1 325.7, 281.1 326.5 Q 281.1 327.1, 280.8 327.4 Q 280.5 327.8, 279.9 328.0 " fill="#000000"/>
<path class="note" d="M 219.4 303.0 L 220.2 303.0 L 220.2 303.7 L 219.4 303.7 L 219.4 305.2 L 218.5 305.2 L 218.5 303.7 L 215.1 303.7 L 215.1 303.1 L 218.0 298.6 L 219.4 298.6 L 219.4 303.0 M 216.2 303.0 L 218.5 303.0 L 218.5 299.2 L 216.2 303.0 " fill="#000000"/>
<path class="note" d="M 313.1 231.7 Q 313.7 231.7, 314.2 232.0 Q 314.7 232.2, 314.9 232.7 Q 315.2 233.1, 315.2 233.8 Q 315.2 234.4, 314.9 234.9 Q 314.6 235.4, 314.0 235.7 Q 313.5 235.9, 312.8 235.9 Q 312.2 235.9, 311.7 235.7 Q 311.1 235.5, 310.7 235.1 L 311.3 234.5 Q 311.6 234.8, 312.0 235.0 Q 312.4 235.2, 312.9 235.2 Q 313.5 235.2, 313.9 234.8 Q 314.3 234.4, 314.3 233.8 Q 314.3 233.1, 313.9 232.8 Q 313.5 232.4, 312.8 232.4 Q 312.2 232.4, 311.6 232.7 L 311.1 232.4 L 311.4 229.2 L 314.8 229.2 L 314.7 230.0 L 312.2 230.0 L 312.0 231.9 Q 312.6 231.7, 313.1 231.7 " fill="#000000"/>
<path class="note" d="M 254.7 235.8 Q 255.3 235.8, 255.8 236.1 Q 256.2 236.3, 256.5 236.8 Q 256.8 237.2, 256.8 237.8 Q 256.8 238.5, 256.5 239.0 Q 256.2 239.5, 255.7 239.7 Q 255.2 240.0, 254.5 240.0 Q 253.3 240.0, 252.7 239.2 Q 252.2 238.4, 252.2 236.8 Q 252.2 235.1, 252.9 234.2 Q 253.6 233.2, 255.0 233.2 Q 255.4 233.2, 255.8 233.3 Q 256.2 233.4, 256.5 233.6 L 256.1 234.3 Q 255.6 234.0, 255.0 234.0 Q 254.1 234.0, 253.6 234.6 Q 253.2 235.2, 253.1 236.5 Q 253.4 236.1, 253.9 236.0 Q 254.3 235.8, 254.7 235.8 M 254.5 239.3 Q 254.9 239.3, 255.2 239.1 Q 255.5 238.9, 255.6 238.6 Q 255.8 238.2, 255.8 237.8 Q 255.8 237.2, 255.5 236.9 Q 255.2 236.6, 254.6 236.6 Q 254.2 236.6, 253.8 236.7 Q 253.4 236.9, 253.1 237.2 Q 253.1 238.3, 253.5 238.8 Q 253.8 239.3, 254.5 239.3 " fill="#000000"/>
<path d="M 282.9 394.3 Q 280.8 394.3, 279.7 392.7 Q 278.7 391.2, 278.7 388.5 Q 278.7 385.7, 279.7 384.2 Q 280.8 382.7, 282.9 382.7 Q 285.0 382.7, 286.0 384.2 Q 287.0 385.7, 287.0 388.5 Q 287.0 391.2, 286.0 392.7 Q 284.9 394.3, 282.9 394.3 M 282.9 393.0 Q 284.1 393.0, 284.7 391.9 Q 285.4 390.7, 285.4 388.5 Q 285.4 386.2, 284.7 385.1 Q 284.1 384.0, 282.9 384.0 Q 281.6 384.0, 281.0 385.1 Q 280.3 386.2, 280.3 388.5 Q 280.3 390.7, 281.0 391.9 Q 281.6 393.0, 282.9 393.0 " fill="#000000"/>
<path d="M 288.0 392.5 L 289.6 392.5 L 289.6 394.1 L 288.0 394.1 L 288.0 392.5 " fill="#000000"/>
<path d="M 297.5 390.3 L 298.8 390.3 L 298.8 391.5 L 297.5 391.5 L 297.5 394.1 L 296.0 394.1 L 296.0 391.5 L 290.1 391.5 L 290.1 390.5 L 295.1 382.8 L 297.5 382.8 L 297.5 390.3 M 292.0 390.3 L 296.0 390.3 L 296.0 383.8 L 292.0 390.3 " fill="#000000"/>
<path d="M 305.1 384.1 L 299.1 384.1 L 299.1 382.8 L 306.7 382.8 L 306.7 384.0 L 302.1 394.1 L 300.5 394.1 L 305.1 384.1 " fill="#000000"/>
<path d="M 308.1 392.9 L 310.6 392.9 L 310.6 384.4 L 307.9 385.2 L 307.5 384.3 L 311.0 382.8 L 312.1 382.9 L 312.1 392.9 L 314.3 392.9 L 314.3 394.1 L 308.1 394.1 L 308.1 392.9 " fill="#000000"/>
<path class="bond-0 atom-0 atom-1" d="M 574.2,253.3 L 550.7,293.8" style="fill:none;fill-rule:evenodd;stroke:#000000;stroke-width:2.0px;stroke-linecap:butt;stroke-linejoin:miter;stroke-opacity:1"/>
<path class="bond-1 atom-1 atom-2" d="M 550.7,293.8 L 503.9,293.8" style="fill:none;fill-rule:evenodd;stroke:#000000;stroke-width:2.0px;stroke-linecap:butt;stroke-linejoin:miter;stroke-opacity:1"/>
<path class="bond-2 atom-2 atom-3" d="M 503.9,293.8 L 480.5,334.4" style="fill:none;fill-rule:evenodd;stroke:#000000;stroke-width:2.0px;stroke-linecap:butt;stroke-linejoin:miter;stroke-opacity:1"/>
<path class="bond-3 atom-2 atom-4" d="M 503.9,293.8 L 494.5,277.6" style="fill:none;fill-rule:evenodd;stroke:#000000;stroke-width:2.0px;stroke-linecap:butt;stroke-linejoin:miter;stroke-opacity:1"/>
<path class="bond-3 atom-2 atom-4" d="M 494.5,277.6 L 485.1,261.3" style="fill:none;fill-rule:evenodd;stroke:#FF0000;stroke-width:2.0px;stroke-linecap:butt;stroke-linejoin:miter;stroke-opacity:1"/>
<path class="bond-4 atom-4 atom-5" d="M 473.2,253.3 L 453.4,253.3" style="fill:none;fill-rule:evenodd;stroke:#FF0000;stroke-width:2.0px;stroke-linecap:butt;stroke-linejoin:miter;stroke-opacity:1"/>
<path class="bond-4 atom-4 atom-5" d="M 453.4,253.3 L 433.6,253.3" style="fill:none;fill-rule:evenodd;stroke:#000000;stroke-width:2.0px;stroke-linecap:butt;stroke-linejoin:miter;stroke-opacity:1"/>
<path class="atom-4" d="M 474.4 253.3 Q 474.4 250.1, 476.0 248.3 Q 477.5 246.6, 480.5 246.6 Q 483.4 246.6, 485.0 248.3 Q 486.6 250.1, 486.6 253.3 Q 486.6 256.5, 485.0 258.4 Q 483.4 260.2, 480.5 260.2 Q 477.5 260.2, 476.0 258.4 Q 474.4 256.5, 474.4 253.3 M 480.5 258.7 Q 482.5 258.7, 483.6 257.3 Q 484.7 256.0, 484.7 253.3 Q 484.7 250.7, 483.6 249.4 Q 482.5 248.1, 480.5 248.1 Q 478.4 248.1, 477.3 249.4 Q 476.3 250.7, 476.3 253.3 Q 476.3 256.0, 477.3 257.3 Q 478.4 258.7, 480.5 258.7 " fill="#FF0000"/>
<path class="note" d="M 567.4 252.8 Q 566.2 252.8, 565.6 251.9 Q 565.0 251.0, 565.0 249.4 Q 565.0 247.8, 565.6 246.9 Q 566.2 246.0, 567.4 246.0 Q 568.6 246.0, 569.2 246.9 Q 569.8 247.8, 569.8 249.4 Q 569.8 251.0, 569.2 251.9 Q 568.6 252.8, 567.4 252.8 M 567.4 252.0 Q 568.1 252.0, 568.5 251.4 Q 568.9 250.7, 568.9 249.4 Q 568.9 248.1, 568.5 247.4 Q 568.1 246.8, 567.4 246.8 Q 566.7 246.8, 566.3 247.4 Q 565.9 248.1, 565.9 249.4 Q 565.9 250.7, 566.3 251.4 Q 566.7 252.0, 567.4 252.0 " fill="#000000"/>
<path class="note" d="M 553.0 303.2 L 554.5 303.2 L 554.5 298.2 L 552.9 298.7 L 552.6 298.2 L 554.7 297.3 L 555.3 297.4 L 555.3 303.2 L 556.6 303.2 L 556.6 303.9 L 553.0 303.9 L 553.0 303.2 " fill="#000000"/>
<path class="note" d="M 505.6 298.6 Q 505.8 297.9, 506.4 297.6 Q 507.0 297.2, 507.8 297.2 Q 508.8 297.2, 509.4 297.8 Q 509.9 298.3, 509.9 299.3 Q 509.9 300.3, 509.2 301.2 Q 508.5 302.1, 507.0 303.2 L 510.0 303.2 L 510.0 303.9 L 505.6 303.9 L 505.6 303.3 Q 506.8 302.4, 507.5 301.8 Q 508.3 301.1, 508.6 300.5 Q 509.0 299.9, 509.0 299.3 Q 509.0 298.7, 508.7 298.3 Q 508.3 298.0, 507.8 298.0 Q 507.3 298.0, 506.9 298.2 Q 506.5 298.4, 506.3 298.9 L 505.6 298.6 " fill="#000000"/>
<path class="note" d="M 488.2 338.2 Q 488.8 338.3, 489.1 338.8 Q 489.5 339.2, 489.5 339.8 Q 489.5 340.4, 489.2 340.8 Q 488.9 341.3, 488.4 341.5 Q 487.9 341.7, 487.2 341.7 Q 486.5 341.7, 485.9 341.5 Q 485.4 341.2, 485.0 340.7 L 485.5 340.2 Q 485.9 340.7, 486.3 340.8 Q 486.6 341.0, 487.2 341.0 Q 487.8 341.0, 488.2 340.7 Q 488.5 340.4, 488.5 339.8 Q 488.5 339.2, 488.1 338.9 Q 487.8 338.5, 486.9 338.5 L 486.5 338.5 L 486.5 337.9 L 486.9 337.9 Q 487.6 337.9, 488.0 337.5 Q 488.4 337.2, 488.4 336.6 Q 488.4 336.2, 488.1 336.0 Q 487.7 335.7, 487.2 335.7 Q 486.6 335.7, 486.3 335.9 Q 486.0 336.1, 485.7 336.6 L 485.1 336.2 Q 485.3 335.7, 485.9 335.3 Q 486.4 334.9, 487.2 334.9 Q 488.2 334.9, 488.7 335.4 Q 489.3 335.9, 489.3 336.6 Q 489.3 337.2, 489.0 337.6 Q 488.7 337.9, 488.2 338.2 " fill="#000000"/>
<path class="note" d="M 490.0 240.8 L 490.8 240.8 L 490.8 241.5 L 490.0 241.5 L 490.0 243.1 L 489.2 243.1 L 489.2 241.5 L 485.7 241.5 L 485.7 240.9 L 488.6 236.4 L 490.0 236.4 L 490.0 240.8 M 486.8 240.8 L 489.2 240.8 L 489.2 237.0 L 486.8 240.8 " fill="#000000"/>
<path class="note" d="M 433.8 260.2 Q 434.4 260.2, 434.8 260.5 Q 435.3 260.7, 435.6 261.2 Q 435.9 261.7, 435.9 262.3 Q 435.9 263.0, 435.5 263.5 Q 435.2 264.0, 434.7 264.2 Q 434.1 264.5, 433.5 264.5 Q 432.9 264.5, 432.3 264.2 Q 431.8 264.0, 431.4 263.6 L 431.9 263.0 Q 432.3 263.3, 432.7 263.5 Q 433.1 263.7, 433.5 263.7 Q 434.1 263.7, 434.5 263.3 Q 434.9 263.0, 434.9 262.3 Q 434.9 261.6, 434.5 261.3 Q 434.1 260.9, 433.5 260.9 Q 432.9 260.9, 432.2 261.2 L 431.7 260.9 L 432.0 257.8 L 435.5 257.8 L 435.4 258.5 L 432.8 258.5 L 432.6 260.5 Q 433.2 260.2, 433.8 260.2 " fill="#000000"/>
<path d="M 482.9 394.3 Q 480.8 394.3, 479.7 392.7 Q 478.7 391.2, 478.7 388.5 Q 478.7 385.7, 479.7 384.2 Q 480.8 382.7, 482.9 382.7 Q 485.0 382.7, 486.0 384.2 Q 487.0 385.7, 487.0 388.5 Q 487.0 391.2, 486.0 392.7 Q 484.9 394.3, 482.9 394.3 M 482.9 393.0 Q 484.1 393.0, 484.7 391.9 Q 485.4 390.7, 485.4 388.5 Q 485.4 386.2, 484.7 385.1 Q 484.1 384.0, 482.9 384.0 Q 481.6 384.0, 481.0 385.1 Q 480.3 386.2, 480.3 388.5 Q 480.3 390.7, 481.0 391.9 Q 481.6 393.0, 482.9 393.0 " fill="#000000"/>
<path d="M 488.0 392.5 L 489.6 392.5 L 489.6 394.1 L 488.0 394.1 L 488.0 392.5 " fill="#000000"/>
<path d="M 497.5 390.3 L 498.8 390.3 L 498.8 391.5 L 497.5 391.5 L 497.5 394.1 L 496.0 394.1 L 496.0 391.5 L 490.1 391.5 L 490.1 390.5 L 495.1 382.8 L 497.5 382.8 L 497.5 390.3 M 492.0 390.3 L 496.0 390.3 L 496.0 383.8 L 492.0 390.3 " fill="#000000"/>
<path d="M 505.1 384.1 L 499.1 384.1 L 499.1 382.8 L 506.7 382.8 L 506.7 384.0 L 502.1 394.1 L 500.5 394.1 L 505.1 384.1 " fill="#000000"/>
<path d="M 508.1 392.9 L 510.6 392.9 L 510.6 384.4 L 507.9 385.2 L 507.5 384.3 L 511.0 382.8 L 512.1 382.9 L 512.1 392.9 L 514.3 392.9 L 514.3 394.1 L 508.1 394.1 L 508.1 392.9 " fill="#000000"/>
<path class="bond-0 atom-0 atom-1" d="M 790.9,271.1 L 756.5,302.8" style="fill:none;fill-rule:evenodd;stroke:#000000;stroke-width:2.0px;stroke-linecap:butt;stroke-linejoin:miter;stroke-opacity:1"/>
<path class="bond-1 atom-1 atom-2" d="M 756.5,302.8 L 711.7,288.8" style="fill:none;fill-rule:evenodd;stroke:#000000;stroke-width:2.0px;stroke-linecap:butt;stroke-linejoin:miter;stroke-opacity:1"/>
<path class="bond-2 atom-2 atom-3" d="M 711.7,288.8 L 698.1,301.4" style="fill:none;fill-rule:evenodd;stroke:#000000;stroke-width:2.0px;stroke-linecap:butt;stroke-linejoin:miter;stroke-opacity:1"/>
<path class="bond-2 atom-2 atom-3" d="M 698.1,301.4 L 684.5,313.9" style="fill:none;fill-rule:evenodd;stroke:#FF0000;stroke-width:2.0px;stroke-linecap:butt;stroke-linejoin:miter;stroke-opacity:1"/>
<path class="bond-4 atom-2 atom-5" d="M 711.7,288.8 L 707.5,270.0" style="fill:none;fill-rule:evenodd;stroke:#000000;stroke-width:2.0px;stroke-linecap:butt;stroke-linejoin:miter;stroke-opacity:1"/>
<path class="bond-4 atom-2 atom-5" d="M 707.5,270.0 L 703.3,251.2" style="fill:none;fill-rule:evenodd;stroke:#FF0000;stroke-width:2.0px;stroke-linecap:butt;stroke-linejoin:miter;stroke-opacity:1"/>
<path class="bond-3 atom-3 atom-4" d="M 670.0,318.3 L 654.3,313.4" style="fill:none;fill-rule:evenodd;stroke:#FF0000;stroke-width:2.0px;stroke-linecap:butt;stroke-linejoin:miter;stroke-opacity:1"/>
<path class="bond-3 atom-3 atom-4" d="M 654.3,313.4 L 638.6,308.5" style="fill:none;fill-rule:evenodd;stroke:#0000FF;stroke-width:2.0px;stroke-linecap:butt;stroke-linejoin:miter;stroke-opacity:1"/>
<path class="bond-5 atom-5 atom-6" d="M 694.2,240.9 L 678.5,235.9" style="fill:none;fill-rule:evenodd;stroke:#FF0000;stroke-width:2.0px;stroke-linecap:butt;stroke-linejoin:miter;stroke-opacity:1"/>
<path class="bond-5 atom-5 atom-6" d="M 678.5,235.9 L 662.8,231.0" style="fill:none;fill-rule:evenodd;stroke:#0000FF;stroke-width:2.0px;stroke-linecap:butt;stroke-linejoin:miter;stroke-opacity:1"/>
<path class="atom-3" d="M 671.2 320.6 Q 671.2 317.4, 672.8 315.6 Q 674.3 313.9, 677.3 313.9 Q 680.2 313.9, 681.8 315.6 Q 683.4 317.4, 683.4 320.6 Q 683.4 323.8, 681.8 325.7 Q 680.2 327.5, 677.3 327.5 Q 674.4 327.5, 672.8 325.7 Q 671.2 323.8, 671.2 320.6 M 677.3 326.0 Q 679.3 326.0, 680.4 324.6 Q 681.5 323.3, 681.5 320.6 Q 681.5 318.0, 680.4 316.7 Q 679.3 315.4, 677.3 315.4 Q 675.3 315.4, 674.2 316.7 Q 673.1 318.0, 673.1 320.6 Q 673.1 323.3, 674.2 324.6 Q 675.3 326.0, 677.3 326.0 " fill="#FF0000"/>
<path class="atom-4" d="M 609.1 300.0 L 610.9 300.0 L 610.9 305.6 L 617.7 305.6 L 617.7 300.0 L 619.5 300.0 L 619.5 313.2 L 617.7 313.2 L 617.7 307.1 L 610.9 307.1 L 610.9 313.2 L 609.1 313.2 L 609.1 300.0 " fill="#0000FF"/>
<path class="atom-4" d="M 620.1 312.8 Q 620.4 311.9, 621.2 311.5 Q 622.0 311.0, 623.0 311.0 Q 624.4 311.0, 625.1 311.7 Q 625.8 312.4, 625.8 313.7 Q 625.8 315.0, 624.9 316.2 Q 623.9 317.4, 621.9 318.9 L 626.0 318.9 L 626.0 319.9 L 620.1 319.9 L 620.1 319.0 Q 621.7 317.9, 622.7 317.0 Q 623.7 316.1, 624.1 315.4 Q 624.6 314.6, 624.6 313.8 Q 624.6 312.9, 624.2 312.5 Q 623.8 312.0, 623.0 312.0 Q 622.3 312.0, 621.9 312.3 Q 621.4 312.6, 621.1 313.2 L 620.1 312.8 " fill="#0000FF"/>
<path class="atom-4" d="M 629.6 300.0 L 634.0 307.0 Q 634.4 307.7, 635.1 308.9 Q 635.8 310.2, 635.8 310.3 L 635.8 300.0 L 637.6 300.0 L 637.6 313.2 L 635.8 313.2 L 631.1 305.5 Q 630.6 304.6, 630.0 303.6 Q 629.4 302.6, 629.3 302.3 L 629.3 313.2 L 627.5 313.2 L 627.5 300.0 L 629.6 300.0 " fill="#0000FF"/>
<path class="atom-5" d="M 695.4 243.2 Q 695.4 240.0, 697.0 238.2 Q 698.5 236.4, 701.5 236.4 Q 704.4 236.4, 706.0 238.2 Q 707.6 240.0, 707.6 243.2 Q 707.6 246.4, 706.0 248.2 Q 704.4 250.0, 701.5 250.0 Q 698.6 250.0, 697.0 248.2 Q 695.4 246.4, 695.4 243.2 M 701.5 248.5 Q 703.5 248.5, 704.6 247.2 Q 705.7 245.8, 705.7 243.2 Q 705.7 240.6, 704.6 239.2 Q 703.5 237.9, 701.5 237.9 Q 699.5 237.9, 698.4 239.2 Q 697.3 240.5, 697.3 243.2 Q 697.3 245.8, 698.4 247.2 Q 699.5 248.5, 701.5 248.5 " fill="#FF0000"/>
<path class="atom-6" d="M 633.3 222.5 L 635.1 222.5 L 635.1 228.2 L 641.9 228.2 L 641.9 222.5 L 643.7 222.5 L 643.7 235.8 L 641.9 235.8 L 641.9 229.7 L 635.1 229.7 L 635.1 235.8 L 633.3 235.8 L 633.3 222.5 " fill="#0000FF"/>
<path class="atom-6" d="M 644.3 235.3 Q 644.6 234.5, 645.4 234.0 Q 646.2 233.6, 647.2 233.6 Q 648.6 233.6, 649.3 234.3 Q 650.0 235.0, 650.0 236.3 Q 650.0 237.6, 649.1 238.8 Q 648.1 240.0, 646.1 241.4 L 650.2 241.4 L 650.2 242.4 L 644.3 242.4 L 644.3 241.6 Q 645.9 240.4, 646.9 239.6 Q 647.9 238.7, 648.3 237.9 Q 648.8 237.1, 648.8 236.3 Q 648.8 235.5, 648.4 235.0 Q 648.0 234.6, 647.2 234.6 Q 646.5 234.6, 646.1 234.8 Q 645.6 235.1, 645.3 235.7 L 644.3 235.3 " fill="#0000FF"/>
<path class="atom-6" d="M 653.8 222.5 L 658.2 229.5 Q 658.6 230.2, 659.3 231.5 Q 660.0 232.7, 660.0 232.8 L 660.0 222.5 L 661.8 222.5 L 661.8 235.8 L 660.0 235.8 L 655.3 228.1 Q 654.8 227.2, 654.2 226.2 Q 653.6 225.1, 653.5 224.8 L 653.5 235.8 L 651.7 235.8 L 651.7 222.5 L 653.8 222.5 " fill="#0000FF"/>
<path class="note" d="M 785.6 268.8 Q 784.4 268.8, 783.8 267.9 Q 783.2 267.0, 783.2 265.4 Q 783.2 263.8, 783.8 262.9 Q 784.4 262.0, 785.6 262.0 Q 786.8 262.0, 787.4 262.9 Q 788.0 263.8, 788.0 265.4 Q 788.0 267.0, 787.4 267.9 Q 786.8 268.8, 785.6 268.8 M 785.6 268.0 Q 786.3 268.0, 786.7 267.3 Q 787.1 266.7, 787.1 265.4 Q 787.1 264.1, 786.7 263.4 Q 786.3 262.7, 785.6 262.7 Q 784.9 262.7, 784.5 263.4 Q 784.1 264.1, 784.1 265.4 Q 784.1 266.7, 784.5 267.3 Q 784.9 268.0, 785.6 268.0 " fill="#000000"/>
<path class="note" d="M 756.5 313.0 L 758.0 313.0 L 758.0 308.1 L 756.4 308.6 L 756.2 308.0 L 758.2 307.1 L 758.9 307.2 L 758.9 313.0 L 760.2 313.0 L 760.2 313.8 L 756.5 313.8 L 756.5 313.0 " fill="#000000"/>
<path class="note" d="M 711.2 294.4 Q 711.5 293.8, 712.1 293.5 Q 712.6 293.1, 713.4 293.1 Q 714.4 293.1, 715.0 293.6 Q 715.6 294.2, 715.6 295.1 Q 715.6 296.1, 714.8 297.0 Q 714.1 298.0, 712.6 299.1 L 715.7 299.1 L 715.7 299.8 L 711.2 299.8 L 711.2 299.2 Q 712.5 298.3, 713.2 297.6 Q 713.9 297.0, 714.3 296.4 Q 714.6 295.8, 714.6 295.2 Q 714.6 294.6, 714.3 294.2 Q 714.0 293.8, 713.4 293.8 Q 712.9 293.8, 712.6 294.1 Q 712.2 294.3, 711.9 294.8 L 711.2 294.4 " fill="#000000"/>
<path class="note" d="M 681.7 335.7 Q 682.3 335.8, 682.6 336.3 Q 682.9 336.7, 682.9 337.3 Q 682.9 337.9, 682.7 338.3 Q 682.4 338.8, 681.9 339.0 Q 681.3 339.2, 680.7 339.2 Q 680.0 339.2, 679.4 339.0 Q 678.9 338.8, 678.5 338.2 L 679.0 337.7 Q 679.4 338.2, 679.8 338.3 Q 680.1 338.5, 680.7 338.5 Q 681.3 338.5, 681.6 338.2 Q 682.0 337.9, 682.0 337.3 Q 682.0 336.7, 681.6 336.4 Q 681.2 336.0, 680.4 336.0 L 679.9 336.0 L 679.9 335.4 L 680.4 335.4 Q 681.1 335.4, 681.5 335.1 Q 681.9 334.7, 681.9 334.1 Q 681.9 333.7, 681.5 333.5 Q 681.2 333.2, 680.7 333.2 Q 680.1 333.2, 679.8 333.4 Q 679.4 333.6, 679.2 334.1 L 678.5 333.7 Q 678.8 333.2, 679.3 332.8 Q 679.9 332.4, 680.7 332.4 Q 681.6 332.4, 682.2 332.9 Q 682.8 333.4, 682.8 334.1 Q 682.8 334.7, 682.5 335.1 Q 682.2 335.4, 681.7 335.7 " fill="#000000"/>
<path class="note" d="M 619.4 303.0 L 620.2 303.0 L 620.2 303.7 L 619.4 303.7 L 619.4 305.2 L 618.5 305.2 L 618.5 303.7 L 615.1 303.7 L 615.1 303.1 L 618.0 298.6 L 619.4 298.6 L 619.4 303.0 M 616.2 303.0 L 618.5 303.0 L 618.5 299.2 L 616.2 303.0 " fill="#000000"/>
<path class="note" d="M 713.1 231.7 Q 713.7 231.7, 714.2 232.0 Q 714.7 232.2, 714.9 232.7 Q 715.2 233.1, 715.2 233.8 Q 715.2 234.4, 714.9 234.9 Q 714.6 235.4, 714.0 235.7 Q 713.5 235.9, 712.8 235.9 Q 712.2 235.9, 711.7 235.7 Q 711.1 235.5, 710.7 235.1 L 711.3 234.5 Q 711.6 234.8, 712.0 235.0 Q 712.4 235.2, 712.9 235.2 Q 713.5 235.2, 713.9 234.8 Q 714.3 234.4, 714.3 233.8 Q 714.3 233.1, 713.9 232.8 Q 713.5 232.4, 712.8 232.4 Q 712.2 232.4, 711.6 232.7 L 711.1 232.4 L 711.4 229.2 L 714.8 229.2 L 714.7 230.0 L 712.2 230.0 L 712.0 231.9 Q 712.6 231.7, 713.1 231.7 " fill="#000000"/>
<path class="note" d="M 642.2 223.7 Q 642.8 223.7, 643.2 224.0 Q 643.7 224.2, 643.9 224.7 Q 644.2 225.1, 644.2 225.7 Q 644.2 226.4, 643.9 226.9 Q 643.6 227.4, 643.1 227.6 Q 642.6 227.9, 641.9 227.9 Q 640.8 227.9, 640.2 227.1 Q 639.6 226.3, 639.6 224.7 Q 639.6 223.0, 640.3 222.1 Q 641.0 221.1, 642.5 221.1 Q 642.9 221.1, 643.2 221.2 Q 643.6 221.3, 643.9 221.5 L 643.5 222.1 Q 643.1 221.9, 642.5 221.9 Q 641.5 221.9, 641.1 222.5 Q 640.6 223.1, 640.5 224.3 Q 640.9 224.0, 641.3 223.9 Q 641.7 223.7, 642.2 223.7 M 642.0 227.2 Q 642.3 227.2, 642.6 227.0 Q 642.9 226.8, 643.1 226.4 Q 643.2 226.1, 643.2 225.7 Q 643.2 225.1, 642.9 224.8 Q 642.6 224.5, 642.0 224.5 Q 641.6 224.5, 641.2 224.6 Q 640.8 224.8, 640.5 225.1 Q 640.6 226.2, 640.9 226.7 Q 641.3 227.2, 642.0 227.2 " fill="#000000"/>
<path d="M 682.9 394.3 Q 680.8 394.3, 679.7 392.7 Q 678.7 391.2, 678.7 388.5 Q 678.7 385.7, 679.7 384.2 Q 680.8 382.7, 682.9 382.7 Q 685.0 382.7, 686.0 384.2 Q 687.0 385.7, 687.0 388.5 Q 687.0 391.2, 686.0 392.7 Q 684.9 394.3, 682.9 394.3 M 682.9 393.0 Q 684.1 393.0, 684.7 391.9 Q 685.4 390.7, 685.4 388.5 Q 685.4 386.2, 684.7 385.1 Q 684.1 384.0, 682.9 384.0 Q 681.6 384.0, 681.0 385.1 Q 680.3 386.2, 680.3 388.5 Q 680.3 390.7, 681.0 391.9 Q 681.6 393.0, 682.9 393.0 " fill="#000000"/>
<path d="M 688.0 392.5 L 689.6 392.5 L 689.6 394.1 L 688.0 394.1 L 688.0 392.5 " fill="#000000"/>
<path d="M 697.5 390.3 L 698.8 390.3 L 698.8 391.5 L 697.5 391.5 L 697.5 394.1 L 696.0 394.1 L 696.0 391.5 L 690.1 391.5 L 690.1 390.5 L 695.1 382.8 L 697.5 382.8 L 697.5 390.3 M 692.0 390.3 L 696.0 390.3 L 696.0 383.8 L 692.0 390.3 " fill="#000000"/>
<path d="M 705.1 384.1 L 699.1 384.1 L 699.1 382.8 L 706.7 382.8 L 706.7 384.0 L 702.1 394.1 L 700.5 394.1 L 705.1 384.1 " fill="#000000"/>
<path d="M 708.1 392.9 L 710.6 392.9 L 710.6 384.4 L 707.9 385.2 L 707.5 384.3 L 711.0 382.8 L 712.1 382.9 L 712.1 392.9 L 714.3 392.9 L 714.3 394.1 L 708.1 394.1 L 708.1 392.9 " fill="#000000"/>
<path class="bond-0 atom-0 atom-1" d="M 190.9,471.1 L 177.3,483.6" style="fill:none;fill-rule:evenodd;stroke:#000000;stroke-width:2.0px;stroke-linecap:butt;stroke-linejoin:miter;stroke-opacity:1"/>
<path class="bond-0 atom-0 atom-1" d="M 177.3,483.6 L 163.7,496.1" style="fill:none;fill-rule:evenodd;stroke:#FF0000;stroke-width:2.0px;stroke-linecap:butt;stroke-linejoin:miter;stroke-opacity:1"/>
<path class="bond-1 atom-1 atom-2" d="M 149.2,500.5 L 130.5,494.7" style="fill:none;fill-rule:evenodd;stroke:#FF0000;stroke-width:2.0px;stroke-linecap:butt;stroke-linejoin:miter;stroke-opacity:1"/>
<path class="bond-1 atom-1 atom-2" d="M 130.5,494.7 L 111.7,488.8" style="fill:none;fill-rule:evenodd;stroke:#000000;stroke-width:2.0px;stroke-linecap:butt;stroke-linejoin:miter;stroke-opacity:1"/>
<path class="bond-2 atom-2 atom-3" d="M 111.7,488.8 L 77.3,520.6" style="fill:none;fill-rule:evenodd;stroke:#000000;stroke-width:2.0px;stroke-linecap:butt;stroke-linejoin:miter;stroke-opacity:1"/>
<path class="bond-4 atom-2 atom-5" d="M 111.7,488.8 L 107.5,470.0" style="fill:none;fill-rule:evenodd;stroke:#000000;stroke-width:2.0px;stroke-linecap:butt;stroke-linejoin:miter;stroke-opacity:1"/>
<path class="bond-4 atom-2 atom-5" d="M 107.5,470.0 L 103.3,451.2" style="fill:none;fill-rule:evenodd;stroke:#FF0000;stroke-width:2.0px;stroke-linecap:butt;stroke-linejoin:miter;stroke-opacity:1"/>
<path class="bond-3 atom-3 atom-4" d="M 77.3,520.6 L 55.9,513.9" style="fill:none;fill-rule:evenodd;stroke:#000000;stroke-width:2.0px;stroke-linecap:butt;stroke-linejoin:miter;stroke-opacity:1"/>
<path class="bond-3 atom-3 atom-4" d="M 55.9,513.9 L 34.6,507.2" style="fill:none;fill-rule:evenodd;stroke:#00CC00;stroke-width:2.0px;stroke-linecap:butt;stroke-linejoin:miter;stroke-opacity:1"/>
<path class="bond-5 atom-5 atom-6" d="M 94.2,440.9 L 75.5,435.0" style="fill:none;fill-rule:evenodd;stroke:#FF0000;stroke-width:2.0px;stroke-linecap:butt;stroke-linejoin:miter;stroke-opacity:1"/>
<path class="bond-5 atom-5 atom-6" d="M 75.5,435.0 L 56.8,429.1" style="fill:none;fill-rule:evenodd;stroke:#000000;stroke-width:2.0px;stroke-linecap:butt;stroke-linejoin:miter;stroke-opacity:1"/>
<path class="atom-1" d="M 150.4 502.8 Q 150.4 499.7, 151.9 497.9 Q 153.5 496.1, 156.5 496.1 Q 159.4 496.1, 161.0 497.9 Q 162.5 499.7, 162.5 502.8 Q 162.5 506.1, 160.9 507.9 Q 159.4 509.7, 156.5 509.7 Q 153.5 509.7, 151.9 507.9 Q 150.4 506.1, 150.4 502.8 M 156.5 508.2 Q 158.5 508.2, 159.6 506.9 Q 160.7 505.5, 160.7 502.8 Q 160.7 500.2, 159.6 498.9 Q 158.5 497.6, 156.5 497.6 Q 154.4 497.6, 153.3 498.9 Q 152.2 500.2, 152.2 502.8 Q 152.2 505.5, 153.3 506.9 Q 154.4 508.2, 156.5 508.2 " fill="#FF0000"/>
<path class="atom-4" d="M 19.9 507.0 Q 19.9 503.8, 21.4 502.0 Q 23.0 500.3, 25.9 500.3 Q 28.6 500.3, 30.1 502.2 L 28.9 503.2 Q 27.8 501.8, 25.9 501.8 Q 23.9 501.8, 22.8 503.2 Q 21.8 504.5, 21.8 507.0 Q 21.8 509.7, 22.9 511.0 Q 24.0 512.4, 26.1 512.4 Q 27.6 512.4, 29.3 511.5 L 29.8 512.9 Q 29.1 513.3, 28.1 513.6 Q 27.0 513.9, 25.8 513.9 Q 23.0 513.9, 21.4 512.1 Q 19.9 510.3, 19.9 507.0 " fill="#00CC00"/>
<path class="atom-4" d="M 31.7 499.5 L 33.4 499.5 L 33.4 513.7 L 31.7 513.7 L 31.7 499.5 " fill="#00CC00"/>
<path class="atom-5" d="M 95.4 443.2 Q 95.4 440.0, 97.0 438.2 Q 98.5 436.4, 101.5 436.4 Q 104.4 436.4, 106.0 438.2 Q 107.6 440.0, 107.6 443.2 Q 107.6 446.4, 106.0 448.2 Q 104.4 450.0, 101.5 450.0 Q 98.6 450.0, 97.0 448.2 Q 95.4 446.4, 95.4 443.2 M 101.5 448.5 Q 103.5 448.5, 104.6 447.2 Q 105.7 445.8, 105.7 443.2 Q 105.7 440.6, 104.6 439.2 Q 103.5 437.9, 101.5 437.9 Q 99.5 437.9, 98.4 439.2 Q 97.3 440.5, 97.3 443.2 Q 97.3 445.8, 98.4 447.2 Q 99.5 448.5, 101.5 448.5 " fill="#FF0000"/>
<path class="note" d="M 185.6 468.8 Q 184.4 468.8, 183.8 467.9 Q 183.2 467.0, 183.2 465.4 Q 183.2 463.8, 183.8 462.9 Q 184.4 462.0, 185.6 462.0 Q 186.8 462.0, 187.4 462.9 Q 188.0 463.8, 188.0 465.4 Q 188.0 467.0, 187.4 467.9 Q 186.8 468.8, 185.6 468.8 M 185.6 468.0 Q 186.3 468.0, 186.7 467.3 Q 187.1 466.7, 187.1 465.4 Q 187.1 464.1, 186.7 463.4 Q 186.3 462.7, 185.6 462.7 Q 184.9 462.7, 184.5 463.4 Q 184.1 464.1, 184.1 465.4 Q 184.1 466.7, 184.5 467.3 Q 184.9 468.0, 185.6 468.0 " fill="#000000"/>
<path class="note" d="M 158.2 520.6 L 159.7 520.6 L 159.7 515.7 L 158.1 516.2 L 157.9 515.6 L 159.9 514.7 L 160.6 514.8 L 160.6 520.6 L 161.9 520.6 L 161.9 521.4 L 158.2 521.4 L 158.2 520.6 " fill="#000000"/>
<path class="note" d="M 111.2 494.4 Q 111.5 493.8, 112.1 493.5 Q 112.6 493.1, 113.4 493.1 Q 114.4 493.1, 115.0 493.6 Q 115.6 494.2, 115.6 495.1 Q 115.6 496.1, 114.8 497.0 Q 114.1 498.0, 112.6 499.1 L 115.7 499.1 L 115.7 499.8 L 111.2 499.8 L 111.2 499.2 Q 112.5 498.3, 113.2 497.6 Q 113.9 497.0, 114.3 496.4 Q 114.6 495.8, 114.6 495.2 Q 114.6 494.6, 114.3 494.2 Q 114.0 493.8, 113.4 493.8 Q 112.9 493.8, 112.6 494.1 Q 112.2 494.3, 111.9 494.8 L 111.2 494.4 " fill="#000000"/>
<path class="note" d="M 79.9 528.0 Q 80.6 528.2, 80.9 528.7 Q 81.2 529.1, 81.2 529.7 Q 81.2 530.3, 80.9 530.7 Q 80.7 531.2, 80.1 531.4 Q 79.6 531.6, 79.0 531.6 Q 78.2 531.6, 77.7 531.4 Q 77.2 531.1, 76.8 530.6 L 77.3 530.1 Q 77.7 530.5, 78.1 530.7 Q 78.4 530.9, 79.0 530.9 Q 79.6 530.9, 79.9 530.6 Q 80.3 530.2, 80.3 529.7 Q 80.3 529.0, 79.9 528.7 Q 79.5 528.4, 78.7 528.4 L 78.2 528.4 L 78.2 527.8 L 78.7 527.8 Q 79.4 527.7, 79.8 527.4 Q 80.1 527.1, 80.1 526.5 Q 80.1 526.1, 79.8 525.8 Q 79.5 525.6, 79.0 525.6 Q 78.4 525.6, 78.1 525.8 Q 77.7 526.0, 77.5 526.5 L 76.8 526.1 Q 77.1 525.6, 77.6 525.2 Q 78.2 524.8, 79.0 524.8 Q 79.9 524.8, 80.5 525.3 Q 81.1 525.7, 81.1 526.5 Q 81.1 527.1, 80.8 527.4 Q 80.5 527.8, 79.9 528.0 " fill="#000000"/>
<path class="note" d="M 19.4 503.0 L 20.2 503.0 L 20.2 503.7 L 19.4 503.7 L 19.4 505.2 L 18.5 505.2 L 18.5 503.7 L 15.1 503.7 L 15.1 503.1 L 18.0 498.6 L 19.4 498.6 L 19.4 503.0 M 16.2 503.0 L 18.5 503.0 L 18.5 499.2 L 16.2 503.0 " fill="#000000"/>
<path class="note" d="M 113.1 431.7 Q 113.7 431.7, 114.2 432.0 Q 114.7 432.2, 114.9 432.7 Q 115.2 433.1, 115.2 433.8 Q 115.2 434.4, 114.9 434.9 Q 114.6 435.4, 114.0 435.7 Q 113.5 435.9, 112.8 435.9 Q 112.2 435.9, 111.7 435.7 Q 111.1 435.5, 110.7 435.1 L 111.3 434.5 Q 111.6 434.8, 112.0 435.0 Q 112.4 435.2, 112.9 435.2 Q 113.5 435.2, 113.9 434.8 Q 114.3 434.4, 114.3 433.8 Q 114.3 433.1, 113.9 432.8 Q 113.5 432.4, 112.8 432.4 Q 112.2 432.4, 111.6 432.7 L 111.1 432.4 L 111.4 429.2 L 114.8 429.2 L 114.7 430.0 L 112.2 430.0 L 112.0 431.9 Q 112.6 431.7, 113.1 431.7 " fill="#000000"/>
<path class="note" d="M 54.7 435.8 Q 55.3 435.8, 55.8 436.1 Q 56.2 436.3, 56.5 436.8 Q 56.8 437.2, 56.8 437.8 Q 56.8 438.5, 56.5 439.0 Q 56.2 439.5, 55.7 439.7 Q 55.2 440.0, 54.5 440.0 Q 53.3 440.0, 52.7 439.2 Q 52.2 438.4, 52.2 436.8 Q 52.2 435.1, 52.9 434.2 Q 53.6 433.2, 55.0 433.2 Q 55.4 433.2, 55.8 433.3 Q 56.2 433.4, 56.5 433.6 L 56.1 434.3 Q 55.6 434.0, 55.0 434.0 Q 54.1 434.0, 53.6 434.6 Q 53.2 435.2, 53.1 436.5 Q 53.4 436.1, 53.9 436.0 Q 54.3 435.8, 54.7 435.8 M 54.5 439.3 Q 54.9 439.3, 55.2 439.1 Q 55.5 438.9, 55.6 438.6 Q 55.8 438.2, 55.8 437.8 Q 55.8 437.2, 55.5 436.9 Q 55.2 436.6, 54.6 436.6 Q 54.2 436.6, 53.8 436.7 Q 53.4 436.9, 53.1 437.2 Q 53.1 438.3, 53.5 438.8 Q 53.8 439.3, 54.5 439.3 " fill="#000000"/>
<path d="M 82.9 594.3 Q 80.8 594.3, 79.7 592.7 Q 78.7 591.2, 78.7 588.5 Q 78.7 585.7, 79.7 584.2 Q 80.8 582.7, 82.9 582.7 Q 85.0 582.7, 86.0 584.2 Q 87.0 585.7, 87.0 588.5 Q 87.0 591.2, 86.0 592.7 Q 84.9 594.3, 82.9 594.3 M 82.9 593.0 Q 84.1 593.0, 84.7 591.9 Q 85.4 590.7, 85.4 588.5 Q 85.4 586.2, 84.7 585.1 Q 84.1 584.0, 82.9 584.0 Q 81.6 584.0, 81.0 585.1 Q 80.3 586.2, 80.3 588.5 Q 80.3 590.7, 81.0 591.9 Q 81.6 593.0, 82.9 593.0 " fill="#000000"/>
<path d="M 88.0 592.5 L 89.6 592.5 L 89.6 594.1 L 88.0 594.1 L 88.0 592.5 " fill="#000000"/>
<path d="M 97.5 590.3 L 98.8 590.3 L 98.8 591.5 L 97.5 591.5 L 97.5 594.1 L 96.0 594.1 L 96.0 591.5 L 90.1 591.5 L 90.1 590.5 L 95.1 582.8 L 97.5 582.8 L 97.5 590.3 M 92.0 590.3 L 96.0 590.3 L 96.0 583.8 L 92.0 590.3 " fill="#000000"/>
<path d="M 105.1 584.1 L 99.1 584.1 L 99.1 582.8 L 106.7 582.8 L 106.7 584.0 L 102.1 594.1 L 100.5 594.1 L 105.1 584.1 " fill="#000000"/>
<path d="M 108.1 592.9 L 110.6 592.9 L 110.6 584.4 L 107.9 585.2 L 107.5 584.3 L 111.0 582.8 L 112.1 582.9 L 112.1 592.9 L 114.3 592.9 L 114.3 594.1 L 108.1 594.1 L 108.1 592.9 " fill="#000000"/>
<path class="bond-0 atom-0 atom-1" d="M 390.9,471.1 L 377.3,483.6" style="fill:none;fill-rule:evenodd;stroke:#000000;stroke-width:2.0px;stroke-linecap:butt;stroke-linejoin:miter;stroke-opacity:1"/>
<path class="bond-0 atom-0 atom-1" d="M 377.3,483.6 L 363.7,496.1" style="fill:none;fill-rule:evenodd;stroke:#FF0000;stroke-width:2.0px;stroke-linecap:butt;stroke-linejoin:miter;stroke-opacity:1"/>
<path class="bond-1 atom-1 atom-2" d="M 349.2,500.5 L 330.5,494.7" style="fill:none;fill-rule:evenodd;stroke:#FF0000;stroke-width:2.0px;stroke-linecap:butt;stroke-linejoin:miter;stroke-opacity:1"/>
<path class="bond-1 atom-1 atom-2" d="M 330.5,494.7 L 311.7,488.8" style="fill:none;fill-rule:evenodd;stroke:#000000;stroke-width:2.0px;stroke-linecap:butt;stroke-linejoin:miter;stroke-opacity:1"/>
<path class="bond-2 atom-2 atom-3" d="M 311.7,488.8 L 277.3,520.6" style="fill:none;fill-rule:evenodd;stroke:#000000;stroke-width:2.0px;stroke-linecap:butt;stroke-linejoin:miter;stroke-opacity:1"/>
<path class="bond-4 atom-2 atom-5" d="M 311.7,488.8 L 307.5,470.0" style="fill:none;fill-rule:evenodd;stroke:#000000;stroke-width:2.0px;stroke-linecap:butt;stroke-linejoin:miter;stroke-opacity:1"/>
<path class="bond-4 atom-2 atom-5" d="M 307.5,470.0 L 303.3,451.2" style="fill:none;fill-rule:evenodd;stroke:#FF0000;stroke-width:2.0px;stroke-linecap:butt;stroke-linejoin:miter;stroke-opacity:1"/>
<path class="bond-3 atom-3 atom-4" d="M 277.3,520.6 L 258.0,514.5" style="fill:none;fill-rule:evenodd;stroke:#000000;stroke-width:2.0px;stroke-linecap:butt;stroke-linejoin:miter;stroke-opacity:1"/>
<path class="bond-3 atom-3 atom-4" d="M 258.0,514.5 L 238.8,508.5" style="fill:none;fill-rule:evenodd;stroke:#0000FF;stroke-width:2.0px;stroke-linecap:butt;stroke-linejoin:miter;stroke-opacity:1"/>
<path class="bond-5 atom-5 atom-6" d="M 294.2,440.9 L 275.5,435.0" style="fill:none;fill-rule:evenodd;stroke:#FF0000;stroke-width:2.0px;stroke-linecap:butt;stroke-linejoin:miter;stroke-opacity:1"/>
<path class="bond-5 atom-5 atom-6" d="M 275.5,435.0 L 256.8,429.1" style="fill:none;fill-rule:evenodd;stroke:#000000;stroke-width:2.0px;stroke-linecap:butt;stroke-linejoin:miter;stroke-opacity:1"/>
<path class="atom-1" d="M 350.4 502.8 Q 350.4 499.7, 351.9 497.9 Q 353.5 496.1, 356.5 496.1 Q 359.4 496.1, 361.0 497.9 Q 362.5 499.7, 362.5 502.8 Q 362.5 506.1, 360.9 507.9 Q 359.4 509.7, 356.5 509.7 Q 353.5 509.7, 351.9 507.9 Q 350.4 506.1, 350.4 502.8 M 356.5 508.2 Q 358.5 508.2, 359.6 506.9 Q 360.7 505.5, 360.7 502.8 Q 360.7 500.2, 359.6 498.9 Q 358.5 497.6, 356.5 497.6 Q 354.4 497.6, 353.3 498.9 Q 352.2 500.2, 352.2 502.8 Q 352.2 505.5, 353.3 506.9 Q 354.4 508.2, 356.5 508.2 " fill="#FF0000"/>
<path class="atom-4" d="M 209.2 500.0 L 211.0 500.0 L 211.0 505.6 L 217.8 505.6 L 217.8 500.0 L 219.6 500.0 L 219.6 513.2 L 217.8 513.2 L 217.8 507.1 L 211.0 507.1 L 211.0 513.2 L 209.2 513.2 L 209.2 500.0 " fill="#0000FF"/>
<path class="atom-4" d="M 224.3 515.2 Q 225.2 515.5, 225.6 516.0 Q 226.0 516.6, 226.0 517.5 Q 226.0 518.2, 225.6 518.8 Q 225.2 519.3, 224.6 519.7 Q 223.9 520.0, 223.0 520.0 Q 222.1 520.0, 221.4 519.7 Q 220.7 519.3, 220.1 518.7 L 220.8 517.9 Q 221.4 518.5, 221.8 518.8 Q 222.3 519.0, 223.0 519.0 Q 223.8 519.0, 224.3 518.6 Q 224.8 518.1, 224.8 517.4 Q 224.8 516.6, 224.2 516.2 Q 223.8 515.7, 222.7 515.7 L 222.0 515.7 L 222.0 514.9 L 222.6 514.9 Q 223.6 514.8, 224.1 514.4 Q 224.6 514.0, 224.6 513.2 Q 224.6 512.7, 224.1 512.3 Q 223.7 512.0, 223.0 512.0 Q 222.3 512.0, 221.8 512.2 Q 221.4 512.5, 221.0 513.2 L 220.2 512.7 Q 220.5 512.0, 221.2 511.5 Q 222.0 511.0, 223.0 511.0 Q 224.3 511.0, 225.0 511.6 Q 225.8 512.2, 225.8 513.2 Q 225.8 513.9, 225.4 514.5 Q 225.0 515.0, 224.3 515.2 " fill="#0000FF"/>
<path class="atom-4" d="M 229.6 500.0 L 234.0 507.0 Q 234.4 507.7, 235.1 508.9 Q 235.8 510.2, 235.8 510.3 L 235.8 500.0 L 237.6 500.0 L 237.6 513.2 L 235.8 513.2 L 231.1 505.5 Q 230.6 504.6, 230.0 503.6 Q 229.4 502.6, 229.3 502.3 L 229.3 513.2 L 227.5 513.2 L 227.5 500.0 L 229.6 500.0 " fill="#0000FF"/>
<path class="atom-4" d="M 238.7 502.3 L 241.1 502.3 L 241.1 499.9 L 242.1 499.9 L 242.1 502.3 L 244.5 502.3 L 244.5 503.2 L 242.1 503.2 L 242.1 505.7 L 241.1 505.7 L 241.1 503.2 L 238.7 503.2 L 238.7 502.3 " fill="#0000FF"/>
<path class="atom-5" d="M 295.4 443.2 Q 295.4 440.0, 297.0 438.2 Q 298.5 436.4, 301.5 436.4 Q 304.4 436.4, 306.0 438.2 Q 307.6 440.0, 307.6 443.2 Q 307.6 446.4, 306.0 448.2 Q 304.4 450.0, 301.5 450.0 Q 298.6 450.0, 297.0 448.2 Q 295.4 446.4, 295.4 443.2 M 301.5 448.5 Q 303.5 448.5, 304.6 447.2 Q 305.7 445.8, 305.7 443.2 Q 305.7 440.6, 304.6 439.2 Q 303.5 437.9, 301.5 437.9 Q 299.5 437.9, 298.4 439.2 Q 297.3 440.5, 297.3 443.2 Q 297.3 445.8, 298.4 447.2 Q 299.5 448.5, 301.5 448.5 " fill="#FF0000"/>
<path class="note" d="M 385.6 468.8 Q 384.4 468.8, 383.8 467.9 Q 383.2 467.0, 383.2 465.4 Q 383.2 463.8, 383.8 462.9 Q 384.4 462.0, 385.6 462.0 Q 386.8 462.0, 387.4 462.9 Q 388.0 463.8, 388.0 465.4 Q 388.0 467.0, 387.4 467.9 Q 386.8 468.8, 385.6 468.8 M 385.6 468.0 Q 386.3 468.0, 386.7 467.3 Q 387.1 466.7, 387.1 465.4 Q 387.1 464.1, 386.7 463.4 Q 386.3 462.7, 385.6 462.7 Q 384.9 462.7, 384.5 463.4 Q 384.1 464.1, 384.1 465.4 Q 384.1 466.7, 384.5 467.3 Q 384.9 468.0, 385.6 468.0 " fill="#000000"/>
<path class="note" d="M 358.2 520.6 L 359.7 520.6 L 359.7 515.7 L 358.1 516.2 L 357.9 515.6 L 359.9 514.7 L 360.6 514.8 L 360.6 520.6 L 361.9 520.6 L 361.9 521.4 L 358.2 521.4 L 358.2 520.6 " fill="#000000"/>
<path class="note" d="M 311.2 494.4 Q 311.5 493.8, 312.1 493.5 Q 312.6 493.1, 313.4 493.1 Q 314.4 493.1, 315.0 493.6 Q 315.6 494.2, 315.6 495.1 Q 315.6 496.1, 314.8 497.0 Q 314.1 498.0, 312.6 499.1 L 315.7 499.1 L 315.7 499.8 L 311.2 499.8 L 311.2 499.2 Q 312.5 498.3, 313.2 497.6 Q 313.9 497.0, 314.3 496.4 Q 314.6 495.8, 314.6 495.2 Q 314.6 494.6, 314.3 494.2 Q 314.0 493.8, 313.4 493.8 Q 312.9 493.8, 312.6 494.1 Q 312.2 494.3, 311.9 494.8 L 311.2 494.4 " fill="#000000"/>
<path class="note" d="M 279.9 528.0 Q 280.6 528.2, 280.9 528.7 Q 281.2 529.1, 281.2 529.7 Q 281.2 530.3, 280.9 530.7 Q 280.7 531.2, 280.1 531.4 Q 279.6 531.6, 279.0 531.6 Q 278.2 531.6, 277.7 531.4 Q 277.2 531.1, 276.8 530.6 L 277.3 530.1 Q 277.7 530.5, 278.1 530.7 Q 278.4 530.9, 279.0 530.9 Q 279.6 530.9, 279.9 530.6 Q 280.3 530.2, 280.3 529.7 Q 280.3 529.0, 279.9 528.7 Q 279.5 528.4, 278.7 528.4 L 278.2 528.4 L 278.2 527.8 L 278.7 527.8 Q 279.4 527.7, 279.8 527.4 Q 280.1 527.1, 280.1 526.5 Q 280.1 526.1, 279.8 525.8 Q 279.5 525.6, 279.0 525.6 Q 278.4 525.6, 278.1 525.8 Q 277.7 526.0, 277.5 526.5 L 276.8 526.1 Q 277.1 525.6, 277.6 525.2 Q 278.2 524.8, 279.0 524.8 Q 279.9 524.8, 280.5 525.3 Q 281.1 525.7, 281.1 526.5 Q 281.1 527.1, 280.8 527.4 Q 280.5 527.8, 279.9 528.0 " fill="#000000"/>
<path class="note" d="M 219.4 503.0 L 220.2 503.0 L 220.2 503.7 L 219.4 503.7 L 219.4 505.2 L 218.5 505.2 L 218.5 503.7 L 215.1 503.7 L 215.1 503.1 L 218.0 498.6 L 219.4 498.6 L 219.4 503.0 M 216.2 503.0 L 218.5 503.0 L 218.5 499.2 L 216.2 503.0 " fill="#000000"/>
<path class="note" d="M 313.1 431.7 Q 313.7 431.7, 314.2 432.0 Q 314.7 432.2, 314.9 432.7 Q 315.2 433.1, 315.2 433.8 Q 315.2 434.4, 314.9 434.9 Q 314.6 435.4, 314.0 435.7 Q 313.5 435.9, 312.8 435.9 Q 312.2 435.9, 311.7 435.7 Q 311.1 435.5, 310.7 435.1 L 311.3 434.5 Q 311.6 434.8, 312.0 435.0 Q 312.4 435.2, 312.9 435.2 Q 313.5 435.2, 313.9 434.8 Q 314.3 434.4, 314.3 433.8 Q 314.3 433.1, 313.9 432.8 Q 313.5 432.4, 312.8 432.4 Q 312.2 432.4, 311.6 432.7 L 311.1 432.4 L 311.4 429.2 L 314.8 429.2 L 314.7 430.0 L 312.2 430.0 L 312.0 431.9 Q 312.6 431.7, 313.1 431.7 " fill="#000000"/>
<path class="note" d="M 254.7 435.8 Q 255.3 435.8, 255.8 436.1 Q 256.2 436.3, 256.5 436.8 Q 256.8 437.2, 256.8 437.8 Q 256.8 438.5, 256.5 439.0 Q 256.2 439.5, 255.7 439.7 Q 255.2 440.0, 254.5 440.0 Q 253.3 440.0, 252.7 439.2 Q 252.2 438.4, 252.2 436.8 Q 252.2 435.1, 252.9 434.2 Q 253.6 433.2, 255.0 433.2 Q 255.4 433.2, 255.8 433.3 Q 256.2 433.4, 256.5 433.6 L 256.1 434.3 Q 255.6 434.0, 255.0 434.0 Q 254.1 434.0, 253.6 434.6 Q 253.2 435.2, 253.1 436.5 Q 253.4 436.1, 253.9 436.0 Q 254.3 435.8, 254.7 435.8 M 254.5 439.3 Q 254.9 439.3, 255.2 439.1 Q 255.5 438.9, 255.6 438.6 Q 255.8 438.2, 255.8 437.8 Q 255.8 437.2, 255.5 436.9 Q 255.2 436.6, 254.6 436.6 Q 254.2 436.6, 253.8 436.7 Q 253.4 436.9, 253.1 437.2 Q 253.1 438.3, 253.5 438.8 Q 253.8 439.3, 254.5 439.3 " fill="#000000"/>
<path d="M 282.9 594.3 Q 280.8 594.3, 279.7 592.7 Q 278.7 591.2, 278.7 588.5 Q 278.7 585.7, 279.7 584.2 Q 280.8 582.7, 282.9 582.7 Q 285.0 582.7, 286.0 584.2 Q 287.0 585.7, 287.0 588.5 Q 287.0 591.2, 286.0 592.7 Q 284.9 594.3, 282.9 594.3 M 282.9 593.0 Q 284.1 593.0, 284.7 591.9 Q 285.4 590.7, 285.4 588.5 Q 285.4 586.2, 284.7 585.1 Q 284.1 584.0, 282.9 584.0 Q 281.6 584.0, 281.0 585.1 Q 280.3 586.2, 280.3 588.5 Q 280.3 590.7, 281.0 591.9 Q 281.6 593.0, 282.9 593.0 " fill="#000000"/>
<path d="M 288.0 592.5 L 289.6 592.5 L 289.6 594.1 L 288.0 594.1 L 288.0 592.5 " fill="#000000"/>
<path d="M 297.5 590.3 L 298.8 590.3 L 298.8 591.5 L 297.5 591.5 L 297.5 594.1 L 296.0 594.1 L 296.0 591.5 L 290.1 591.5 L 290.1 590.5 L 295.1 582.8 L 297.5 582.8 L 297.5 590.3 M 292.0 590.3 L 296.0 590.3 L 296.0 583.8 L 292.0 590.3 " fill="#000000"/>
<path d="M 305.1 584.1 L 299.1 584.1 L 299.1 582.8 L 306.7 582.8 L 306.7 584.0 L 302.1 594.1 L 300.5 594.1 L 305.1 584.1 " fill="#000000"/>
<path d="M 308.1 592.9 L 310.6 592.9 L 310.6 584.4 L 307.9 585.2 L 307.5 584.3 L 311.0 582.8 L 312.1 582.9 L 312.1 592.9 L 314.3 592.9 L 314.3 594.1 L 308.1 594.1 L 308.1 592.9 " fill="#000000"/>
</svg>