<svg xmlns="http://www.w3.org/2000/svg" xmlns:rdkit="http://www.rdkit.org/xml" xmlns:xlink="http://www.w3.org/1999/xlink" version="1.1" baseProfile="full" xml:space="preserve" width="400px" height="400px" viewBox="0 0 400 400">
<!-- END OF HEADER -->
<rect style="opacity:1.0;fill:#FFFFFF;stroke:none" width="400.0" height="400.0" x="0.0" y="0.0"> </rect>
<path d="M 135.0,178.8 L 101.6,138.0 L 90.1,147.3 L 123.6,188.2 Z" style="fill:#CC00CC;fill-rule:evenodd;fill-opacity:1;stroke:#CC00CC;stroke-width:2.0px;stroke-linecap:butt;stroke-linejoin:miter;stroke-opacity:1;"/>
<path d="M 102.8,145.3 L 121.5,95.8 L 107.6,90.6 L 88.9,140.0 Z" style="fill:#CC00CC;fill-rule:evenodd;fill-opacity:1;stroke:#CC00CC;stroke-width:2.0px;stroke-linecap:butt;stroke-linejoin:miter;stroke-opacity:1;"/>
<path d="M 115.7,100.5 L 167.9,92.0 L 165.5,77.4 L 113.3,85.9 Z" style="fill:#CC00CC;fill-rule:evenodd;fill-opacity:1;stroke:#CC00CC;stroke-width:2.0px;stroke-linecap:butt;stroke-linejoin:miter;stroke-opacity:1;"/>
<path d="M 160.9,89.4 L 194.4,130.3 L 205.8,120.9 L 172.4,80.0 Z" style="fill:#CC00CC;fill-rule:evenodd;fill-opacity:1;stroke:#CC00CC;stroke-width:2.0px;stroke-linecap:butt;stroke-linejoin:miter;stroke-opacity:1;"/>
<path d="M 193.2,123.0 L 174.5,172.4 L 188.3,177.6 L 207.0,128.2 Z" style="fill:#CC00CC;fill-rule:evenodd;fill-opacity:1;stroke:#CC00CC;stroke-width:2.0px;stroke-linecap:butt;stroke-linejoin:miter;stroke-opacity:1;"/>
<path d="M 261.3,212.0 L 294.7,252.9 L 306.2,243.6 L 272.7,202.7 Z" style="fill:#CCCC00;fill-rule:evenodd;fill-opacity:1;stroke:#CCCC00;stroke-width:2.0px;stroke-linecap:butt;stroke-linejoin:miter;stroke-opacity:1;"/>
<path d="M 301.6,255.5 L 353.8,247.0 L 351.4,232.4 L 299.3,240.9 Z" style="fill:#CCCC00;fill-rule:evenodd;fill-opacity:1;stroke:#CCCC00;stroke-width:2.0px;stroke-linecap:butt;stroke-linejoin:miter;stroke-opacity:1;"/>
<path d="M 359.5,242.3 L 378.2,192.9 L 364.3,187.7 L 345.7,237.1 Z" style="fill:#CCCC00;fill-rule:evenodd;fill-opacity:1;stroke:#CCCC00;stroke-width:2.0px;stroke-linecap:butt;stroke-linejoin:miter;stroke-opacity:1;"/>
<path d="M 377.0,185.6 L 343.5,144.7 L 332.1,154.1 L 365.5,195.0 Z" style="fill:#CCCC00;fill-rule:evenodd;fill-opacity:1;stroke:#CCCC00;stroke-width:2.0px;stroke-linecap:butt;stroke-linejoin:miter;stroke-opacity:1;"/>
<path d="M 336.6,142.1 L 284.5,150.7 L 286.9,165.3 L 339.0,156.7 Z" style="fill:#CCCC00;fill-rule:evenodd;fill-opacity:1;stroke:#CCCC00;stroke-width:2.0px;stroke-linecap:butt;stroke-linejoin:miter;stroke-opacity:1;"/>
<path d="M 180.2,167.7 L 128.1,176.2 L 130.5,190.8 L 182.6,182.3 Z" style="fill:#CC00CC;fill-rule:evenodd;fill-opacity:1;stroke:#CC00CC;stroke-width:2.0px;stroke-linecap:butt;stroke-linejoin:miter;stroke-opacity:1;"/>
<path d="M 278.8,155.3 L 260.1,204.7 L 273.9,210.0 L 292.6,160.6 Z" style="fill:#CCCC00;fill-rule:evenodd;fill-opacity:1;stroke:#CCCC00;stroke-width:2.0px;stroke-linecap:butt;stroke-linejoin:miter;stroke-opacity:1;"/>
<ellipse cx="129.3" cy="183.5" rx="10.6" ry="10.6" style="fill:#CC00CC;fill-rule:evenodd;stroke:#CC00CC;stroke-width:1.0px;stroke-linecap:butt;stroke-linejoin:miter;stroke-opacity:1"/>
<ellipse cx="95.9" cy="142.6" rx="10.6" ry="10.6" style="fill:#CC00CC;fill-rule:evenodd;stroke:#CC00CC;stroke-width:1.0px;stroke-linecap:butt;stroke-linejoin:miter;stroke-opacity:1"/>
<ellipse cx="114.5" cy="93.2" rx="10.6" ry="10.6" style="fill:#CC00CC;fill-rule:evenodd;stroke:#CC00CC;stroke-width:1.0px;stroke-linecap:butt;stroke-linejoin:miter;stroke-opacity:1"/>
<ellipse cx="166.7" cy="84.7" rx="10.6" ry="10.6" style="fill:#CC00CC;fill-rule:evenodd;stroke:#CC00CC;stroke-width:1.0px;stroke-linecap:butt;stroke-linejoin:miter;stroke-opacity:1"/>
<ellipse cx="200.1" cy="125.6" rx="10.6" ry="10.6" style="fill:#CC00CC;fill-rule:evenodd;stroke:#CC00CC;stroke-width:1.0px;stroke-linecap:butt;stroke-linejoin:miter;stroke-opacity:1"/>
<ellipse cx="181.4" cy="175.0" rx="10.6" ry="10.6" style="fill:#CC00CC;fill-rule:evenodd;stroke:#CC00CC;stroke-width:1.0px;stroke-linecap:butt;stroke-linejoin:miter;stroke-opacity:1"/>
<ellipse cx="267.0" cy="207.4" rx="10.6" ry="10.6" style="fill:#CCCC00;fill-rule:evenodd;stroke:#CCCC00;stroke-width:1.0px;stroke-linecap:butt;stroke-linejoin:miter;stroke-opacity:1"/>
<ellipse cx="300.4" cy="248.2" rx="10.6" ry="10.6" style="fill:#CCCC00;fill-rule:evenodd;stroke:#CCCC00;stroke-width:1.0px;stroke-linecap:butt;stroke-linejoin:miter;stroke-opacity:1"/>
<ellipse cx="352.6" cy="239.7" rx="10.6" ry="10.6" style="fill:#CCCC00;fill-rule:evenodd;stroke:#CCCC00;stroke-width:1.0px;stroke-linecap:butt;stroke-linejoin:miter;stroke-opacity:1"/>
<ellipse cx="371.3" cy="190.3" rx="10.6" ry="10.6" style="fill:#CCCC00;fill-rule:evenodd;stroke:#CCCC00;stroke-width:1.0px;stroke-linecap:butt;stroke-linejoin:miter;stroke-opacity:1"/>
<ellipse cx="337.8" cy="149.4" rx="10.6" ry="10.6" style="fill:#CCCC00;fill-rule:evenodd;stroke:#CCCC00;stroke-width:1.0px;stroke-linecap:butt;stroke-linejoin:miter;stroke-opacity:1"/>
<ellipse cx="285.7" cy="158.0" rx="10.6" ry="10.6" style="fill:#CCCC00;fill-rule:evenodd;stroke:#CCCC00;stroke-width:1.0px;stroke-linecap:butt;stroke-linejoin:miter;stroke-opacity:1"/>
<path class="bond-0 atom-0 atom-1" d="M 28.4,213.0 L 41.4,228.9" style="fill:none;fill-rule:evenodd;stroke:#FF0000;stroke-width:2.0px;stroke-linecap:butt;stroke-linejoin:miter;stroke-opacity:1"/>
<path class="bond-0 atom-0 atom-1" d="M 41.4,228.9 L 54.4,244.8" style="fill:none;fill-rule:evenodd;stroke:#000000;stroke-width:2.0px;stroke-linecap:butt;stroke-linejoin:miter;stroke-opacity:1"/>
<path class="bond-0 atom-0 atom-1" d="M 36.6,206.3 L 49.6,222.2" style="fill:none;fill-rule:evenodd;stroke:#FF0000;stroke-width:2.0px;stroke-linecap:butt;stroke-linejoin:miter;stroke-opacity:1"/>
<path class="bond-0 atom-0 atom-1" d="M 49.6,222.2 L 62.6,238.1" style="fill:none;fill-rule:evenodd;stroke:#000000;stroke-width:2.0px;stroke-linecap:butt;stroke-linejoin:miter;stroke-opacity:1"/>
<path class="bond-1 atom-1 atom-2" d="M 58.5,241.4 L 50.8,261.7" style="fill:none;fill-rule:evenodd;stroke:#000000;stroke-width:2.0px;stroke-linecap:butt;stroke-linejoin:miter;stroke-opacity:1"/>
<path class="bond-1 atom-1 atom-2" d="M 50.8,261.7 L 43.2,282.0" style="fill:none;fill-rule:evenodd;stroke:#FF0000;stroke-width:2.0px;stroke-linecap:butt;stroke-linejoin:miter;stroke-opacity:1"/>
<path class="bond-2 atom-1 atom-3" d="M 58.5,241.4 L 110.6,232.9" style="fill:none;fill-rule:evenodd;stroke:#000000;stroke-width:2.0px;stroke-linecap:butt;stroke-linejoin:miter;stroke-opacity:1"/>
<path class="bond-3 atom-3 atom-4" d="M 110.6,232.9 L 129.3,183.5" style="fill:none;fill-rule:evenodd;stroke:#000000;stroke-width:2.0px;stroke-linecap:butt;stroke-linejoin:miter;stroke-opacity:1"/>
<path class="bond-4 atom-4 atom-5" d="M 129.3,183.5 L 95.9,142.6" style="fill:none;fill-rule:evenodd;stroke:#000000;stroke-width:2.0px;stroke-linecap:butt;stroke-linejoin:miter;stroke-opacity:1"/>
<path class="bond-4 atom-4 atom-5" d="M 132.5,170.7 L 109.1,142.1" style="fill:none;fill-rule:evenodd;stroke:#000000;stroke-width:2.0px;stroke-linecap:butt;stroke-linejoin:miter;stroke-opacity:1"/>
<path class="bond-18 atom-9 atom-4" d="M 181.4,175.0 L 129.3,183.5" style="fill:none;fill-rule:evenodd;stroke:#000000;stroke-width:2.0px;stroke-linecap:butt;stroke-linejoin:miter;stroke-opacity:1"/>
<path class="bond-5 atom-5 atom-6" d="M 95.9,142.6 L 114.5,93.2" style="fill:none;fill-rule:evenodd;stroke:#000000;stroke-width:2.0px;stroke-linecap:butt;stroke-linejoin:miter;stroke-opacity:1"/>
<path class="bond-6 atom-6 atom-7" d="M 114.5,93.2 L 166.7,84.7" style="fill:none;fill-rule:evenodd;stroke:#000000;stroke-width:2.0px;stroke-linecap:butt;stroke-linejoin:miter;stroke-opacity:1"/>
<path class="bond-6 atom-6 atom-7" d="M 124.1,102.4 L 160.6,96.4" style="fill:none;fill-rule:evenodd;stroke:#000000;stroke-width:2.0px;stroke-linecap:butt;stroke-linejoin:miter;stroke-opacity:1"/>
<path class="bond-7 atom-7 atom-8" d="M 166.7,84.7 L 200.1,125.6" style="fill:none;fill-rule:evenodd;stroke:#000000;stroke-width:2.0px;stroke-linecap:butt;stroke-linejoin:miter;stroke-opacity:1"/>
<path class="bond-8 atom-8 atom-9" d="M 200.1,125.6 L 181.4,175.0" style="fill:none;fill-rule:evenodd;stroke:#000000;stroke-width:2.0px;stroke-linecap:butt;stroke-linejoin:miter;stroke-opacity:1"/>
<path class="bond-8 atom-8 atom-9" d="M 187.4,129.3 L 174.4,163.9" style="fill:none;fill-rule:evenodd;stroke:#000000;stroke-width:2.0px;stroke-linecap:butt;stroke-linejoin:miter;stroke-opacity:1"/>
<path class="bond-9 atom-9 atom-10" d="M 181.4,175.0 L 194.6,191.0" style="fill:none;fill-rule:evenodd;stroke:#000000;stroke-width:2.0px;stroke-linecap:butt;stroke-linejoin:miter;stroke-opacity:1"/>
<path class="bond-9 atom-9 atom-10" d="M 194.6,191.0 L 207.7,207.1" style="fill:none;fill-rule:evenodd;stroke:#0000FF;stroke-width:2.0px;stroke-linecap:butt;stroke-linejoin:miter;stroke-opacity:1"/>
<path class="bond-10 atom-10 atom-11" d="M 221.9,214.7 L 244.4,211.0" style="fill:none;fill-rule:evenodd;stroke:#0000FF;stroke-width:2.0px;stroke-linecap:butt;stroke-linejoin:miter;stroke-opacity:1"/>
<path class="bond-10 atom-10 atom-11" d="M 244.4,211.0 L 267.0,207.4" style="fill:none;fill-rule:evenodd;stroke:#000000;stroke-width:2.0px;stroke-linecap:butt;stroke-linejoin:miter;stroke-opacity:1"/>
<path class="bond-11 atom-11 atom-12" d="M 267.0,207.4 L 300.4,248.2" style="fill:none;fill-rule:evenodd;stroke:#000000;stroke-width:2.0px;stroke-linecap:butt;stroke-linejoin:miter;stroke-opacity:1"/>
<path class="bond-11 atom-11 atom-12" d="M 280.2,206.8 L 303.6,235.4" style="fill:none;fill-rule:evenodd;stroke:#000000;stroke-width:2.0px;stroke-linecap:butt;stroke-linejoin:miter;stroke-opacity:1"/>
<path class="bond-19 atom-17 atom-11" d="M 285.7,158.0 L 267.0,207.4" style="fill:none;fill-rule:evenodd;stroke:#000000;stroke-width:2.0px;stroke-linecap:butt;stroke-linejoin:miter;stroke-opacity:1"/>
<path class="bond-12 atom-12 atom-13" d="M 300.4,248.2 L 292.2,269.9" style="fill:none;fill-rule:evenodd;stroke:#000000;stroke-width:2.0px;stroke-linecap:butt;stroke-linejoin:miter;stroke-opacity:1"/>
<path class="bond-12 atom-12 atom-13" d="M 292.2,269.9 L 284.1,291.6" style="fill:none;fill-rule:evenodd;stroke:#00CC00;stroke-width:2.0px;stroke-linecap:butt;stroke-linejoin:miter;stroke-opacity:1"/>
<path class="bond-13 atom-12 atom-14" d="M 300.4,248.2 L 352.6,239.7" style="fill:none;fill-rule:evenodd;stroke:#000000;stroke-width:2.0px;stroke-linecap:butt;stroke-linejoin:miter;stroke-opacity:1"/>
<path class="bond-14 atom-14 atom-15" d="M 352.6,239.7 L 371.3,190.3" style="fill:none;fill-rule:evenodd;stroke:#000000;stroke-width:2.0px;stroke-linecap:butt;stroke-linejoin:miter;stroke-opacity:1"/>
<path class="bond-14 atom-14 atom-15" d="M 345.5,228.6 L 358.6,194.0" style="fill:none;fill-rule:evenodd;stroke:#000000;stroke-width:2.0px;stroke-linecap:butt;stroke-linejoin:miter;stroke-opacity:1"/>
<path class="bond-15 atom-15 atom-16" d="M 371.3,190.3 L 337.8,149.4" style="fill:none;fill-rule:evenodd;stroke:#000000;stroke-width:2.0px;stroke-linecap:butt;stroke-linejoin:miter;stroke-opacity:1"/>
<path class="bond-16 atom-16 atom-17" d="M 337.8,149.4 L 285.7,158.0" style="fill:none;fill-rule:evenodd;stroke:#000000;stroke-width:2.0px;stroke-linecap:butt;stroke-linejoin:miter;stroke-opacity:1"/>
<path class="bond-16 atom-16 atom-17" d="M 331.7,161.1 L 295.2,167.1" style="fill:none;fill-rule:evenodd;stroke:#000000;stroke-width:2.0px;stroke-linecap:butt;stroke-linejoin:miter;stroke-opacity:1"/>
<path class="bond-17 atom-17 atom-18" d="M 285.7,158.0 L 270.1,138.9" style="fill:none;fill-rule:evenodd;stroke:#000000;stroke-width:2.0px;stroke-linecap:butt;stroke-linejoin:miter;stroke-opacity:1"/>
<path class="bond-17 atom-17 atom-18" d="M 270.1,138.9 L 254.5,119.9" style="fill:none;fill-rule:evenodd;stroke:#00CC00;stroke-width:2.0px;stroke-linecap:butt;stroke-linejoin:miter;stroke-opacity:1"/>
<path class="atom-0" d="M 18.2 200.6 Q 18.2 197.0, 20.0 195.0 Q 21.7 193.0, 25.0 193.0 Q 28.4 193.0, 30.1 195.0 Q 31.9 197.0, 31.9 200.6 Q 31.9 204.2, 30.1 206.3 Q 28.3 208.4, 25.0 208.4 Q 21.8 208.4, 20.0 206.3 Q 18.2 204.3, 18.2 200.6 M 25.0 206.7 Q 27.3 206.7, 28.6 205.1 Q 29.8 203.6, 29.8 200.6 Q 29.8 197.7, 28.6 196.2 Q 27.3 194.7, 25.0 194.7 Q 22.8 194.7, 21.5 196.2 Q 20.3 197.6, 20.3 200.6 Q 20.3 203.6, 21.5 205.1 Q 22.8 206.7, 25.0 206.7 " fill="#FF0000"/>
<path class="atom-2" d="M 20.2 283.5 L 22.2 283.5 L 22.2 289.8 L 29.9 289.8 L 29.9 283.5 L 31.9 283.5 L 31.9 298.4 L 29.9 298.4 L 29.9 291.5 L 22.2 291.5 L 22.2 298.4 L 20.2 298.4 L 20.2 283.5 " fill="#FF0000"/>
<path class="atom-2" d="M 32.9 290.9 Q 32.9 287.3, 34.7 285.3 Q 36.5 283.3, 39.8 283.3 Q 43.1 283.3, 44.9 285.3 Q 46.7 287.3, 46.7 290.9 Q 46.7 294.5, 44.9 296.6 Q 43.1 298.6, 39.8 298.6 Q 36.5 298.6, 34.7 296.6 Q 32.9 294.5, 32.9 290.9 M 39.8 297.0 Q 42.1 297.0, 43.3 295.4 Q 44.6 293.9, 44.6 290.9 Q 44.6 288.0, 43.3 286.5 Q 42.1 285.0, 39.8 285.0 Q 37.5 285.0, 36.3 286.5 Q 35.1 287.9, 35.1 290.9 Q 35.1 293.9, 36.3 295.4 Q 37.5 297.0, 39.8 297.0 " fill="#FF0000"/>
<path class="atom-10" d="M 195.7 208.4 L 197.8 208.4 L 197.8 214.8 L 205.4 214.8 L 205.4 208.4 L 207.4 208.4 L 207.4 223.4 L 205.4 223.4 L 205.4 216.5 L 197.8 216.5 L 197.8 223.4 L 195.7 223.4 L 195.7 208.4 " fill="#0000FF"/>
<path class="atom-10" d="M 211.6 208.4 L 216.5 216.3 Q 217.0 217.1, 217.7 218.5 Q 218.5 219.9, 218.6 220.0 L 218.6 208.4 L 220.5 208.4 L 220.5 223.4 L 218.5 223.4 L 213.2 214.7 Q 212.6 213.7, 212.0 212.5 Q 211.3 211.4, 211.1 211.0 L 211.1 223.4 L 209.2 223.4 L 209.2 208.4 L 211.6 208.4 " fill="#0000FF"/>
<path class="atom-13" d="M 267.4 298.2 Q 267.4 294.4, 269.2 292.5 Q 270.9 290.5, 274.2 290.5 Q 277.3 290.5, 279.0 292.7 L 277.6 293.9 Q 276.4 292.3, 274.2 292.3 Q 272.0 292.3, 270.8 293.8 Q 269.6 295.3, 269.6 298.2 Q 269.6 301.1, 270.8 302.6 Q 272.1 304.2, 274.5 304.2 Q 276.1 304.2, 278.0 303.2 L 278.6 304.8 Q 277.9 305.3, 276.7 305.6 Q 275.5 305.9, 274.2 305.9 Q 270.9 305.9, 269.2 303.9 Q 267.4 301.9, 267.4 298.2 " fill="#00CC00"/>
<path class="atom-13" d="M 280.8 289.6 L 282.7 289.6 L 282.7 305.7 L 280.8 305.7 L 280.8 289.6 " fill="#00CC00"/>
<path class="atom-18" d="M 237.9 117.6 Q 237.9 113.9, 239.6 111.9 Q 241.4 110.0, 244.7 110.0 Q 247.8 110.0, 249.5 112.1 L 248.1 113.3 Q 246.9 111.7, 244.7 111.7 Q 242.5 111.7, 241.3 113.2 Q 240.1 114.7, 240.1 117.6 Q 240.1 120.5, 241.3 122.1 Q 242.5 123.6, 245.0 123.6 Q 246.6 123.6, 248.5 122.6 L 249.1 124.2 Q 248.3 124.7, 247.1 125.0 Q 246.0 125.3, 244.7 125.3 Q 241.4 125.3, 239.6 123.3 Q 237.9 121.3, 237.9 117.6 " fill="#00CC00"/>
<path class="atom-18" d="M 251.3 109.1 L 253.2 109.1 L 253.2 125.1 L 251.3 125.1 L 251.3 109.1 " fill="#00CC00"/>
<path d="M 170.7 379.3 L 170.7 391.4 L 169.5 391.4 L 169.3 390.4 Q 168.4 391.6, 166.9 391.6 Q 165.1 391.6, 164.2 390.5 Q 163.2 389.4, 163.2 387.4 Q 163.2 385.4, 164.4 384.2 Q 165.5 383.1, 167.5 383.1 Q 168.3 383.1, 169.2 383.3 L 169.2 379.3 L 170.7 379.3 M 167.0 390.4 Q 167.8 390.4, 168.4 389.9 Q 169.0 389.5, 169.2 388.6 L 169.2 384.5 Q 168.4 384.2, 167.5 384.2 Q 166.2 384.2, 165.5 385.1 Q 164.8 385.9, 164.8 387.4 Q 164.8 388.8, 165.3 389.6 Q 165.9 390.4, 167.0 390.4 " fill="#000000"/>
<path d="M 172.1 380.1 L 173.6 380.1 L 173.6 381.5 L 172.1 381.5 L 172.1 380.1 M 172.1 383.2 L 173.6 383.2 L 173.6 391.4 L 172.1 391.4 L 172.1 383.2 " fill="#000000"/>
<path d="M 174.3 387.3 Q 174.3 385.3, 175.3 384.2 Q 176.3 383.1, 178.2 383.1 Q 180.1 383.1, 181.1 384.4 L 180.1 385.2 Q 179.7 384.7, 179.2 384.5 Q 178.8 384.2, 178.2 384.2 Q 177.1 384.2, 176.5 385.0 Q 175.8 385.8, 175.8 387.3 Q 175.8 388.8, 176.5 389.6 Q 177.1 390.4, 178.3 390.4 Q 179.0 390.4, 179.5 390.2 Q 179.9 390.1, 180.5 389.8 L 180.9 390.8 Q 179.7 391.5, 178.2 391.5 Q 176.3 391.5, 175.3 390.4 Q 174.3 389.3, 174.3 387.3 " fill="#000000"/>
<path d="M 182.5 379.3 L 183.9 379.3 L 183.9 391.4 L 182.5 391.4 L 182.5 379.3 " fill="#000000"/>
<path d="M 184.7 387.3 Q 184.7 385.3, 185.7 384.2 Q 186.7 383.1, 188.6 383.1 Q 190.4 383.1, 191.4 384.2 Q 192.5 385.3, 192.5 387.3 Q 192.5 389.3, 191.4 390.4 Q 190.4 391.6, 188.6 391.6 Q 186.7 391.6, 185.7 390.4 Q 184.7 389.3, 184.7 387.3 M 186.2 387.3 Q 186.2 388.8, 186.8 389.6 Q 187.4 390.4, 188.6 390.4 Q 189.7 390.4, 190.3 389.6 Q 190.9 388.8, 190.9 387.3 Q 190.9 385.8, 190.3 385.0 Q 189.7 384.2, 188.6 384.2 Q 187.4 384.2, 186.8 385.0 Q 186.2 385.8, 186.2 387.3 " fill="#000000"/>
<path d="M 192.9 384.4 L 192.9 383.2 L 194.3 383.2 L 194.3 382.0 Q 194.3 380.6, 195.1 379.9 Q 195.8 379.3, 197.0 379.3 Q 197.5 379.3, 198.0 379.4 Q 198.4 379.5, 198.9 379.7 L 198.5 380.8 Q 197.7 380.5, 197.1 380.5 Q 196.5 380.5, 196.2 380.8 Q 195.8 381.2, 195.8 381.9 L 195.8 383.2 L 198.4 383.2 L 198.4 384.4 L 195.8 384.4 L 195.8 393.9 L 194.3 393.9 L 194.3 384.4 L 192.9 384.4 " fill="#000000"/>
<path d="M 199.7 387.3 Q 199.7 385.3, 200.7 384.2 Q 201.7 383.1, 203.5 383.1 Q 205.3 383.1, 206.1 384.1 Q 206.9 385.2, 206.9 387.2 L 206.9 387.5 L 201.2 387.5 Q 201.2 388.9, 201.8 389.6 Q 202.5 390.4, 203.6 390.4 Q 204.3 390.4, 204.9 390.2 Q 205.5 390.1, 206.2 389.7 L 206.6 390.8 Q 205.8 391.2, 205.1 391.4 Q 204.3 391.6, 203.6 391.6 Q 201.7 391.6, 200.7 390.4 Q 199.7 389.3, 199.7 387.3 M 203.5 384.2 Q 202.6 384.2, 202.0 384.8 Q 201.4 385.3, 201.3 386.4 L 205.4 386.4 Q 205.2 385.3, 204.8 384.8 Q 204.3 384.2, 203.5 384.2 " fill="#000000"/>
<path d="M 212.5 383.1 Q 213.8 383.1, 214.5 383.8 Q 215.2 384.6, 215.2 386.0 L 215.2 391.4 L 213.7 391.4 L 213.7 386.1 Q 213.7 385.1, 213.4 384.7 Q 213.0 384.2, 212.2 384.2 Q 211.4 384.2, 210.8 384.6 Q 210.2 384.9, 209.8 385.5 L 209.8 391.4 L 208.2 391.4 L 208.2 383.2 L 209.5 383.2 L 209.7 384.4 Q 210.8 383.1, 212.5 383.1 " fill="#000000"/>
<path d="M 215.9 389.2 Q 215.9 387.9, 217.0 387.2 Q 218.1 386.4, 220.0 386.4 L 221.2 386.4 L 221.2 386.1 Q 221.2 385.1, 220.8 384.7 Q 220.4 384.2, 219.3 384.2 Q 218.7 384.2, 218.2 384.4 Q 217.7 384.5, 216.9 384.8 L 216.4 383.8 Q 217.9 383.1, 219.4 383.1 Q 221.1 383.1, 221.9 383.8 Q 222.7 384.5, 222.7 386.2 L 222.7 391.4 L 221.5 391.4 Q 221.5 391.4, 221.5 391.1 Q 221.4 390.9, 221.3 390.5 Q 220.2 391.6, 218.6 391.6 Q 217.4 391.6, 216.7 391.0 Q 215.9 390.3, 215.9 389.2 M 217.4 389.2 Q 217.4 389.8, 217.8 390.1 Q 218.2 390.4, 218.9 390.4 Q 219.6 390.4, 220.2 390.1 Q 220.8 389.8, 221.2 389.3 L 221.2 387.6 L 220.1 387.6 Q 218.8 387.6, 218.1 388.0 Q 217.4 388.4, 217.4 389.2 " fill="#000000"/>
<path d="M 223.4 387.3 Q 223.4 385.3, 224.4 384.2 Q 225.4 383.1, 227.4 383.1 Q 229.3 383.1, 230.2 384.4 L 229.2 385.2 Q 228.8 384.7, 228.4 384.5 Q 228.0 384.2, 227.4 384.2 Q 226.2 384.2, 225.6 385.0 Q 225.0 385.8, 225.0 387.3 Q 225.0 388.8, 225.6 389.6 Q 226.3 390.4, 227.5 390.4 Q 228.2 390.4, 228.6 390.2 Q 229.1 390.1, 229.7 389.8 L 230.1 390.8 Q 228.9 391.5, 227.4 391.5 Q 225.4 391.5, 224.4 390.4 Q 223.4 389.3, 223.4 387.3 " fill="#000000"/>
</svg>