<svg xmlns="http://www.w3.org/2000/svg" xmlns:rdkit="http://www.rdkit.org/xml" xmlns:xlink="http://www.w3.org/1999/xlink" version="1.1" baseProfile="full" xml:space="preserve" width="800px" height="400px" viewBox="0 0 800 400">
<!-- END OF HEADER -->
<rect style="opacity:1.0;fill:#FFFFFF;stroke:none" width="800.0" height="400.0" x="0.0" y="0.0"> </rect>
<rect style="opacity:1.0;fill:#FFFFFF;stroke:none" width="800.0" height="400.0" x="0.0" y="0.0"> </rect>
<rect style="opacity:1.0;fill:#FFFFFF;stroke:none" width="800.0" height="400.0" x="0.0" y="0.0"> </rect>
<rect style="opacity:1.0;fill:#FFFFFF;stroke:none" width="800.0" height="400.0" x="0.0" y="0.0"> </rect>
<rect style="opacity:1.0;fill:#FFFFFF;stroke:none" width="800.0" height="400.0" x="0.0" y="0.0"> </rect>
<rect style="opacity:1.0;fill:#FFFFFF;stroke:none" width="800.0" height="400.0" x="0.0" y="0.0"> </rect>
<rect style="opacity:1.0;fill:#FFFFFF;stroke:none" width="800.0" height="400.0" x="0.0" y="0.0"> </rect>
<path class="bond-0 atom-0 atom-1" d="M 63.8,147.7 L 104.9,124.0" style="fill:none;fill-rule:evenodd;stroke:#000000;stroke-width:2.0px;stroke-linecap:butt;stroke-linejoin:miter;stroke-opacity:1"/>
<path class="bond-1 atom-1 atom-2" d="M 104.9,124.0 L 145.9,147.7" style="fill:none;fill-rule:evenodd;stroke:#000000;stroke-width:2.0px;stroke-linecap:butt;stroke-linejoin:miter;stroke-opacity:1"/>
<path class="bond-2 atom-1 atom-3" d="M 104.9,124.0 L 104.9,104.2" style="fill:none;fill-rule:evenodd;stroke:#000000;stroke-width:2.0px;stroke-linecap:butt;stroke-linejoin:miter;stroke-opacity:1"/>
<path class="bond-2 atom-1 atom-3" d="M 104.9,104.2 L 104.9,84.5" style="fill:none;fill-rule:evenodd;stroke:#0000FF;stroke-width:2.0px;stroke-linecap:butt;stroke-linejoin:miter;stroke-opacity:1"/>
<path class="bond-3 atom-3 atom-4" d="M 111.1,73.0 L 128.5,62.9" style="fill:none;fill-rule:evenodd;stroke:#0000FF;stroke-width:2.0px;stroke-linecap:butt;stroke-linejoin:miter;stroke-opacity:1"/>
<path class="bond-3 atom-3 atom-4" d="M 128.5,62.9 L 145.9,52.9" style="fill:none;fill-rule:evenodd;stroke:#000000;stroke-width:2.0px;stroke-linecap:butt;stroke-linejoin:miter;stroke-opacity:1"/>
<path class="bond-6 atom-3 atom-7" d="M 98.6,73.0 L 81.2,62.9" style="fill:none;fill-rule:evenodd;stroke:#0000FF;stroke-width:2.0px;stroke-linecap:butt;stroke-linejoin:miter;stroke-opacity:1"/>
<path class="bond-6 atom-3 atom-7" d="M 81.2,62.9 L 63.8,52.9" style="fill:none;fill-rule:evenodd;stroke:#000000;stroke-width:2.0px;stroke-linecap:butt;stroke-linejoin:miter;stroke-opacity:1"/>
<path class="bond-4 atom-4 atom-5" d="M 145.9,52.9 L 145.9,5.5" style="fill:none;fill-rule:evenodd;stroke:#000000;stroke-width:2.0px;stroke-linecap:butt;stroke-linejoin:miter;stroke-opacity:1"/>
<path class="bond-5 atom-4 atom-6" d="M 145.9,52.9 L 187.0,76.6" style="fill:none;fill-rule:evenodd;stroke:#000000;stroke-width:2.0px;stroke-linecap:butt;stroke-linejoin:miter;stroke-opacity:1"/>
<path class="bond-7 atom-7 atom-8" d="M 61.4,48.8 L 44.6,58.5" style="fill:none;fill-rule:evenodd;stroke:#000000;stroke-width:2.0px;stroke-linecap:butt;stroke-linejoin:miter;stroke-opacity:1"/>
<path class="bond-7 atom-7 atom-8" d="M 44.6,58.5 L 27.7,68.2" style="fill:none;fill-rule:evenodd;stroke:#FF0000;stroke-width:2.0px;stroke-linecap:butt;stroke-linejoin:miter;stroke-opacity:1"/>
<path class="bond-7 atom-7 atom-8" d="M 66.2,57.0 L 49.3,66.7" style="fill:none;fill-rule:evenodd;stroke:#000000;stroke-width:2.0px;stroke-linecap:butt;stroke-linejoin:miter;stroke-opacity:1"/>
<path class="bond-7 atom-7 atom-8" d="M 49.3,66.7 L 32.5,76.4" style="fill:none;fill-rule:evenodd;stroke:#FF0000;stroke-width:2.0px;stroke-linecap:butt;stroke-linejoin:miter;stroke-opacity:1"/>
<path class="bond-8 atom-7 atom-9" d="M 63.8,52.9 L 63.8,5.5" style="fill:none;fill-rule:evenodd;stroke:#000000;stroke-width:2.0px;stroke-linecap:butt;stroke-linejoin:miter;stroke-opacity:1"/>
<path class="atom-3" d="M 101.9 69.9 L 106.3 77.0 Q 106.7 77.7, 107.4 78.9 Q 108.1 80.2, 108.2 80.3 L 108.2 69.9 L 110.0 69.9 L 110.0 83.3 L 108.1 83.3 L 103.4 75.5 Q 102.8 74.6, 102.3 73.6 Q 101.7 72.5, 101.5 72.2 L 101.5 83.3 L 99.8 83.3 L 99.8 69.9 L 101.9 69.9 " fill="#0000FF"/>
<path class="atom-8" d="M 16.6 76.6 Q 16.6 73.4, 18.2 71.6 Q 19.8 69.8, 22.8 69.8 Q 25.7 69.8, 27.3 71.6 Q 28.9 73.4, 28.9 76.6 Q 28.9 79.9, 27.3 81.7 Q 25.7 83.6, 22.8 83.6 Q 19.8 83.6, 18.2 81.7 Q 16.6 79.9, 16.6 76.6 M 22.8 82.1 Q 24.8 82.1, 25.9 80.7 Q 27.0 79.3, 27.0 76.6 Q 27.0 74.0, 25.9 72.7 Q 24.8 71.3, 22.8 71.3 Q 20.7 71.3, 19.6 72.6 Q 18.5 74.0, 18.5 76.6 Q 18.5 79.3, 19.6 80.7 Q 20.7 82.1, 22.8 82.1 " fill="#FF0000"/>
<path class="note" d="M 67.8 158.0 Q 66.5 158.0, 65.9 157.1 Q 65.3 156.2, 65.3 154.5 Q 65.3 152.9, 65.9 152.0 Q 66.5 151.1, 67.8 151.1 Q 69.0 151.1, 69.6 152.0 Q 70.2 152.9, 70.2 154.5 Q 70.2 156.2, 69.6 157.1 Q 69.0 158.0, 67.8 158.0 M 67.8 157.2 Q 68.5 157.2, 68.9 156.6 Q 69.3 155.9, 69.3 154.5 Q 69.3 153.2, 68.9 152.6 Q 68.5 151.9, 67.8 151.9 Q 67.0 151.9, 66.7 152.6 Q 66.3 153.2, 66.3 154.5 Q 66.3 155.9, 66.7 156.6 Q 67.0 157.2, 67.8 157.2 " fill="#000000"/>
<path class="note" d="M 103.2 134.5 L 104.7 134.5 L 104.7 129.5 L 103.1 130.0 L 102.8 129.4 L 104.9 128.5 L 105.6 128.6 L 105.6 134.5 L 106.9 134.5 L 106.9 135.2 L 103.2 135.2 L 103.2 134.5 " fill="#000000"/>
<path class="note" d="M 147.6 138.8 Q 147.9 138.2, 148.5 137.8 Q 149.0 137.4, 149.9 137.4 Q 150.9 137.4, 151.4 138.0 Q 152.0 138.5, 152.0 139.5 Q 152.0 140.5, 151.3 141.4 Q 150.5 142.4, 149.0 143.5 L 152.1 143.5 L 152.1 144.2 L 147.6 144.2 L 147.6 143.6 Q 148.9 142.7, 149.6 142.0 Q 150.3 141.4, 150.7 140.8 Q 151.1 140.2, 151.1 139.6 Q 151.1 138.9, 150.7 138.6 Q 150.4 138.2, 149.9 138.2 Q 149.3 138.2, 149.0 138.4 Q 148.6 138.6, 148.3 139.1 L 147.6 138.8 " fill="#000000"/>
<path class="note" d="M 119.5 84.3 Q 120.2 84.5, 120.5 85.0 Q 120.8 85.4, 120.8 86.0 Q 120.8 86.6, 120.5 87.0 Q 120.2 87.5, 119.7 87.7 Q 119.2 88.0, 118.5 88.0 Q 117.8 88.0, 117.2 87.7 Q 116.7 87.5, 116.3 87.0 L 116.8 86.4 Q 117.2 86.9, 117.6 87.0 Q 118.0 87.2, 118.5 87.2 Q 119.1 87.2, 119.5 86.9 Q 119.9 86.6, 119.9 86.0 Q 119.9 85.3, 119.5 85.0 Q 119.1 84.7, 118.3 84.7 L 117.8 84.7 L 117.8 84.0 L 118.2 84.0 Q 118.9 84.0, 119.3 83.7 Q 119.7 83.4, 119.7 82.8 Q 119.7 82.4, 119.4 82.1 Q 119.1 81.8, 118.5 81.8 Q 118.0 81.8, 117.6 82.0 Q 117.3 82.2, 117.0 82.7 L 116.3 82.4 Q 116.6 81.8, 117.2 81.5 Q 117.7 81.1, 118.5 81.1 Q 119.5 81.1, 120.1 81.5 Q 120.7 82.0, 120.7 82.8 Q 120.7 83.3, 120.4 83.7 Q 120.1 84.1, 119.5 84.3 " fill="#000000"/>
<path class="note" d="M 140.8 50.0 L 141.7 50.0 L 141.7 50.7 L 140.8 50.7 L 140.8 52.3 L 140.0 52.3 L 140.0 50.7 L 136.5 50.7 L 136.5 50.1 L 139.4 45.6 L 140.8 45.6 L 140.8 50.0 M 137.6 50.0 L 140.0 50.0 L 140.0 46.2 L 137.6 50.0 " fill="#000000"/>
<path class="note" d="M 138.2 4.6 Q 138.8 4.6, 139.3 4.9 Q 139.7 5.1, 140.0 5.6 Q 140.3 6.1, 140.3 6.7 Q 140.3 7.4, 139.9 7.9 Q 139.6 8.4, 139.1 8.7 Q 138.5 8.9, 137.9 8.9 Q 137.3 8.9, 136.7 8.7 Q 136.1 8.5, 135.7 8.0 L 136.3 7.4 Q 136.6 7.8, 137.1 8.0 Q 137.5 8.1, 137.9 8.1 Q 138.5 8.1, 138.9 7.8 Q 139.3 7.4, 139.3 6.7 Q 139.3 6.0, 138.9 5.7 Q 138.5 5.4, 137.9 5.4 Q 137.3 5.4, 136.6 5.6 L 136.1 5.4 L 136.4 2.1 L 139.9 2.1 L 139.8 2.9 L 137.2 2.9 L 137.0 4.9 Q 137.6 4.6, 138.2 4.6 " fill="#000000"/>
<path class="note" d="M 191.2 68.9 Q 191.8 68.9, 192.3 69.2 Q 192.7 69.5, 193.0 69.9 Q 193.2 70.4, 193.2 71.0 Q 193.2 71.6, 192.9 72.1 Q 192.7 72.6, 192.1 72.9 Q 191.6 73.2, 191.0 73.2 Q 189.8 73.2, 189.2 72.4 Q 188.6 71.6, 188.6 70.0 Q 188.6 68.2, 189.3 67.3 Q 190.1 66.3, 191.5 66.3 Q 191.9 66.3, 192.3 66.4 Q 192.6 66.5, 193.0 66.7 L 192.6 67.4 Q 192.1 67.1, 191.5 67.1 Q 190.6 67.1, 190.1 67.7 Q 189.6 68.3, 189.5 69.6 Q 189.9 69.3, 190.3 69.1 Q 190.7 68.9, 191.2 68.9 M 191.0 72.4 Q 191.3 72.4, 191.6 72.2 Q 191.9 72.1, 192.1 71.7 Q 192.3 71.4, 192.3 71.0 Q 192.3 70.4, 192.0 70.0 Q 191.6 69.7, 191.0 69.7 Q 190.6 69.7, 190.2 69.9 Q 189.8 70.0, 189.5 70.3 Q 189.6 71.4, 189.9 71.9 Q 190.3 72.4, 191.0 72.4 " fill="#000000"/>
<path class="note" d="M 65.1 58.2 L 61.6 58.2 L 61.6 57.4 L 66.0 57.4 L 66.0 58.1 L 63.3 64.1 L 62.4 64.1 L 65.1 58.2 " fill="#000000"/>
<path class="note" d="M 10.1 84.3 Q 10.8 84.6, 11.1 85.0 Q 11.5 85.4, 11.5 86.0 Q 11.5 86.6, 11.2 87.0 Q 10.9 87.5, 10.3 87.7 Q 9.8 88.0, 9.1 88.0 Q 8.0 88.0, 7.4 87.5 Q 6.7 86.9, 6.7 86.0 Q 6.7 85.5, 7.0 85.1 Q 7.3 84.7, 7.9 84.3 Q 7.4 84.1, 7.2 83.7 Q 7.0 83.4, 7.0 82.8 Q 7.0 82.0, 7.5 81.5 Q 8.1 81.1, 9.1 81.1 Q 10.1 81.1, 10.6 81.5 Q 11.2 82.0, 11.2 82.8 Q 11.2 83.3, 10.9 83.7 Q 10.7 84.0, 10.1 84.3 M 9.1 81.8 Q 8.5 81.8, 8.2 82.1 Q 7.9 82.3, 7.9 82.8 Q 7.9 83.2, 8.1 83.4 Q 8.3 83.6, 8.6 83.7 Q 8.9 83.9, 9.5 84.1 Q 9.9 83.8, 10.1 83.5 Q 10.3 83.2, 10.3 82.8 Q 10.3 82.3, 10.0 82.1 Q 9.7 81.8, 9.1 81.8 M 9.1 87.3 Q 9.8 87.3, 10.1 86.9 Q 10.5 86.6, 10.5 86.0 Q 10.5 85.7, 10.3 85.4 Q 10.1 85.2, 9.8 85.1 Q 9.5 84.9, 9.0 84.8 L 8.6 84.6 Q 8.1 84.9, 7.9 85.3 Q 7.7 85.6, 7.7 86.0 Q 7.7 86.6, 8.1 86.9 Q 8.5 87.3, 9.1 87.3 " fill="#000000"/>
<path class="note" d="M 55.8 2.1 Q 57.0 2.1, 57.6 2.9 Q 58.2 3.7, 58.2 5.3 Q 58.2 7.1, 57.5 8.0 Q 56.8 9.0, 55.3 9.0 Q 54.9 9.0, 54.6 8.9 Q 54.2 8.8, 53.9 8.6 L 54.2 7.9 Q 54.7 8.2, 55.3 8.2 Q 56.3 8.2, 56.7 7.6 Q 57.2 7.0, 57.3 5.7 Q 56.9 6.0, 56.5 6.2 Q 56.1 6.4, 55.6 6.4 Q 55.0 6.4, 54.6 6.1 Q 54.1 5.8, 53.8 5.4 Q 53.6 4.9, 53.6 4.3 Q 53.6 3.7, 53.9 3.2 Q 54.2 2.7, 54.7 2.4 Q 55.2 2.1, 55.8 2.1 M 54.5 4.3 Q 54.5 4.9, 54.9 5.3 Q 55.2 5.6, 55.8 5.6 Q 56.2 5.6, 56.6 5.4 Q 57.0 5.3, 57.3 5.0 Q 57.3 3.9, 56.9 3.4 Q 56.6 2.9, 55.8 2.9 Q 55.5 2.9, 55.2 3.1 Q 54.9 3.2, 54.7 3.6 Q 54.5 3.9, 54.5 4.3 " fill="#000000"/>
<path d="M 12.9 178.7 L 16.6 184.7 Q 16.9 185.3, 17.5 186.3 Q 18.1 187.4, 18.2 187.5 L 18.2 178.7 L 19.7 178.7 L 19.7 190.0 L 18.1 190.0 L 14.1 183.4 Q 13.7 182.7, 13.2 181.8 Q 12.7 180.9, 12.5 180.6 L 12.5 190.0 L 11.1 190.0 L 11.1 178.7 L 12.9 178.7 " fill="#000000"/>
<path d="M 20.7 188.4 L 22.3 188.4 L 22.3 189.7 L 22.0 191.9 L 21.4 191.9 L 21.4 190.0 L 20.7 190.0 L 20.7 188.4 " fill="#000000"/>
<path d="M 25.4 178.7 L 29.1 184.7 Q 29.5 185.3, 30.1 186.3 Q 30.7 187.4, 30.7 187.5 L 30.7 178.7 L 32.2 178.7 L 32.2 190.0 L 30.7 190.0 L 26.7 183.4 Q 26.2 182.7, 25.7 181.8 Q 25.3 180.9, 25.1 180.6 L 25.1 190.0 L 23.6 190.0 L 23.6 178.7 L 25.4 178.7 " fill="#000000"/>
<path d="M 33.0 184.2 L 38.9 184.2 L 38.9 185.5 L 33.0 185.5 L 33.0 184.2 " fill="#000000"/>
<path d="M 43.9 178.7 Q 46.4 178.7, 47.8 180.2 Q 49.1 181.6, 49.1 184.3 Q 49.1 187.0, 47.8 188.5 Q 46.4 190.0, 43.9 190.0 L 40.3 190.0 L 40.3 178.7 L 43.9 178.7 M 43.9 188.7 Q 45.7 188.7, 46.6 187.6 Q 47.5 186.5, 47.5 184.3 Q 47.5 182.1, 46.6 181.0 Q 45.7 179.9, 43.9 179.9 L 41.8 179.9 L 41.8 188.7 L 43.9 188.7 " fill="#000000"/>
<path d="M 50.5 178.7 L 52.0 178.7 L 52.0 180.1 L 50.5 180.1 L 50.5 178.7 M 50.5 181.8 L 52.0 181.8 L 52.0 190.0 L 50.5 190.0 L 50.5 181.8 " fill="#000000"/>
<path d="M 53.3 178.7 L 54.8 178.7 L 54.8 180.1 L 53.3 180.1 L 53.3 178.7 M 53.3 181.8 L 54.8 181.8 L 54.8 190.0 L 53.3 190.0 L 53.3 181.8 " fill="#000000"/>
<path d="M 56.1 188.3 Q 56.8 188.6, 57.3 188.7 Q 57.8 188.9, 58.4 188.9 Q 59.1 188.9, 59.5 188.6 Q 59.9 188.3, 59.9 187.7 Q 59.9 187.3, 59.7 187.1 Q 59.5 186.9, 59.2 186.7 Q 59.0 186.6, 58.3 186.4 Q 58.1 186.4, 57.4 186.1 Q 56.7 185.8, 56.3 185.3 Q 55.9 184.8, 55.9 184.0 Q 55.9 183.0, 56.7 182.3 Q 57.4 181.6, 58.9 181.6 Q 59.5 181.6, 60.1 181.8 Q 60.6 181.9, 61.3 182.2 L 60.9 183.3 Q 60.3 183.1, 59.9 183.0 Q 59.4 182.9, 58.9 182.9 Q 58.2 182.9, 57.8 183.2 Q 57.4 183.5, 57.4 183.9 Q 57.4 184.4, 57.7 184.6 Q 58.0 184.8, 58.7 185.1 Q 58.9 185.1, 59.0 185.2 L 59.4 185.3 Q 60.1 185.5, 60.5 185.8 Q 60.9 186.0, 61.2 186.5 Q 61.4 186.9, 61.4 187.7 Q 61.4 188.8, 60.6 189.5 Q 59.8 190.1, 58.4 190.1 Q 57.6 190.1, 57.0 190.0 Q 56.3 189.8, 55.6 189.5 L 56.1 188.3 " fill="#000000"/>
<path d="M 62.2 185.9 Q 62.2 183.9, 63.2 182.7 Q 64.2 181.6, 66.1 181.6 Q 68.0 181.6, 69.0 182.7 Q 70.0 183.9, 70.0 185.9 Q 70.0 187.9, 69.0 189.0 Q 68.0 190.1, 66.1 190.1 Q 64.2 190.1, 63.2 189.0 Q 62.2 187.9, 62.2 185.9 M 63.7 185.9 Q 63.7 187.4, 64.3 188.2 Q 64.9 188.9, 66.1 188.9 Q 67.2 188.9, 67.8 188.2 Q 68.5 187.4, 68.5 185.9 Q 68.5 184.4, 67.8 183.6 Q 67.2 182.8, 66.1 182.8 Q 64.9 182.8, 64.3 183.6 Q 63.7 184.4, 63.7 185.9 " fill="#000000"/>
<path d="M 75.1 181.6 Q 76.8 181.6, 77.8 182.7 Q 78.7 183.8, 78.7 185.7 Q 78.7 187.8, 77.6 189.0 Q 76.5 190.1, 74.5 190.1 Q 73.6 190.1, 72.8 189.9 L 72.8 193.9 L 71.3 193.9 L 71.3 181.8 L 72.5 181.8 L 72.7 182.8 Q 73.1 182.2, 73.7 181.9 Q 74.4 181.6, 75.1 181.6 M 74.5 188.9 Q 75.8 188.9, 76.5 188.1 Q 77.2 187.3, 77.2 185.7 Q 77.2 184.3, 76.6 183.6 Q 76.1 182.8, 75.0 182.8 Q 74.2 182.8, 73.6 183.2 Q 73.0 183.7, 72.8 184.4 L 72.8 188.7 Q 73.6 188.9, 74.5 188.9 " fill="#000000"/>
<path d="M 81.3 181.8 L 81.5 182.9 Q 82.4 181.6, 83.8 181.6 Q 84.2 181.6, 84.8 181.8 L 84.6 183.1 Q 83.9 183.0, 83.5 183.0 Q 82.8 183.0, 82.4 183.2 Q 82.0 183.5, 81.6 184.1 L 81.6 190.0 L 80.1 190.0 L 80.1 181.8 L 81.3 181.8 " fill="#000000"/>
<path d="M 85.6 185.9 Q 85.6 183.9, 86.6 182.7 Q 87.6 181.6, 89.5 181.6 Q 91.3 181.6, 92.3 182.7 Q 93.4 183.9, 93.4 185.9 Q 93.4 187.9, 92.3 189.0 Q 91.3 190.1, 89.5 190.1 Q 87.6 190.1, 86.6 189.0 Q 85.6 187.9, 85.6 185.9 M 87.1 185.9 Q 87.1 187.4, 87.7 188.2 Q 88.3 188.9, 89.5 188.9 Q 90.6 188.9, 91.2 188.2 Q 91.8 187.4, 91.8 185.9 Q 91.8 184.4, 91.2 183.6 Q 90.6 182.8, 89.5 182.8 Q 88.3 182.8, 87.7 183.6 Q 87.1 184.4, 87.1 185.9 " fill="#000000"/>
<path d="M 98.5 181.6 Q 100.2 181.6, 101.2 182.7 Q 102.1 183.8, 102.1 185.7 Q 102.1 187.8, 101.0 189.0 Q 99.9 190.1, 97.9 190.1 Q 97.0 190.1, 96.2 189.9 L 96.2 193.9 L 94.7 193.9 L 94.7 181.8 L 95.9 181.8 L 96.1 182.8 Q 96.5 182.2, 97.1 181.9 Q 97.7 181.6, 98.5 181.6 M 97.9 188.9 Q 99.1 188.9, 99.9 188.1 Q 100.6 187.3, 100.6 185.7 Q 100.6 184.3, 100.0 183.6 Q 99.4 182.8, 98.4 182.8 Q 97.6 182.8, 97.0 183.2 Q 96.4 183.7, 96.2 184.4 L 96.2 188.7 Q 97.0 188.9, 97.9 188.9 " fill="#000000"/>
<path d="M 108.6 181.8 L 110.1 181.8 L 105.8 193.9 L 104.5 193.9 L 105.8 190.0 L 105.2 190.0 L 102.3 181.8 L 103.8 181.8 L 106.3 188.7 L 108.6 181.8 " fill="#000000"/>
<path d="M 111.5 177.8 L 112.9 177.8 L 112.9 190.0 L 111.5 190.0 L 111.5 177.8 " fill="#000000"/>
<path d="M 113.6 187.8 Q 113.6 186.5, 114.7 185.7 Q 115.7 185.0, 117.7 185.0 L 118.9 185.0 L 118.9 184.7 Q 118.9 183.7, 118.5 183.2 Q 118.1 182.8, 117.0 182.8 Q 116.4 182.8, 115.9 182.9 Q 115.3 183.0, 114.5 183.4 L 114.1 182.4 Q 115.6 181.6, 117.1 181.6 Q 118.8 181.6, 119.6 182.4 Q 120.4 183.1, 120.4 184.7 L 120.4 190.0 L 119.2 190.0 Q 119.2 189.9, 119.2 189.7 Q 119.1 189.4, 119.0 189.0 Q 117.9 190.2, 116.3 190.2 Q 115.1 190.2, 114.4 189.5 Q 113.6 188.9, 113.6 187.8 M 115.1 187.7 Q 115.1 188.3, 115.5 188.7 Q 115.9 189.0, 116.6 189.0 Q 117.3 189.0, 117.9 188.7 Q 118.5 188.4, 118.9 187.9 L 118.9 186.1 L 117.8 186.1 Q 116.5 186.1, 115.8 186.5 Q 115.1 186.9, 115.1 187.7 " fill="#000000"/>
<path d="M 121.1 185.9 Q 121.1 183.9, 122.1 182.8 Q 123.1 181.6, 125.1 181.6 Q 126.9 181.6, 127.9 183.0 L 126.9 183.7 Q 126.5 183.3, 126.1 183.0 Q 125.7 182.8, 125.1 182.8 Q 123.9 182.8, 123.3 183.6 Q 122.7 184.4, 122.7 185.9 Q 122.7 187.4, 123.3 188.2 Q 124.0 188.9, 125.2 188.9 Q 125.8 188.9, 126.3 188.8 Q 126.8 188.6, 127.3 188.4 L 127.8 189.4 Q 126.6 190.1, 125.1 190.1 Q 123.1 190.1, 122.1 189.0 Q 121.1 187.8, 121.1 185.9 " fill="#000000"/>
<path d="M 128.7 185.9 Q 128.7 183.8, 129.7 182.7 Q 130.7 181.6, 132.5 181.6 Q 134.3 181.6, 135.1 182.7 Q 135.9 183.8, 135.9 185.8 L 135.9 186.1 L 130.2 186.1 Q 130.2 187.5, 130.9 188.2 Q 131.5 188.9, 132.6 188.9 Q 133.3 188.9, 133.9 188.8 Q 134.5 188.6, 135.2 188.3 L 135.6 189.3 Q 134.8 189.8, 134.1 189.9 Q 133.3 190.1, 132.6 190.1 Q 130.7 190.1, 129.7 189.0 Q 128.7 187.9, 128.7 185.9 M 132.5 182.8 Q 131.6 182.8, 131.0 183.4 Q 130.4 183.9, 130.3 185.0 L 134.4 185.0 Q 134.2 183.8, 133.8 183.3 Q 133.3 182.8, 132.5 182.8 " fill="#000000"/>
<path d="M 136.4 182.9 L 136.4 181.8 L 138.0 181.8 L 138.2 179.4 L 139.3 179.4 L 139.3 181.8 L 141.9 181.8 L 141.9 182.9 L 139.3 182.9 L 139.3 187.5 Q 139.3 188.9, 140.5 188.9 Q 141.0 188.9, 141.7 188.7 L 142.0 189.7 Q 141.1 190.1, 140.3 190.1 Q 139.2 190.1, 138.5 189.4 Q 137.8 188.8, 137.8 187.5 L 137.8 182.9 L 136.4 182.9 " fill="#000000"/>
<path d="M 142.7 187.8 Q 142.7 186.5, 143.7 185.7 Q 144.8 185.0, 146.7 185.0 L 148.0 185.0 L 148.0 184.7 Q 148.0 183.7, 147.5 183.2 Q 147.1 182.8, 146.1 182.8 Q 145.4 182.8, 144.9 182.9 Q 144.4 183.0, 143.6 183.4 L 143.2 182.4 Q 144.7 181.6, 146.1 181.6 Q 147.9 181.6, 148.7 182.4 Q 149.5 183.1, 149.5 184.7 L 149.5 190.0 L 148.3 190.0 Q 148.3 189.9, 148.2 189.7 Q 148.2 189.4, 148.1 189.0 Q 146.9 190.2, 145.4 190.2 Q 144.2 190.2, 143.4 189.5 Q 142.7 188.9, 142.7 187.8 M 144.2 187.7 Q 144.2 188.3, 144.6 188.7 Q 145.0 189.0, 145.7 189.0 Q 146.3 189.0, 146.9 188.7 Q 147.5 188.4, 148.0 187.9 L 148.0 186.1 L 146.8 186.1 Q 145.5 186.1, 144.9 186.5 Q 144.2 186.9, 144.2 187.7 " fill="#000000"/>
<path d="M 160.3 181.6 Q 161.7 181.6, 162.4 182.4 Q 163.1 183.1, 163.1 184.6 L 163.1 190.0 L 161.6 190.0 L 161.6 184.7 Q 161.6 183.7, 161.2 183.3 Q 160.8 182.8, 160.0 182.8 Q 159.3 182.8, 158.6 183.2 Q 158.0 183.5, 157.7 184.1 Q 157.7 184.2, 157.7 184.6 L 157.7 190.0 L 156.2 190.0 L 156.2 184.7 Q 156.2 183.7, 155.8 183.3 Q 155.4 182.8, 154.6 182.8 Q 153.9 182.8, 153.3 183.2 Q 152.7 183.5, 152.3 184.1 L 152.3 190.0 L 150.8 190.0 L 150.8 181.8 L 152.0 181.8 L 152.2 182.9 Q 153.2 181.6, 154.9 181.6 Q 156.8 181.6, 157.4 183.1 Q 158.5 181.6, 160.3 181.6 " fill="#000000"/>
<path d="M 164.5 178.7 L 165.9 178.7 L 165.9 180.1 L 164.5 180.1 L 164.5 178.7 M 164.5 181.8 L 165.9 181.8 L 165.9 190.0 L 164.5 190.0 L 164.5 181.8 " fill="#000000"/>
<path d="M 174.1 177.8 L 174.1 190.0 L 172.9 190.0 L 172.7 189.0 Q 171.8 190.1, 170.3 190.1 Q 168.6 190.1, 167.6 189.1 Q 166.7 188.0, 166.7 186.0 Q 166.7 183.9, 167.8 182.8 Q 168.9 181.6, 170.9 181.6 Q 171.7 181.6, 172.6 181.8 L 172.6 177.8 L 174.1 177.8 M 170.4 188.9 Q 171.2 188.9, 171.8 188.5 Q 172.4 188.0, 172.6 187.2 L 172.6 183.0 Q 171.8 182.8, 170.9 182.8 Q 169.6 182.8, 168.9 183.7 Q 168.2 184.5, 168.2 186.0 Q 168.2 187.4, 168.8 188.2 Q 169.3 188.9, 170.4 188.9 " fill="#000000"/>
<path d="M 174.9 185.9 Q 174.9 183.8, 175.9 182.7 Q 176.9 181.6, 178.7 181.6 Q 180.5 181.6, 181.3 182.7 Q 182.2 183.8, 182.2 185.8 L 182.2 186.1 L 176.4 186.1 Q 176.4 187.5, 177.1 188.2 Q 177.7 188.9, 178.9 188.9 Q 179.5 188.9, 180.1 188.8 Q 180.7 188.6, 181.4 188.3 L 181.8 189.3 Q 181.0 189.8, 180.3 189.9 Q 179.5 190.1, 178.8 190.1 Q 176.9 190.1, 175.9 189.0 Q 174.9 187.9, 174.9 185.9 M 178.7 182.8 Q 177.8 182.8, 177.2 183.4 Q 176.6 183.9, 176.5 185.0 L 180.6 185.0 Q 180.5 183.8, 180.0 183.3 Q 179.6 182.8, 178.7 182.8 " fill="#000000"/>
<path class="bond-0 atom-0 atom-1" d="M 247.4,100.3 L 288.4,76.6" style="fill:none;fill-rule:evenodd;stroke:#000000;stroke-width:2.0px;stroke-linecap:butt;stroke-linejoin:miter;stroke-opacity:1"/>
<path class="bond-1 atom-1 atom-2" d="M 293.2,76.6 L 293.2,57.0" style="fill:none;fill-rule:evenodd;stroke:#000000;stroke-width:2.0px;stroke-linecap:butt;stroke-linejoin:miter;stroke-opacity:1"/>
<path class="bond-1 atom-1 atom-2" d="M 293.2,57.0 L 293.2,37.4" style="fill:none;fill-rule:evenodd;stroke:#FF0000;stroke-width:2.0px;stroke-linecap:butt;stroke-linejoin:miter;stroke-opacity:1"/>
<path class="bond-1 atom-1 atom-2" d="M 283.7,76.6 L 283.7,57.0" style="fill:none;fill-rule:evenodd;stroke:#000000;stroke-width:2.0px;stroke-linecap:butt;stroke-linejoin:miter;stroke-opacity:1"/>
<path class="bond-1 atom-1 atom-2" d="M 283.7,57.0 L 283.7,37.4" style="fill:none;fill-rule:evenodd;stroke:#FF0000;stroke-width:2.0px;stroke-linecap:butt;stroke-linejoin:miter;stroke-opacity:1"/>
<path class="bond-2 atom-1 atom-3" d="M 288.4,76.6 L 305.8,86.6" style="fill:none;fill-rule:evenodd;stroke:#000000;stroke-width:2.0px;stroke-linecap:butt;stroke-linejoin:miter;stroke-opacity:1"/>
<path class="bond-2 atom-1 atom-3" d="M 305.8,86.6 L 323.2,96.7" style="fill:none;fill-rule:evenodd;stroke:#0000FF;stroke-width:2.0px;stroke-linecap:butt;stroke-linejoin:miter;stroke-opacity:1"/>
<path class="bond-3 atom-3 atom-4" d="M 335.8,96.7 L 353.2,86.6" style="fill:none;fill-rule:evenodd;stroke:#0000FF;stroke-width:2.0px;stroke-linecap:butt;stroke-linejoin:miter;stroke-opacity:1"/>
<path class="bond-3 atom-3 atom-4" d="M 353.2,86.6 L 370.5,76.6" style="fill:none;fill-rule:evenodd;stroke:#000000;stroke-width:2.0px;stroke-linecap:butt;stroke-linejoin:miter;stroke-opacity:1"/>
<path class="atom-2" d="M 282.3 29.2 Q 282.3 26.0, 283.9 24.2 Q 285.5 22.4, 288.4 22.4 Q 291.4 22.4, 293.0 24.2 Q 294.6 26.0, 294.6 29.2 Q 294.6 32.5, 293.0 34.3 Q 291.4 36.2, 288.4 36.2 Q 285.5 36.2, 283.9 34.3 Q 282.3 32.5, 282.3 29.2 M 288.4 34.7 Q 290.5 34.7, 291.6 33.3 Q 292.7 31.9, 292.7 29.2 Q 292.7 26.6, 291.6 25.3 Q 290.5 23.9, 288.4 23.9 Q 286.4 23.9, 285.3 25.2 Q 284.2 26.6, 284.2 29.2 Q 284.2 31.9, 285.3 33.3 Q 286.4 34.7, 288.4 34.7 " fill="#FF0000"/>
<path class="atom-3" d="M 326.5 93.6 L 330.9 100.7 Q 331.4 101.4, 332.1 102.6 Q 332.8 103.9, 332.8 104.0 L 332.8 93.6 L 334.6 93.6 L 334.6 107.0 L 332.7 107.0 L 328.0 99.2 Q 327.5 98.3, 326.9 97.3 Q 326.3 96.2, 326.1 95.9 L 326.1 107.0 L 324.4 107.0 L 324.4 93.6 L 326.5 93.6 " fill="#0000FF"/>
<path class="atom-3" d="M 324.2 108.3 L 326.1 108.3 L 326.1 114.0 L 332.9 114.0 L 332.9 108.3 L 334.7 108.3 L 334.7 121.8 L 332.9 121.8 L 332.9 115.6 L 326.1 115.6 L 326.1 121.8 L 324.2 121.8 L 324.2 108.3 " fill="#0000FF"/>
<path class="note" d="M 251.4 110.6 Q 250.1 110.6, 249.5 109.7 Q 248.9 108.8, 248.9 107.1 Q 248.9 105.5, 249.5 104.6 Q 250.1 103.7, 251.4 103.7 Q 252.6 103.7, 253.2 104.6 Q 253.8 105.5, 253.8 107.1 Q 253.8 108.8, 253.2 109.7 Q 252.6 110.6, 251.4 110.6 M 251.4 109.8 Q 252.1 109.8, 252.5 109.2 Q 252.9 108.5, 252.9 107.1 Q 252.9 105.8, 252.5 105.2 Q 252.1 104.5, 251.4 104.5 Q 250.6 104.5, 250.2 105.2 Q 249.8 105.8, 249.8 107.1 Q 249.8 108.5, 250.2 109.2 Q 250.6 109.8, 251.4 109.8 " fill="#000000"/>
<path class="note" d="M 280.0 75.2 L 281.4 75.2 L 281.4 70.2 L 279.8 70.7 L 279.6 70.2 L 281.6 69.3 L 282.3 69.4 L 282.3 75.2 L 283.6 75.2 L 283.6 76.0 L 280.0 76.0 L 280.0 75.2 " fill="#000000"/>
<path class="note" d="M 286.2 11.3 Q 286.5 10.7, 287.0 10.4 Q 287.6 10.0, 288.4 10.0 Q 289.5 10.0, 290.0 10.5 Q 290.6 11.1, 290.6 12.1 Q 290.6 13.1, 289.9 14.0 Q 289.1 14.9, 287.6 16.0 L 290.7 16.0 L 290.7 16.8 L 286.2 16.8 L 286.2 16.1 Q 287.4 15.3, 288.2 14.6 Q 288.9 13.9, 289.3 13.3 Q 289.6 12.7, 289.6 12.1 Q 289.6 11.5, 289.3 11.1 Q 289.0 10.7, 288.4 10.7 Q 287.9 10.7, 287.5 11.0 Q 287.2 11.2, 286.9 11.7 L 286.2 11.3 " fill="#000000"/>
<path class="note" d="M 330.5 84.3 Q 331.1 84.5, 331.4 85.0 Q 331.8 85.4, 331.8 86.0 Q 331.8 86.6, 331.5 87.0 Q 331.2 87.5, 330.7 87.7 Q 330.1 88.0, 329.5 88.0 Q 328.7 88.0, 328.2 87.7 Q 327.7 87.5, 327.2 87.0 L 327.8 86.4 Q 328.2 86.9, 328.5 87.0 Q 328.9 87.2, 329.5 87.2 Q 330.1 87.2, 330.4 86.9 Q 330.8 86.6, 330.8 86.0 Q 330.8 85.3, 330.4 85.0 Q 330.0 84.7, 329.2 84.7 L 328.7 84.7 L 328.7 84.0 L 329.2 84.0 Q 329.9 84.0, 330.3 83.7 Q 330.7 83.4, 330.7 82.8 Q 330.7 82.4, 330.3 82.1 Q 330.0 81.8, 329.5 81.8 Q 328.9 81.8, 328.6 82.0 Q 328.2 82.2, 327.9 82.7 L 327.3 82.4 Q 327.5 81.8, 328.1 81.5 Q 328.7 81.1, 329.5 81.1 Q 330.5 81.1, 331.0 81.5 Q 331.6 82.0, 331.6 82.8 Q 331.6 83.3, 331.3 83.7 Q 331.0 84.1, 330.5 84.3 " fill="#000000"/>
<path class="note" d="M 368.4 70.8 L 369.2 70.8 L 369.2 71.5 L 368.4 71.5 L 368.4 73.1 L 367.5 73.1 L 367.5 71.5 L 364.0 71.5 L 364.0 71.0 L 366.9 66.4 L 368.4 66.4 L 368.4 70.8 M 365.1 70.8 L 367.5 70.8 L 367.5 67.0 L 365.1 70.8 " fill="#000000"/>
<path d="M 232.3 178.7 L 236.0 184.7 Q 236.4 185.3, 237.0 186.3 Q 237.6 187.4, 237.6 187.5 L 237.6 178.7 L 239.1 178.7 L 239.1 190.0 L 237.5 190.0 L 233.6 183.4 Q 233.1 182.7, 232.6 181.8 Q 232.1 180.9, 232.0 180.6 L 232.0 190.0 L 230.5 190.0 L 230.5 178.7 L 232.3 178.7 " fill="#000000"/>
<path d="M 239.9 184.2 L 245.8 184.2 L 245.8 185.5 L 239.9 185.5 L 239.9 184.2 " fill="#000000"/>
<path d="M 259.8 190.0 L 258.3 190.0 L 257.1 180.7 L 254.1 190.0 L 252.5 190.0 L 249.5 180.7 L 248.3 190.0 L 246.8 190.0 L 248.3 178.7 L 250.2 178.7 L 253.3 187.8 L 256.4 178.7 L 258.3 178.7 L 259.8 190.0 " fill="#000000"/>
<path d="M 260.5 185.9 Q 260.5 183.8, 261.5 182.7 Q 262.5 181.6, 264.3 181.6 Q 266.2 181.6, 267.0 182.7 Q 267.8 183.8, 267.8 185.8 L 267.8 186.1 L 262.0 186.1 Q 262.1 187.5, 262.7 188.2 Q 263.3 188.9, 264.5 188.9 Q 265.1 188.9, 265.7 188.8 Q 266.3 188.6, 267.0 188.3 L 267.5 189.3 Q 266.6 189.8, 265.9 189.9 Q 265.2 190.1, 264.4 190.1 Q 262.5 190.1, 261.5 189.0 Q 260.5 187.9, 260.5 185.9 M 264.3 182.8 Q 263.4 182.8, 262.8 183.4 Q 262.3 183.9, 262.1 185.0 L 266.2 185.0 Q 266.1 183.8, 265.6 183.3 Q 265.2 182.8, 264.3 182.8 " fill="#000000"/>
<path d="M 268.2 182.9 L 268.2 181.8 L 269.8 181.8 L 270.1 179.4 L 271.2 179.4 L 271.2 181.8 L 273.7 181.8 L 273.7 182.9 L 271.2 182.9 L 271.2 187.5 Q 271.2 188.9, 272.4 188.9 Q 272.9 188.9, 273.6 188.7 L 273.8 189.7 Q 272.9 190.1, 272.1 190.1 Q 271.0 190.1, 270.3 189.4 Q 269.7 188.8, 269.7 187.5 L 269.7 182.9 L 268.2 182.9 " fill="#000000"/>
<path d="M 279.5 181.6 Q 280.8 181.6, 281.5 182.4 Q 282.2 183.1, 282.2 184.6 L 282.2 190.0 L 280.7 190.0 L 280.7 184.7 Q 280.7 183.7, 280.3 183.3 Q 279.9 182.8, 279.1 182.8 Q 278.3 182.8, 277.7 183.2 Q 277.1 183.5, 276.7 184.1 L 276.7 190.0 L 275.2 190.0 L 275.2 177.8 L 276.7 177.8 L 276.7 182.8 Q 277.8 181.6, 279.5 181.6 " fill="#000000"/>
<path d="M 288.7 181.8 L 290.1 181.8 L 285.9 193.9 L 284.5 193.9 L 285.9 190.0 L 285.3 190.0 L 282.3 181.8 L 283.9 181.8 L 286.3 188.7 L 288.7 181.8 " fill="#000000"/>
<path d="M 291.5 177.8 L 293.0 177.8 L 293.0 190.0 L 291.5 190.0 L 291.5 177.8 " fill="#000000"/>
<path d="M 293.7 187.8 Q 293.7 186.5, 294.7 185.7 Q 295.8 185.0, 297.7 185.0 L 299.0 185.0 L 299.0 184.7 Q 299.0 183.7, 298.5 183.2 Q 298.1 182.8, 297.1 182.8 Q 296.4 182.8, 295.9 182.9 Q 295.4 183.0, 294.6 183.4 L 294.2 182.4 Q 295.7 181.6, 297.1 181.6 Q 298.9 181.6, 299.7 182.4 Q 300.5 183.1, 300.5 184.7 L 300.5 190.0 L 299.3 190.0 Q 299.3 189.9, 299.2 189.7 Q 299.2 189.4, 299.1 189.0 Q 297.9 190.2, 296.4 190.2 Q 295.2 190.2, 294.4 189.5 Q 293.7 188.9, 293.7 187.8 M 295.2 187.7 Q 295.2 188.3, 295.6 188.7 Q 296.0 189.0, 296.7 189.0 Q 297.3 189.0, 297.9 188.7 Q 298.5 188.4, 299.0 187.9 L 299.0 186.1 L 297.8 186.1 Q 296.5 186.1, 295.9 186.5 Q 295.2 186.9, 295.2 187.7 " fill="#000000"/>
<path d="M 301.2 185.9 Q 301.2 183.9, 302.2 182.8 Q 303.2 181.6, 305.1 181.6 Q 307.0 181.6, 308.0 183.0 L 307.0 183.7 Q 306.6 183.3, 306.1 183.0 Q 305.7 182.8, 305.1 182.8 Q 304.0 182.8, 303.4 183.6 Q 302.7 184.4, 302.7 185.9 Q 302.7 187.4, 303.4 188.2 Q 304.0 188.9, 305.2 188.9 Q 305.9 188.9, 306.4 188.8 Q 306.8 188.6, 307.4 188.4 L 307.8 189.4 Q 306.6 190.1, 305.1 190.1 Q 303.2 190.1, 302.2 189.0 Q 301.2 187.8, 301.2 185.9 " fill="#000000"/>
<path d="M 308.7 185.9 Q 308.7 183.8, 309.7 182.7 Q 310.7 181.6, 312.6 181.6 Q 314.4 181.6, 315.2 182.7 Q 316.0 183.8, 316.0 185.8 L 316.0 186.1 L 310.3 186.1 Q 310.3 187.5, 310.9 188.2 Q 311.5 188.9, 312.7 188.9 Q 313.3 188.9, 313.9 188.8 Q 314.5 188.6, 315.2 188.3 L 315.7 189.3 Q 314.9 189.8, 314.1 189.9 Q 313.4 190.1, 312.6 190.1 Q 310.8 190.1, 309.7 189.0 Q 308.7 187.9, 308.7 185.9 M 312.6 182.8 Q 311.6 182.8, 311.1 183.4 Q 310.5 183.9, 310.3 185.0 L 314.4 185.0 Q 314.3 183.8, 313.9 183.3 Q 313.4 182.8, 312.6 182.8 " fill="#000000"/>
<path d="M 316.5 182.9 L 316.5 181.8 L 318.0 181.8 L 318.3 179.4 L 319.4 179.4 L 319.4 181.8 L 321.9 181.8 L 321.9 182.9 L 319.4 182.9 L 319.4 187.5 Q 319.4 188.9, 320.6 188.9 Q 321.1 188.9, 321.8 188.7 L 322.0 189.7 Q 321.2 190.1, 320.3 190.1 Q 319.3 190.1, 318.6 189.4 Q 317.9 188.8, 317.9 187.5 L 317.9 182.9 L 316.5 182.9 " fill="#000000"/>
<path d="M 322.7 187.8 Q 322.7 186.5, 323.8 185.7 Q 324.9 185.0, 326.8 185.0 L 328.0 185.0 L 328.0 184.7 Q 328.0 183.7, 327.6 183.2 Q 327.2 182.8, 326.1 182.8 Q 325.5 182.8, 325.0 182.9 Q 324.5 183.0, 323.7 183.4 L 323.2 182.4 Q 324.7 181.6, 326.2 181.6 Q 327.9 181.6, 328.7 182.4 Q 329.5 183.1, 329.5 184.7 L 329.5 190.0 L 328.3 190.0 Q 328.3 189.9, 328.3 189.7 Q 328.2 189.4, 328.1 189.0 Q 327.0 190.2, 325.5 190.2 Q 324.2 190.2, 323.5 189.5 Q 322.7 188.9, 322.7 187.8 M 324.3 187.7 Q 324.3 188.3, 324.6 188.7 Q 325.0 189.0, 325.7 189.0 Q 326.4 189.0, 327.0 188.7 Q 327.6 188.4, 328.0 187.9 L 328.0 186.1 L 326.9 186.1 Q 325.6 186.1, 324.9 186.5 Q 324.3 186.9, 324.3 187.7 " fill="#000000"/>
<path d="M 340.3 181.6 Q 341.7 181.6, 342.4 182.4 Q 343.1 183.1, 343.1 184.6 L 343.1 190.0 L 341.6 190.0 L 341.6 184.7 Q 341.6 183.7, 341.2 183.3 Q 340.9 182.8, 340.0 182.8 Q 339.3 182.8, 338.7 183.2 Q 338.1 183.5, 337.7 184.1 Q 337.7 184.2, 337.7 184.6 L 337.7 190.0 L 336.2 190.0 L 336.2 184.7 Q 336.2 183.7, 335.9 183.3 Q 335.5 182.8, 334.7 182.8 Q 333.9 182.8, 333.3 183.2 Q 332.7 183.5, 332.3 184.1 L 332.3 190.0 L 330.8 190.0 L 330.8 181.8 L 332.1 181.8 L 332.2 182.9 Q 333.3 181.6, 334.9 181.6 Q 336.9 181.6, 337.5 183.1 Q 338.6 181.6, 340.3 181.6 " fill="#000000"/>
<path d="M 344.5 178.7 L 346.0 178.7 L 346.0 180.1 L 344.5 180.1 L 344.5 178.7 M 344.5 181.8 L 346.0 181.8 L 346.0 190.0 L 344.5 190.0 L 344.5 181.8 " fill="#000000"/>
<path d="M 354.2 177.8 L 354.2 190.0 L 353.0 190.0 L 352.8 189.0 Q 351.9 190.1, 350.3 190.1 Q 348.6 190.1, 347.7 189.1 Q 346.7 188.0, 346.7 186.0 Q 346.7 183.9, 347.8 182.8 Q 349.0 181.6, 350.9 181.6 Q 351.8 181.6, 352.7 181.8 L 352.7 177.8 L 354.2 177.8 M 350.4 188.9 Q 351.3 188.9, 351.9 188.5 Q 352.5 188.0, 352.7 187.2 L 352.7 183.0 Q 351.9 182.8, 351.0 182.8 Q 349.7 182.8, 349.0 183.7 Q 348.3 184.5, 348.3 186.0 Q 348.3 187.4, 348.8 188.2 Q 349.4 188.9, 350.4 188.9 " fill="#000000"/>
<path d="M 354.9 185.9 Q 354.9 183.8, 355.9 182.7 Q 356.9 181.6, 358.8 181.6 Q 360.6 181.6, 361.4 182.7 Q 362.2 183.8, 362.2 185.8 L 362.2 186.1 L 356.5 186.1 Q 356.5 187.5, 357.1 188.2 Q 357.7 188.9, 358.9 188.9 Q 359.5 188.9, 360.1 188.8 Q 360.7 188.6, 361.5 188.3 L 361.9 189.3 Q 361.1 189.8, 360.3 189.9 Q 359.6 190.1, 358.8 190.1 Q 357.0 190.1, 355.9 189.0 Q 354.9 187.9, 354.9 185.9 M 358.8 182.8 Q 357.8 182.8, 357.3 183.4 Q 356.7 183.9, 356.5 185.0 L 360.6 185.0 Q 360.5 183.8, 360.1 183.3 Q 359.6 182.8, 358.8 182.8 " fill="#000000"/>
<path class="bond-0 atom-0 atom-1" d="M 414.0,83.5 L 458.0,65.9" style="fill:none;fill-rule:evenodd;stroke:#000000;stroke-width:2.0px;stroke-linecap:butt;stroke-linejoin:miter;stroke-opacity:1"/>
<path class="bond-1 atom-1 atom-2" d="M 458.0,65.9 L 473.5,78.1" style="fill:none;fill-rule:evenodd;stroke:#000000;stroke-width:2.0px;stroke-linecap:butt;stroke-linejoin:miter;stroke-opacity:1"/>
<path class="bond-1 atom-1 atom-2" d="M 473.5,78.1 L 489.0,90.2" style="fill:none;fill-rule:evenodd;stroke:#0000FF;stroke-width:2.0px;stroke-linecap:butt;stroke-linejoin:miter;stroke-opacity:1"/>
<path class="bond-2 atom-2 atom-3" d="M 501.6,92.6 L 520.4,85.1" style="fill:none;fill-rule:evenodd;stroke:#0000FF;stroke-width:2.0px;stroke-linecap:butt;stroke-linejoin:miter;stroke-opacity:1"/>
<path class="bond-2 atom-2 atom-3" d="M 520.4,85.1 L 539.3,77.5" style="fill:none;fill-rule:evenodd;stroke:#000000;stroke-width:2.0px;stroke-linecap:butt;stroke-linejoin:miter;stroke-opacity:1"/>
<path class="bond-3 atom-3 atom-4" d="M 544.0,78.2 L 546.8,58.8" style="fill:none;fill-rule:evenodd;stroke:#000000;stroke-width:2.0px;stroke-linecap:butt;stroke-linejoin:miter;stroke-opacity:1"/>
<path class="bond-3 atom-3 atom-4" d="M 546.8,58.8 L 549.5,39.5" style="fill:none;fill-rule:evenodd;stroke:#FF0000;stroke-width:2.0px;stroke-linecap:butt;stroke-linejoin:miter;stroke-opacity:1"/>
<path class="bond-3 atom-3 atom-4" d="M 534.6,76.8 L 537.4,57.5" style="fill:none;fill-rule:evenodd;stroke:#000000;stroke-width:2.0px;stroke-linecap:butt;stroke-linejoin:miter;stroke-opacity:1"/>
<path class="bond-3 atom-3 atom-4" d="M 537.4,57.5 L 540.1,38.1" style="fill:none;fill-rule:evenodd;stroke:#FF0000;stroke-width:2.0px;stroke-linecap:butt;stroke-linejoin:miter;stroke-opacity:1"/>
<path class="bond-4 atom-3 atom-5" d="M 539.3,77.5 L 576.6,106.8" style="fill:none;fill-rule:evenodd;stroke:#000000;stroke-width:2.0px;stroke-linecap:butt;stroke-linejoin:miter;stroke-opacity:1"/>
<path class="atom-2" d="M 492.3 88.4 L 496.7 95.6 Q 497.2 96.3, 497.9 97.5 Q 498.6 98.8, 498.6 98.9 L 498.6 88.4 L 500.4 88.4 L 500.4 101.9 L 498.5 101.9 L 493.8 94.1 Q 493.3 93.2, 492.7 92.1 Q 492.1 91.1, 491.9 90.8 L 491.9 101.9 L 490.2 101.9 L 490.2 88.4 L 492.3 88.4 " fill="#0000FF"/>
<path class="atom-2" d="M 490.0 103.2 L 491.9 103.2 L 491.9 108.9 L 498.7 108.9 L 498.7 103.2 L 500.5 103.2 L 500.5 116.6 L 498.7 116.6 L 498.7 110.4 L 491.9 110.4 L 491.9 116.6 L 490.0 116.6 L 490.0 103.2 " fill="#0000FF"/>
<path class="atom-4" d="M 539.8 30.6 Q 539.8 27.4, 541.4 25.6 Q 543.0 23.8, 546.0 23.8 Q 549.0 23.8, 550.6 25.6 Q 552.2 27.4, 552.2 30.6 Q 552.2 33.9, 550.6 35.8 Q 548.9 37.6, 546.0 37.6 Q 543.0 37.6, 541.4 35.8 Q 539.8 33.9, 539.8 30.6 M 546.0 36.1 Q 548.1 36.1, 549.2 34.7 Q 550.3 33.3, 550.3 30.6 Q 550.3 28.0, 549.2 26.7 Q 548.1 25.3, 546.0 25.3 Q 544.0 25.3, 542.8 26.7 Q 541.7 28.0, 541.7 30.6 Q 541.7 33.4, 542.8 34.7 Q 544.0 36.1, 546.0 36.1 " fill="#FF0000"/>
<path class="note" d="M 417.0 94.3 Q 415.7 94.3, 415.1 93.4 Q 414.5 92.5, 414.5 90.9 Q 414.5 89.3, 415.1 88.4 Q 415.7 87.5, 417.0 87.5 Q 418.2 87.5, 418.8 88.4 Q 419.4 89.3, 419.4 90.9 Q 419.4 92.5, 418.8 93.4 Q 418.2 94.3, 417.0 94.3 M 417.0 93.6 Q 417.7 93.6, 418.1 92.9 Q 418.5 92.2, 418.5 90.9 Q 418.5 89.6, 418.1 88.9 Q 417.7 88.2, 417.0 88.2 Q 416.3 88.2, 415.9 88.9 Q 415.5 89.6, 415.5 90.9 Q 415.5 92.2, 415.9 92.9 Q 416.3 93.6, 417.0 93.6 " fill="#000000"/>
<path class="note" d="M 457.5 60.7 L 459.0 60.7 L 459.0 55.7 L 457.3 56.2 L 457.1 55.6 L 459.2 54.7 L 459.8 54.8 L 459.8 60.7 L 461.2 60.7 L 461.2 61.4 L 457.5 61.4 L 457.5 60.7 " fill="#000000"/>
<path class="note" d="M 495.3 77.5 Q 495.5 76.8, 496.1 76.5 Q 496.7 76.1, 497.5 76.1 Q 498.5 76.1, 499.1 76.7 Q 499.7 77.2, 499.7 78.2 Q 499.7 79.2, 498.9 80.1 Q 498.2 81.1, 496.7 82.2 L 499.8 82.2 L 499.8 82.9 L 495.3 82.9 L 495.3 82.3 Q 496.5 81.4, 497.3 80.7 Q 498.0 80.1, 498.4 79.5 Q 498.7 78.9, 498.7 78.2 Q 498.7 77.6, 498.4 77.2 Q 498.1 76.9, 497.5 76.9 Q 497.0 76.9, 496.6 77.1 Q 496.3 77.3, 496.0 77.8 L 495.3 77.5 " fill="#000000"/>
<path class="note" d="M 534.0 72.5 Q 534.7 72.7, 535.0 73.1 Q 535.3 73.5, 535.3 74.2 Q 535.3 74.8, 535.0 75.2 Q 534.8 75.6, 534.2 75.9 Q 533.7 76.1, 533.0 76.1 Q 532.3 76.1, 531.8 75.9 Q 531.2 75.6, 530.8 75.1 L 531.4 74.6 Q 531.8 75.0, 532.1 75.2 Q 532.5 75.4, 533.0 75.4 Q 533.6 75.4, 534.0 75.0 Q 534.4 74.7, 534.4 74.2 Q 534.4 73.5, 534.0 73.2 Q 533.6 72.9, 532.8 72.9 L 532.3 72.9 L 532.3 72.2 L 532.7 72.2 Q 533.5 72.2, 533.9 71.9 Q 534.2 71.6, 534.2 71.0 Q 534.2 70.5, 533.9 70.3 Q 533.6 70.0, 533.0 70.0 Q 532.5 70.0, 532.1 70.2 Q 531.8 70.4, 531.5 70.9 L 530.9 70.6 Q 531.1 70.0, 531.7 69.6 Q 532.2 69.2, 533.0 69.2 Q 534.0 69.2, 534.6 69.7 Q 535.2 70.2, 535.2 71.0 Q 535.2 71.5, 534.9 71.9 Q 534.6 72.3, 534.0 72.5 " fill="#000000"/>
<path class="note" d="M 550.0 16.0 L 550.8 16.0 L 550.8 16.8 L 550.0 16.8 L 550.0 18.3 L 549.1 18.3 L 549.1 16.8 L 545.7 16.8 L 545.7 16.2 L 548.6 11.6 L 550.0 11.6 L 550.0 16.0 M 546.8 16.0 L 549.1 16.0 L 549.1 12.2 L 546.8 16.0 " fill="#000000"/>
<path class="note" d="M 581.6 99.7 Q 582.2 99.7, 582.7 100.0 Q 583.2 100.2, 583.4 100.7 Q 583.7 101.2, 583.7 101.8 Q 583.7 102.5, 583.4 103.0 Q 583.0 103.5, 582.5 103.8 Q 581.9 104.0, 581.3 104.0 Q 580.7 104.0, 580.1 103.8 Q 579.6 103.6, 579.2 103.1 L 579.7 102.5 Q 580.0 102.9, 580.5 103.1 Q 580.9 103.2, 581.3 103.2 Q 581.9 103.2, 582.3 102.9 Q 582.8 102.5, 582.8 101.8 Q 582.8 101.1, 582.3 100.8 Q 581.9 100.5, 581.3 100.5 Q 580.7 100.5, 580.0 100.7 L 579.5 100.5 L 579.8 97.2 L 583.3 97.2 L 583.2 98.0 L 580.6 98.0 L 580.4 100.0 Q 581.0 99.7, 581.6 99.7 " fill="#000000"/>
<path d="M 439.3 178.7 L 443.0 184.7 Q 443.4 185.3, 444.0 186.3 Q 444.6 187.4, 444.6 187.5 L 444.6 178.7 L 446.1 178.7 L 446.1 190.0 L 444.6 190.0 L 440.6 183.4 Q 440.1 182.7, 439.6 181.8 Q 439.2 180.9, 439.0 180.6 L 439.0 190.0 L 437.5 190.0 L 437.5 178.7 L 439.3 178.7 " fill="#000000"/>
<path d="M 446.9 184.2 L 452.8 184.2 L 452.8 185.5 L 446.9 185.5 L 446.9 184.2 " fill="#000000"/>
<path d="M 454.2 178.7 L 460.9 178.7 L 460.9 180.0 L 455.7 180.0 L 455.7 183.4 L 460.4 183.4 L 460.4 184.7 L 455.7 184.7 L 455.7 188.7 L 461.1 188.7 L 461.1 190.0 L 454.2 190.0 L 454.2 178.7 " fill="#000000"/>
<path d="M 461.5 182.9 L 461.5 181.8 L 463.1 181.8 L 463.4 179.4 L 464.5 179.4 L 464.5 181.8 L 467.0 181.8 L 467.0 182.9 L 464.5 182.9 L 464.5 187.5 Q 464.5 188.9, 465.7 188.9 Q 466.2 188.9, 466.9 188.7 L 467.1 189.7 Q 466.2 190.1, 465.4 190.1 Q 464.3 190.1, 463.7 189.4 Q 463.0 188.8, 463.0 187.5 L 463.0 182.9 L 461.5 182.9 " fill="#000000"/>
<path d="M 472.8 181.6 Q 474.1 181.6, 474.8 182.4 Q 475.5 183.1, 475.5 184.6 L 475.5 190.0 L 474.0 190.0 L 474.0 184.7 Q 474.0 183.7, 473.6 183.3 Q 473.2 182.8, 472.4 182.8 Q 471.6 182.8, 471.0 183.2 Q 470.4 183.5, 470.0 184.1 L 470.0 190.0 L 468.5 190.0 L 468.5 177.8 L 470.0 177.8 L 470.0 182.8 Q 471.1 181.6, 472.8 181.6 " fill="#000000"/>
<path d="M 482.0 181.8 L 483.4 181.8 L 479.2 193.9 L 477.8 193.9 L 479.2 190.0 L 478.6 190.0 L 475.7 181.8 L 477.2 181.8 L 479.6 188.7 L 482.0 181.8 " fill="#000000"/>
<path d="M 484.8 177.8 L 486.3 177.8 L 486.3 190.0 L 484.8 190.0 L 484.8 177.8 " fill="#000000"/>
<path d="M 487.0 187.8 Q 487.0 186.5, 488.1 185.7 Q 489.1 185.0, 491.0 185.0 L 492.3 185.0 L 492.3 184.7 Q 492.3 183.7, 491.8 183.2 Q 491.4 182.8, 490.4 182.8 Q 489.7 182.8, 489.2 182.9 Q 488.7 183.0, 487.9 183.4 L 487.5 182.4 Q 489.0 181.6, 490.4 181.6 Q 492.2 181.6, 493.0 182.4 Q 493.8 183.1, 493.8 184.7 L 493.8 190.0 L 492.6 190.0 Q 492.6 189.9, 492.5 189.7 Q 492.5 189.4, 492.4 189.0 Q 491.2 190.2, 489.7 190.2 Q 488.5 190.2, 487.7 189.5 Q 487.0 188.9, 487.0 187.8 M 488.5 187.7 Q 488.5 188.3, 488.9 188.7 Q 489.3 189.0, 490.0 189.0 Q 490.6 189.0, 491.2 188.7 Q 491.8 188.4, 492.3 187.9 L 492.3 186.1 L 491.1 186.1 Q 489.8 186.1, 489.2 186.5 Q 488.5 186.9, 488.5 187.7 " fill="#000000"/>
<path d="M 494.5 185.9 Q 494.5 183.9, 495.5 182.8 Q 496.5 181.6, 498.4 181.6 Q 500.3 181.6, 501.3 183.0 L 500.3 183.7 Q 499.9 183.3, 499.4 183.0 Q 499.0 182.8, 498.4 182.8 Q 497.3 182.8, 496.7 183.6 Q 496.0 184.4, 496.0 185.9 Q 496.0 187.4, 496.7 188.2 Q 497.3 188.9, 498.5 188.9 Q 499.2 188.9, 499.7 188.8 Q 500.1 188.6, 500.7 188.4 L 501.1 189.4 Q 499.9 190.1, 498.4 190.1 Q 496.5 190.1, 495.5 189.0 Q 494.5 187.8, 494.5 185.9 " fill="#000000"/>
<path d="M 502.0 185.9 Q 502.0 183.8, 503.0 182.7 Q 504.0 181.6, 505.9 181.6 Q 507.7 181.6, 508.5 182.7 Q 509.3 183.8, 509.3 185.8 L 509.3 186.1 L 503.6 186.1 Q 503.6 187.5, 504.2 188.2 Q 504.8 188.9, 506.0 188.9 Q 506.6 188.9, 507.2 188.8 Q 507.8 188.6, 508.6 188.3 L 509.0 189.3 Q 508.2 189.8, 507.4 189.9 Q 506.7 190.1, 505.9 190.1 Q 504.1 190.1, 503.0 189.0 Q 502.0 187.9, 502.0 185.9 M 505.9 182.8 Q 504.9 182.8, 504.4 183.4 Q 503.8 183.9, 503.6 185.0 L 507.7 185.0 Q 507.6 183.8, 507.2 183.3 Q 506.7 182.8, 505.9 182.8 " fill="#000000"/>
<path d="M 509.8 182.9 L 509.8 181.8 L 511.3 181.8 L 511.6 179.4 L 512.7 179.4 L 512.7 181.8 L 515.2 181.8 L 515.2 182.9 L 512.7 182.9 L 512.7 187.5 Q 512.7 188.9, 513.9 188.9 Q 514.4 188.9, 515.1 188.7 L 515.4 189.7 Q 514.5 190.1, 513.6 190.1 Q 512.6 190.1, 511.9 189.4 Q 511.2 188.8, 511.2 187.5 L 511.2 182.9 L 509.8 182.9 " fill="#000000"/>
<path d="M 516.1 187.8 Q 516.1 186.5, 517.1 185.7 Q 518.2 185.0, 520.1 185.0 L 521.3 185.0 L 521.3 184.7 Q 521.3 183.7, 520.9 183.2 Q 520.5 182.8, 519.4 182.8 Q 518.8 182.8, 518.3 182.9 Q 517.8 183.0, 517.0 183.4 L 516.5 182.4 Q 518.0 181.6, 519.5 181.6 Q 521.2 181.6, 522.0 182.4 Q 522.8 183.1, 522.8 184.7 L 522.8 190.0 L 521.7 190.0 Q 521.6 189.9, 521.6 189.7 Q 521.5 189.4, 521.4 189.0 Q 520.3 190.2, 518.8 190.2 Q 517.5 190.2, 516.8 189.5 Q 516.1 188.9, 516.1 187.8 M 517.6 187.7 Q 517.6 188.3, 517.9 188.7 Q 518.3 189.0, 519.0 189.0 Q 519.7 189.0, 520.3 188.7 Q 520.9 188.4, 521.3 187.9 L 521.3 186.1 L 520.2 186.1 Q 518.9 186.1, 518.2 186.5 Q 517.6 186.9, 517.6 187.7 " fill="#000000"/>
<path d="M 533.6 181.6 Q 535.0 181.6, 535.7 182.4 Q 536.4 183.1, 536.4 184.6 L 536.4 190.0 L 534.9 190.0 L 534.9 184.7 Q 534.9 183.7, 534.6 183.3 Q 534.2 182.8, 533.4 182.8 Q 532.6 182.8, 532.0 183.2 Q 531.4 183.5, 531.0 184.1 Q 531.0 184.2, 531.0 184.6 L 531.0 190.0 L 529.5 190.0 L 529.5 184.7 Q 529.5 183.7, 529.2 183.3 Q 528.8 182.8, 528.0 182.8 Q 527.2 182.8, 526.6 183.2 Q 526.0 183.5, 525.6 184.1 L 525.6 190.0 L 524.1 190.0 L 524.1 181.8 L 525.4 181.8 L 525.5 182.9 Q 526.6 181.6, 528.2 181.6 Q 530.2 181.6, 530.8 183.1 Q 531.9 181.6, 533.6 181.6 " fill="#000000"/>
<path d="M 537.8 178.7 L 539.3 178.7 L 539.3 180.1 L 537.8 180.1 L 537.8 178.7 M 537.8 181.8 L 539.3 181.8 L 539.3 190.0 L 537.8 190.0 L 537.8 181.8 " fill="#000000"/>
<path d="M 547.5 177.8 L 547.5 190.0 L 546.3 190.0 L 546.1 189.0 Q 545.2 190.1, 543.6 190.1 Q 541.9 190.1, 541.0 189.1 Q 540.0 188.0, 540.0 186.0 Q 540.0 183.9, 541.1 182.8 Q 542.3 181.6, 544.2 181.6 Q 545.1 181.6, 546.0 181.8 L 546.0 177.8 L 547.5 177.8 M 543.7 188.9 Q 544.6 188.9, 545.2 188.5 Q 545.8 188.0, 546.0 187.2 L 546.0 183.0 Q 545.2 182.8, 544.3 182.8 Q 543.0 182.8, 542.3 183.7 Q 541.6 184.5, 541.6 186.0 Q 541.6 187.4, 542.1 188.2 Q 542.7 188.9, 543.7 188.9 " fill="#000000"/>
<path d="M 548.2 185.9 Q 548.2 183.8, 549.2 182.7 Q 550.2 181.6, 552.1 181.6 Q 553.9 181.6, 554.7 182.7 Q 555.5 183.8, 555.5 185.8 L 555.5 186.1 L 549.8 186.1 Q 549.8 187.5, 550.4 188.2 Q 551.0 188.9, 552.2 188.9 Q 552.9 188.9, 553.4 188.8 Q 554.0 188.6, 554.8 188.3 L 555.2 189.3 Q 554.4 189.8, 553.6 189.9 Q 552.9 190.1, 552.1 190.1 Q 550.3 190.1, 549.3 189.0 Q 548.2 187.9, 548.2 185.9 M 552.1 182.8 Q 551.1 182.8, 550.6 183.4 Q 550.0 183.9, 549.8 185.0 L 553.9 185.0 Q 553.8 183.8, 553.4 183.3 Q 552.9 182.8, 552.1 182.8 " fill="#000000"/>
<path class="bond-0 atom-0 atom-1" d="M 622.8,58.8 L 663.8,35.1" style="fill:none;fill-rule:evenodd;stroke:#000000;stroke-width:2.0px;stroke-linecap:butt;stroke-linejoin:miter;stroke-opacity:1"/>
<path class="bond-1 atom-1 atom-2" d="M 663.8,35.1 L 681.2,45.1" style="fill:none;fill-rule:evenodd;stroke:#000000;stroke-width:2.0px;stroke-linecap:butt;stroke-linejoin:miter;stroke-opacity:1"/>
<path class="bond-1 atom-1 atom-2" d="M 681.2,45.1 L 698.6,55.2" style="fill:none;fill-rule:evenodd;stroke:#0000FF;stroke-width:2.0px;stroke-linecap:butt;stroke-linejoin:miter;stroke-opacity:1"/>
<path class="bond-2 atom-2 atom-3" d="M 711.1,55.2 L 728.5,45.1" style="fill:none;fill-rule:evenodd;stroke:#0000FF;stroke-width:2.0px;stroke-linecap:butt;stroke-linejoin:miter;stroke-opacity:1"/>
<path class="bond-2 atom-2 atom-3" d="M 728.5,45.1 L 745.9,35.1" style="fill:none;fill-rule:evenodd;stroke:#000000;stroke-width:2.0px;stroke-linecap:butt;stroke-linejoin:miter;stroke-opacity:1"/>
<path class="bond-4 atom-2 atom-5" d="M 704.9,66.7 L 704.9,86.5" style="fill:none;fill-rule:evenodd;stroke:#0000FF;stroke-width:2.0px;stroke-linecap:butt;stroke-linejoin:miter;stroke-opacity:1"/>
<path class="bond-4 atom-2 atom-5" d="M 704.9,86.5 L 704.9,106.2" style="fill:none;fill-rule:evenodd;stroke:#000000;stroke-width:2.0px;stroke-linecap:butt;stroke-linejoin:miter;stroke-opacity:1"/>
<path class="bond-3 atom-3 atom-4" d="M 745.9,35.1 L 787.0,58.8" style="fill:none;fill-rule:evenodd;stroke:#000000;stroke-width:2.0px;stroke-linecap:butt;stroke-linejoin:miter;stroke-opacity:1"/>
<path class="bond-5 atom-5 atom-6" d="M 702.5,102.1 L 685.6,111.8" style="fill:none;fill-rule:evenodd;stroke:#000000;stroke-width:2.0px;stroke-linecap:butt;stroke-linejoin:miter;stroke-opacity:1"/>
<path class="bond-5 atom-5 atom-6" d="M 685.6,111.8 L 668.8,121.6" style="fill:none;fill-rule:evenodd;stroke:#FF0000;stroke-width:2.0px;stroke-linecap:butt;stroke-linejoin:miter;stroke-opacity:1"/>
<path class="bond-5 atom-5 atom-6" d="M 707.2,110.3 L 690.4,120.0" style="fill:none;fill-rule:evenodd;stroke:#000000;stroke-width:2.0px;stroke-linecap:butt;stroke-linejoin:miter;stroke-opacity:1"/>
<path class="bond-5 atom-5 atom-6" d="M 690.4,120.0 L 673.5,129.8" style="fill:none;fill-rule:evenodd;stroke:#FF0000;stroke-width:2.0px;stroke-linecap:butt;stroke-linejoin:miter;stroke-opacity:1"/>
<path class="bond-6 atom-5 atom-7" d="M 704.9,106.2 L 745.9,129.9" style="fill:none;fill-rule:evenodd;stroke:#000000;stroke-width:2.0px;stroke-linecap:butt;stroke-linejoin:miter;stroke-opacity:1"/>
<path class="atom-2" d="M 701.9 52.1 L 706.3 59.2 Q 706.7 59.9, 707.4 61.2 Q 708.1 62.4, 708.2 62.5 L 708.2 52.1 L 710.0 52.1 L 710.0 65.5 L 708.1 65.5 L 703.4 57.7 Q 702.8 56.8, 702.3 55.8 Q 701.7 54.7, 701.5 54.4 L 701.5 65.5 L 699.8 65.5 L 699.8 52.1 L 701.9 52.1 " fill="#0000FF"/>
<path class="atom-6" d="M 657.7 129.9 Q 657.7 126.7, 659.3 124.9 Q 660.8 123.1, 663.8 123.1 Q 666.8 123.1, 668.4 124.9 Q 670.0 126.7, 670.0 129.9 Q 670.0 133.2, 668.4 135.1 Q 666.8 136.9, 663.8 136.9 Q 660.9 136.9, 659.3 135.1 Q 657.7 133.2, 657.7 129.9 M 663.8 135.4 Q 665.9 135.4, 667.0 134.0 Q 668.1 132.6, 668.1 129.9 Q 668.1 127.3, 667.0 126.0 Q 665.9 124.6, 663.8 124.6 Q 661.8 124.6, 660.7 126.0 Q 659.6 127.3, 659.6 129.9 Q 659.6 132.6, 660.7 134.0 Q 661.8 135.4, 663.8 135.4 " fill="#FF0000"/>
<path class="note" d="M 626.7 69.1 Q 625.5 69.1, 624.9 68.2 Q 624.3 67.3, 624.3 65.7 Q 624.3 64.1, 624.9 63.2 Q 625.5 62.3, 626.7 62.3 Q 628.0 62.3, 628.6 63.2 Q 629.2 64.1, 629.2 65.7 Q 629.2 67.3, 628.6 68.2 Q 628.0 69.1, 626.7 69.1 M 626.7 68.4 Q 627.5 68.4, 627.8 67.7 Q 628.2 67.0, 628.2 65.7 Q 628.2 64.4, 627.8 63.7 Q 627.5 63.0, 626.7 63.0 Q 626.0 63.0, 625.6 63.7 Q 625.2 64.4, 625.2 65.7 Q 625.2 67.0, 625.6 67.7 Q 626.0 68.4, 626.7 68.4 " fill="#000000"/>
<path class="note" d="M 662.2 29.8 L 663.6 29.8 L 663.6 24.8 L 662.0 25.3 L 661.8 24.8 L 663.9 23.8 L 664.5 23.9 L 664.5 29.8 L 665.8 29.8 L 665.8 30.6 L 662.2 30.6 L 662.2 29.8 " fill="#000000"/>
<path class="note" d="M 702.6 41.0 Q 702.9 40.3, 703.5 40.0 Q 704.0 39.6, 704.9 39.6 Q 705.9 39.6, 706.4 40.2 Q 707.0 40.7, 707.0 41.7 Q 707.0 42.7, 706.3 43.6 Q 705.5 44.5, 704.0 45.6 L 707.1 45.6 L 707.1 46.4 L 702.6 46.4 L 702.6 45.8 Q 703.9 44.9, 704.6 44.2 Q 705.3 43.5, 705.7 43.0 Q 706.1 42.4, 706.1 41.7 Q 706.1 41.1, 705.7 40.7 Q 705.4 40.4, 704.9 40.4 Q 704.3 40.4, 704.0 40.6 Q 703.6 40.8, 703.3 41.3 L 702.6 41.0 " fill="#000000"/>
<path class="note" d="M 746.9 27.1 Q 747.5 27.3, 747.8 27.7 Q 748.2 28.1, 748.2 28.8 Q 748.2 29.3, 747.9 29.8 Q 747.6 30.2, 747.1 30.5 Q 746.6 30.7, 745.9 30.7 Q 745.2 30.7, 744.6 30.5 Q 744.1 30.2, 743.7 29.7 L 744.2 29.1 Q 744.6 29.6, 745.0 29.8 Q 745.3 29.9, 745.9 29.9 Q 746.5 29.9, 746.9 29.6 Q 747.2 29.3, 747.2 28.8 Q 747.2 28.1, 746.8 27.8 Q 746.5 27.5, 745.6 27.5 L 745.1 27.5 L 745.1 26.8 L 745.6 26.8 Q 746.3 26.8, 746.7 26.4 Q 747.1 26.1, 747.1 25.5 Q 747.1 25.1, 746.8 24.8 Q 746.4 24.6, 745.9 24.6 Q 745.3 24.6, 745.0 24.8 Q 744.6 25.0, 744.4 25.5 L 743.7 25.1 Q 744.0 24.6, 744.5 24.2 Q 745.1 23.8, 745.9 23.8 Q 746.9 23.8, 747.4 24.3 Q 748.0 24.7, 748.0 25.5 Q 748.0 26.1, 747.7 26.5 Q 747.4 26.8, 746.9 27.1 " fill="#000000"/>
<path class="note" d="M 792.7 53.0 L 793.5 53.0 L 793.5 53.8 L 792.7 53.8 L 792.7 55.3 L 791.8 55.3 L 791.8 53.8 L 788.3 53.8 L 788.3 53.2 L 791.3 48.6 L 792.7 48.6 L 792.7 53.0 M 789.4 53.0 L 791.8 53.0 L 791.8 49.2 L 789.4 53.0 " fill="#000000"/>
<path class="note" d="M 698.2 101.4 Q 698.8 101.4, 699.3 101.7 Q 699.7 101.9, 700.0 102.4 Q 700.3 102.8, 700.3 103.5 Q 700.3 104.2, 700.0 104.7 Q 699.6 105.2, 699.1 105.4 Q 698.5 105.7, 697.9 105.7 Q 697.3 105.7, 696.7 105.5 Q 696.1 105.2, 695.8 104.8 L 696.3 104.2 Q 696.6 104.5, 697.1 104.7 Q 697.5 104.9, 697.9 104.9 Q 698.5 104.9, 698.9 104.5 Q 699.3 104.2, 699.3 103.5 Q 699.3 102.8, 698.9 102.5 Q 698.5 102.1, 697.9 102.1 Q 697.3 102.1, 696.6 102.4 L 696.1 102.1 L 696.4 98.9 L 699.9 98.9 L 699.8 99.7 L 697.2 99.7 L 697.0 101.6 Q 697.6 101.4, 698.2 101.4 " fill="#000000"/>
<path class="note" d="M 650.4 137.0 Q 651.0 137.0, 651.5 137.3 Q 652.0 137.5, 652.2 138.0 Q 652.5 138.4, 652.5 139.0 Q 652.5 139.7, 652.2 140.2 Q 651.9 140.7, 651.4 141.0 Q 650.9 141.3, 650.2 141.3 Q 649.0 141.3, 648.4 140.5 Q 647.8 139.6, 647.8 138.0 Q 647.8 136.3, 648.5 135.3 Q 649.3 134.4, 650.7 134.4 Q 651.1 134.4, 651.5 134.5 Q 651.9 134.6, 652.2 134.8 L 651.8 135.4 Q 651.3 135.2, 650.7 135.2 Q 649.8 135.2, 649.3 135.8 Q 648.8 136.4, 648.8 137.6 Q 649.1 137.3, 649.5 137.2 Q 650.0 137.0, 650.4 137.0 M 650.2 140.5 Q 650.6 140.5, 650.9 140.3 Q 651.2 140.1, 651.3 139.8 Q 651.5 139.4, 651.5 139.0 Q 651.5 138.4, 651.2 138.1 Q 650.9 137.8, 650.3 137.8 Q 649.9 137.8, 649.5 137.9 Q 649.1 138.1, 648.8 138.4 Q 648.8 139.5, 649.2 140.0 Q 649.5 140.5, 650.2 140.5 " fill="#000000"/>
<path class="note" d="M 751.2 120.5 L 747.6 120.5 L 747.6 119.7 L 752.1 119.7 L 752.1 120.4 L 749.4 126.4 L 748.5 126.4 L 751.2 120.5 " fill="#000000"/>
<path d="M 626.7 178.7 L 630.4 184.7 Q 630.8 185.3, 631.4 186.3 Q 632.0 187.4, 632.0 187.5 L 632.0 178.7 L 633.5 178.7 L 633.5 190.0 L 632.0 190.0 L 628.0 183.4 Q 627.5 182.7, 627.0 181.8 Q 626.6 180.9, 626.4 180.6 L 626.4 190.0 L 624.9 190.0 L 624.9 178.7 L 626.7 178.7 " fill="#000000"/>
<path d="M 634.6 188.4 L 636.2 188.4 L 636.2 189.7 L 635.9 191.9 L 635.3 191.9 L 635.3 190.0 L 634.6 190.0 L 634.6 188.4 " fill="#000000"/>
<path d="M 639.3 178.7 L 643.0 184.7 Q 643.4 185.3, 644.0 186.3 Q 644.6 187.4, 644.6 187.5 L 644.6 178.7 L 646.1 178.7 L 646.1 190.0 L 644.5 190.0 L 640.6 183.4 Q 640.1 182.7, 639.6 181.8 Q 639.1 180.9, 639.0 180.6 L 639.0 190.0 L 637.5 190.0 L 637.5 178.7 L 639.3 178.7 " fill="#000000"/>
<path d="M 646.9 184.2 L 652.8 184.2 L 652.8 185.5 L 646.9 185.5 L 646.9 184.2 " fill="#000000"/>
<path d="M 657.8 178.7 Q 660.3 178.7, 661.6 180.2 Q 663.0 181.6, 663.0 184.3 Q 663.0 187.0, 661.6 188.5 Q 660.3 190.0, 657.8 190.0 L 654.1 190.0 L 654.1 178.7 L 657.8 178.7 M 657.8 188.7 Q 659.5 188.7, 660.4 187.6 Q 661.4 186.5, 661.4 184.3 Q 661.4 182.1, 660.4 181.0 Q 659.5 179.9, 657.8 179.9 L 655.7 179.9 L 655.7 188.7 L 657.8 188.7 " fill="#000000"/>
<path d="M 664.4 178.7 L 665.8 178.7 L 665.8 180.1 L 664.4 180.1 L 664.4 178.7 M 664.4 181.8 L 665.8 181.8 L 665.8 190.0 L 664.4 190.0 L 664.4 181.8 " fill="#000000"/>
<path d="M 666.6 185.9 Q 666.6 183.8, 667.6 182.7 Q 668.6 181.6, 670.4 181.6 Q 672.2 181.6, 673.0 182.7 Q 673.9 183.8, 673.9 185.8 L 673.9 186.1 L 668.1 186.1 Q 668.1 187.5, 668.8 188.2 Q 669.4 188.9, 670.6 188.9 Q 671.2 188.9, 671.8 188.8 Q 672.4 188.6, 673.1 188.3 L 673.5 189.3 Q 672.7 189.8, 672.0 189.9 Q 671.2 190.1, 670.5 190.1 Q 668.6 190.1, 667.6 189.0 Q 666.6 187.9, 666.6 185.9 M 670.4 182.8 Q 669.5 182.8, 668.9 183.4 Q 668.4 183.9, 668.2 185.0 L 672.3 185.0 Q 672.2 183.8, 671.7 183.3 Q 671.3 182.8, 670.4 182.8 " fill="#000000"/>
<path d="M 674.3 182.9 L 674.3 181.8 L 675.9 181.8 L 676.1 179.4 L 677.3 179.4 L 677.3 181.8 L 679.8 181.8 L 679.8 182.9 L 677.3 182.9 L 677.3 187.5 Q 677.3 188.9, 678.5 188.9 Q 678.9 188.9, 679.6 188.7 L 679.9 189.7 Q 679.0 190.1, 678.2 190.1 Q 677.1 190.1, 676.4 189.4 Q 675.8 188.8, 675.8 187.5 L 675.8 182.9 L 674.3 182.9 " fill="#000000"/>
<path d="M 685.6 181.6 Q 686.9 181.6, 687.6 182.4 Q 688.3 183.1, 688.3 184.6 L 688.3 190.0 L 686.8 190.0 L 686.8 184.7 Q 686.8 183.7, 686.4 183.3 Q 686.0 182.8, 685.2 182.8 Q 684.4 182.8, 683.8 183.2 Q 683.2 183.5, 682.8 184.1 L 682.8 190.0 L 681.3 190.0 L 681.3 177.8 L 682.8 177.8 L 682.8 182.8 Q 683.9 181.6, 685.6 181.6 " fill="#000000"/>
<path d="M 694.8 181.8 L 696.2 181.8 L 692.0 193.9 L 690.6 193.9 L 692.0 190.0 L 691.3 190.0 L 688.4 181.8 L 690.0 181.8 L 692.4 188.7 L 694.8 181.8 " fill="#000000"/>
<path d="M 697.6 177.8 L 699.1 177.8 L 699.1 190.0 L 697.6 190.0 L 697.6 177.8 " fill="#000000"/>
<path d="M 699.8 187.8 Q 699.8 186.5, 700.8 185.7 Q 701.9 185.0, 703.8 185.0 L 705.0 185.0 L 705.0 184.7 Q 705.0 183.7, 704.6 183.2 Q 704.2 182.8, 703.2 182.8 Q 702.5 182.8, 702.0 182.9 Q 701.5 183.0, 700.7 183.4 L 700.2 182.4 Q 701.7 181.6, 703.2 181.6 Q 704.9 181.6, 705.7 182.4 Q 706.5 183.1, 706.5 184.7 L 706.5 190.0 L 705.4 190.0 Q 705.4 189.9, 705.3 189.7 Q 705.3 189.4, 705.2 189.0 Q 704.0 190.2, 702.5 190.2 Q 701.2 190.2, 700.5 189.5 Q 699.8 188.9, 699.8 187.8 M 701.3 187.7 Q 701.3 188.3, 701.7 188.7 Q 702.0 189.0, 702.8 189.0 Q 703.4 189.0, 704.0 188.7 Q 704.6 188.4, 705.0 187.9 L 705.0 186.1 L 703.9 186.1 Q 702.6 186.1, 701.9 186.5 Q 701.3 186.9, 701.3 187.7 " fill="#000000"/>
<path d="M 707.3 185.9 Q 707.3 183.9, 708.3 182.8 Q 709.3 181.6, 711.2 181.6 Q 713.1 181.6, 714.1 183.0 L 713.1 183.7 Q 712.7 183.3, 712.2 183.0 Q 711.8 182.8, 711.2 182.8 Q 710.1 182.8, 709.4 183.6 Q 708.8 184.4, 708.8 185.9 Q 708.8 187.4, 709.5 188.2 Q 710.1 188.9, 711.3 188.9 Q 712.0 188.9, 712.4 188.8 Q 712.9 188.6, 713.5 188.4 L 713.9 189.4 Q 712.7 190.1, 711.2 190.1 Q 709.3 190.1, 708.3 189.0 Q 707.3 187.8, 707.3 185.9 " fill="#000000"/>
<path d="M 714.8 185.9 Q 714.8 183.8, 715.8 182.7 Q 716.8 181.6, 718.7 181.6 Q 720.5 181.6, 721.3 182.7 Q 722.1 183.8, 722.1 185.8 L 722.1 186.1 L 716.3 186.1 Q 716.4 187.5, 717.0 188.2 Q 717.6 188.9, 718.8 188.9 Q 719.4 188.9, 720.0 188.8 Q 720.6 188.6, 721.3 188.3 L 721.8 189.3 Q 720.9 189.8, 720.2 189.9 Q 719.5 190.1, 718.7 190.1 Q 716.8 190.1, 715.8 189.0 Q 714.8 187.9, 714.8 185.9 M 718.7 182.8 Q 717.7 182.8, 717.1 183.4 Q 716.6 183.9, 716.4 185.0 L 720.5 185.0 Q 720.4 183.8, 719.9 183.3 Q 719.5 182.8, 718.7 182.8 " fill="#000000"/>
<path d="M 722.5 182.9 L 722.5 181.8 L 724.1 181.8 L 724.4 179.4 L 725.5 179.4 L 725.5 181.8 L 728.0 181.8 L 728.0 182.9 L 725.5 182.9 L 725.5 187.5 Q 725.5 188.9, 726.7 188.9 Q 727.2 188.9, 727.9 188.7 L 728.1 189.7 Q 727.2 190.1, 726.4 190.1 Q 725.3 190.1, 724.7 189.4 Q 724.0 188.8, 724.0 187.5 L 724.0 182.9 L 722.5 182.9 " fill="#000000"/>
<path d="M 728.8 187.8 Q 728.8 186.5, 729.9 185.7 Q 730.9 185.0, 732.9 185.0 L 734.1 185.0 L 734.1 184.7 Q 734.1 183.7, 733.7 183.2 Q 733.2 182.8, 732.2 182.8 Q 731.6 182.8, 731.1 182.9 Q 730.5 183.0, 729.7 183.4 L 729.3 182.4 Q 730.8 181.6, 732.3 181.6 Q 734.0 181.6, 734.8 182.4 Q 735.6 183.1, 735.6 184.7 L 735.6 190.0 L 734.4 190.0 Q 734.4 189.9, 734.4 189.7 Q 734.3 189.4, 734.2 189.0 Q 733.1 190.2, 731.5 190.2 Q 730.3 190.2, 729.6 189.5 Q 728.8 188.9, 728.8 187.8 M 730.3 187.7 Q 730.3 188.3, 730.7 188.7 Q 731.1 189.0, 731.8 189.0 Q 732.5 189.0, 733.1 188.7 Q 733.7 188.4, 734.1 187.9 L 734.1 186.1 L 733.0 186.1 Q 731.7 186.1, 731.0 186.5 Q 730.3 186.9, 730.3 187.7 " fill="#000000"/>
<path d="M 746.4 181.6 Q 747.8 181.6, 748.5 182.4 Q 749.2 183.1, 749.2 184.6 L 749.2 190.0 L 747.7 190.0 L 747.7 184.7 Q 747.7 183.7, 747.3 183.3 Q 747.0 182.8, 746.1 182.8 Q 745.4 182.8, 744.8 183.2 Q 744.2 183.5, 743.8 184.1 Q 743.8 184.2, 743.8 184.6 L 743.8 190.0 L 742.3 190.0 L 742.3 184.7 Q 742.3 183.7, 741.9 183.3 Q 741.6 182.8, 740.7 182.8 Q 740.0 182.8, 739.4 183.2 Q 738.8 183.5, 738.4 184.1 L 738.4 190.0 L 736.9 190.0 L 736.9 181.8 L 738.1 181.8 L 738.3 182.9 Q 739.4 181.6, 741.0 181.6 Q 743.0 181.6, 743.6 183.1 Q 744.7 181.6, 746.4 181.6 " fill="#000000"/>
<path d="M 750.6 178.7 L 752.1 178.7 L 752.1 180.1 L 750.6 180.1 L 750.6 178.7 M 750.6 181.8 L 752.1 181.8 L 752.1 190.0 L 750.6 190.0 L 750.6 181.8 " fill="#000000"/>
<path d="M 760.3 177.8 L 760.3 190.0 L 759.1 190.0 L 758.8 189.0 Q 757.9 190.1, 756.4 190.1 Q 754.7 190.1, 753.7 189.1 Q 752.8 188.0, 752.8 186.0 Q 752.8 183.9, 753.9 182.8 Q 755.1 181.6, 757.0 181.6 Q 757.9 181.6, 758.8 181.8 L 758.8 177.8 L 760.3 177.8 M 756.5 188.9 Q 757.3 188.9, 757.9 188.5 Q 758.5 188.0, 758.8 187.2 L 758.8 183.0 Q 758.0 182.8, 757.0 182.8 Q 755.8 182.8, 755.1 183.7 Q 754.3 184.5, 754.3 186.0 Q 754.3 187.4, 754.9 188.2 Q 755.5 188.9, 756.5 188.9 " fill="#000000"/>
<path d="M 761.0 185.9 Q 761.0 183.8, 762.0 182.7 Q 763.0 181.6, 764.9 181.6 Q 766.7 181.6, 767.5 182.7 Q 768.3 183.8, 768.3 185.8 L 768.3 186.1 L 762.5 186.1 Q 762.6 187.5, 763.2 188.2 Q 763.8 188.9, 765.0 188.9 Q 765.6 188.9, 766.2 188.8 Q 766.8 188.6, 767.5 188.3 L 768.0 189.3 Q 767.2 189.8, 766.4 189.9 Q 765.7 190.1, 764.9 190.1 Q 763.1 190.1, 762.0 189.0 Q 761.0 187.9, 761.0 185.9 M 764.9 182.8 Q 763.9 182.8, 763.3 183.4 Q 762.8 183.9, 762.6 185.0 L 766.7 185.0 Q 766.6 183.8, 766.1 183.3 Q 765.7 182.8, 764.9 182.8 " fill="#000000"/>
<path class="bond-0 atom-0 atom-1" d="M 152.3,235.5 L 128.6,276.6" style="fill:none;fill-rule:evenodd;stroke:#000000;stroke-width:2.0px;stroke-linecap:butt;stroke-linejoin:miter;stroke-opacity:1"/>
<path class="bond-1 atom-1 atom-2" d="M 124.5,278.9 L 134.0,295.5" style="fill:none;fill-rule:evenodd;stroke:#000000;stroke-width:2.0px;stroke-linecap:butt;stroke-linejoin:miter;stroke-opacity:1"/>
<path class="bond-1 atom-1 atom-2" d="M 134.0,295.5 L 143.6,312.0" style="fill:none;fill-rule:evenodd;stroke:#FF0000;stroke-width:2.0px;stroke-linecap:butt;stroke-linejoin:miter;stroke-opacity:1"/>
<path class="bond-1 atom-1 atom-2" d="M 132.7,274.2 L 142.2,290.7" style="fill:none;fill-rule:evenodd;stroke:#000000;stroke-width:2.0px;stroke-linecap:butt;stroke-linejoin:miter;stroke-opacity:1"/>
<path class="bond-1 atom-1 atom-2" d="M 142.2,290.7 L 151.8,307.3" style="fill:none;fill-rule:evenodd;stroke:#FF0000;stroke-width:2.0px;stroke-linecap:butt;stroke-linejoin:miter;stroke-opacity:1"/>
<path class="bond-2 atom-1 atom-3" d="M 128.6,276.6 L 108.0,276.6" style="fill:none;fill-rule:evenodd;stroke:#000000;stroke-width:2.0px;stroke-linecap:butt;stroke-linejoin:miter;stroke-opacity:1"/>
<path class="bond-2 atom-1 atom-3" d="M 108.0,276.6 L 87.4,276.6" style="fill:none;fill-rule:evenodd;stroke:#0000FF;stroke-width:2.0px;stroke-linecap:butt;stroke-linejoin:miter;stroke-opacity:1"/>
<path class="bond-3 atom-3 atom-4" d="M 76.6,284.5 L 67.0,301.1" style="fill:none;fill-rule:evenodd;stroke:#0000FF;stroke-width:2.0px;stroke-linecap:butt;stroke-linejoin:miter;stroke-opacity:1"/>
<path class="bond-3 atom-3 atom-4" d="M 67.0,301.1 L 57.5,317.6" style="fill:none;fill-rule:evenodd;stroke:#000000;stroke-width:2.0px;stroke-linecap:butt;stroke-linejoin:miter;stroke-opacity:1"/>
<path class="bond-4 atom-3 atom-5" d="M 76.6,268.7 L 67.0,252.1" style="fill:none;fill-rule:evenodd;stroke:#0000FF;stroke-width:2.0px;stroke-linecap:butt;stroke-linejoin:miter;stroke-opacity:1"/>
<path class="bond-4 atom-3 atom-5" d="M 67.0,252.1 L 57.5,235.5" style="fill:none;fill-rule:evenodd;stroke:#000000;stroke-width:2.0px;stroke-linecap:butt;stroke-linejoin:miter;stroke-opacity:1"/>
<path class="atom-2" d="M 146.1 317.7 Q 146.1 314.4, 147.7 312.6 Q 149.3 310.8, 152.3 310.8 Q 155.2 310.8, 156.8 312.6 Q 158.4 314.4, 158.4 317.7 Q 158.4 320.9, 156.8 322.8 Q 155.2 324.6, 152.3 324.6 Q 149.3 324.6, 147.7 322.8 Q 146.1 320.9, 146.1 317.7 M 152.3 323.1 Q 154.3 323.1, 155.4 321.7 Q 156.5 320.4, 156.5 317.7 Q 156.5 315.0, 155.4 313.7 Q 154.3 312.4, 152.3 312.4 Q 150.2 312.4, 149.1 313.7 Q 148.0 315.0, 148.0 317.7 Q 148.0 320.4, 149.1 321.7 Q 150.2 323.1, 152.3 323.1 " fill="#FF0000"/>
<path class="atom-3" d="M 78.2 269.9 L 82.6 277.0 Q 83.0 277.7, 83.7 278.9 Q 84.4 280.2, 84.5 280.3 L 84.5 269.9 L 86.3 269.9 L 86.3 283.3 L 84.4 283.3 L 79.7 275.5 Q 79.1 274.6, 78.6 273.6 Q 78.0 272.5, 77.8 272.2 L 77.8 283.3 L 76.1 283.3 L 76.1 269.9 L 78.2 269.9 " fill="#0000FF"/>
<path class="note" d="M 145.4 235.1 Q 144.2 235.1, 143.6 234.1 Q 143.0 233.2, 143.0 231.6 Q 143.0 230.0, 143.6 229.1 Q 144.2 228.2, 145.4 228.2 Q 146.7 228.2, 147.3 229.1 Q 147.9 230.0, 147.9 231.6 Q 147.9 233.2, 147.3 234.1 Q 146.7 235.1, 145.4 235.1 M 145.4 234.3 Q 146.2 234.3, 146.5 233.6 Q 146.9 232.9, 146.9 231.6 Q 146.9 230.3, 146.5 229.6 Q 146.2 228.9, 145.4 228.9 Q 144.7 228.9, 144.3 229.6 Q 143.9 230.3, 143.9 231.6 Q 143.9 232.9, 144.3 233.6 Q 144.7 234.3, 145.4 234.3 " fill="#000000"/>
<path class="note" d="M 134.8 279.2 L 136.3 279.2 L 136.3 274.2 L 134.7 274.7 L 134.4 274.1 L 136.5 273.2 L 137.2 273.3 L 137.2 279.2 L 138.5 279.2 L 138.5 280.0 L 134.8 280.0 L 134.8 279.2 " fill="#000000"/>
<path class="note" d="M 157.9 329.3 Q 158.2 328.6, 158.8 328.3 Q 159.3 327.9, 160.2 327.9 Q 161.2 327.9, 161.7 328.5 Q 162.3 329.0, 162.3 330.0 Q 162.3 331.0, 161.6 331.9 Q 160.8 332.8, 159.3 333.9 L 162.4 333.9 L 162.4 334.7 L 157.9 334.7 L 157.9 334.1 Q 159.2 333.2, 159.9 332.5 Q 160.6 331.8, 161.0 331.3 Q 161.4 330.7, 161.4 330.0 Q 161.4 329.4, 161.0 329.0 Q 160.7 328.7, 160.2 328.7 Q 159.6 328.7, 159.3 328.9 Q 158.9 329.1, 158.6 329.6 L 157.9 329.3 " fill="#000000"/>
<path class="note" d="M 90.0 290.1 Q 90.7 290.3, 91.0 290.7 Q 91.3 291.2, 91.3 291.8 Q 91.3 292.4, 91.0 292.8 Q 90.8 293.3, 90.2 293.5 Q 89.7 293.8, 89.0 293.8 Q 88.3 293.8, 87.8 293.5 Q 87.2 293.2, 86.8 292.7 L 87.4 292.2 Q 87.8 292.6, 88.1 292.8 Q 88.5 293.0, 89.0 293.0 Q 89.6 293.0, 90.0 292.7 Q 90.4 292.3, 90.4 291.8 Q 90.4 291.1, 90.0 290.8 Q 89.6 290.5, 88.8 290.5 L 88.3 290.5 L 88.3 289.8 L 88.7 289.8 Q 89.5 289.8, 89.8 289.5 Q 90.2 289.2, 90.2 288.6 Q 90.2 288.1, 89.9 287.9 Q 89.6 287.6, 89.0 287.6 Q 88.5 287.6, 88.1 287.8 Q 87.8 288.0, 87.5 288.5 L 86.9 288.2 Q 87.1 287.6, 87.7 287.2 Q 88.2 286.9, 89.0 286.9 Q 90.0 286.9, 90.6 287.3 Q 91.2 287.8, 91.2 288.6 Q 91.2 289.1, 90.9 289.5 Q 90.6 289.9, 90.0 290.1 " fill="#000000"/>
<path class="note" d="M 66.1 322.6 L 66.9 322.6 L 66.9 323.4 L 66.1 323.4 L 66.1 324.9 L 65.2 324.9 L 65.2 323.4 L 61.7 323.4 L 61.7 322.8 L 64.7 318.2 L 66.1 318.2 L 66.1 322.6 M 62.8 322.6 L 65.2 322.6 L 65.2 318.8 L 62.8 322.6 " fill="#000000"/>
<path class="note" d="M 50.8 238.6 Q 51.4 238.6, 51.9 238.9 Q 52.3 239.1, 52.6 239.6 Q 52.9 240.1, 52.9 240.7 Q 52.9 241.4, 52.6 241.9 Q 52.2 242.4, 51.7 242.7 Q 51.1 242.9, 50.5 242.9 Q 49.9 242.9, 49.3 242.7 Q 48.7 242.5, 48.4 242.0 L 48.9 241.4 Q 49.2 241.8, 49.7 242.0 Q 50.1 242.1, 50.5 242.1 Q 51.1 242.1, 51.5 241.8 Q 52.0 241.4, 52.0 240.7 Q 52.0 240.0, 51.5 239.7 Q 51.1 239.3, 50.5 239.3 Q 49.9 239.3, 49.2 239.6 L 48.7 239.4 L 49.0 236.1 L 52.5 236.1 L 52.4 236.9 L 49.8 236.9 L 49.6 238.9 Q 50.2 238.6, 50.8 238.6 " fill="#000000"/>
<path d="M 19.8 378.7 L 23.5 384.7 Q 23.8 385.3, 24.4 386.3 Q 25.0 387.4, 25.1 387.5 L 25.1 378.7 L 26.6 378.7 L 26.6 390.0 L 25.0 390.0 L 21.0 383.4 Q 20.6 382.7, 20.1 381.8 Q 19.6 380.9, 19.4 380.6 L 19.4 390.0 L 18.0 390.0 L 18.0 378.7 L 19.8 378.7 " fill="#000000"/>
<path d="M 27.6 388.4 L 29.2 388.4 L 29.2 389.7 L 28.9 391.9 L 28.3 391.9 L 28.3 390.0 L 27.6 390.0 L 27.6 388.4 " fill="#000000"/>
<path d="M 32.3 378.7 L 36.0 384.7 Q 36.4 385.3, 37.0 386.3 Q 37.6 387.4, 37.6 387.5 L 37.6 378.7 L 39.1 378.7 L 39.1 390.0 L 37.6 390.0 L 33.6 383.4 Q 33.1 382.7, 32.6 381.8 Q 32.2 380.9, 32.0 380.6 L 32.0 390.0 L 30.5 390.0 L 30.5 378.7 L 32.3 378.7 " fill="#000000"/>
<path d="M 39.9 384.2 L 45.8 384.2 L 45.8 385.5 L 39.9 385.5 L 39.9 384.2 " fill="#000000"/>
<path d="M 50.8 378.7 Q 53.3 378.7, 54.7 380.2 Q 56.0 381.6, 56.0 384.3 Q 56.0 387.0, 54.7 388.5 Q 53.3 390.0, 50.8 390.0 L 47.2 390.0 L 47.2 378.7 L 50.8 378.7 M 50.8 388.7 Q 52.6 388.7, 53.5 387.6 Q 54.4 386.5, 54.4 384.3 Q 54.4 382.1, 53.5 381.0 Q 52.6 379.9, 50.8 379.9 L 48.7 379.9 L 48.7 388.7 L 50.8 388.7 " fill="#000000"/>
<path d="M 57.4 378.7 L 58.9 378.7 L 58.9 380.1 L 57.4 380.1 L 57.4 378.7 M 57.4 381.8 L 58.9 381.8 L 58.9 390.0 L 57.4 390.0 L 57.4 381.8 " fill="#000000"/>
<path d="M 69.7 381.6 Q 71.1 381.6, 71.8 382.4 Q 72.5 383.1, 72.5 384.6 L 72.5 390.0 L 71.0 390.0 L 71.0 384.7 Q 71.0 383.7, 70.6 383.3 Q 70.2 382.8, 69.4 382.8 Q 68.7 382.8, 68.1 383.2 Q 67.4 383.5, 67.1 384.1 Q 67.1 384.2, 67.1 384.6 L 67.1 390.0 L 65.6 390.0 L 65.6 384.7 Q 65.6 383.7, 65.2 383.3 Q 64.8 382.8, 64.0 382.8 Q 63.3 382.8, 62.7 383.2 Q 62.1 383.5, 61.7 384.1 L 61.7 390.0 L 60.2 390.0 L 60.2 381.8 L 61.4 381.8 L 61.6 382.9 Q 62.6 381.6, 64.3 381.6 Q 66.2 381.6, 66.8 383.1 Q 67.9 381.6, 69.7 381.6 " fill="#000000"/>
<path d="M 73.2 385.9 Q 73.2 383.8, 74.2 382.7 Q 75.2 381.6, 77.1 381.6 Q 78.9 381.6, 79.7 382.7 Q 80.5 383.8, 80.5 385.8 L 80.5 386.1 L 74.8 386.1 Q 74.8 387.5, 75.4 388.2 Q 76.0 388.9, 77.2 388.9 Q 77.8 388.9, 78.4 388.8 Q 79.0 388.6, 79.8 388.3 L 80.2 389.3 Q 79.4 389.8, 78.6 389.9 Q 77.9 390.1, 77.1 390.1 Q 75.3 390.1, 74.2 389.0 Q 73.2 387.9, 73.2 385.9 M 77.1 382.8 Q 76.1 382.8, 75.6 383.4 Q 75.0 383.9, 74.8 385.0 L 78.9 385.0 Q 78.8 383.8, 78.4 383.3 Q 77.9 382.8, 77.1 382.8 " fill="#000000"/>
<path d="M 81.0 382.9 L 81.0 381.8 L 82.5 381.8 L 82.8 379.4 L 83.9 379.4 L 83.9 381.8 L 86.4 381.8 L 86.4 382.9 L 83.9 382.9 L 83.9 387.5 Q 83.9 388.9, 85.1 388.9 Q 85.6 388.9, 86.3 388.7 L 86.6 389.7 Q 85.7 390.1, 84.8 390.1 Q 83.8 390.1, 83.1 389.4 Q 82.4 388.8, 82.4 387.5 L 82.4 382.9 L 81.0 382.9 " fill="#000000"/>
<path d="M 92.2 381.6 Q 93.5 381.6, 94.2 382.4 Q 94.9 383.1, 94.9 384.6 L 94.9 390.0 L 93.4 390.0 L 93.4 384.7 Q 93.4 383.7, 93.0 383.3 Q 92.6 382.8, 91.8 382.8 Q 91.1 382.8, 90.4 383.2 Q 89.8 383.5, 89.4 384.1 L 89.4 390.0 L 87.9 390.0 L 87.9 377.8 L 89.4 377.8 L 89.4 382.8 Q 90.5 381.6, 92.2 381.6 " fill="#000000"/>
<path d="M 101.4 381.8 L 102.9 381.8 L 98.6 393.9 L 97.3 393.9 L 98.6 390.0 L 98.0 390.0 L 95.1 381.8 L 96.6 381.8 L 99.0 388.7 L 101.4 381.8 " fill="#000000"/>
<path d="M 104.2 377.8 L 105.7 377.8 L 105.7 390.0 L 104.2 390.0 L 104.2 377.8 " fill="#000000"/>
<path d="M 106.4 387.8 Q 106.4 386.5, 107.5 385.7 Q 108.5 385.0, 110.5 385.0 L 111.7 385.0 L 111.7 384.7 Q 111.7 383.7, 111.3 383.2 Q 110.8 382.8, 109.8 382.8 Q 109.2 382.8, 108.6 382.9 Q 108.1 383.0, 107.3 383.4 L 106.9 382.4 Q 108.4 381.6, 109.8 381.6 Q 111.6 381.6, 112.4 382.4 Q 113.2 383.1, 113.2 384.7 L 113.2 390.0 L 112.0 390.0 Q 112.0 389.9, 112.0 389.7 Q 111.9 389.4, 111.8 389.0 Q 110.7 390.2, 109.1 390.2 Q 107.9 390.2, 107.2 389.5 Q 106.4 388.9, 106.4 387.8 M 107.9 387.7 Q 107.9 388.3, 108.3 388.7 Q 108.7 389.0, 109.4 389.0 Q 110.1 389.0, 110.7 388.7 Q 111.3 388.4, 111.7 387.9 L 111.7 386.1 L 110.6 386.1 Q 109.3 386.1, 108.6 386.5 Q 107.9 386.9, 107.9 387.7 " fill="#000000"/>
<path d="M 113.9 385.9 Q 113.9 383.9, 114.9 382.8 Q 115.9 381.6, 117.9 381.6 Q 119.7 381.6, 120.7 383.0 L 119.7 383.7 Q 119.3 383.3, 118.9 383.0 Q 118.4 382.8, 117.9 382.8 Q 116.7 382.8, 116.1 383.6 Q 115.5 384.4, 115.5 385.9 Q 115.5 387.4, 116.1 388.2 Q 116.8 388.9, 118.0 388.9 Q 118.6 388.9, 119.1 388.8 Q 119.6 388.6, 120.1 388.4 L 120.6 389.4 Q 119.4 390.1, 117.8 390.1 Q 115.9 390.1, 114.9 389.0 Q 113.9 387.8, 113.9 385.9 " fill="#000000"/>
<path d="M 121.4 385.9 Q 121.4 383.8, 122.5 382.7 Q 123.5 381.6, 125.3 381.6 Q 127.1 381.6, 127.9 382.7 Q 128.7 383.8, 128.7 385.8 L 128.7 386.1 L 123.0 386.1 Q 123.0 387.5, 123.6 388.2 Q 124.3 388.9, 125.4 388.9 Q 126.1 388.9, 126.7 388.8 Q 127.3 388.6, 128.0 388.3 L 128.4 389.3 Q 127.6 389.8, 126.9 389.9 Q 126.1 390.1, 125.4 390.1 Q 123.5 390.1, 122.5 389.0 Q 121.4 387.9, 121.4 385.9 M 125.3 382.8 Q 124.4 382.8, 123.8 383.4 Q 123.2 383.9, 123.0 385.0 L 127.1 385.0 Q 127.0 383.8, 126.6 383.3 Q 126.1 382.8, 125.3 382.8 " fill="#000000"/>
<path d="M 129.2 382.9 L 129.2 381.8 L 130.8 381.8 L 131.0 379.4 L 132.1 379.4 L 132.1 381.8 L 134.6 381.8 L 134.6 382.9 L 132.1 382.9 L 132.1 387.5 Q 132.1 388.9, 133.3 388.9 Q 133.8 388.9, 134.5 388.7 L 134.8 389.7 Q 133.9 390.1, 133.1 390.1 Q 132.0 390.1, 131.3 389.4 Q 130.6 388.8, 130.6 387.5 L 130.6 382.9 L 129.2 382.9 " fill="#000000"/>
<path d="M 135.5 387.8 Q 135.5 386.5, 136.5 385.7 Q 137.6 385.0, 139.5 385.0 L 140.7 385.0 L 140.7 384.7 Q 140.7 383.7, 140.3 383.2 Q 139.9 382.8, 138.9 382.8 Q 138.2 382.8, 137.7 382.9 Q 137.2 383.0, 136.4 383.4 L 135.9 382.4 Q 137.4 381.6, 138.9 381.6 Q 140.6 381.6, 141.4 382.4 Q 142.2 383.1, 142.2 384.7 L 142.2 390.0 L 141.1 390.0 Q 141.1 389.9, 141.0 389.7 Q 141.0 389.4, 140.9 389.0 Q 139.7 390.2, 138.2 390.2 Q 137.0 390.2, 136.2 389.5 Q 135.5 388.9, 135.5 387.8 M 137.0 387.7 Q 137.0 388.3, 137.4 388.7 Q 137.8 389.0, 138.5 389.0 Q 139.1 389.0, 139.7 388.7 Q 140.3 388.4, 140.7 387.9 L 140.7 386.1 L 139.6 386.1 Q 138.3 386.1, 137.6 386.5 Q 137.0 386.9, 137.0 387.7 " fill="#000000"/>
<path d="M 153.1 381.6 Q 154.5 381.6, 155.2 382.4 Q 155.9 383.1, 155.9 384.6 L 155.9 390.0 L 154.4 390.0 L 154.4 384.7 Q 154.4 383.7, 154.0 383.3 Q 153.6 382.8, 152.8 382.8 Q 152.1 382.8, 151.4 383.2 Q 150.8 383.5, 150.5 384.1 Q 150.5 384.2, 150.5 384.6 L 150.5 390.0 L 149.0 390.0 L 149.0 384.7 Q 149.0 383.7, 148.6 383.3 Q 148.2 382.8, 147.4 382.8 Q 146.7 382.8, 146.1 383.2 Q 145.4 383.5, 145.1 384.1 L 145.1 390.0 L 143.6 390.0 L 143.6 381.8 L 144.8 381.8 L 145.0 382.9 Q 146.0 381.6, 147.7 381.6 Q 149.6 381.6, 150.2 383.1 Q 151.3 381.6, 153.1 381.6 " fill="#000000"/>
<path d="M 157.2 378.7 L 158.7 378.7 L 158.7 380.1 L 157.2 380.1 L 157.2 378.7 M 157.2 381.8 L 158.7 381.8 L 158.7 390.0 L 157.2 390.0 L 157.2 381.8 " fill="#000000"/>
<path d="M 166.9 377.8 L 166.9 390.0 L 165.7 390.0 L 165.5 389.0 Q 164.6 390.1, 163.1 390.1 Q 161.4 390.1, 160.4 389.1 Q 159.4 388.0, 159.4 386.0 Q 159.4 383.9, 160.6 382.8 Q 161.7 381.6, 163.7 381.6 Q 164.5 381.6, 165.4 381.8 L 165.4 377.8 L 166.9 377.8 M 163.2 388.9 Q 164.0 388.9, 164.6 388.5 Q 165.2 388.0, 165.4 387.2 L 165.4 383.0 Q 164.6 382.8, 163.7 382.8 Q 162.4 382.8, 161.7 383.7 Q 161.0 384.5, 161.0 386.0 Q 161.0 387.4, 161.5 388.2 Q 162.1 388.9, 163.2 388.9 " fill="#000000"/>
<path d="M 167.7 385.9 Q 167.7 383.8, 168.7 382.7 Q 169.7 381.6, 171.5 381.6 Q 173.3 381.6, 174.1 382.7 Q 174.9 383.8, 174.9 385.8 L 174.9 386.1 L 169.2 386.1 Q 169.2 387.5, 169.8 388.2 Q 170.5 388.9, 171.6 388.9 Q 172.3 388.9, 172.9 388.8 Q 173.5 388.6, 174.2 388.3 L 174.6 389.3 Q 173.8 389.8, 173.1 389.9 Q 172.3 390.1, 171.6 390.1 Q 169.7 390.1, 168.7 389.0 Q 167.7 387.9, 167.7 385.9 M 171.5 382.8 Q 170.6 382.8, 170.0 383.4 Q 169.4 383.9, 169.3 385.0 L 173.4 385.0 Q 173.2 383.8, 172.8 383.3 Q 172.3 382.8, 171.5 382.8 " fill="#000000"/>
<path class="bond-0 atom-0 atom-1" d="M 247.4,252.9 L 264.8,262.9" style="fill:none;fill-rule:evenodd;stroke:#000000;stroke-width:2.0px;stroke-linecap:butt;stroke-linejoin:miter;stroke-opacity:1"/>
<path class="bond-0 atom-0 atom-1" d="M 264.8,262.9 L 282.2,273.0" style="fill:none;fill-rule:evenodd;stroke:#0000FF;stroke-width:2.0px;stroke-linecap:butt;stroke-linejoin:miter;stroke-opacity:1"/>
<path class="bond-1 atom-1 atom-2" d="M 288.4,284.5 L 288.4,304.2" style="fill:none;fill-rule:evenodd;stroke:#0000FF;stroke-width:2.0px;stroke-linecap:butt;stroke-linejoin:miter;stroke-opacity:1"/>
<path class="bond-1 atom-1 atom-2" d="M 288.4,304.2 L 288.4,324.0" style="fill:none;fill-rule:evenodd;stroke:#000000;stroke-width:2.0px;stroke-linecap:butt;stroke-linejoin:miter;stroke-opacity:1"/>
<path class="bond-2 atom-1 atom-3" d="M 294.7,273.0 L 312.1,262.9" style="fill:none;fill-rule:evenodd;stroke:#0000FF;stroke-width:2.0px;stroke-linecap:butt;stroke-linejoin:miter;stroke-opacity:1"/>
<path class="bond-2 atom-1 atom-3" d="M 312.1,262.9 L 329.5,252.9" style="fill:none;fill-rule:evenodd;stroke:#000000;stroke-width:2.0px;stroke-linecap:butt;stroke-linejoin:miter;stroke-opacity:1"/>
<path class="bond-3 atom-3 atom-4" d="M 327.1,257.0 L 344.0,266.7" style="fill:none;fill-rule:evenodd;stroke:#000000;stroke-width:2.0px;stroke-linecap:butt;stroke-linejoin:miter;stroke-opacity:1"/>
<path class="bond-3 atom-3 atom-4" d="M 344.0,266.7 L 360.8,276.4" style="fill:none;fill-rule:evenodd;stroke:#FF0000;stroke-width:2.0px;stroke-linecap:butt;stroke-linejoin:miter;stroke-opacity:1"/>
<path class="bond-3 atom-3 atom-4" d="M 331.9,248.8 L 348.7,258.5" style="fill:none;fill-rule:evenodd;stroke:#000000;stroke-width:2.0px;stroke-linecap:butt;stroke-linejoin:miter;stroke-opacity:1"/>
<path class="bond-3 atom-3 atom-4" d="M 348.7,258.5 L 365.6,268.2" style="fill:none;fill-rule:evenodd;stroke:#FF0000;stroke-width:2.0px;stroke-linecap:butt;stroke-linejoin:miter;stroke-opacity:1"/>
<path class="atom-1" d="M 285.5 269.9 L 289.9 277.0 Q 290.3 277.7, 291.0 278.9 Q 291.7 280.2, 291.8 280.3 L 291.8 269.9 L 293.5 269.9 L 293.5 283.3 L 291.7 283.3 L 287.0 275.5 Q 286.4 274.6, 285.8 273.6 Q 285.3 272.5, 285.1 272.2 L 285.1 283.3 L 283.4 283.3 L 283.4 269.9 L 285.5 269.9 " fill="#0000FF"/>
<path class="atom-4" d="M 364.4 276.6 Q 364.4 273.4, 366.0 271.6 Q 367.6 269.8, 370.5 269.8 Q 373.5 269.8, 375.1 271.6 Q 376.7 273.4, 376.7 276.6 Q 376.7 279.9, 375.1 281.7 Q 373.5 283.6, 370.5 283.6 Q 367.6 283.6, 366.0 281.7 Q 364.4 279.9, 364.4 276.6 M 370.5 282.1 Q 372.6 282.1, 373.7 280.7 Q 374.8 279.3, 374.8 276.6 Q 374.8 274.0, 373.7 272.7 Q 372.6 271.3, 370.5 271.3 Q 368.5 271.3, 367.4 272.6 Q 366.3 274.0, 366.3 276.6 Q 366.3 279.3, 367.4 280.7 Q 368.5 282.1, 370.5 282.1 " fill="#FF0000"/>
<path class="note" d="M 243.5 263.2 Q 242.2 263.2, 241.6 262.3 Q 241.0 261.4, 241.0 259.8 Q 241.0 258.1, 241.6 257.2 Q 242.2 256.3, 243.5 256.3 Q 244.7 256.3, 245.3 257.2 Q 245.9 258.1, 245.9 259.8 Q 245.9 261.4, 245.3 262.3 Q 244.7 263.2, 243.5 263.2 M 243.5 262.4 Q 244.2 262.4, 244.6 261.8 Q 245.0 261.1, 245.0 259.8 Q 245.0 258.4, 244.6 257.8 Q 244.2 257.1, 243.5 257.1 Q 242.7 257.1, 242.3 257.8 Q 241.9 258.4, 241.9 259.8 Q 241.9 261.1, 242.3 261.8 Q 242.7 262.4, 243.5 262.4 " fill="#000000"/>
<path class="note" d="M 273.1 287.1 L 274.6 287.1 L 274.6 282.1 L 273.0 282.6 L 272.7 282.0 L 274.8 281.1 L 275.5 281.2 L 275.5 287.1 L 276.8 287.1 L 276.8 287.9 L 273.1 287.9 L 273.1 287.1 " fill="#000000"/>
<path class="note" d="M 294.1 321.9 Q 294.4 321.3, 294.9 320.9 Q 295.5 320.6, 296.3 320.6 Q 297.4 320.6, 297.9 321.1 Q 298.5 321.7, 298.5 322.7 Q 298.5 323.7, 297.8 324.6 Q 297.0 325.5, 295.5 326.6 L 298.6 326.6 L 298.6 327.4 L 294.1 327.4 L 294.1 326.7 Q 295.3 325.8, 296.1 325.2 Q 296.8 324.5, 297.2 323.9 Q 297.5 323.3, 297.5 322.7 Q 297.5 322.1, 297.2 321.7 Q 296.9 321.3, 296.3 321.3 Q 295.8 321.3, 295.4 321.6 Q 295.1 321.8, 294.8 322.3 L 294.1 321.9 " fill="#000000"/>
<path class="note" d="M 330.5 244.8 Q 331.1 245.0, 331.4 245.5 Q 331.8 245.9, 331.8 246.5 Q 331.8 247.1, 331.5 247.6 Q 331.2 248.0, 330.7 248.2 Q 330.1 248.5, 329.5 248.5 Q 328.7 248.5, 328.2 248.2 Q 327.7 248.0, 327.2 247.5 L 327.8 246.9 Q 328.2 247.4, 328.5 247.5 Q 328.9 247.7, 329.5 247.7 Q 330.1 247.7, 330.4 247.4 Q 330.8 247.1, 330.8 246.5 Q 330.8 245.8, 330.4 245.5 Q 330.0 245.2, 329.2 245.2 L 328.7 245.2 L 328.7 244.5 L 329.2 244.5 Q 329.9 244.5, 330.3 244.2 Q 330.7 243.9, 330.7 243.3 Q 330.7 242.9, 330.3 242.6 Q 330.0 242.3, 329.5 242.3 Q 328.9 242.3, 328.6 242.5 Q 328.2 242.7, 327.9 243.2 L 327.3 242.9 Q 327.5 242.3, 328.1 242.0 Q 328.7 241.6, 329.5 241.6 Q 330.5 241.6, 331.0 242.1 Q 331.6 242.5, 331.6 243.3 Q 331.6 243.8, 331.3 244.2 Q 331.0 244.6, 330.5 244.8 " fill="#000000"/>
<path class="note" d="M 386.0 285.5 L 386.8 285.5 L 386.8 286.3 L 386.0 286.3 L 386.0 287.8 L 385.1 287.8 L 385.1 286.3 L 381.6 286.3 L 381.6 285.7 L 384.6 281.1 L 386.0 281.1 L 386.0 285.5 M 382.7 285.5 L 385.1 285.5 L 385.1 281.7 L 382.7 285.5 " fill="#000000"/>
<path d="M 216.8 378.7 L 220.5 384.7 Q 220.9 385.2, 221.5 386.3 Q 222.1 387.4, 222.1 387.5 L 222.1 378.7 L 223.6 378.7 L 223.6 390.0 L 222.0 390.0 L 218.1 383.4 Q 217.6 382.7, 217.1 381.8 Q 216.6 380.9, 216.5 380.6 L 216.5 390.0 L 215.0 390.0 L 215.0 378.7 L 216.8 378.7 " fill="#000000"/>
<path d="M 224.6 388.4 L 226.2 388.4 L 226.2 389.7 L 225.9 391.9 L 225.3 391.9 L 225.3 390.0 L 224.6 390.0 L 224.6 388.4 " fill="#000000"/>
<path d="M 229.3 378.7 L 233.1 384.7 Q 233.4 385.2, 234.0 386.3 Q 234.6 387.4, 234.6 387.5 L 234.6 378.7 L 236.1 378.7 L 236.1 390.0 L 234.6 390.0 L 230.6 383.4 Q 230.1 382.7, 229.7 381.8 Q 229.2 380.9, 229.0 380.6 L 229.0 390.0 L 227.6 390.0 L 227.6 378.7 L 229.3 378.7 " fill="#000000"/>
<path d="M 236.9 384.2 L 242.8 384.2 L 242.8 385.5 L 236.9 385.5 L 236.9 384.2 " fill="#000000"/>
<path d="M 247.8 378.7 Q 250.4 378.7, 251.7 380.1 Q 253.0 381.6, 253.0 384.3 Q 253.0 387.0, 251.7 388.5 Q 250.3 390.0, 247.8 390.0 L 244.2 390.0 L 244.2 378.7 L 247.8 378.7 M 247.8 388.7 Q 249.6 388.7, 250.5 387.6 Q 251.4 386.5, 251.4 384.3 Q 251.4 382.1, 250.5 381.0 Q 249.6 379.9, 247.8 379.9 L 245.7 379.9 L 245.7 388.7 L 247.8 388.7 " fill="#000000"/>
<path d="M 254.4 378.7 L 255.9 378.7 L 255.9 380.0 L 254.4 380.0 L 254.4 378.7 M 254.4 381.8 L 255.9 381.8 L 255.9 390.0 L 254.4 390.0 L 254.4 381.8 " fill="#000000"/>
<path d="M 266.7 381.6 Q 268.1 381.6, 268.8 382.4 Q 269.5 383.1, 269.5 384.5 L 269.5 390.0 L 268.0 390.0 L 268.0 384.7 Q 268.0 383.7, 267.6 383.2 Q 267.3 382.8, 266.4 382.8 Q 265.7 382.8, 265.1 383.2 Q 264.5 383.5, 264.1 384.1 Q 264.1 384.2, 264.1 384.5 L 264.1 390.0 L 262.6 390.0 L 262.6 384.7 Q 262.6 383.7, 262.2 383.2 Q 261.9 382.8, 261.0 382.8 Q 260.3 382.8, 259.7 383.2 Q 259.1 383.5, 258.7 384.1 L 258.7 390.0 L 257.2 390.0 L 257.2 381.8 L 258.4 381.8 L 258.6 382.9 Q 259.7 381.6, 261.3 381.6 Q 263.3 381.6, 263.9 383.1 Q 264.9 381.6, 266.7 381.6 " fill="#000000"/>
<path d="M 270.2 385.9 Q 270.2 383.8, 271.3 382.7 Q 272.3 381.6, 274.1 381.6 Q 275.9 381.6, 276.7 382.7 Q 277.5 383.8, 277.5 385.8 L 277.5 386.1 L 271.8 386.1 Q 271.8 387.5, 272.4 388.2 Q 273.1 388.9, 274.2 388.9 Q 274.9 388.9, 275.5 388.8 Q 276.1 388.6, 276.8 388.3 L 277.2 389.3 Q 276.4 389.7, 275.7 389.9 Q 274.9 390.1, 274.1 390.1 Q 272.3 390.1, 271.3 389.0 Q 270.2 387.9, 270.2 385.9 M 274.1 382.8 Q 273.2 382.8, 272.6 383.3 Q 272.0 383.9, 271.8 384.9 L 275.9 384.9 Q 275.8 383.8, 275.4 383.3 Q 274.9 382.8, 274.1 382.8 " fill="#000000"/>
<path d="M 278.0 382.9 L 278.0 381.8 L 279.6 381.8 L 279.8 379.4 L 280.9 379.4 L 280.9 381.8 L 283.4 381.8 L 283.4 382.9 L 280.9 382.9 L 280.9 387.5 Q 280.9 388.9, 282.1 388.9 Q 282.6 388.9, 283.3 388.7 L 283.6 389.7 Q 282.7 390.1, 281.9 390.1 Q 280.8 390.1, 280.1 389.4 Q 279.4 388.8, 279.4 387.5 L 279.4 382.9 L 278.0 382.9 " fill="#000000"/>
<path d="M 289.2 381.6 Q 290.5 381.6, 291.2 382.4 Q 291.9 383.1, 291.9 384.5 L 291.9 390.0 L 290.4 390.0 L 290.4 384.7 Q 290.4 383.7, 290.0 383.2 Q 289.7 382.8, 288.8 382.8 Q 288.1 382.8, 287.5 383.2 Q 286.8 383.5, 286.4 384.1 L 286.4 390.0 L 284.9 390.0 L 284.9 377.8 L 286.4 377.8 L 286.4 382.8 Q 287.5 381.6, 289.2 381.6 " fill="#000000"/>
<path d="M 298.4 381.8 L 299.9 381.8 L 295.7 393.9 L 294.3 393.9 L 295.6 390.0 L 295.0 390.0 L 292.1 381.8 L 293.7 381.8 L 296.1 388.7 L 298.4 381.8 " fill="#000000"/>
<path d="M 301.3 377.8 L 302.7 377.8 L 302.7 390.0 L 301.3 390.0 L 301.3 377.8 " fill="#000000"/>
<path d="M 303.2 382.9 L 303.2 381.8 L 304.6 381.8 L 304.6 380.5 Q 304.6 379.1, 305.3 378.5 Q 306.1 377.8, 307.2 377.8 Q 307.8 377.8, 308.2 377.9 Q 308.7 378.0, 309.2 378.3 L 308.7 379.3 Q 308.0 379.0, 307.4 379.0 Q 306.8 379.0, 306.4 379.4 Q 306.1 379.8, 306.1 380.4 L 306.1 381.8 L 308.6 381.8 L 308.6 382.9 L 306.1 382.9 L 306.1 392.5 L 304.6 392.5 L 304.6 382.9 L 303.2 382.9 " fill="#000000"/>
<path d="M 309.9 385.9 Q 309.9 383.9, 310.9 382.7 Q 312.0 381.6, 313.8 381.6 Q 315.7 381.6, 316.7 382.7 Q 317.7 383.9, 317.7 385.9 Q 317.7 387.9, 316.7 389.0 Q 315.7 390.1, 313.8 390.1 Q 312.0 390.1, 310.9 389.0 Q 309.9 387.9, 309.9 385.9 M 311.5 385.9 Q 311.5 387.4, 312.1 388.1 Q 312.7 388.9, 313.8 388.9 Q 315.0 388.9, 315.6 388.1 Q 316.2 387.4, 316.2 385.9 Q 316.2 384.4, 315.6 383.6 Q 315.0 382.8, 313.8 382.8 Q 312.7 382.8, 312.1 383.6 Q 311.5 384.4, 311.5 385.9 " fill="#000000"/>
<path d="M 320.3 381.8 L 320.5 382.9 Q 321.3 381.6, 322.8 381.6 Q 323.2 381.6, 323.8 381.8 L 323.6 383.1 Q 322.9 383.0, 322.5 383.0 Q 321.8 383.0, 321.4 383.2 Q 320.9 383.5, 320.6 384.1 L 320.6 390.0 L 319.1 390.0 L 319.1 381.8 L 320.3 381.8 " fill="#000000"/>
<path d="M 334.6 381.6 Q 336.0 381.6, 336.7 382.4 Q 337.4 383.1, 337.4 384.5 L 337.4 390.0 L 335.9 390.0 L 335.9 384.7 Q 335.9 383.7, 335.5 383.2 Q 335.2 382.8, 334.3 382.8 Q 333.6 382.8, 333.0 383.2 Q 332.4 383.5, 332.0 384.1 Q 332.0 384.2, 332.0 384.5 L 332.0 390.0 L 330.5 390.0 L 330.5 384.7 Q 330.5 383.7, 330.1 383.2 Q 329.8 382.8, 328.9 382.8 Q 328.2 382.8, 327.6 383.2 Q 327.0 383.5, 326.6 384.1 L 326.6 390.0 L 325.1 390.0 L 325.1 381.8 L 326.4 381.8 L 326.5 382.9 Q 327.6 381.6, 329.2 381.6 Q 331.2 381.6, 331.8 383.1 Q 332.9 381.6, 334.6 381.6 " fill="#000000"/>
<path d="M 338.1 387.8 Q 338.1 386.4, 339.2 385.7 Q 340.2 385.0, 342.2 385.0 L 343.4 385.0 L 343.4 384.7 Q 343.4 383.7, 343.0 383.2 Q 342.5 382.8, 341.5 382.8 Q 340.9 382.8, 340.4 382.9 Q 339.8 383.0, 339.0 383.4 L 338.6 382.4 Q 340.1 381.6, 341.6 381.6 Q 343.3 381.6, 344.1 382.4 Q 344.9 383.1, 344.9 384.7 L 344.9 390.0 L 343.7 390.0 Q 343.7 389.9, 343.7 389.7 Q 343.6 389.4, 343.5 389.0 Q 342.4 390.2, 340.8 390.2 Q 339.6 390.2, 338.9 389.5 Q 338.1 388.9, 338.1 387.8 M 339.6 387.7 Q 339.6 388.3, 340.0 388.7 Q 340.4 389.0, 341.1 389.0 Q 341.8 389.0, 342.4 388.7 Q 343.0 388.4, 343.4 387.9 L 343.4 386.1 L 342.3 386.1 Q 341.0 386.1, 340.3 386.5 Q 339.6 386.9, 339.6 387.7 " fill="#000000"/>
<path d="M 355.7 381.6 Q 357.1 381.6, 357.8 382.4 Q 358.5 383.1, 358.5 384.5 L 358.5 390.0 L 357.0 390.0 L 357.0 384.7 Q 357.0 383.7, 356.6 383.2 Q 356.3 382.8, 355.4 382.8 Q 354.7 382.8, 354.1 383.2 Q 353.5 383.5, 353.1 384.1 Q 353.1 384.2, 353.1 384.5 L 353.1 390.0 L 351.6 390.0 L 351.6 384.7 Q 351.6 383.7, 351.2 383.2 Q 350.9 382.8, 350.0 382.8 Q 349.3 382.8, 348.7 383.2 Q 348.1 383.5, 347.7 384.1 L 347.7 390.0 L 346.2 390.0 L 346.2 381.8 L 347.4 381.8 L 347.6 382.9 Q 348.7 381.6, 350.3 381.6 Q 352.3 381.6, 352.9 383.1 Q 354.0 381.6, 355.7 381.6 " fill="#000000"/>
<path d="M 359.9 378.7 L 361.4 378.7 L 361.4 380.0 L 359.9 380.0 L 359.9 378.7 M 359.9 381.8 L 361.4 381.8 L 361.4 390.0 L 359.9 390.0 L 359.9 381.8 " fill="#000000"/>
<path d="M 369.6 377.8 L 369.6 390.0 L 368.4 390.0 L 368.1 389.0 Q 367.2 390.1, 365.7 390.1 Q 364.0 390.1, 363.0 389.1 Q 362.1 388.0, 362.1 386.0 Q 362.1 383.9, 363.2 382.8 Q 364.4 381.6, 366.3 381.6 Q 367.2 381.6, 368.1 381.8 L 368.1 377.8 L 369.6 377.8 M 365.8 388.9 Q 366.6 388.9, 367.2 388.5 Q 367.8 388.0, 368.1 387.2 L 368.1 383.0 Q 367.3 382.8, 366.3 382.8 Q 365.1 382.8, 364.4 383.6 Q 363.6 384.5, 363.6 386.0 Q 363.6 387.4, 364.2 388.2 Q 364.8 388.9, 365.8 388.9 " fill="#000000"/>
<path d="M 370.3 385.9 Q 370.3 383.8, 371.3 382.7 Q 372.3 381.6, 374.2 381.6 Q 376.0 381.6, 376.8 382.7 Q 377.6 383.8, 377.6 385.8 L 377.6 386.1 L 371.8 386.1 Q 371.9 387.5, 372.5 388.2 Q 373.1 388.9, 374.3 388.9 Q 374.9 388.9, 375.5 388.8 Q 376.1 388.6, 376.8 388.3 L 377.3 389.3 Q 376.5 389.7, 375.7 389.9 Q 375.0 390.1, 374.2 390.1 Q 372.4 390.1, 371.3 389.0 Q 370.3 387.9, 370.3 385.9 M 374.2 382.8 Q 373.2 382.8, 372.6 383.3 Q 372.1 383.9, 371.9 384.9 L 376.0 384.9 Q 375.9 383.8, 375.4 383.3 Q 375.0 382.8, 374.2 382.8 " fill="#000000"/>
</svg>