<svg xmlns="http://www.w3.org/2000/svg" xmlns:rdkit="http://www.rdkit.org/xml" xmlns:xlink="http://www.w3.org/1999/xlink" version="1.1" baseProfile="full" xml:space="preserve" width="800px" height="400px" viewBox="0 0 800 400">
<!-- END OF HEADER -->
<rect style="opacity:1.0;fill:#FFFFFF;stroke:none" width="800.0" height="400.0" x="0.0" y="0.0"> </rect>
<rect style="opacity:1.0;fill:#FFFFFF;stroke:none" width="800.0" height="400.0" x="0.0" y="0.0"> </rect>
<rect style="opacity:1.0;fill:#FFFFFF;stroke:none" width="800.0" height="400.0" x="0.0" y="0.0"> </rect>
<rect style="opacity:1.0;fill:#FFFFFF;stroke:none" width="800.0" height="400.0" x="0.0" y="0.0"> </rect>
<rect style="opacity:1.0;fill:#FFFFFF;stroke:none" width="800.0" height="400.0" x="0.0" y="0.0"> </rect>
<rect style="opacity:1.0;fill:#FFFFFF;stroke:none" width="800.0" height="400.0" x="0.0" y="0.0"> </rect>
<path class="bond-0 atom-0 atom-1" d="M 104.6,80.5 L 111.1,80.5" style="fill:none;fill-rule:evenodd;stroke:#000000;stroke-width:2.0px;stroke-linecap:butt;stroke-linejoin:miter;stroke-opacity:1"/>
<path class="bond-0 atom-0 atom-1" d="M 111.1,80.5 L 117.7,80.5" style="fill:none;fill-rule:evenodd;stroke:#FF0000;stroke-width:2.0px;stroke-linecap:butt;stroke-linejoin:miter;stroke-opacity:1"/>
<path class="bond-0 atom-0 atom-1" d="M 104.6,77.4 L 111.1,77.4" style="fill:none;fill-rule:evenodd;stroke:#000000;stroke-width:2.0px;stroke-linecap:butt;stroke-linejoin:miter;stroke-opacity:1"/>
<path class="bond-0 atom-0 atom-1" d="M 111.1,77.4 L 117.7,77.4" style="fill:none;fill-rule:evenodd;stroke:#FF0000;stroke-width:2.0px;stroke-linecap:butt;stroke-linejoin:miter;stroke-opacity:1"/>
<path class="bond-1 atom-0 atom-2" d="M 104.6,79.0 L 96.9,92.3" style="fill:none;fill-rule:evenodd;stroke:#000000;stroke-width:2.0px;stroke-linecap:butt;stroke-linejoin:miter;stroke-opacity:1"/>
<path class="bond-6 atom-6 atom-0" d="M 96.9,65.6 L 104.6,79.0" style="fill:none;fill-rule:evenodd;stroke:#000000;stroke-width:2.0px;stroke-linecap:butt;stroke-linejoin:miter;stroke-opacity:1"/>
<path class="bond-2 atom-2 atom-3" d="M 96.9,92.3 L 81.5,92.3" style="fill:none;fill-rule:evenodd;stroke:#000000;stroke-width:2.0px;stroke-linecap:butt;stroke-linejoin:miter;stroke-opacity:1"/>
<path class="bond-2 atom-2 atom-3" d="M 94.6,89.2 L 83.8,89.2" style="fill:none;fill-rule:evenodd;stroke:#000000;stroke-width:2.0px;stroke-linecap:butt;stroke-linejoin:miter;stroke-opacity:1"/>
<path class="bond-3 atom-3 atom-4" d="M 81.5,92.3 L 78.3,86.9" style="fill:none;fill-rule:evenodd;stroke:#000000;stroke-width:2.0px;stroke-linecap:butt;stroke-linejoin:miter;stroke-opacity:1"/>
<path class="bond-3 atom-3 atom-4" d="M 78.3,86.9 L 75.2,81.5" style="fill:none;fill-rule:evenodd;stroke:#0000FF;stroke-width:2.0px;stroke-linecap:butt;stroke-linejoin:miter;stroke-opacity:1"/>
<path class="bond-4 atom-4 atom-5" d="M 75.2,76.4 L 78.3,71.0" style="fill:none;fill-rule:evenodd;stroke:#0000FF;stroke-width:2.0px;stroke-linecap:butt;stroke-linejoin:miter;stroke-opacity:1"/>
<path class="bond-4 atom-4 atom-5" d="M 78.3,71.0 L 81.5,65.6" style="fill:none;fill-rule:evenodd;stroke:#000000;stroke-width:2.0px;stroke-linecap:butt;stroke-linejoin:miter;stroke-opacity:1"/>
<path class="bond-5 atom-5 atom-6" d="M 81.5,65.6 L 96.9,65.6" style="fill:none;fill-rule:evenodd;stroke:#000000;stroke-width:2.0px;stroke-linecap:butt;stroke-linejoin:miter;stroke-opacity:1"/>
<path class="bond-5 atom-5 atom-6" d="M 83.8,68.7 L 94.6,68.7" style="fill:none;fill-rule:evenodd;stroke:#000000;stroke-width:2.0px;stroke-linecap:butt;stroke-linejoin:miter;stroke-opacity:1"/>
<path class="atom-1" d="M 118.1 79.0 Q 118.1 77.9, 118.6 77.3 Q 119.1 76.8, 120.1 76.8 Q 121.0 76.8, 121.6 77.3 Q 122.1 77.9, 122.1 79.0 Q 122.1 80.0, 121.5 80.6 Q 121.0 81.2, 120.1 81.2 Q 119.1 81.2, 118.6 80.6 Q 118.1 80.0, 118.1 79.0 M 120.1 80.7 Q 120.7 80.7, 121.1 80.3 Q 121.5 79.9, 121.5 79.0 Q 121.5 78.1, 121.1 77.7 Q 120.7 77.2, 120.1 77.2 Q 119.4 77.2, 119.0 77.7 Q 118.7 78.1, 118.7 79.0 Q 118.7 79.9, 119.0 80.3 Q 119.4 80.7, 120.1 80.7 " fill="#FF0000"/>
<path class="atom-4" d="M 68.2 76.8 L 68.7 76.8 L 68.7 78.6 L 71.0 78.6 L 71.0 76.8 L 71.6 76.8 L 71.6 81.1 L 71.0 81.1 L 71.0 79.1 L 68.7 79.1 L 68.7 81.1 L 68.2 81.1 L 68.2 76.8 " fill="#0000FF"/>
<path class="atom-4" d="M 72.8 76.8 L 74.2 79.1 Q 74.4 79.3, 74.6 79.7 Q 74.8 80.1, 74.8 80.2 L 74.8 76.8 L 75.4 76.8 L 75.4 81.1 L 74.8 81.1 L 73.3 78.6 Q 73.1 78.3, 72.9 78.0 Q 72.7 77.6, 72.7 77.5 L 72.7 81.1 L 72.1 81.1 L 72.1 76.8 L 72.8 76.8 " fill="#0000FF"/>
<path d="M 72.0 181.6 Q 73.7 181.6, 74.6 182.7 Q 75.6 183.8, 75.6 185.7 Q 75.6 187.8, 74.4 189.0 Q 73.3 190.1, 71.3 190.1 Q 70.4 190.1, 69.6 189.9 L 69.6 193.9 L 68.1 193.9 L 68.1 181.8 L 69.3 181.8 L 69.5 182.8 Q 70.0 182.2, 70.6 181.9 Q 71.2 181.6, 72.0 181.6 M 71.3 188.9 Q 72.6 188.9, 73.3 188.1 Q 74.0 187.3, 74.0 185.7 Q 74.0 184.3, 73.5 183.6 Q 72.9 182.8, 71.9 182.8 Q 71.0 182.8, 70.4 183.2 Q 69.9 183.7, 69.6 184.4 L 69.6 188.7 Q 70.4 188.9, 71.3 188.9 " fill="#000000"/>
<path d="M 82.1 181.8 L 83.5 181.8 L 79.3 193.9 L 77.9 193.9 L 79.3 190.0 L 78.7 190.0 L 75.7 181.8 L 77.3 181.8 L 79.7 188.7 L 82.1 181.8 " fill="#000000"/>
<path d="M 86.1 181.8 L 86.3 182.9 Q 87.2 181.6, 88.6 181.6 Q 89.0 181.6, 89.6 181.8 L 89.4 183.1 Q 88.7 183.0, 88.3 183.0 Q 87.6 183.0, 87.2 183.2 Q 86.8 183.5, 86.4 184.1 L 86.4 190.0 L 84.9 190.0 L 84.9 181.8 L 86.1 181.8 " fill="#000000"/>
<path d="M 91.0 178.7 L 92.5 178.7 L 92.5 180.1 L 91.0 180.1 L 91.0 178.7 M 91.0 181.8 L 92.5 181.8 L 92.5 190.0 L 91.0 190.0 L 91.0 181.8 " fill="#000000"/>
<path d="M 100.7 177.8 L 100.7 190.0 L 99.5 190.0 L 99.2 189.0 Q 98.3 190.1, 96.8 190.1 Q 95.1 190.1, 94.1 189.1 Q 93.2 188.0, 93.2 186.0 Q 93.2 183.9, 94.3 182.8 Q 95.5 181.6, 97.4 181.6 Q 98.3 181.6, 99.2 181.8 L 99.2 177.8 L 100.7 177.8 M 96.9 188.9 Q 97.7 188.9, 98.3 188.5 Q 98.9 188.0, 99.2 187.2 L 99.2 183.0 Q 98.4 182.8, 97.4 182.8 Q 96.2 182.8, 95.5 183.7 Q 94.7 184.5, 94.7 186.0 Q 94.7 187.4, 95.3 188.2 Q 95.9 188.9, 96.9 188.9 " fill="#000000"/>
<path d="M 101.4 185.9 Q 101.4 183.9, 102.4 182.7 Q 103.4 181.6, 105.3 181.6 Q 107.2 181.6, 108.2 182.7 Q 109.2 183.9, 109.2 185.9 Q 109.2 187.9, 108.2 189.0 Q 107.2 190.1, 105.3 190.1 Q 103.4 190.1, 102.4 189.0 Q 101.4 187.9, 101.4 185.9 M 102.9 185.9 Q 102.9 187.4, 103.5 188.2 Q 104.2 188.9, 105.3 188.9 Q 106.4 188.9, 107.1 188.2 Q 107.7 187.4, 107.7 185.9 Q 107.7 184.4, 107.1 183.6 Q 106.4 182.8, 105.3 182.8 Q 104.2 182.8, 103.5 183.6 Q 102.9 184.4, 102.9 185.9 " fill="#000000"/>
<path d="M 114.8 181.6 Q 116.1 181.6, 116.8 182.4 Q 117.5 183.1, 117.5 184.6 L 117.5 190.0 L 116.0 190.0 L 116.0 184.7 Q 116.0 183.7, 115.6 183.3 Q 115.3 182.8, 114.4 182.8 Q 113.7 182.8, 113.1 183.2 Q 112.4 183.5, 112.0 184.1 L 112.0 190.0 L 110.5 190.0 L 110.5 181.8 L 111.8 181.8 L 111.9 182.9 Q 113.0 181.6, 114.8 181.6 " fill="#000000"/>
<path d="M 118.3 185.9 Q 118.3 183.8, 119.3 182.7 Q 120.3 181.6, 122.1 181.6 Q 123.9 181.6, 124.7 182.7 Q 125.5 183.8, 125.5 185.8 L 125.5 186.1 L 119.8 186.1 Q 119.8 187.5, 120.4 188.2 Q 121.1 188.9, 122.2 188.9 Q 122.9 188.9, 123.5 188.8 Q 124.1 188.6, 124.8 188.3 L 125.2 189.3 Q 124.4 189.8, 123.7 189.9 Q 122.9 190.1, 122.2 190.1 Q 120.3 190.1, 119.3 189.0 Q 118.3 187.9, 118.3 185.9 M 122.1 182.8 Q 121.2 182.8, 120.6 183.4 Q 120.0 183.9, 119.9 185.0 L 124.0 185.0 Q 123.8 183.8, 123.4 183.3 Q 122.9 182.8, 122.1 182.8 " fill="#000000"/>
<path class="bond-0 atom-0 atom-1" d="M 309.0,79.0 L 301.3,92.3" style="fill:none;fill-rule:evenodd;stroke:#000000;stroke-width:2.0px;stroke-linecap:butt;stroke-linejoin:miter;stroke-opacity:1"/>
<path class="bond-0 atom-0 atom-1" d="M 305.2,79.4 L 299.8,88.8" style="fill:none;fill-rule:evenodd;stroke:#000000;stroke-width:2.0px;stroke-linecap:butt;stroke-linejoin:miter;stroke-opacity:1"/>
<path class="bond-7 atom-0 atom-8" d="M 309.0,79.0 L 315.6,79.0" style="fill:none;fill-rule:evenodd;stroke:#000000;stroke-width:2.0px;stroke-linecap:butt;stroke-linejoin:miter;stroke-opacity:1"/>
<path class="bond-7 atom-0 atom-8" d="M 315.6,79.0 L 322.1,79.0" style="fill:none;fill-rule:evenodd;stroke:#FF0000;stroke-width:2.0px;stroke-linecap:butt;stroke-linejoin:miter;stroke-opacity:1"/>
<path class="bond-8 atom-5 atom-0" d="M 301.3,65.6 L 309.0,79.0" style="fill:none;fill-rule:evenodd;stroke:#000000;stroke-width:2.0px;stroke-linecap:butt;stroke-linejoin:miter;stroke-opacity:1"/>
<path class="bond-1 atom-1 atom-2" d="M 301.3,92.3 L 285.9,92.3" style="fill:none;fill-rule:evenodd;stroke:#000000;stroke-width:2.0px;stroke-linecap:butt;stroke-linejoin:miter;stroke-opacity:1"/>
<path class="bond-2 atom-2 atom-3" d="M 285.9,92.3 L 282.8,86.9" style="fill:none;fill-rule:evenodd;stroke:#000000;stroke-width:2.0px;stroke-linecap:butt;stroke-linejoin:miter;stroke-opacity:1"/>
<path class="bond-2 atom-2 atom-3" d="M 282.8,86.9 L 279.6,81.5" style="fill:none;fill-rule:evenodd;stroke:#0000FF;stroke-width:2.0px;stroke-linecap:butt;stroke-linejoin:miter;stroke-opacity:1"/>
<path class="bond-2 atom-2 atom-3" d="M 287.6,89.2 L 285.4,85.4" style="fill:none;fill-rule:evenodd;stroke:#000000;stroke-width:2.0px;stroke-linecap:butt;stroke-linejoin:miter;stroke-opacity:1"/>
<path class="bond-2 atom-2 atom-3" d="M 285.4,85.4 L 283.2,81.6" style="fill:none;fill-rule:evenodd;stroke:#0000FF;stroke-width:2.0px;stroke-linecap:butt;stroke-linejoin:miter;stroke-opacity:1"/>
<path class="bond-6 atom-2 atom-7" d="M 285.9,92.3 L 282.3,98.4" style="fill:none;fill-rule:evenodd;stroke:#000000;stroke-width:2.0px;stroke-linecap:butt;stroke-linejoin:miter;stroke-opacity:1"/>
<path class="bond-6 atom-2 atom-7" d="M 282.3,98.4 L 278.8,104.5" style="fill:none;fill-rule:evenodd;stroke:#00CC00;stroke-width:2.0px;stroke-linecap:butt;stroke-linejoin:miter;stroke-opacity:1"/>
<path class="bond-3 atom-3 atom-4" d="M 279.6,76.4 L 282.8,71.0" style="fill:none;fill-rule:evenodd;stroke:#0000FF;stroke-width:2.0px;stroke-linecap:butt;stroke-linejoin:miter;stroke-opacity:1"/>
<path class="bond-3 atom-3 atom-4" d="M 282.8,71.0 L 285.9,65.6" style="fill:none;fill-rule:evenodd;stroke:#000000;stroke-width:2.0px;stroke-linecap:butt;stroke-linejoin:miter;stroke-opacity:1"/>
<path class="bond-4 atom-4 atom-5" d="M 285.9,65.6 L 301.3,65.6" style="fill:none;fill-rule:evenodd;stroke:#000000;stroke-width:2.0px;stroke-linecap:butt;stroke-linejoin:miter;stroke-opacity:1"/>
<path class="bond-4 atom-4 atom-5" d="M 288.2,68.7 L 299.0,68.7" style="fill:none;fill-rule:evenodd;stroke:#000000;stroke-width:2.0px;stroke-linecap:butt;stroke-linejoin:miter;stroke-opacity:1"/>
<path class="bond-5 atom-4 atom-6" d="M 285.9,65.6 L 282.3,59.5" style="fill:none;fill-rule:evenodd;stroke:#000000;stroke-width:2.0px;stroke-linecap:butt;stroke-linejoin:miter;stroke-opacity:1"/>
<path class="bond-5 atom-4 atom-6" d="M 282.3,59.5 L 278.8,53.4" style="fill:none;fill-rule:evenodd;stroke:#00CC00;stroke-width:2.0px;stroke-linecap:butt;stroke-linejoin:miter;stroke-opacity:1"/>
<path class="atom-3" d="M 277.2 76.8 L 278.6 79.1 Q 278.8 79.3, 279.0 79.7 Q 279.2 80.1, 279.2 80.2 L 279.2 76.8 L 279.8 76.8 L 279.8 81.1 L 279.2 81.1 L 277.7 78.6 Q 277.5 78.3, 277.3 78.0 Q 277.1 77.6, 277.1 77.5 L 277.1 81.1 L 276.5 81.1 L 276.5 76.8 L 277.2 76.8 " fill="#0000FF"/>
<path class="atom-6" d="M 274.0 52.4 Q 274.0 51.3, 274.5 50.7 Q 275.0 50.1, 276.0 50.1 Q 276.9 50.1, 277.3 50.8 L 276.9 51.1 Q 276.6 50.6, 276.0 50.6 Q 275.3 50.6, 274.9 51.1 Q 274.6 51.5, 274.6 52.4 Q 274.6 53.2, 275.0 53.7 Q 275.3 54.1, 276.0 54.1 Q 276.5 54.1, 277.1 53.8 L 277.2 54.3 Q 277.0 54.4, 276.7 54.5 Q 276.3 54.6, 275.9 54.6 Q 275.0 54.6, 274.5 54.0 Q 274.0 53.5, 274.0 52.4 " fill="#00CC00"/>
<path class="atom-6" d="M 277.9 49.9 L 278.4 49.9 L 278.4 54.6 L 277.9 54.6 L 277.9 49.9 " fill="#00CC00"/>
<path class="atom-7" d="M 274.0 105.9 Q 274.0 104.8, 274.5 104.2 Q 275.0 103.6, 276.0 103.6 Q 276.9 103.6, 277.3 104.3 L 276.9 104.6 Q 276.6 104.1, 276.0 104.1 Q 275.3 104.1, 274.9 104.6 Q 274.6 105.0, 274.6 105.9 Q 274.6 106.7, 275.0 107.2 Q 275.3 107.6, 276.0 107.6 Q 276.5 107.6, 277.1 107.3 L 277.2 107.8 Q 277.0 107.9, 276.7 108.0 Q 276.3 108.1, 275.9 108.1 Q 275.0 108.1, 274.5 107.5 Q 274.0 106.9, 274.0 105.9 " fill="#00CC00"/>
<path class="atom-7" d="M 277.9 103.4 L 278.4 103.4 L 278.4 108.0 L 277.9 108.0 L 277.9 103.4 " fill="#00CC00"/>
<path class="atom-8" d="M 322.5 79.0 Q 322.5 77.9, 323.0 77.3 Q 323.5 76.8, 324.5 76.8 Q 325.4 76.8, 326.0 77.3 Q 326.5 77.9, 326.5 79.0 Q 326.5 80.0, 326.0 80.6 Q 325.4 81.2, 324.5 81.2 Q 323.5 81.2, 323.0 80.6 Q 322.5 80.0, 322.5 79.0 M 324.5 80.7 Q 325.1 80.7, 325.5 80.3 Q 325.9 79.9, 325.9 79.0 Q 325.9 78.1, 325.5 77.7 Q 325.1 77.2, 324.5 77.2 Q 323.8 77.2, 323.4 77.7 Q 323.1 78.1, 323.1 79.0 Q 323.1 79.9, 323.4 80.3 Q 323.8 80.7, 324.5 80.7 " fill="#FF0000"/>
<path class="atom-8" d="M 327.0 76.8 L 327.6 76.8 L 327.6 78.7 L 329.8 78.7 L 329.8 76.8 L 330.4 76.8 L 330.4 81.2 L 329.8 81.2 L 329.8 79.2 L 327.6 79.2 L 327.6 81.2 L 327.0 81.2 L 327.0 76.8 " fill="#FF0000"/>
<path d="M 257.9 184.3 Q 257.9 181.5, 259.2 180.0 Q 260.5 178.5, 263.0 178.5 Q 265.4 178.5, 266.6 180.2 L 265.6 181.0 Q 264.7 179.8, 263.0 179.8 Q 261.3 179.8, 260.4 181.0 Q 259.5 182.1, 259.5 184.3 Q 259.5 186.6, 260.5 187.7 Q 261.4 188.9, 263.2 188.9 Q 264.5 188.9, 265.9 188.1 L 266.4 189.3 Q 265.8 189.7, 264.9 189.9 Q 264.0 190.1, 263.0 190.1 Q 260.5 190.1, 259.2 188.6 Q 257.9 187.1, 257.9 184.3 " fill="#000000"/>
<path d="M 268.0 177.8 L 269.5 177.8 L 269.5 190.0 L 268.0 190.0 L 268.0 177.8 " fill="#000000"/>
<path d="M 270.3 184.2 L 276.1 184.2 L 276.1 185.5 L 270.3 185.5 L 270.3 184.2 " fill="#000000"/>
<path d="M 281.3 181.6 Q 283.0 181.6, 283.9 182.7 Q 284.9 183.8, 284.9 185.7 Q 284.9 187.8, 283.8 189.0 Q 282.6 190.1, 280.7 190.1 Q 279.7 190.1, 279.0 189.9 L 279.0 193.9 L 277.5 193.9 L 277.5 181.8 L 278.7 181.8 L 278.9 182.8 Q 279.3 182.2, 279.9 181.9 Q 280.5 181.6, 281.3 181.6 M 280.7 188.9 Q 281.9 188.9, 282.6 188.1 Q 283.4 187.3, 283.4 185.7 Q 283.4 184.3, 282.8 183.6 Q 282.2 182.8, 281.2 182.8 Q 280.4 182.8, 279.8 183.2 Q 279.2 183.7, 279.0 184.4 L 279.0 188.7 Q 279.8 188.9, 280.7 188.9 " fill="#000000"/>
<path d="M 291.4 181.8 L 292.9 181.8 L 288.6 193.9 L 287.3 193.9 L 288.6 190.0 L 288.0 190.0 L 285.1 181.8 L 286.6 181.8 L 289.0 188.7 L 291.4 181.8 " fill="#000000"/>
<path d="M 295.4 181.8 L 295.6 182.9 Q 296.5 181.6, 297.9 181.6 Q 298.3 181.6, 298.9 181.8 L 298.7 183.1 Q 298.0 183.0, 297.6 183.0 Q 297.0 183.0, 296.5 183.2 Q 296.1 183.5, 295.7 184.1 L 295.7 190.0 L 294.2 190.0 L 294.2 181.8 L 295.4 181.8 " fill="#000000"/>
<path d="M 300.3 178.7 L 301.8 178.7 L 301.8 180.1 L 300.3 180.1 L 300.3 178.7 M 300.3 181.8 L 301.8 181.8 L 301.8 190.0 L 300.3 190.0 L 300.3 181.8 " fill="#000000"/>
<path d="M 310.0 177.8 L 310.0 190.0 L 308.8 190.0 L 308.6 189.0 Q 307.7 190.1, 306.1 190.1 Q 304.4 190.1, 303.5 189.1 Q 302.5 188.0, 302.5 186.0 Q 302.5 183.9, 303.7 182.8 Q 304.8 181.6, 306.8 181.6 Q 307.6 181.6, 308.5 181.8 L 308.5 177.8 L 310.0 177.8 M 306.2 188.9 Q 307.1 188.9, 307.7 188.5 Q 308.3 188.0, 308.5 187.2 L 308.5 183.0 Q 307.7 182.8, 306.8 182.8 Q 305.5 182.8, 304.8 183.7 Q 304.1 184.5, 304.1 186.0 Q 304.1 187.4, 304.6 188.2 Q 305.2 188.9, 306.2 188.9 " fill="#000000"/>
<path d="M 310.7 185.9 Q 310.7 183.9, 311.7 182.7 Q 312.8 181.6, 314.6 181.6 Q 316.5 181.6, 317.5 182.7 Q 318.5 183.9, 318.5 185.9 Q 318.5 187.9, 317.5 189.0 Q 316.5 190.1, 314.6 190.1 Q 312.8 190.1, 311.7 189.0 Q 310.7 187.9, 310.7 185.9 M 312.3 185.9 Q 312.3 187.4, 312.9 188.2 Q 313.5 188.9, 314.6 188.9 Q 315.8 188.9, 316.4 188.2 Q 317.0 187.4, 317.0 185.9 Q 317.0 184.4, 316.4 183.6 Q 315.8 182.8, 314.6 182.8 Q 313.5 182.8, 312.9 183.6 Q 312.3 184.4, 312.3 185.9 " fill="#000000"/>
<path d="M 324.1 181.6 Q 325.5 181.6, 326.1 182.4 Q 326.9 183.1, 326.9 184.6 L 326.9 190.0 L 325.3 190.0 L 325.3 184.7 Q 325.3 183.7, 325.0 183.3 Q 324.6 182.8, 323.8 182.8 Q 323.0 182.8, 322.4 183.2 Q 321.8 183.5, 321.4 184.1 L 321.4 190.0 L 319.9 190.0 L 319.9 181.8 L 321.1 181.8 L 321.3 182.9 Q 322.4 181.6, 324.1 181.6 " fill="#000000"/>
<path d="M 327.6 185.9 Q 327.6 183.8, 328.6 182.7 Q 329.6 181.6, 331.4 181.6 Q 333.3 181.6, 334.1 182.7 Q 334.9 183.8, 334.9 185.8 L 334.9 186.1 L 329.1 186.1 Q 329.2 187.5, 329.8 188.2 Q 330.4 188.9, 331.6 188.9 Q 332.2 188.9, 332.8 188.8 Q 333.4 188.6, 334.1 188.3 L 334.5 189.3 Q 333.7 189.8, 333.0 189.9 Q 332.3 190.1, 331.5 190.1 Q 329.6 190.1, 328.6 189.0 Q 327.6 187.9, 327.6 185.9 M 331.4 182.8 Q 330.5 182.8, 329.9 183.4 Q 329.4 183.9, 329.2 185.0 L 333.3 185.0 Q 333.2 183.8, 332.7 183.3 Q 332.3 182.8, 331.4 182.8 " fill="#000000"/>
<path class="bond-0 atom-0 atom-1" d="M 478.0,64.6 L 462.5,65.3" style="fill:none;fill-rule:evenodd;stroke:#000000;stroke-width:2.0px;stroke-linecap:butt;stroke-linejoin:miter;stroke-opacity:1"/>
<path class="bond-0 atom-0 atom-1" d="M 475.8,67.7 L 465.0,68.3" style="fill:none;fill-rule:evenodd;stroke:#000000;stroke-width:2.0px;stroke-linecap:butt;stroke-linejoin:miter;stroke-opacity:1"/>
<path class="bond-13 atom-0 atom-14" d="M 478.0,64.6 L 480.8,59.0" style="fill:none;fill-rule:evenodd;stroke:#000000;stroke-width:2.0px;stroke-linecap:butt;stroke-linejoin:miter;stroke-opacity:1"/>
<path class="bond-13 atom-0 atom-14" d="M 480.8,59.0 L 483.6,53.5" style="fill:none;fill-rule:evenodd;stroke:#FF0000;stroke-width:2.0px;stroke-linecap:butt;stroke-linejoin:miter;stroke-opacity:1"/>
<path class="bond-14 atom-5 atom-0" d="M 486.3,77.5 L 478.0,64.6" style="fill:none;fill-rule:evenodd;stroke:#000000;stroke-width:2.0px;stroke-linecap:butt;stroke-linejoin:miter;stroke-opacity:1"/>
<path class="bond-1 atom-1 atom-2" d="M 462.5,65.3 L 455.5,79.0" style="fill:none;fill-rule:evenodd;stroke:#000000;stroke-width:2.0px;stroke-linecap:butt;stroke-linejoin:miter;stroke-opacity:1"/>
<path class="bond-2 atom-2 atom-3" d="M 455.5,79.0 L 458.8,84.2" style="fill:none;fill-rule:evenodd;stroke:#000000;stroke-width:2.0px;stroke-linecap:butt;stroke-linejoin:miter;stroke-opacity:1"/>
<path class="bond-2 atom-2 atom-3" d="M 458.8,84.2 L 462.2,89.4" style="fill:none;fill-rule:evenodd;stroke:#0000FF;stroke-width:2.0px;stroke-linecap:butt;stroke-linejoin:miter;stroke-opacity:1"/>
<path class="bond-2 atom-2 atom-3" d="M 459.1,78.9 L 461.4,82.6" style="fill:none;fill-rule:evenodd;stroke:#000000;stroke-width:2.0px;stroke-linecap:butt;stroke-linejoin:miter;stroke-opacity:1"/>
<path class="bond-2 atom-2 atom-3" d="M 461.4,82.6 L 463.8,86.2" style="fill:none;fill-rule:evenodd;stroke:#0000FF;stroke-width:2.0px;stroke-linecap:butt;stroke-linejoin:miter;stroke-opacity:1"/>
<path class="bond-3 atom-3 atom-4" d="M 465.9,91.9 L 472.6,91.6" style="fill:none;fill-rule:evenodd;stroke:#0000FF;stroke-width:2.0px;stroke-linecap:butt;stroke-linejoin:miter;stroke-opacity:1"/>
<path class="bond-3 atom-3 atom-4" d="M 472.6,91.6 L 479.3,91.3" style="fill:none;fill-rule:evenodd;stroke:#000000;stroke-width:2.0px;stroke-linecap:butt;stroke-linejoin:miter;stroke-opacity:1"/>
<path class="bond-4 atom-4 atom-5" d="M 479.3,91.3 L 486.3,77.5" style="fill:none;fill-rule:evenodd;stroke:#000000;stroke-width:2.0px;stroke-linecap:butt;stroke-linejoin:miter;stroke-opacity:1"/>
<path class="bond-4 atom-4 atom-5" d="M 477.6,87.8 L 482.5,78.2" style="fill:none;fill-rule:evenodd;stroke:#000000;stroke-width:2.0px;stroke-linecap:butt;stroke-linejoin:miter;stroke-opacity:1"/>
<path class="bond-16 atom-9 atom-4" d="M 487.6,104.2 L 479.3,91.3" style="fill:none;fill-rule:evenodd;stroke:#000000;stroke-width:2.0px;stroke-linecap:butt;stroke-linejoin:miter;stroke-opacity:1"/>
<path class="bond-5 atom-5 atom-6" d="M 486.3,77.5 L 501.7,76.8" style="fill:none;fill-rule:evenodd;stroke:#000000;stroke-width:2.0px;stroke-linecap:butt;stroke-linejoin:miter;stroke-opacity:1"/>
<path class="bond-6 atom-6 atom-7" d="M 501.7,76.8 L 510.1,89.8" style="fill:none;fill-rule:evenodd;stroke:#000000;stroke-width:2.0px;stroke-linecap:butt;stroke-linejoin:miter;stroke-opacity:1"/>
<path class="bond-6 atom-6 atom-7" d="M 500.4,80.4 L 506.2,89.5" style="fill:none;fill-rule:evenodd;stroke:#000000;stroke-width:2.0px;stroke-linecap:butt;stroke-linejoin:miter;stroke-opacity:1"/>
<path class="bond-15 atom-13 atom-6" d="M 507.5,65.6 L 504.6,71.2" style="fill:none;fill-rule:evenodd;stroke:#0000FF;stroke-width:2.0px;stroke-linecap:butt;stroke-linejoin:miter;stroke-opacity:1"/>
<path class="bond-15 atom-13 atom-6" d="M 504.6,71.2 L 501.7,76.8" style="fill:none;fill-rule:evenodd;stroke:#000000;stroke-width:2.0px;stroke-linecap:butt;stroke-linejoin:miter;stroke-opacity:1"/>
<path class="bond-7 atom-7 atom-8" d="M 510.1,89.8 L 503.0,103.5" style="fill:none;fill-rule:evenodd;stroke:#000000;stroke-width:2.0px;stroke-linecap:butt;stroke-linejoin:miter;stroke-opacity:1"/>
<path class="bond-9 atom-7 atom-10" d="M 510.1,89.8 L 525.5,89.0" style="fill:none;fill-rule:evenodd;stroke:#000000;stroke-width:2.0px;stroke-linecap:butt;stroke-linejoin:miter;stroke-opacity:1"/>
<path class="bond-8 atom-8 atom-9" d="M 503.0,103.5 L 487.6,104.2" style="fill:none;fill-rule:evenodd;stroke:#000000;stroke-width:2.0px;stroke-linecap:butt;stroke-linejoin:miter;stroke-opacity:1"/>
<path class="bond-8 atom-8 atom-9" d="M 500.6,100.5 L 489.8,101.0" style="fill:none;fill-rule:evenodd;stroke:#000000;stroke-width:2.0px;stroke-linecap:butt;stroke-linejoin:miter;stroke-opacity:1"/>
<path class="bond-10 atom-10 atom-11" d="M 525.5,89.0 L 532.6,75.3" style="fill:none;fill-rule:evenodd;stroke:#000000;stroke-width:2.0px;stroke-linecap:butt;stroke-linejoin:miter;stroke-opacity:1"/>
<path class="bond-10 atom-10 atom-11" d="M 523.8,85.5 L 528.8,75.9" style="fill:none;fill-rule:evenodd;stroke:#000000;stroke-width:2.0px;stroke-linecap:butt;stroke-linejoin:miter;stroke-opacity:1"/>
<path class="bond-11 atom-11 atom-12" d="M 532.6,75.3 L 524.2,62.3" style="fill:none;fill-rule:evenodd;stroke:#000000;stroke-width:2.0px;stroke-linecap:butt;stroke-linejoin:miter;stroke-opacity:1"/>
<path class="bond-12 atom-12 atom-13" d="M 524.2,62.3 L 517.5,62.6" style="fill:none;fill-rule:evenodd;stroke:#000000;stroke-width:2.0px;stroke-linecap:butt;stroke-linejoin:miter;stroke-opacity:1"/>
<path class="bond-12 atom-12 atom-13" d="M 517.5,62.6 L 510.8,63.0" style="fill:none;fill-rule:evenodd;stroke:#0000FF;stroke-width:2.0px;stroke-linecap:butt;stroke-linejoin:miter;stroke-opacity:1"/>
<path class="bond-12 atom-12 atom-13" d="M 522.4,65.5 L 517.7,65.7" style="fill:none;fill-rule:evenodd;stroke:#000000;stroke-width:2.0px;stroke-linecap:butt;stroke-linejoin:miter;stroke-opacity:1"/>
<path class="bond-12 atom-12 atom-13" d="M 517.7,65.7 L 513.0,65.9" style="fill:none;fill-rule:evenodd;stroke:#0000FF;stroke-width:2.0px;stroke-linecap:butt;stroke-linejoin:miter;stroke-opacity:1"/>
<path class="atom-3" d="M 462.9 89.8 L 464.3 92.1 Q 464.4 92.4, 464.7 92.8 Q 464.9 93.2, 464.9 93.2 L 464.9 89.8 L 465.5 89.8 L 465.5 94.2 L 464.9 94.2 L 463.3 91.7 Q 463.2 91.4, 463.0 91.0 Q 462.8 90.7, 462.7 90.6 L 462.7 94.2 L 462.2 94.2 L 462.2 89.8 L 462.9 89.8 " fill="#0000FF"/>
<path class="atom-13" d="M 507.8 60.9 L 509.3 63.2 Q 509.4 63.4, 509.6 63.8 Q 509.9 64.2, 509.9 64.3 L 509.9 60.9 L 510.5 60.9 L 510.5 65.2 L 509.9 65.2 L 508.3 62.7 Q 508.1 62.4, 507.9 62.1 Q 507.8 61.7, 507.7 61.6 L 507.7 65.2 L 507.1 65.2 L 507.1 60.9 L 507.8 60.9 " fill="#0000FF"/>
<path class="atom-14" d="M 483.0 50.8 Q 483.0 49.8, 483.5 49.2 Q 484.0 48.6, 485.0 48.6 Q 486.0 48.6, 486.5 49.2 Q 487.0 49.8, 487.0 50.8 Q 487.0 51.9, 486.5 52.5 Q 486.0 53.1, 485.0 53.1 Q 484.0 53.1, 483.5 52.5 Q 483.0 51.9, 483.0 50.8 M 485.0 52.6 Q 485.7 52.6, 486.0 52.2 Q 486.4 51.7, 486.4 50.8 Q 486.4 50.0, 486.0 49.5 Q 485.7 49.1, 485.0 49.1 Q 484.3 49.1, 484.0 49.5 Q 483.6 50.0, 483.6 50.8 Q 483.6 51.7, 484.0 52.2 Q 484.3 52.6, 485.0 52.6 " fill="#FF0000"/>
<path class="atom-14" d="M 487.5 48.7 L 488.1 48.7 L 488.1 50.5 L 490.4 50.5 L 490.4 48.7 L 491.0 48.7 L 491.0 53.0 L 490.4 53.0 L 490.4 51.0 L 488.1 51.0 L 488.1 53.0 L 487.5 53.0 L 487.5 48.7 " fill="#FF0000"/>
<path d="M 450.9 183.1 Q 452.6 183.1, 453.6 184.1 Q 454.5 185.2, 454.5 187.2 Q 454.5 189.2, 453.4 190.4 Q 452.3 191.6, 450.3 191.6 Q 449.0 191.6, 447.8 191.1 L 447.1 190.9 L 447.1 179.3 L 448.6 179.3 L 448.6 184.1 Q 449.5 183.1, 450.9 183.1 M 450.3 190.4 Q 451.6 190.4, 452.3 189.5 Q 453.0 188.7, 453.0 187.2 Q 453.0 185.8, 452.4 185.0 Q 451.9 184.2, 450.8 184.2 Q 450.0 184.2, 449.4 184.7 Q 448.8 185.1, 448.6 185.9 L 448.6 190.1 Q 449.4 190.4, 450.3 190.4 " fill="#000000"/>
<path d="M 455.3 187.3 Q 455.3 185.3, 456.3 184.2 Q 457.3 183.1, 459.1 183.1 Q 460.9 183.1, 461.7 184.1 Q 462.6 185.2, 462.6 187.2 L 462.6 187.5 L 456.8 187.5 Q 456.8 188.9, 457.5 189.6 Q 458.1 190.4, 459.3 190.4 Q 459.9 190.4, 460.5 190.2 Q 461.1 190.1, 461.8 189.7 L 462.2 190.8 Q 461.4 191.2, 460.7 191.4 Q 460.0 191.6, 459.2 191.6 Q 457.3 191.6, 456.3 190.4 Q 455.3 189.3, 455.3 187.3 M 459.1 184.2 Q 458.2 184.2, 457.6 184.8 Q 457.1 185.3, 456.9 186.4 L 461.0 186.4 Q 460.9 185.3, 460.4 184.8 Q 460.0 184.2, 459.1 184.2 " fill="#000000"/>
<path d="M 468.2 183.1 Q 469.5 183.1, 470.2 183.8 Q 470.9 184.6, 470.9 186.0 L 470.9 191.4 L 469.4 191.4 L 469.4 186.1 Q 469.4 185.1, 469.0 184.7 Q 468.6 184.2, 467.8 184.2 Q 467.0 184.2, 466.4 184.6 Q 465.8 184.9, 465.4 185.5 L 465.4 191.4 L 463.9 191.4 L 463.9 183.2 L 465.1 183.2 L 465.3 184.4 Q 466.4 183.1, 468.2 183.1 " fill="#000000"/>
<path d="M 473.3 190.2 L 477.9 190.2 L 477.9 191.4 L 471.5 191.4 L 471.5 190.5 L 475.9 184.4 L 471.8 184.4 L 471.8 183.2 L 477.7 183.2 L 477.7 184.1 L 473.3 190.2 " fill="#000000"/>
<path d="M 478.6 187.3 Q 478.6 185.3, 479.6 184.2 Q 480.6 183.1, 482.4 183.1 Q 484.3 183.1, 485.1 184.1 Q 485.9 185.2, 485.9 187.2 L 485.9 187.5 L 480.1 187.5 Q 480.2 188.9, 480.8 189.6 Q 481.4 190.4, 482.6 190.4 Q 483.2 190.4, 483.8 190.2 Q 484.4 190.1, 485.1 189.7 L 485.6 190.8 Q 484.7 191.2, 484.0 191.4 Q 483.3 191.6, 482.5 191.6 Q 480.6 191.6, 479.6 190.4 Q 478.6 189.3, 478.6 187.3 M 482.4 184.2 Q 481.5 184.2, 480.9 184.8 Q 480.4 185.3, 480.2 186.4 L 484.3 186.4 Q 484.2 185.3, 483.7 184.8 Q 483.3 184.2, 482.4 184.2 " fill="#000000"/>
<path d="M 491.5 183.1 Q 492.8 183.1, 493.5 183.8 Q 494.2 184.6, 494.2 186.0 L 494.2 191.4 L 492.7 191.4 L 492.7 186.1 Q 492.7 185.1, 492.3 184.7 Q 491.9 184.2, 491.1 184.2 Q 490.3 184.2, 489.7 184.6 Q 489.1 184.9, 488.7 185.5 L 488.7 191.4 L 487.2 191.4 L 487.2 183.2 L 488.4 183.2 L 488.6 184.4 Q 489.7 183.1, 491.5 183.1 " fill="#000000"/>
<path d="M 494.9 187.3 Q 494.9 185.3, 495.9 184.2 Q 496.9 183.1, 498.8 183.1 Q 500.6 183.1, 501.4 184.1 Q 502.2 185.2, 502.2 187.2 L 502.2 187.5 L 496.4 187.5 Q 496.5 188.9, 497.1 189.6 Q 497.7 190.4, 498.9 190.4 Q 499.5 190.4, 500.1 190.2 Q 500.7 190.1, 501.4 189.7 L 501.9 190.8 Q 501.1 191.2, 500.3 191.4 Q 499.6 191.6, 498.8 191.6 Q 497.0 191.6, 495.9 190.4 Q 494.9 189.3, 494.9 187.3 M 498.8 184.2 Q 497.8 184.2, 497.2 184.8 Q 496.7 185.3, 496.5 186.4 L 500.6 186.4 Q 500.5 185.3, 500.0 184.8 Q 499.6 184.2, 498.8 184.2 " fill="#000000"/>
<path d="M 503.0 185.7 L 508.9 185.7 L 508.9 187.0 L 503.0 187.0 L 503.0 185.7 " fill="#000000"/>
<path d="M 509.3 184.4 L 509.3 183.2 L 510.7 183.2 L 510.7 182.0 Q 510.7 180.6, 511.5 179.9 Q 512.2 179.3, 513.3 179.3 Q 513.9 179.3, 514.4 179.4 Q 514.8 179.5, 515.3 179.7 L 514.9 180.8 Q 514.1 180.5, 513.5 180.5 Q 512.9 180.5, 512.6 180.8 Q 512.2 181.2, 512.2 181.9 L 512.2 183.2 L 514.8 183.2 L 514.8 184.4 L 512.2 184.4 L 512.2 193.9 L 510.7 193.9 L 510.7 184.4 L 509.3 184.4 " fill="#000000"/>
<path d="M 523.5 183.2 L 523.5 191.4 L 522.3 191.4 L 522.1 190.3 Q 521.1 191.6, 519.3 191.6 Q 518.0 191.6, 517.2 190.8 Q 516.5 190.1, 516.5 188.6 L 516.5 183.2 L 518.0 183.2 L 518.0 188.5 Q 518.0 189.5, 518.4 190.0 Q 518.8 190.4, 519.6 190.4 Q 520.4 190.4, 521.0 190.0 Q 521.6 189.7, 522.0 189.1 L 522.0 183.2 L 523.5 183.2 " fill="#000000"/>
<path d="M 524.8 189.7 Q 525.5 190.0, 526.0 190.2 Q 526.6 190.3, 527.1 190.3 Q 527.8 190.3, 528.2 190.0 Q 528.7 189.7, 528.7 189.1 Q 528.7 188.8, 528.4 188.5 Q 528.2 188.3, 528.0 188.2 Q 527.7 188.1, 527.0 187.8 Q 526.9 187.8, 526.1 187.5 Q 525.4 187.3, 525.0 186.7 Q 524.6 186.2, 524.6 185.4 Q 524.6 184.4, 525.4 183.7 Q 526.1 183.1, 527.6 183.1 Q 528.3 183.1, 528.8 183.2 Q 529.4 183.3, 530.0 183.6 L 529.6 184.8 Q 529.0 184.6, 528.6 184.4 Q 528.1 184.3, 527.6 184.3 Q 526.9 184.3, 526.5 184.6 Q 526.1 184.9, 526.1 185.4 Q 526.1 185.8, 526.4 186.0 Q 526.7 186.3, 527.4 186.5 Q 527.6 186.5, 527.7 186.6 L 528.1 186.8 Q 528.8 187.0, 529.2 187.2 Q 529.6 187.4, 529.9 187.9 Q 530.2 188.3, 530.2 189.1 Q 530.2 190.3, 529.3 190.9 Q 528.5 191.6, 527.1 191.6 Q 526.4 191.6, 525.7 191.4 Q 525.0 191.2, 524.3 190.9 L 524.8 189.7 " fill="#000000"/>
<path d="M 530.9 187.3 Q 530.9 185.3, 531.9 184.2 Q 532.9 183.1, 534.8 183.1 Q 536.6 183.1, 537.4 184.1 Q 538.2 185.2, 538.2 187.2 L 538.2 187.5 L 532.4 187.5 Q 532.5 188.9, 533.1 189.6 Q 533.7 190.4, 534.9 190.4 Q 535.5 190.4, 536.1 190.2 Q 536.7 190.1, 537.4 189.7 L 537.9 190.8 Q 537.0 191.2, 536.3 191.4 Q 535.6 191.6, 534.8 191.6 Q 532.9 191.6, 531.9 190.4 Q 530.9 189.3, 530.9 187.3 M 534.8 184.2 Q 533.8 184.2, 533.2 184.8 Q 532.7 185.3, 532.5 186.4 L 536.6 186.4 Q 536.5 185.3, 536.0 184.8 Q 535.6 184.2, 534.8 184.2 " fill="#000000"/>
<path d="M 546.4 179.3 L 546.4 191.4 L 545.2 191.4 L 545.0 190.4 Q 544.0 191.6, 542.5 191.6 Q 540.8 191.6, 539.9 190.5 Q 538.9 189.4, 538.9 187.4 Q 538.9 185.4, 540.0 184.2 Q 541.2 183.1, 543.1 183.1 Q 544.0 183.1, 544.9 183.3 L 544.9 179.3 L 546.4 179.3 M 542.6 190.4 Q 543.5 190.4, 544.0 189.9 Q 544.7 189.5, 544.9 188.6 L 544.9 184.5 Q 544.1 184.2, 543.2 184.2 Q 541.9 184.2, 541.2 185.1 Q 540.4 185.9, 540.4 187.4 Q 540.4 188.8, 541.0 189.6 Q 541.6 190.4, 542.6 190.4 " fill="#000000"/>
<path class="bond-0 atom-0 atom-1" d="M 609.1,101.8 L 616.2,88.1" style="fill:none;fill-rule:evenodd;stroke:#000000;stroke-width:2.0px;stroke-linecap:butt;stroke-linejoin:miter;stroke-opacity:1"/>
<path class="bond-1 atom-1 atom-2" d="M 616.2,88.1 L 631.6,87.4" style="fill:none;fill-rule:evenodd;stroke:#000000;stroke-width:2.0px;stroke-linecap:butt;stroke-linejoin:miter;stroke-opacity:1"/>
<path class="bond-2 atom-2 atom-3" d="M 631.6,87.4 L 638.7,73.6" style="fill:none;fill-rule:evenodd;stroke:#000000;stroke-width:2.0px;stroke-linecap:butt;stroke-linejoin:miter;stroke-opacity:1"/>
<path class="bond-3 atom-3 atom-4" d="M 638.7,73.6 L 635.9,68.0" style="fill:none;fill-rule:evenodd;stroke:#000000;stroke-width:2.0px;stroke-linecap:butt;stroke-linejoin:miter;stroke-opacity:1"/>
<path class="bond-3 atom-3 atom-4" d="M 635.9,68.0 L 633.1,62.4" style="fill:none;fill-rule:evenodd;stroke:#0000FF;stroke-width:2.0px;stroke-linecap:butt;stroke-linejoin:miter;stroke-opacity:1"/>
<path class="bond-3 atom-3 atom-4" d="M 640.6,70.6 L 638.6,66.6" style="fill:none;fill-rule:evenodd;stroke:#000000;stroke-width:2.0px;stroke-linecap:butt;stroke-linejoin:miter;stroke-opacity:1"/>
<path class="bond-3 atom-3 atom-4" d="M 638.6,66.6 L 636.7,62.7" style="fill:none;fill-rule:evenodd;stroke:#0000FF;stroke-width:2.0px;stroke-linecap:butt;stroke-linejoin:miter;stroke-opacity:1"/>
<path class="bond-32 atom-7 atom-3" d="M 654.0,71.3 L 638.7,73.6" style="fill:none;fill-rule:evenodd;stroke:#000000;stroke-width:2.0px;stroke-linecap:butt;stroke-linejoin:miter;stroke-opacity:1"/>
<path class="bond-4 atom-4 atom-5" d="M 633.8,57.8 L 640.8,50.9" style="fill:none;fill-rule:evenodd;stroke:#0000FF;stroke-width:2.0px;stroke-linecap:butt;stroke-linejoin:miter;stroke-opacity:1"/>
<path class="bond-5 atom-5 atom-6" d="M 644.8,50.1 L 650.6,53.1" style="fill:none;fill-rule:evenodd;stroke:#0000FF;stroke-width:2.0px;stroke-linecap:butt;stroke-linejoin:miter;stroke-opacity:1"/>
<path class="bond-5 atom-5 atom-6" d="M 650.6,53.1 L 656.5,56.1" style="fill:none;fill-rule:evenodd;stroke:#000000;stroke-width:2.0px;stroke-linecap:butt;stroke-linejoin:miter;stroke-opacity:1"/>
<path class="bond-31 atom-5 atom-32" d="M 642.3,46.4 L 641.4,40.1" style="fill:none;fill-rule:evenodd;stroke:#0000FF;stroke-width:2.0px;stroke-linecap:butt;stroke-linejoin:miter;stroke-opacity:1"/>
<path class="bond-31 atom-5 atom-32" d="M 641.4,40.1 L 640.4,33.7" style="fill:none;fill-rule:evenodd;stroke:#000000;stroke-width:2.0px;stroke-linecap:butt;stroke-linejoin:miter;stroke-opacity:1"/>
<path class="bond-6 atom-6 atom-7" d="M 656.5,56.1 L 654.0,71.3" style="fill:none;fill-rule:evenodd;stroke:#000000;stroke-width:2.0px;stroke-linecap:butt;stroke-linejoin:miter;stroke-opacity:1"/>
<path class="bond-6 atom-6 atom-7" d="M 653.0,57.9 L 651.3,68.5" style="fill:none;fill-rule:evenodd;stroke:#000000;stroke-width:2.0px;stroke-linecap:butt;stroke-linejoin:miter;stroke-opacity:1"/>
<path class="bond-33 atom-11 atom-6" d="M 670.9,50.6 L 656.5,56.1" style="fill:none;fill-rule:evenodd;stroke:#000000;stroke-width:2.0px;stroke-linecap:butt;stroke-linejoin:miter;stroke-opacity:1"/>
<path class="bond-7 atom-7 atom-8" d="M 654.0,71.3 L 658.9,75.4" style="fill:none;fill-rule:evenodd;stroke:#000000;stroke-width:2.0px;stroke-linecap:butt;stroke-linejoin:miter;stroke-opacity:1"/>
<path class="bond-7 atom-7 atom-8" d="M 658.9,75.4 L 663.9,79.4" style="fill:none;fill-rule:evenodd;stroke:#0000FF;stroke-width:2.0px;stroke-linecap:butt;stroke-linejoin:miter;stroke-opacity:1"/>
<path class="bond-8 atom-8 atom-9" d="M 667.9,80.3 L 674.1,78.0" style="fill:none;fill-rule:evenodd;stroke:#0000FF;stroke-width:2.0px;stroke-linecap:butt;stroke-linejoin:miter;stroke-opacity:1"/>
<path class="bond-8 atom-8 atom-9" d="M 674.1,78.0 L 680.3,75.7" style="fill:none;fill-rule:evenodd;stroke:#000000;stroke-width:2.0px;stroke-linecap:butt;stroke-linejoin:miter;stroke-opacity:1"/>
<path class="bond-8 atom-8 atom-9" d="M 668.7,76.7 L 673.1,75.1" style="fill:none;fill-rule:evenodd;stroke:#0000FF;stroke-width:2.0px;stroke-linecap:butt;stroke-linejoin:miter;stroke-opacity:1"/>
<path class="bond-8 atom-8 atom-9" d="M 673.1,75.1 L 677.4,73.5" style="fill:none;fill-rule:evenodd;stroke:#000000;stroke-width:2.0px;stroke-linecap:butt;stroke-linejoin:miter;stroke-opacity:1"/>
<path class="bond-9 atom-9 atom-10" d="M 680.3,75.7 L 681.4,69.3" style="fill:none;fill-rule:evenodd;stroke:#000000;stroke-width:2.0px;stroke-linecap:butt;stroke-linejoin:miter;stroke-opacity:1"/>
<path class="bond-9 atom-9 atom-10" d="M 681.4,69.3 L 682.4,63.0" style="fill:none;fill-rule:evenodd;stroke:#0000FF;stroke-width:2.0px;stroke-linecap:butt;stroke-linejoin:miter;stroke-opacity:1"/>
<path class="bond-12 atom-9 atom-13" d="M 680.3,75.7 L 692.3,85.4" style="fill:none;fill-rule:evenodd;stroke:#000000;stroke-width:2.0px;stroke-linecap:butt;stroke-linejoin:miter;stroke-opacity:1"/>
<path class="bond-10 atom-10 atom-11" d="M 680.8,58.7 L 675.9,54.7" style="fill:none;fill-rule:evenodd;stroke:#0000FF;stroke-width:2.0px;stroke-linecap:butt;stroke-linejoin:miter;stroke-opacity:1"/>
<path class="bond-10 atom-10 atom-11" d="M 675.9,54.7 L 670.9,50.6" style="fill:none;fill-rule:evenodd;stroke:#000000;stroke-width:2.0px;stroke-linecap:butt;stroke-linejoin:miter;stroke-opacity:1"/>
<path class="bond-11 atom-11 atom-12" d="M 672.4,50.9 L 673.5,44.6" style="fill:none;fill-rule:evenodd;stroke:#000000;stroke-width:2.0px;stroke-linecap:butt;stroke-linejoin:miter;stroke-opacity:1"/>
<path class="bond-11 atom-11 atom-12" d="M 673.5,44.6 L 674.5,38.3" style="fill:none;fill-rule:evenodd;stroke:#FF0000;stroke-width:2.0px;stroke-linecap:butt;stroke-linejoin:miter;stroke-opacity:1"/>
<path class="bond-11 atom-11 atom-12" d="M 669.4,50.4 L 670.4,44.1" style="fill:none;fill-rule:evenodd;stroke:#000000;stroke-width:2.0px;stroke-linecap:butt;stroke-linejoin:miter;stroke-opacity:1"/>
<path class="bond-11 atom-11 atom-12" d="M 670.4,44.1 L 671.4,37.8" style="fill:none;fill-rule:evenodd;stroke:#FF0000;stroke-width:2.0px;stroke-linecap:butt;stroke-linejoin:miter;stroke-opacity:1"/>
<path class="bond-13 atom-13 atom-14" d="M 692.3,85.4 L 689.8,100.7" style="fill:none;fill-rule:evenodd;stroke:#000000;stroke-width:2.0px;stroke-linecap:butt;stroke-linejoin:miter;stroke-opacity:1"/>
<path class="bond-13 atom-13 atom-14" d="M 695.0,88.2 L 693.2,98.9" style="fill:none;fill-rule:evenodd;stroke:#000000;stroke-width:2.0px;stroke-linecap:butt;stroke-linejoin:miter;stroke-opacity:1"/>
<path class="bond-34 atom-18 atom-13" d="M 706.7,80.0 L 692.3,85.4" style="fill:none;fill-rule:evenodd;stroke:#000000;stroke-width:2.0px;stroke-linecap:butt;stroke-linejoin:miter;stroke-opacity:1"/>
<path class="bond-14 atom-14 atom-15" d="M 689.8,100.7 L 701.7,110.5" style="fill:none;fill-rule:evenodd;stroke:#000000;stroke-width:2.0px;stroke-linecap:butt;stroke-linejoin:miter;stroke-opacity:1"/>
<path class="bond-28 atom-14 atom-29" d="M 689.8,100.7 L 683.8,103.0" style="fill:none;fill-rule:evenodd;stroke:#000000;stroke-width:2.0px;stroke-linecap:butt;stroke-linejoin:miter;stroke-opacity:1"/>
<path class="bond-28 atom-14 atom-29" d="M 683.8,103.0 L 677.7,105.2" style="fill:none;fill-rule:evenodd;stroke:#FF0000;stroke-width:2.0px;stroke-linecap:butt;stroke-linejoin:miter;stroke-opacity:1"/>
<path class="bond-15 atom-15 atom-16" d="M 701.7,110.5 L 716.2,105.0" style="fill:none;fill-rule:evenodd;stroke:#000000;stroke-width:2.0px;stroke-linecap:butt;stroke-linejoin:miter;stroke-opacity:1"/>
<path class="bond-15 atom-15 atom-16" d="M 702.8,106.8 L 712.9,102.9" style="fill:none;fill-rule:evenodd;stroke:#000000;stroke-width:2.0px;stroke-linecap:butt;stroke-linejoin:miter;stroke-opacity:1"/>
<path class="bond-16 atom-16 atom-17" d="M 716.2,105.0 L 718.7,89.8" style="fill:none;fill-rule:evenodd;stroke:#000000;stroke-width:2.0px;stroke-linecap:butt;stroke-linejoin:miter;stroke-opacity:1"/>
<path class="bond-17 atom-17 atom-18" d="M 718.7,89.8 L 706.7,80.0" style="fill:none;fill-rule:evenodd;stroke:#000000;stroke-width:2.0px;stroke-linecap:butt;stroke-linejoin:miter;stroke-opacity:1"/>
<path class="bond-17 atom-17 atom-18" d="M 714.9,90.7 L 706.6,83.8" style="fill:none;fill-rule:evenodd;stroke:#000000;stroke-width:2.0px;stroke-linecap:butt;stroke-linejoin:miter;stroke-opacity:1"/>
<path class="bond-18 atom-17 atom-19" d="M 718.7,89.8 L 725.0,87.4" style="fill:none;fill-rule:evenodd;stroke:#000000;stroke-width:2.0px;stroke-linecap:butt;stroke-linejoin:miter;stroke-opacity:1"/>
<path class="bond-18 atom-17 atom-19" d="M 725.0,87.4 L 731.3,85.0" style="fill:none;fill-rule:evenodd;stroke:#CCCC00;stroke-width:2.0px;stroke-linecap:butt;stroke-linejoin:miter;stroke-opacity:1"/>
<path class="bond-19 atom-19 atom-20" d="M 732.7,87.6 L 734.4,92.2" style="fill:none;fill-rule:evenodd;stroke:#CCCC00;stroke-width:2.0px;stroke-linecap:butt;stroke-linejoin:miter;stroke-opacity:1"/>
<path class="bond-19 atom-19 atom-20" d="M 734.4,92.2 L 736.2,96.8" style="fill:none;fill-rule:evenodd;stroke:#FF0000;stroke-width:2.0px;stroke-linecap:butt;stroke-linejoin:miter;stroke-opacity:1"/>
<path class="bond-19 atom-19 atom-20" d="M 735.6,86.5 L 737.3,91.1" style="fill:none;fill-rule:evenodd;stroke:#CCCC00;stroke-width:2.0px;stroke-linecap:butt;stroke-linejoin:miter;stroke-opacity:1"/>
<path class="bond-19 atom-19 atom-20" d="M 737.3,91.1 L 739.1,95.7" style="fill:none;fill-rule:evenodd;stroke:#FF0000;stroke-width:2.0px;stroke-linecap:butt;stroke-linejoin:miter;stroke-opacity:1"/>
<path class="bond-20 atom-19 atom-21" d="M 733.6,81.2 L 731.8,76.6" style="fill:none;fill-rule:evenodd;stroke:#CCCC00;stroke-width:2.0px;stroke-linecap:butt;stroke-linejoin:miter;stroke-opacity:1"/>
<path class="bond-20 atom-19 atom-21" d="M 731.8,76.6 L 730.1,71.9" style="fill:none;fill-rule:evenodd;stroke:#FF0000;stroke-width:2.0px;stroke-linecap:butt;stroke-linejoin:miter;stroke-opacity:1"/>
<path class="bond-20 atom-19 atom-21" d="M 730.7,82.3 L 729.0,77.7" style="fill:none;fill-rule:evenodd;stroke:#CCCC00;stroke-width:2.0px;stroke-linecap:butt;stroke-linejoin:miter;stroke-opacity:1"/>
<path class="bond-20 atom-19 atom-21" d="M 729.0,77.7 L 727.2,73.0" style="fill:none;fill-rule:evenodd;stroke:#FF0000;stroke-width:2.0px;stroke-linecap:butt;stroke-linejoin:miter;stroke-opacity:1"/>
<path class="bond-21 atom-19 atom-22" d="M 734.9,83.6 L 740.2,81.6" style="fill:none;fill-rule:evenodd;stroke:#CCCC00;stroke-width:2.0px;stroke-linecap:butt;stroke-linejoin:miter;stroke-opacity:1"/>
<path class="bond-21 atom-19 atom-22" d="M 740.2,81.6 L 745.6,79.6" style="fill:none;fill-rule:evenodd;stroke:#0000FF;stroke-width:2.0px;stroke-linecap:butt;stroke-linejoin:miter;stroke-opacity:1"/>
<path class="bond-22 atom-22 atom-23" d="M 749.6,80.5 L 754.6,84.6" style="fill:none;fill-rule:evenodd;stroke:#0000FF;stroke-width:2.0px;stroke-linecap:butt;stroke-linejoin:miter;stroke-opacity:1"/>
<path class="bond-22 atom-22 atom-23" d="M 754.6,84.6 L 759.5,88.7" style="fill:none;fill-rule:evenodd;stroke:#000000;stroke-width:2.0px;stroke-linecap:butt;stroke-linejoin:miter;stroke-opacity:1"/>
<path class="bond-35 atom-27 atom-22" d="M 750.1,63.6 L 749.0,70.0" style="fill:none;fill-rule:evenodd;stroke:#000000;stroke-width:2.0px;stroke-linecap:butt;stroke-linejoin:miter;stroke-opacity:1"/>
<path class="bond-35 atom-27 atom-22" d="M 749.0,70.0 L 748.0,76.3" style="fill:none;fill-rule:evenodd;stroke:#0000FF;stroke-width:2.0px;stroke-linecap:butt;stroke-linejoin:miter;stroke-opacity:1"/>
<path class="bond-23 atom-23 atom-24" d="M 759.5,88.7 L 774.0,83.2" style="fill:none;fill-rule:evenodd;stroke:#000000;stroke-width:2.0px;stroke-linecap:butt;stroke-linejoin:miter;stroke-opacity:1"/>
<path class="bond-24 atom-24 atom-25" d="M 774.0,83.2 L 775.0,76.9" style="fill:none;fill-rule:evenodd;stroke:#000000;stroke-width:2.0px;stroke-linecap:butt;stroke-linejoin:miter;stroke-opacity:1"/>
<path class="bond-24 atom-24 atom-25" d="M 775.0,76.9 L 776.0,70.5" style="fill:none;fill-rule:evenodd;stroke:#0000FF;stroke-width:2.0px;stroke-linecap:butt;stroke-linejoin:miter;stroke-opacity:1"/>
<path class="bond-25 atom-25 atom-26" d="M 774.4,66.3 L 769.5,62.2" style="fill:none;fill-rule:evenodd;stroke:#0000FF;stroke-width:2.0px;stroke-linecap:butt;stroke-linejoin:miter;stroke-opacity:1"/>
<path class="bond-25 atom-25 atom-26" d="M 769.5,62.2 L 764.5,58.2" style="fill:none;fill-rule:evenodd;stroke:#000000;stroke-width:2.0px;stroke-linecap:butt;stroke-linejoin:miter;stroke-opacity:1"/>
<path class="bond-27 atom-25 atom-28" d="M 778.5,67.2 L 784.7,64.9" style="fill:none;fill-rule:evenodd;stroke:#0000FF;stroke-width:2.0px;stroke-linecap:butt;stroke-linejoin:miter;stroke-opacity:1"/>
<path class="bond-27 atom-25 atom-28" d="M 784.7,64.9 L 790.9,62.5" style="fill:none;fill-rule:evenodd;stroke:#000000;stroke-width:2.0px;stroke-linecap:butt;stroke-linejoin:miter;stroke-opacity:1"/>
<path class="bond-26 atom-26 atom-27" d="M 764.5,58.2 L 750.1,63.6" style="fill:none;fill-rule:evenodd;stroke:#000000;stroke-width:2.0px;stroke-linecap:butt;stroke-linejoin:miter;stroke-opacity:1"/>
<path class="bond-29 atom-29 atom-30" d="M 674.9,108.8 L 673.9,115.1" style="fill:none;fill-rule:evenodd;stroke:#FF0000;stroke-width:2.0px;stroke-linecap:butt;stroke-linejoin:miter;stroke-opacity:1"/>
<path class="bond-29 atom-29 atom-30" d="M 673.9,115.1 L 672.8,121.4" style="fill:none;fill-rule:evenodd;stroke:#000000;stroke-width:2.0px;stroke-linecap:butt;stroke-linejoin:miter;stroke-opacity:1"/>
<path class="bond-30 atom-30 atom-31" d="M 672.8,121.4 L 658.4,126.8" style="fill:none;fill-rule:evenodd;stroke:#000000;stroke-width:2.0px;stroke-linecap:butt;stroke-linejoin:miter;stroke-opacity:1"/>
<path class="atom-4" d="M 630.8 57.7 L 632.2 60.0 Q 632.4 60.2, 632.6 60.6 Q 632.8 61.0, 632.8 61.1 L 632.8 57.7 L 633.4 57.7 L 633.4 62.0 L 632.8 62.0 L 631.3 59.5 Q 631.1 59.2, 630.9 58.9 Q 630.7 58.5, 630.7 58.4 L 630.7 62.0 L 630.1 62.0 L 630.1 57.7 L 630.8 57.7 " fill="#0000FF"/>
<path class="atom-5" d="M 641.8 46.8 L 643.2 49.1 Q 643.3 49.4, 643.6 49.8 Q 643.8 50.2, 643.8 50.2 L 643.8 46.8 L 644.4 46.8 L 644.4 51.2 L 643.8 51.2 L 642.3 48.6 Q 642.1 48.4, 641.9 48.0 Q 641.7 47.7, 641.6 47.6 L 641.6 51.2 L 641.1 51.2 L 641.1 46.8 L 641.8 46.8 " fill="#0000FF"/>
<path class="atom-8" d="M 664.9 78.9 L 666.4 81.2 Q 666.5 81.5, 666.7 81.9 Q 667.0 82.3, 667.0 82.3 L 667.0 78.9 L 667.6 78.9 L 667.6 83.3 L 667.0 83.3 L 665.4 80.8 Q 665.2 80.5, 665.0 80.1 Q 664.9 79.8, 664.8 79.7 L 664.8 83.3 L 664.2 83.3 L 664.2 78.9 L 664.9 78.9 " fill="#0000FF"/>
<path class="atom-10" d="M 681.9 58.2 L 683.3 60.5 Q 683.5 60.8, 683.7 61.2 Q 683.9 61.6, 683.9 61.6 L 683.9 58.2 L 684.5 58.2 L 684.5 62.6 L 683.9 62.6 L 682.4 60.1 Q 682.2 59.8, 682.0 59.4 Q 681.8 59.1, 681.8 59.0 L 681.8 62.6 L 681.2 62.6 L 681.2 58.2 L 681.9 58.2 " fill="#0000FF"/>
<path class="atom-10" d="M 685.0 58.2 L 685.6 58.2 L 685.6 60.1 L 687.9 60.1 L 687.9 58.2 L 688.5 58.2 L 688.5 62.6 L 687.9 62.6 L 687.9 60.6 L 685.6 60.6 L 685.6 62.6 L 685.0 62.6 L 685.0 58.2 " fill="#0000FF"/>
<path class="atom-12" d="M 671.4 35.4 Q 671.4 34.4, 671.9 33.8 Q 672.4 33.2, 673.4 33.2 Q 674.4 33.2, 674.9 33.8 Q 675.4 34.4, 675.4 35.4 Q 675.4 36.5, 674.9 37.1 Q 674.4 37.7, 673.4 37.7 Q 672.4 37.7, 671.9 37.1 Q 671.4 36.5, 671.4 35.4 M 673.4 37.2 Q 674.1 37.2, 674.4 36.7 Q 674.8 36.3, 674.8 35.4 Q 674.8 34.6, 674.4 34.1 Q 674.1 33.7, 673.4 33.7 Q 672.7 33.7, 672.4 34.1 Q 672.0 34.5, 672.0 35.4 Q 672.0 36.3, 672.4 36.7 Q 672.7 37.2, 673.4 37.2 " fill="#FF0000"/>
<path class="atom-19" d="M 731.9 85.8 Q 731.9 85.8, 732.1 85.9 Q 732.3 86.0, 732.6 86.1 Q 732.8 86.1, 733.0 86.1 Q 733.4 86.1, 733.7 85.9 Q 733.9 85.7, 733.9 85.4 Q 733.9 85.1, 733.8 85.0 Q 733.7 84.8, 733.5 84.7 Q 733.3 84.7, 733.0 84.6 Q 732.6 84.5, 732.4 84.3 Q 732.1 84.2, 732.0 84.0 Q 731.8 83.8, 731.8 83.4 Q 731.8 82.8, 732.2 82.5 Q 732.6 82.1, 733.3 82.1 Q 733.8 82.1, 734.4 82.4 L 734.2 82.9 Q 733.7 82.6, 733.3 82.6 Q 732.9 82.6, 732.7 82.8 Q 732.4 83.0, 732.4 83.3 Q 732.4 83.5, 732.6 83.7 Q 732.7 83.8, 732.8 83.9 Q 733.0 84.0, 733.3 84.1 Q 733.7 84.2, 734.0 84.3 Q 734.2 84.4, 734.4 84.7 Q 734.5 84.9, 734.5 85.4 Q 734.5 86.0, 734.1 86.3 Q 733.7 86.6, 733.0 86.6 Q 732.7 86.6, 732.4 86.5 Q 732.1 86.5, 731.7 86.3 L 731.9 85.8 " fill="#CCCC00"/>
<path class="atom-20" d="M 736.6 98.8 Q 736.6 97.7, 737.1 97.1 Q 737.6 96.6, 738.6 96.6 Q 739.5 96.6, 740.1 97.1 Q 740.6 97.7, 740.6 98.8 Q 740.6 99.8, 740.1 100.4 Q 739.5 101.0, 738.6 101.0 Q 737.6 101.0, 737.1 100.4 Q 736.6 99.9, 736.6 98.8 M 738.6 100.6 Q 739.2 100.6, 739.6 100.1 Q 740.0 99.7, 740.0 98.8 Q 740.0 97.9, 739.6 97.5 Q 739.2 97.1, 738.6 97.1 Q 737.9 97.1, 737.5 97.5 Q 737.2 97.9, 737.2 98.8 Q 737.2 99.7, 737.5 100.1 Q 737.9 100.6, 738.6 100.6 " fill="#FF0000"/>
<path class="atom-21" d="M 725.7 69.9 Q 725.7 68.8, 726.2 68.3 Q 726.7 67.7, 727.7 67.7 Q 728.6 67.7, 729.2 68.3 Q 729.7 68.8, 729.7 69.9 Q 729.7 71.0, 729.2 71.6 Q 728.6 72.2, 727.7 72.2 Q 726.7 72.2, 726.2 71.6 Q 725.7 71.0, 725.7 69.9 M 727.7 71.7 Q 728.3 71.7, 728.7 71.2 Q 729.1 70.8, 729.1 69.9 Q 729.1 69.0, 728.7 68.6 Q 728.3 68.2, 727.7 68.2 Q 727.0 68.2, 726.6 68.6 Q 726.3 69.0, 726.3 69.9 Q 726.3 70.8, 726.6 71.2 Q 727.0 71.7, 727.7 71.7 " fill="#FF0000"/>
<path class="atom-22" d="M 746.6 76.7 L 748.0 79.0 Q 748.2 79.2, 748.4 79.6 Q 748.6 80.1, 748.6 80.1 L 748.6 76.7 L 749.2 76.7 L 749.2 81.1 L 748.6 81.1 L 747.1 78.5 Q 746.9 78.2, 746.7 77.9 Q 746.5 77.6, 746.5 77.4 L 746.5 81.1 L 745.9 81.1 L 745.9 76.7 L 746.6 76.7 " fill="#0000FF"/>
<path class="atom-25" d="M 775.5 65.8 L 776.9 68.1 Q 777.1 68.3, 777.3 68.7 Q 777.5 69.2, 777.5 69.2 L 777.5 65.8 L 778.1 65.8 L 778.1 70.2 L 777.5 70.2 L 776.0 67.6 Q 775.8 67.3, 775.6 67.0 Q 775.4 66.6, 775.4 66.5 L 775.4 70.2 L 774.8 70.2 L 774.8 65.8 L 775.5 65.8 " fill="#0000FF"/>
<path class="atom-29" d="M 673.3 106.1 Q 673.3 105.1, 673.9 104.5 Q 674.4 103.9, 675.3 103.9 Q 676.3 103.9, 676.8 104.5 Q 677.3 105.1, 677.3 106.1 Q 677.3 107.2, 676.8 107.8 Q 676.3 108.4, 675.3 108.4 Q 674.4 108.4, 673.9 107.8 Q 673.3 107.2, 673.3 106.1 M 675.3 107.9 Q 676.0 107.9, 676.4 107.5 Q 676.7 107.0, 676.7 106.1 Q 676.7 105.3, 676.4 104.8 Q 676.0 104.4, 675.3 104.4 Q 674.7 104.4, 674.3 104.8 Q 674.0 105.3, 674.0 106.1 Q 674.0 107.0, 674.3 107.5 Q 674.7 107.9, 675.3 107.9 " fill="#FF0000"/>
<path d="M 669.3 189.7 Q 670.0 190.0, 670.5 190.2 Q 671.1 190.3, 671.6 190.3 Q 672.3 190.3, 672.7 190.0 Q 673.2 189.7, 673.2 189.1 Q 673.2 188.8, 672.9 188.5 Q 672.7 188.3, 672.5 188.2 Q 672.2 188.1, 671.5 187.8 Q 671.4 187.8, 670.6 187.5 Q 669.9 187.3, 669.5 186.7 Q 669.1 186.2, 669.1 185.4 Q 669.1 184.4, 669.9 183.7 Q 670.6 183.1, 672.1 183.1 Q 672.8 183.1, 673.3 183.2 Q 673.9 183.3, 674.5 183.6 L 674.1 184.8 Q 673.5 184.6, 673.1 184.4 Q 672.6 184.3, 672.1 184.3 Q 671.4 184.3, 671.0 184.6 Q 670.6 184.9, 670.6 185.4 Q 670.6 185.8, 670.9 186.0 Q 671.2 186.3, 671.9 186.5 Q 672.1 186.5, 672.2 186.6 L 672.6 186.8 Q 673.3 187.0, 673.7 187.2 Q 674.1 187.4, 674.4 187.9 Q 674.7 188.3, 674.7 189.1 Q 674.7 190.3, 673.8 190.9 Q 673.0 191.6, 671.6 191.6 Q 670.9 191.6, 670.2 191.4 Q 669.5 191.2, 668.8 190.9 L 669.3 189.7 " fill="#000000"/>
<path d="M 676.0 180.1 L 677.5 180.1 L 677.5 181.5 L 676.0 181.5 L 676.0 180.1 M 676.0 183.2 L 677.5 183.2 L 677.5 191.4 L 676.0 191.4 L 676.0 183.2 " fill="#000000"/>
<path d="M 678.9 179.3 L 680.4 179.3 L 680.4 191.4 L 678.9 191.4 L 678.9 179.3 " fill="#000000"/>
<path d="M 688.6 179.3 L 688.6 191.4 L 687.3 191.4 L 687.1 190.4 Q 686.2 191.6, 684.7 191.6 Q 683.0 191.6, 682.0 190.5 Q 681.1 189.4, 681.1 187.4 Q 681.1 185.4, 682.2 184.2 Q 683.3 183.1, 685.3 183.1 Q 686.2 183.1, 687.1 183.3 L 687.1 179.3 L 688.6 179.3 M 684.8 190.4 Q 685.6 190.4, 686.2 189.9 Q 686.8 189.5, 687.1 188.6 L 687.1 184.5 Q 686.2 184.2, 685.3 184.2 Q 684.1 184.2, 683.3 185.1 Q 682.6 185.9, 682.6 187.4 Q 682.6 188.8, 683.2 189.6 Q 683.8 190.4, 684.8 190.4 " fill="#000000"/>
<path d="M 689.3 187.3 Q 689.3 185.3, 690.3 184.2 Q 691.3 183.1, 693.2 183.1 Q 695.0 183.1, 695.8 184.1 Q 696.6 185.2, 696.6 187.2 L 696.6 187.5 L 690.8 187.5 Q 690.9 188.9, 691.5 189.6 Q 692.1 190.4, 693.3 190.4 Q 693.9 190.4, 694.5 190.2 Q 695.1 190.1, 695.8 189.7 L 696.3 190.8 Q 695.4 191.2, 694.7 191.4 Q 694.0 191.6, 693.2 191.6 Q 691.3 191.6, 690.3 190.4 Q 689.3 189.3, 689.3 187.3 M 693.2 184.2 Q 692.2 184.2, 691.6 184.8 Q 691.1 185.3, 690.9 186.4 L 695.0 186.4 Q 694.9 185.3, 694.4 184.8 Q 694.0 184.2, 693.2 184.2 " fill="#000000"/>
<path d="M 702.2 183.1 Q 703.5 183.1, 704.2 183.8 Q 704.9 184.6, 704.9 186.0 L 704.9 191.4 L 703.4 191.4 L 703.4 186.1 Q 703.4 185.1, 703.0 184.7 Q 702.6 184.2, 701.8 184.2 Q 701.0 184.2, 700.4 184.6 Q 699.8 184.9, 699.4 185.5 L 699.4 191.4 L 697.9 191.4 L 697.9 183.2 L 699.1 183.2 L 699.3 184.4 Q 700.4 183.1, 702.2 183.1 " fill="#000000"/>
<path d="M 705.6 189.2 Q 705.6 187.9, 706.6 187.2 Q 707.7 186.4, 709.6 186.4 L 710.9 186.4 L 710.9 186.1 Q 710.9 185.1, 710.4 184.7 Q 710.0 184.2, 709.0 184.2 Q 708.3 184.2, 707.8 184.4 Q 707.3 184.5, 706.5 184.8 L 706.1 183.8 Q 707.6 183.1, 709.0 183.1 Q 710.8 183.1, 711.6 183.8 Q 712.4 184.5, 712.4 186.2 L 712.4 191.4 L 711.2 191.4 Q 711.2 191.4, 711.1 191.1 Q 711.1 190.9, 711.0 190.5 Q 709.8 191.6, 708.3 191.6 Q 707.1 191.6, 706.3 191.0 Q 705.6 190.3, 705.6 189.2 M 707.1 189.2 Q 707.1 189.8, 707.5 190.1 Q 707.9 190.4, 708.6 190.4 Q 709.2 190.4, 709.8 190.1 Q 710.4 189.8, 710.9 189.3 L 710.9 187.6 L 709.7 187.6 Q 708.4 187.6, 707.7 188.0 Q 707.1 188.4, 707.1 189.2 " fill="#000000"/>
<path d="M 712.8 184.4 L 712.8 183.2 L 714.2 183.2 L 714.2 182.0 Q 714.2 180.6, 714.9 179.9 Q 715.7 179.3, 716.8 179.3 Q 717.4 179.3, 717.8 179.4 Q 718.3 179.5, 718.8 179.7 L 718.4 180.8 Q 717.6 180.5, 717.0 180.5 Q 716.4 180.5, 716.1 180.8 Q 715.7 181.2, 715.7 181.9 L 715.7 183.2 L 718.2 183.2 L 718.2 184.4 L 715.7 184.4 L 715.7 193.9 L 714.2 193.9 L 714.2 184.4 L 712.8 184.4 " fill="#000000"/>
<path d="M 720.2 180.1 L 721.7 180.1 L 721.7 181.5 L 720.2 181.5 L 720.2 180.1 M 720.2 183.2 L 721.7 183.2 L 721.7 191.4 L 720.2 191.4 L 720.2 183.2 " fill="#000000"/>
<path d="M 723.0 179.3 L 724.5 179.3 L 724.5 191.4 L 723.0 191.4 L 723.0 179.3 " fill="#000000"/>
<path class="bond-0 atom-0 atom-1" d="M 109.7,305.2 L 115.8,302.6" style="fill:none;fill-rule:evenodd;stroke:#0000FF;stroke-width:2.0px;stroke-linecap:butt;stroke-linejoin:miter;stroke-opacity:1"/>
<path class="bond-0 atom-0 atom-1" d="M 115.8,302.6 L 121.8,300.0" style="fill:none;fill-rule:evenodd;stroke:#000000;stroke-width:2.0px;stroke-linecap:butt;stroke-linejoin:miter;stroke-opacity:1"/>
<path class="bond-0 atom-0 atom-1" d="M 108.5,302.4 L 114.6,299.8" style="fill:none;fill-rule:evenodd;stroke:#0000FF;stroke-width:2.0px;stroke-linecap:butt;stroke-linejoin:miter;stroke-opacity:1"/>
<path class="bond-0 atom-0 atom-1" d="M 114.6,299.8 L 120.6,297.2" style="fill:none;fill-rule:evenodd;stroke:#000000;stroke-width:2.0px;stroke-linecap:butt;stroke-linejoin:miter;stroke-opacity:1"/>
<path class="bond-1 atom-1 atom-2" d="M 121.2,298.6 L 123.0,283.2" style="fill:none;fill-rule:evenodd;stroke:#000000;stroke-width:2.0px;stroke-linecap:butt;stroke-linejoin:miter;stroke-opacity:1"/>
<path class="bond-16 atom-1 atom-17" d="M 121.2,298.6 L 126.2,302.3" style="fill:none;fill-rule:evenodd;stroke:#000000;stroke-width:2.0px;stroke-linecap:butt;stroke-linejoin:miter;stroke-opacity:1"/>
<path class="bond-16 atom-1 atom-17" d="M 126.2,302.3 L 131.2,306.0" style="fill:none;fill-rule:evenodd;stroke:#FF0000;stroke-width:2.0px;stroke-linecap:butt;stroke-linejoin:miter;stroke-opacity:1"/>
<path class="bond-2 atom-2 atom-3" d="M 123.0,283.2 L 110.6,274.0" style="fill:none;fill-rule:evenodd;stroke:#000000;stroke-width:2.0px;stroke-linecap:butt;stroke-linejoin:miter;stroke-opacity:1"/>
<path class="bond-2 atom-2 atom-3" d="M 123.0,279.4 L 114.3,272.9" style="fill:none;fill-rule:evenodd;stroke:#000000;stroke-width:2.0px;stroke-linecap:butt;stroke-linejoin:miter;stroke-opacity:1"/>
<path class="bond-17 atom-16 atom-2" d="M 137.2,277.1 L 123.0,283.2" style="fill:none;fill-rule:evenodd;stroke:#000000;stroke-width:2.0px;stroke-linecap:butt;stroke-linejoin:miter;stroke-opacity:1"/>
<path class="bond-3 atom-3 atom-4" d="M 110.6,274.0 L 104.7,276.6" style="fill:none;fill-rule:evenodd;stroke:#000000;stroke-width:2.0px;stroke-linecap:butt;stroke-linejoin:miter;stroke-opacity:1"/>
<path class="bond-3 atom-3 atom-4" d="M 104.7,276.6 L 98.8,279.1" style="fill:none;fill-rule:evenodd;stroke:#FF0000;stroke-width:2.0px;stroke-linecap:butt;stroke-linejoin:miter;stroke-opacity:1"/>
<path class="bond-12 atom-3 atom-13" d="M 110.6,274.0 L 112.4,258.7" style="fill:none;fill-rule:evenodd;stroke:#000000;stroke-width:2.0px;stroke-linecap:butt;stroke-linejoin:miter;stroke-opacity:1"/>
<path class="bond-4 atom-4 atom-5" d="M 94.1,278.4 L 89.1,274.7" style="fill:none;fill-rule:evenodd;stroke:#FF0000;stroke-width:2.0px;stroke-linecap:butt;stroke-linejoin:miter;stroke-opacity:1"/>
<path class="bond-4 atom-4 atom-5" d="M 89.1,274.7 L 84.1,270.9" style="fill:none;fill-rule:evenodd;stroke:#000000;stroke-width:2.0px;stroke-linecap:butt;stroke-linejoin:miter;stroke-opacity:1"/>
<path class="bond-5 atom-5 atom-6" d="M 84.1,270.9 L 69.9,277.1" style="fill:none;fill-rule:evenodd;stroke:#000000;stroke-width:2.0px;stroke-linecap:butt;stroke-linejoin:miter;stroke-opacity:1"/>
<path class="bond-6 atom-6 atom-7" d="M 69.9,277.1 L 57.5,267.9" style="fill:none;fill-rule:evenodd;stroke:#000000;stroke-width:2.0px;stroke-linecap:butt;stroke-linejoin:miter;stroke-opacity:1"/>
<path class="bond-6 atom-6 atom-7" d="M 66.2,278.2 L 57.5,271.7" style="fill:none;fill-rule:evenodd;stroke:#000000;stroke-width:2.0px;stroke-linecap:butt;stroke-linejoin:miter;stroke-opacity:1"/>
<path class="bond-18 atom-12 atom-6" d="M 68.1,292.4 L 69.9,277.1" style="fill:none;fill-rule:evenodd;stroke:#000000;stroke-width:2.0px;stroke-linecap:butt;stroke-linejoin:miter;stroke-opacity:1"/>
<path class="bond-7 atom-7 atom-8" d="M 57.5,267.9 L 58.2,261.5" style="fill:none;fill-rule:evenodd;stroke:#000000;stroke-width:2.0px;stroke-linecap:butt;stroke-linejoin:miter;stroke-opacity:1"/>
<path class="bond-7 atom-7 atom-8" d="M 58.2,261.5 L 59.0,255.1" style="fill:none;fill-rule:evenodd;stroke:#33CCCC;stroke-width:2.0px;stroke-linecap:butt;stroke-linejoin:miter;stroke-opacity:1"/>
<path class="bond-8 atom-7 atom-9" d="M 57.5,267.9 L 43.3,274.0" style="fill:none;fill-rule:evenodd;stroke:#000000;stroke-width:2.0px;stroke-linecap:butt;stroke-linejoin:miter;stroke-opacity:1"/>
<path class="bond-9 atom-9 atom-10" d="M 43.3,274.0 L 41.5,289.3" style="fill:none;fill-rule:evenodd;stroke:#000000;stroke-width:2.0px;stroke-linecap:butt;stroke-linejoin:miter;stroke-opacity:1"/>
<path class="bond-9 atom-9 atom-10" d="M 46.1,276.6 L 44.9,287.4" style="fill:none;fill-rule:evenodd;stroke:#000000;stroke-width:2.0px;stroke-linecap:butt;stroke-linejoin:miter;stroke-opacity:1"/>
<path class="bond-10 atom-10 atom-11" d="M 41.5,289.3 L 53.9,298.5" style="fill:none;fill-rule:evenodd;stroke:#000000;stroke-width:2.0px;stroke-linecap:butt;stroke-linejoin:miter;stroke-opacity:1"/>
<path class="bond-11 atom-11 atom-12" d="M 53.9,298.5 L 68.1,292.4" style="fill:none;fill-rule:evenodd;stroke:#000000;stroke-width:2.0px;stroke-linecap:butt;stroke-linejoin:miter;stroke-opacity:1"/>
<path class="bond-11 atom-11 atom-12" d="M 54.8,294.8 L 64.7,290.5" style="fill:none;fill-rule:evenodd;stroke:#000000;stroke-width:2.0px;stroke-linecap:butt;stroke-linejoin:miter;stroke-opacity:1"/>
<path class="bond-13 atom-13 atom-14" d="M 112.4,258.7 L 126.6,252.6" style="fill:none;fill-rule:evenodd;stroke:#000000;stroke-width:2.0px;stroke-linecap:butt;stroke-linejoin:miter;stroke-opacity:1"/>
<path class="bond-13 atom-13 atom-14" d="M 115.8,260.6 L 125.7,256.3" style="fill:none;fill-rule:evenodd;stroke:#000000;stroke-width:2.0px;stroke-linecap:butt;stroke-linejoin:miter;stroke-opacity:1"/>
<path class="bond-14 atom-14 atom-15" d="M 126.6,252.6 L 139.0,261.8" style="fill:none;fill-rule:evenodd;stroke:#000000;stroke-width:2.0px;stroke-linecap:butt;stroke-linejoin:miter;stroke-opacity:1"/>
<path class="bond-15 atom-15 atom-16" d="M 139.0,261.8 L 137.2,277.1" style="fill:none;fill-rule:evenodd;stroke:#000000;stroke-width:2.0px;stroke-linecap:butt;stroke-linejoin:miter;stroke-opacity:1"/>
<path class="bond-15 atom-15 atom-16" d="M 135.6,263.7 L 134.4,274.5" style="fill:none;fill-rule:evenodd;stroke:#000000;stroke-width:2.0px;stroke-linecap:butt;stroke-linejoin:miter;stroke-opacity:1"/>
<path class="atom-0" d="M 101.5 302.5 L 102.1 302.5 L 102.1 304.4 L 104.3 304.4 L 104.3 302.5 L 104.9 302.5 L 104.9 306.9 L 104.3 306.9 L 104.3 304.9 L 102.1 304.9 L 102.1 306.9 L 101.5 306.9 L 101.5 302.5 " fill="#0000FF"/>
<path class="atom-0" d="M 106.1 302.5 L 107.5 304.8 Q 107.7 305.1, 107.9 305.5 Q 108.1 305.9, 108.1 305.9 L 108.1 302.5 L 108.7 302.5 L 108.7 306.9 L 108.1 306.9 L 106.6 304.4 Q 106.4 304.1, 106.2 303.7 Q 106.0 303.4, 106.0 303.3 L 106.0 306.9 L 105.4 306.9 L 105.4 302.5 L 106.1 302.5 " fill="#0000FF"/>
<path class="atom-4" d="M 94.4 280.2 Q 94.4 279.1, 95.0 278.5 Q 95.5 277.9, 96.4 277.9 Q 97.4 277.9, 97.9 278.5 Q 98.5 279.1, 98.5 280.2 Q 98.5 281.2, 97.9 281.8 Q 97.4 282.4, 96.4 282.4 Q 95.5 282.4, 95.0 281.8 Q 94.4 281.2, 94.4 280.2 M 96.4 281.9 Q 97.1 281.9, 97.5 281.5 Q 97.8 281.0, 97.8 280.2 Q 97.8 279.3, 97.5 278.9 Q 97.1 278.4, 96.4 278.4 Q 95.8 278.4, 95.4 278.9 Q 95.1 279.3, 95.1 280.2 Q 95.1 281.1, 95.4 281.5 Q 95.8 281.9, 96.4 281.9 " fill="#FF0000"/>
<path class="atom-8" d="M 58.0 250.3 L 60.6 250.3 L 60.6 250.8 L 58.6 250.8 L 58.6 252.2 L 60.4 252.2 L 60.4 252.7 L 58.6 252.7 L 58.6 254.7 L 58.0 254.7 L 58.0 250.3 " fill="#33CCCC"/>
<path class="atom-17" d="M 131.6 307.8 Q 131.6 306.8, 132.1 306.2 Q 132.6 305.6, 133.6 305.6 Q 134.6 305.6, 135.1 306.2 Q 135.6 306.8, 135.6 307.8 Q 135.6 308.9, 135.1 309.5 Q 134.6 310.1, 133.6 310.1 Q 132.7 310.1, 132.1 309.5 Q 131.6 308.9, 131.6 307.8 M 133.6 309.6 Q 134.3 309.6, 134.6 309.1 Q 135.0 308.7, 135.0 307.8 Q 135.0 307.0, 134.6 306.5 Q 134.3 306.1, 133.6 306.1 Q 133.0 306.1, 132.6 306.5 Q 132.2 306.9, 132.2 307.8 Q 132.2 308.7, 132.6 309.1 Q 133.0 309.6, 133.6 309.6 " fill="#FF0000"/>
<path class="atom-17" d="M 136.2 305.6 L 136.7 305.6 L 136.7 307.5 L 139.0 307.5 L 139.0 305.6 L 139.6 305.6 L 139.6 310.0 L 139.0 310.0 L 139.0 308.0 L 136.7 308.0 L 136.7 310.0 L 136.2 310.0 L 136.2 305.6 " fill="#FF0000"/>
<path d="M 87.9 385.4 Q 89.6 385.4, 90.6 386.5 Q 91.5 387.6, 91.5 389.5 Q 91.5 391.6, 90.4 392.8 Q 89.3 393.9, 87.3 393.9 Q 86.0 393.9, 84.8 393.4 L 84.1 393.3 L 84.1 381.7 L 85.6 381.7 L 85.6 386.5 Q 86.4 385.4, 87.9 385.4 M 87.3 392.7 Q 88.6 392.7, 89.3 391.9 Q 90.0 391.1, 90.0 389.5 Q 90.0 388.1, 89.4 387.4 Q 88.9 386.6, 87.8 386.6 Q 87.0 386.6, 86.4 387.1 Q 85.8 387.5, 85.6 388.3 L 85.6 392.5 Q 86.4 392.7, 87.3 392.7 " fill="#000000"/>
<path d="M 92.3 389.7 Q 92.3 387.7, 93.3 386.6 Q 94.3 385.4, 96.2 385.4 Q 98.0 385.4, 99.1 386.6 Q 100.1 387.7, 100.1 389.7 Q 100.1 391.7, 99.1 392.8 Q 98.0 393.9, 96.2 393.9 Q 94.3 393.9, 93.3 392.8 Q 92.3 391.7, 92.3 389.7 M 93.8 389.7 Q 93.8 391.2, 94.4 392.0 Q 95.0 392.7, 96.2 392.7 Q 97.3 392.7, 97.9 392.0 Q 98.5 391.2, 98.5 389.7 Q 98.5 388.2, 97.9 387.4 Q 97.3 386.6, 96.2 386.6 Q 95.0 386.6, 94.4 387.4 Q 93.8 388.2, 93.8 389.7 " fill="#000000"/>
<path d="M 100.8 389.7 Q 100.8 387.7, 101.8 386.6 Q 102.8 385.4, 104.7 385.4 Q 106.6 385.4, 107.6 386.6 Q 108.6 387.7, 108.6 389.7 Q 108.6 391.7, 107.6 392.8 Q 106.6 393.9, 104.7 393.9 Q 102.8 393.9, 101.8 392.8 Q 100.8 391.7, 100.8 389.7 M 102.3 389.7 Q 102.3 391.2, 103.0 392.0 Q 103.6 392.7, 104.7 392.7 Q 105.9 392.7, 106.5 392.0 Q 107.1 391.2, 107.1 389.7 Q 107.1 388.2, 106.5 387.4 Q 105.9 386.6, 104.7 386.6 Q 103.6 386.6, 103.0 387.4 Q 102.3 388.2, 102.3 389.7 " fill="#000000"/>
</svg>