<svg xmlns="http://www.w3.org/2000/svg" xmlns:rdkit="http://www.rdkit.org/xml" xmlns:xlink="http://www.w3.org/1999/xlink" version="1.1" baseProfile="full" xml:space="preserve" width="400px" height="400px" viewBox="0 0 400 400">
<!-- END OF HEADER -->
<rect style="opacity:1.0;fill:#FFFFFF;stroke:none" width="400.0" height="400.0" x="0.0" y="0.0"> </rect>
<path d="M 28.9,205.4 L 63.0,247.1" style="fill:none;fill-rule:evenodd;stroke:#FF7F7F;stroke-width:11.5px;stroke-linecap:butt;stroke-linejoin:miter;stroke-opacity:1"/>
<path d="M 63.0,247.1 L 116.2,238.4" style="fill:none;fill-rule:evenodd;stroke:#FF7F7F;stroke-width:11.5px;stroke-linecap:butt;stroke-linejoin:miter;stroke-opacity:1"/>
<path d="M 116.2,238.4 L 135.2,188.0" style="fill:none;fill-rule:evenodd;stroke:#FF7F7F;stroke-width:11.5px;stroke-linecap:butt;stroke-linejoin:miter;stroke-opacity:1"/>
<path d="M 135.2,188.0 L 188.3,179.3" style="fill:none;fill-rule:evenodd;stroke:#FF7F7F;stroke-width:11.5px;stroke-linecap:butt;stroke-linejoin:miter;stroke-opacity:1"/>
<path d="M 188.3,179.3 L 222.4,221.0" style="fill:none;fill-rule:evenodd;stroke:#FF7F7F;stroke-width:11.5px;stroke-linecap:butt;stroke-linejoin:miter;stroke-opacity:1"/>
<ellipse cx="28.9" cy="205.5" rx="10.8" ry="11.1" style="fill:#FF7F7F;fill-rule:evenodd;stroke:#FF7F7F;stroke-width:1.0px;stroke-linecap:butt;stroke-linejoin:miter;stroke-opacity:1"/>
<ellipse cx="63.0" cy="247.1" rx="10.8" ry="10.8" style="fill:#FF7F7F;fill-rule:evenodd;stroke:#FF7F7F;stroke-width:1.0px;stroke-linecap:butt;stroke-linejoin:miter;stroke-opacity:1"/>
<ellipse cx="116.2" cy="238.4" rx="10.8" ry="10.8" style="fill:#FF7F7F;fill-rule:evenodd;stroke:#FF7F7F;stroke-width:1.0px;stroke-linecap:butt;stroke-linejoin:miter;stroke-opacity:1"/>
<ellipse cx="135.2" cy="188.0" rx="10.8" ry="10.8" style="fill:#FF7F7F;fill-rule:evenodd;stroke:#FF7F7F;stroke-width:1.0px;stroke-linecap:butt;stroke-linejoin:miter;stroke-opacity:1"/>
<ellipse cx="188.3" cy="179.3" rx="10.8" ry="10.8" style="fill:#FF7F7F;fill-rule:evenodd;stroke:#FF7F7F;stroke-width:1.0px;stroke-linecap:butt;stroke-linejoin:miter;stroke-opacity:1"/>
<ellipse cx="215.6" cy="221.0" rx="17.9" ry="10.8" style="fill:#FF7F7F;fill-rule:evenodd;stroke:#FF7F7F;stroke-width:1.0px;stroke-linecap:butt;stroke-linejoin:miter;stroke-opacity:1"/>
<path class="bond-0 atom-0 atom-1" d="M 32.4,218.1 L 45.6,234.3" style="fill:none;fill-rule:evenodd;stroke:#FF0000;stroke-width:2.0px;stroke-linecap:butt;stroke-linejoin:miter;stroke-opacity:1"/>
<path class="bond-0 atom-0 atom-1" d="M 45.6,234.3 L 58.9,250.5" style="fill:none;fill-rule:evenodd;stroke:#000000;stroke-width:2.0px;stroke-linecap:butt;stroke-linejoin:miter;stroke-opacity:1"/>
<path class="bond-0 atom-0 atom-1" d="M 40.7,211.3 L 54.0,227.5" style="fill:none;fill-rule:evenodd;stroke:#FF0000;stroke-width:2.0px;stroke-linecap:butt;stroke-linejoin:miter;stroke-opacity:1"/>
<path class="bond-0 atom-0 atom-1" d="M 54.0,227.5 L 67.2,243.6" style="fill:none;fill-rule:evenodd;stroke:#000000;stroke-width:2.0px;stroke-linecap:butt;stroke-linejoin:miter;stroke-opacity:1"/>
<path class="bond-1 atom-1 atom-2" d="M 63.0,247.1 L 55.2,267.7" style="fill:none;fill-rule:evenodd;stroke:#000000;stroke-width:2.0px;stroke-linecap:butt;stroke-linejoin:miter;stroke-opacity:1"/>
<path class="bond-1 atom-1 atom-2" d="M 55.2,267.7 L 47.4,288.4" style="fill:none;fill-rule:evenodd;stroke:#FF0000;stroke-width:2.0px;stroke-linecap:butt;stroke-linejoin:miter;stroke-opacity:1"/>
<path class="bond-2 atom-1 atom-3" d="M 63.0,247.1 L 116.2,238.4" style="fill:none;fill-rule:evenodd;stroke:#000000;stroke-width:2.0px;stroke-linecap:butt;stroke-linejoin:miter;stroke-opacity:1"/>
<path class="bond-3 atom-3 atom-4" d="M 116.2,238.4 L 135.2,188.0" style="fill:none;fill-rule:evenodd;stroke:#000000;stroke-width:2.0px;stroke-linecap:butt;stroke-linejoin:miter;stroke-opacity:1"/>
<path class="bond-4 atom-4 atom-5" d="M 135.2,188.0 L 101.1,146.3" style="fill:none;fill-rule:evenodd;stroke:#000000;stroke-width:2.0px;stroke-linecap:butt;stroke-linejoin:miter;stroke-opacity:1"/>
<path class="bond-4 atom-4 atom-5" d="M 138.4,174.9 L 114.6,145.8" style="fill:none;fill-rule:evenodd;stroke:#000000;stroke-width:2.0px;stroke-linecap:butt;stroke-linejoin:miter;stroke-opacity:1"/>
<path class="bond-18 atom-9 atom-4" d="M 188.3,179.3 L 135.2,188.0" style="fill:none;fill-rule:evenodd;stroke:#000000;stroke-width:2.0px;stroke-linecap:butt;stroke-linejoin:miter;stroke-opacity:1"/>
<path class="bond-5 atom-5 atom-6" d="M 101.1,146.3 L 120.2,96.0" style="fill:none;fill-rule:evenodd;stroke:#000000;stroke-width:2.0px;stroke-linecap:butt;stroke-linejoin:miter;stroke-opacity:1"/>
<path class="bond-6 atom-6 atom-7" d="M 120.2,96.0 L 173.3,87.3" style="fill:none;fill-rule:evenodd;stroke:#000000;stroke-width:2.0px;stroke-linecap:butt;stroke-linejoin:miter;stroke-opacity:1"/>
<path class="bond-6 atom-6 atom-7" d="M 129.9,105.3 L 167.1,99.2" style="fill:none;fill-rule:evenodd;stroke:#000000;stroke-width:2.0px;stroke-linecap:butt;stroke-linejoin:miter;stroke-opacity:1"/>
<path class="bond-7 atom-7 atom-8" d="M 173.3,87.3 L 207.4,129.0" style="fill:none;fill-rule:evenodd;stroke:#000000;stroke-width:2.0px;stroke-linecap:butt;stroke-linejoin:miter;stroke-opacity:1"/>
<path class="bond-8 atom-8 atom-9" d="M 207.4,129.0 L 188.3,179.3" style="fill:none;fill-rule:evenodd;stroke:#000000;stroke-width:2.0px;stroke-linecap:butt;stroke-linejoin:miter;stroke-opacity:1"/>
<path class="bond-8 atom-8 atom-9" d="M 194.5,132.7 L 181.1,168.0" style="fill:none;fill-rule:evenodd;stroke:#000000;stroke-width:2.0px;stroke-linecap:butt;stroke-linejoin:miter;stroke-opacity:1"/>
<path class="bond-9 atom-9 atom-10" d="M 188.3,179.3 L 201.7,195.7" style="fill:none;fill-rule:evenodd;stroke:#000000;stroke-width:2.0px;stroke-linecap:butt;stroke-linejoin:miter;stroke-opacity:1"/>
<path class="bond-9 atom-9 atom-10" d="M 201.7,195.7 L 215.1,212.0" style="fill:none;fill-rule:evenodd;stroke:#0000FF;stroke-width:2.0px;stroke-linecap:butt;stroke-linejoin:miter;stroke-opacity:1"/>
<path class="bond-10 atom-10 atom-11" d="M 229.6,219.8 L 252.6,216.1" style="fill:none;fill-rule:evenodd;stroke:#0000FF;stroke-width:2.0px;stroke-linecap:butt;stroke-linejoin:miter;stroke-opacity:1"/>
<path class="bond-10 atom-10 atom-11" d="M 252.6,216.1 L 275.6,212.3" style="fill:none;fill-rule:evenodd;stroke:#000000;stroke-width:2.0px;stroke-linecap:butt;stroke-linejoin:miter;stroke-opacity:1"/>
<path class="bond-11 atom-11 atom-12" d="M 275.6,212.3 L 309.6,254.0" style="fill:none;fill-rule:evenodd;stroke:#000000;stroke-width:2.0px;stroke-linecap:butt;stroke-linejoin:miter;stroke-opacity:1"/>
<path class="bond-11 atom-11 atom-12" d="M 289.0,211.7 L 312.9,240.9" style="fill:none;fill-rule:evenodd;stroke:#000000;stroke-width:2.0px;stroke-linecap:butt;stroke-linejoin:miter;stroke-opacity:1"/>
<path class="bond-19 atom-17 atom-11" d="M 294.6,162.0 L 275.6,212.3" style="fill:none;fill-rule:evenodd;stroke:#000000;stroke-width:2.0px;stroke-linecap:butt;stroke-linejoin:miter;stroke-opacity:1"/>
<path class="bond-12 atom-12 atom-13" d="M 309.6,254.0 L 301.3,276.1" style="fill:none;fill-rule:evenodd;stroke:#000000;stroke-width:2.0px;stroke-linecap:butt;stroke-linejoin:miter;stroke-opacity:1"/>
<path class="bond-12 atom-12 atom-13" d="M 301.3,276.1 L 292.9,298.2" style="fill:none;fill-rule:evenodd;stroke:#00CC00;stroke-width:2.0px;stroke-linecap:butt;stroke-linejoin:miter;stroke-opacity:1"/>
<path class="bond-13 atom-12 atom-14" d="M 309.6,254.0 L 362.8,245.3" style="fill:none;fill-rule:evenodd;stroke:#000000;stroke-width:2.0px;stroke-linecap:butt;stroke-linejoin:miter;stroke-opacity:1"/>
<path class="bond-14 atom-14 atom-15" d="M 362.8,245.3 L 381.8,194.9" style="fill:none;fill-rule:evenodd;stroke:#000000;stroke-width:2.0px;stroke-linecap:butt;stroke-linejoin:miter;stroke-opacity:1"/>
<path class="bond-14 atom-14 atom-15" d="M 355.6,233.9 L 368.9,198.7" style="fill:none;fill-rule:evenodd;stroke:#000000;stroke-width:2.0px;stroke-linecap:butt;stroke-linejoin:miter;stroke-opacity:1"/>
<path class="bond-15 atom-15 atom-16" d="M 381.8,194.9 L 347.7,153.3" style="fill:none;fill-rule:evenodd;stroke:#000000;stroke-width:2.0px;stroke-linecap:butt;stroke-linejoin:miter;stroke-opacity:1"/>
<path class="bond-16 atom-16 atom-17" d="M 347.7,153.3 L 294.6,162.0" style="fill:none;fill-rule:evenodd;stroke:#000000;stroke-width:2.0px;stroke-linecap:butt;stroke-linejoin:miter;stroke-opacity:1"/>
<path class="bond-16 atom-16 atom-17" d="M 341.5,165.2 L 304.3,171.3" style="fill:none;fill-rule:evenodd;stroke:#000000;stroke-width:2.0px;stroke-linecap:butt;stroke-linejoin:miter;stroke-opacity:1"/>
<path class="bond-17 atom-17 atom-18" d="M 294.6,162.0 L 278.7,142.5" style="fill:none;fill-rule:evenodd;stroke:#000000;stroke-width:2.0px;stroke-linecap:butt;stroke-linejoin:miter;stroke-opacity:1"/>
<path class="bond-17 atom-17 atom-18" d="M 278.7,142.5 L 262.8,123.1" style="fill:none;fill-rule:evenodd;stroke:#00CC00;stroke-width:2.0px;stroke-linecap:butt;stroke-linejoin:miter;stroke-opacity:1"/>
<path class="atom-0" d="M 22.0 205.4 Q 22.0 201.8, 23.8 199.7 Q 25.6 197.7, 28.9 197.7 Q 32.3 197.7, 34.1 199.7 Q 35.9 201.8, 35.9 205.4 Q 35.9 209.1, 34.1 211.2 Q 32.3 213.3, 28.9 213.3 Q 25.6 213.3, 23.8 211.2 Q 22.0 209.2, 22.0 205.4 M 28.9 211.6 Q 31.3 211.6, 32.5 210.1 Q 33.8 208.5, 33.8 205.4 Q 33.8 202.4, 32.5 200.9 Q 31.3 199.4, 28.9 199.4 Q 26.6 199.4, 25.4 200.9 Q 24.1 202.4, 24.1 205.4 Q 24.1 208.5, 25.4 210.1 Q 26.6 211.6, 28.9 211.6 " fill="#FF0000"/>
<path class="atom-2" d="M 24.0 289.9 L 26.1 289.9 L 26.1 296.4 L 33.9 296.4 L 33.9 289.9 L 35.9 289.9 L 35.9 305.1 L 33.9 305.1 L 33.9 298.1 L 26.1 298.1 L 26.1 305.1 L 24.0 305.1 L 24.0 289.9 " fill="#FF0000"/>
<path class="atom-2" d="M 37.0 297.5 Q 37.0 293.8, 38.8 291.7 Q 40.6 289.7, 44.0 289.7 Q 47.4 289.7, 49.2 291.7 Q 51.0 293.8, 51.0 297.5 Q 51.0 301.2, 49.2 303.3 Q 47.3 305.4, 44.0 305.4 Q 40.6 305.4, 38.8 303.3 Q 37.0 301.2, 37.0 297.5 M 44.0 303.6 Q 46.3 303.6, 47.6 302.1 Q 48.8 300.5, 48.8 297.5 Q 48.8 294.5, 47.6 293.0 Q 46.3 291.4, 44.0 291.4 Q 41.7 291.4, 40.4 292.9 Q 39.1 294.4, 39.1 297.5 Q 39.1 300.5, 40.4 302.1 Q 41.7 303.6, 44.0 303.6 " fill="#FF0000"/>
<path class="atom-10" d="M 202.9 213.4 L 205.0 213.4 L 205.0 219.9 L 212.8 219.9 L 212.8 213.4 L 214.9 213.4 L 214.9 228.6 L 212.8 228.6 L 212.8 221.6 L 205.0 221.6 L 205.0 228.6 L 202.9 228.6 L 202.9 213.4 " fill="#0000FF"/>
<path class="atom-10" d="M 219.1 213.4 L 224.1 221.4 Q 224.5 222.2, 225.3 223.7 Q 226.1 225.1, 226.2 225.2 L 226.2 213.4 L 228.2 213.4 L 228.2 228.6 L 226.1 228.6 L 220.8 219.8 Q 220.1 218.8, 219.5 217.6 Q 218.8 216.4, 218.6 216.0 L 218.6 228.6 L 216.6 228.6 L 216.6 213.4 L 219.1 213.4 " fill="#0000FF"/>
<path class="atom-13" d="M 276.0 304.9 Q 276.0 301.1, 277.8 299.1 Q 279.6 297.1, 282.9 297.1 Q 286.1 297.1, 287.8 299.3 L 286.3 300.5 Q 285.1 298.9, 282.9 298.9 Q 280.6 298.9, 279.4 300.4 Q 278.2 301.9, 278.2 304.9 Q 278.2 307.9, 279.4 309.4 Q 280.7 311.0, 283.2 311.0 Q 284.9 311.0, 286.8 310.0 L 287.4 311.6 Q 286.6 312.1, 285.4 312.4 Q 284.2 312.7, 282.9 312.7 Q 279.6 312.7, 277.8 310.7 Q 276.0 308.7, 276.0 304.9 " fill="#00CC00"/>
<path class="atom-13" d="M 289.6 296.2 L 291.6 296.2 L 291.6 312.5 L 289.6 312.5 L 289.6 296.2 " fill="#00CC00"/>
<path class="atom-18" d="M 245.9 120.8 Q 245.9 117.0, 247.7 115.0 Q 249.5 113.0, 252.8 113.0 Q 256.0 113.0, 257.7 115.3 L 256.2 116.4 Q 255.0 114.8, 252.8 114.8 Q 250.5 114.8, 249.3 116.4 Q 248.1 117.9, 248.1 120.8 Q 248.1 123.8, 249.4 125.4 Q 250.6 126.9, 253.1 126.9 Q 254.8 126.9, 256.7 125.9 L 257.3 127.5 Q 256.5 128.0, 255.3 128.3 Q 254.1 128.7, 252.8 128.7 Q 249.5 128.7, 247.7 126.6 Q 245.9 124.6, 245.9 120.8 " fill="#00CC00"/>
<path class="atom-18" d="M 259.5 112.1 L 261.5 112.1 L 261.5 128.5 L 259.5 128.5 L 259.5 112.1 " fill="#00CC00"/>
</svg>