<svg xmlns="http://www.w3.org/2000/svg" xmlns:rdkit="http://www.rdkit.org/xml" xmlns:xlink="http://www.w3.org/1999/xlink" version="1.1" baseProfile="full" xml:space="preserve" width="800px" height="600px" viewBox="0 0 800 600">
<!-- END OF HEADER -->
<rect style="opacity:1.0;fill:#FFFFFF;stroke:none" width="800.0" height="600.0" x="0.0" y="0.0"> </rect>
<rect style="opacity:1.0;fill:#FFFFFF;stroke:none" width="800.0" height="600.0" x="0.0" y="0.0"> </rect>
<rect style="opacity:1.0;fill:#FFFFFF;stroke:none" width="800.0" height="600.0" x="0.0" y="0.0"> </rect>
<rect style="opacity:1.0;fill:#FFFFFF;stroke:none" width="800.0" height="600.0" x="0.0" y="0.0"> </rect>
<rect style="opacity:1.0;fill:#FFFFFF;stroke:none" width="800.0" height="600.0" x="0.0" y="0.0"> </rect>
<rect style="opacity:1.0;fill:#FFFFFF;stroke:none" width="800.0" height="600.0" x="0.0" y="0.0"> </rect>
<rect style="opacity:1.0;fill:#FFFFFF;stroke:none" width="800.0" height="600.0" x="0.0" y="0.0"> </rect>
<rect style="opacity:1.0;fill:#FFFFFF;stroke:none" width="800.0" height="600.0" x="0.0" y="0.0"> </rect>
<rect style="opacity:1.0;fill:#FFFFFF;stroke:none" width="800.0" height="600.0" x="0.0" y="0.0"> </rect>
<rect style="opacity:1.0;fill:#FFFFFF;stroke:none" width="800.0" height="600.0" x="0.0" y="0.0"> </rect>
<rect style="opacity:1.0;fill:#FFFFFF;stroke:none" width="800.0" height="600.0" x="0.0" y="0.0"> </rect>
<path class="bond-0 atom-0 atom-1" d="M 36.7,86.6 L 48.4,79.8" style="fill:none;fill-rule:evenodd;stroke:#000000;stroke-width:2.0px;stroke-linecap:butt;stroke-linejoin:miter;stroke-opacity:1"/>
<path class="bond-0 atom-0 atom-1" d="M 48.4,79.8 L 60.1,73.1" style="fill:none;fill-rule:evenodd;stroke:#0000FF;stroke-width:2.0px;stroke-linecap:butt;stroke-linejoin:miter;stroke-opacity:1"/>
<path class="bond-1 atom-1 atom-2" d="M 68.6,73.1 L 80.3,79.8" style="fill:none;fill-rule:evenodd;stroke:#0000FF;stroke-width:2.0px;stroke-linecap:butt;stroke-linejoin:miter;stroke-opacity:1"/>
<path class="bond-1 atom-1 atom-2" d="M 80.3,79.8 L 92.0,86.6" style="fill:none;fill-rule:evenodd;stroke:#000000;stroke-width:2.0px;stroke-linecap:butt;stroke-linejoin:miter;stroke-opacity:1"/>
<path class="bond-2 atom-2 atom-3" d="M 92.0,86.6 L 104.0,79.7" style="fill:none;fill-rule:evenodd;stroke:#000000;stroke-width:2.0px;stroke-linecap:butt;stroke-linejoin:miter;stroke-opacity:1"/>
<path class="bond-2 atom-2 atom-3" d="M 104.0,79.7 L 115.9,72.8" style="fill:none;fill-rule:evenodd;stroke:#CCCC00;stroke-width:2.0px;stroke-linecap:butt;stroke-linejoin:miter;stroke-opacity:1"/>
<path class="bond-3 atom-3 atom-4" d="M 123.3,72.8 L 135.3,79.7" style="fill:none;fill-rule:evenodd;stroke:#CCCC00;stroke-width:2.0px;stroke-linecap:butt;stroke-linejoin:miter;stroke-opacity:1"/>
<path class="bond-3 atom-3 atom-4" d="M 135.3,79.7 L 147.3,86.6" style="fill:none;fill-rule:evenodd;stroke:#000000;stroke-width:2.0px;stroke-linecap:butt;stroke-linejoin:miter;stroke-opacity:1"/>
<path class="atom-1" d="M 62.4 66.1 L 65.3 70.9 Q 65.6 71.4, 66.1 72.2 Q 66.6 73.1, 66.6 73.1 L 66.6 66.1 L 67.8 66.1 L 67.8 75.2 L 66.5 75.2 L 63.4 69.9 Q 63.0 69.3, 62.6 68.6 Q 62.2 67.9, 62.1 67.7 L 62.1 75.2 L 60.9 75.2 L 60.9 66.1 L 62.4 66.1 " fill="#0000FF"/>
<path class="atom-1" d="M 60.8 56.2 L 62.0 56.2 L 62.0 60.0 L 66.7 60.0 L 66.7 56.2 L 67.9 56.2 L 67.9 65.2 L 66.7 65.2 L 66.7 61.0 L 62.0 61.0 L 62.0 65.2 L 60.8 65.2 L 60.8 56.2 " fill="#0000FF"/>
<path class="atom-3" d="M 117.1 73.7 Q 117.2 73.8, 117.6 74.0 Q 118.0 74.1, 118.5 74.3 Q 118.9 74.4, 119.4 74.4 Q 120.3 74.4, 120.8 73.9 Q 121.3 73.5, 121.3 72.8 Q 121.3 72.3, 121.0 72.0 Q 120.8 71.7, 120.4 71.5 Q 120.0 71.4, 119.4 71.2 Q 118.5 70.9, 118.1 70.7 Q 117.6 70.5, 117.2 70.0 Q 116.9 69.5, 116.9 68.7 Q 116.9 67.5, 117.7 66.8 Q 118.5 66.1, 120.0 66.1 Q 121.0 66.1, 122.2 66.6 L 121.9 67.6 Q 120.8 67.2, 120.0 67.2 Q 119.1 67.2, 118.7 67.5 Q 118.2 67.9, 118.2 68.5 Q 118.2 69.0, 118.4 69.3 Q 118.7 69.6, 119.0 69.8 Q 119.4 69.9, 120.0 70.1 Q 120.8 70.4, 121.3 70.6 Q 121.8 70.9, 122.2 71.4 Q 122.5 71.9, 122.5 72.8 Q 122.5 74.1, 121.7 74.7 Q 120.8 75.4, 119.5 75.4 Q 118.7 75.4, 118.0 75.2 Q 117.4 75.0, 116.7 74.8 L 117.1 73.7 " fill="#CCCC00"/>
<path class="note" d="M 39.4 93.5 Q 38.6 93.5, 38.1 92.9 Q 37.7 92.3, 37.7 91.2 Q 37.7 90.1, 38.1 89.5 Q 38.5 88.9, 39.4 88.9 Q 40.2 88.9, 40.6 89.5 Q 41.0 90.1, 41.0 91.2 Q 41.0 92.3, 40.6 92.9 Q 40.2 93.5, 39.4 93.5 M 39.4 93.0 Q 39.9 93.0, 40.1 92.6 Q 40.4 92.1, 40.4 91.2 Q 40.4 90.3, 40.1 89.9 Q 39.9 89.4, 39.4 89.4 Q 38.9 89.4, 38.6 89.9 Q 38.4 90.3, 38.4 91.2 Q 38.4 92.1, 38.6 92.6 Q 38.9 93.0, 39.4 93.0 " fill="#000000"/>
<path class="note" d="M 63.2 83.0 L 64.2 83.0 L 64.2 79.7 L 63.1 80.0 L 63.0 79.6 L 64.4 79.0 L 64.8 79.1 L 64.8 83.0 L 65.7 83.0 L 65.7 83.6 L 63.2 83.6 L 63.2 83.0 " fill="#000000"/>
<path class="note" d="M 90.5 90.5 Q 90.6 90.1, 91.0 89.9 Q 91.4 89.6, 92.0 89.6 Q 92.7 89.6, 93.1 90.0 Q 93.4 90.4, 93.4 91.0 Q 93.4 91.7, 92.9 92.3 Q 92.4 92.9, 91.4 93.7 L 93.5 93.7 L 93.5 94.2 L 90.5 94.2 L 90.5 93.8 Q 91.3 93.2, 91.8 92.7 Q 92.3 92.3, 92.6 91.9 Q 92.8 91.5, 92.8 91.1 Q 92.8 90.6, 92.6 90.4 Q 92.4 90.1, 92.0 90.1 Q 91.6 90.1, 91.4 90.3 Q 91.1 90.4, 91.0 90.8 L 90.5 90.5 " fill="#000000"/>
<path class="note" d="M 120.3 59.9 Q 120.7 60.0, 120.9 60.3 Q 121.1 60.6, 121.1 61.1 Q 121.1 61.4, 120.9 61.7 Q 120.8 62.0, 120.4 62.2 Q 120.1 62.4, 119.6 62.4 Q 119.1 62.4, 118.7 62.2 Q 118.4 62.0, 118.1 61.7 L 118.5 61.3 Q 118.7 61.6, 119.0 61.7 Q 119.2 61.8, 119.6 61.8 Q 120.0 61.8, 120.3 61.6 Q 120.5 61.4, 120.5 61.0 Q 120.5 60.6, 120.2 60.4 Q 120.0 60.2, 119.4 60.2 L 119.1 60.2 L 119.1 59.7 L 119.4 59.7 Q 119.9 59.7, 120.1 59.5 Q 120.4 59.3, 120.4 58.9 Q 120.4 58.6, 120.2 58.4 Q 120.0 58.2, 119.6 58.2 Q 119.2 58.2, 119.0 58.4 Q 118.8 58.5, 118.6 58.8 L 118.1 58.6 Q 118.3 58.2, 118.7 58.0 Q 119.1 57.7, 119.6 57.7 Q 120.3 57.7, 120.7 58.0 Q 121.0 58.3, 121.0 58.9 Q 121.0 59.2, 120.8 59.5 Q 120.6 59.8, 120.3 59.9 " fill="#000000"/>
<path class="note" d="M 151.1 82.7 L 151.7 82.7 L 151.7 83.2 L 151.1 83.2 L 151.1 84.3 L 150.5 84.3 L 150.5 83.2 L 148.2 83.2 L 148.2 82.8 L 150.2 79.7 L 151.1 79.7 L 151.1 82.7 M 148.9 82.7 L 150.5 82.7 L 150.5 80.1 L 148.9 82.7 " fill="#000000"/>
<path d="M 82.2 194.3 Q 80.1 194.3, 79.0 192.7 Q 78.0 191.2, 78.0 188.5 Q 78.0 185.7, 79.0 184.2 Q 80.1 182.7, 82.2 182.7 Q 84.3 182.7, 85.3 184.2 Q 86.3 185.7, 86.3 188.5 Q 86.3 191.2, 85.3 192.7 Q 84.2 194.3, 82.2 194.3 M 82.2 193.0 Q 83.4 193.0, 84.0 191.9 Q 84.7 190.7, 84.7 188.5 Q 84.7 186.2, 84.0 185.1 Q 83.4 184.0, 82.2 184.0 Q 80.9 184.0, 80.3 185.1 Q 79.6 186.2, 79.6 188.5 Q 79.6 190.7, 80.3 191.9 Q 80.9 193.0, 82.2 193.0 " fill="#000000"/>
<path d="M 87.3 192.5 L 88.9 192.5 L 88.9 194.1 L 87.3 194.1 L 87.3 192.5 " fill="#000000"/>
<path d="M 94.1 194.3 Q 92.0 194.3, 90.9 192.7 Q 89.9 191.2, 89.9 188.5 Q 89.9 185.7, 90.9 184.2 Q 92.0 182.7, 94.1 182.7 Q 96.2 182.7, 97.2 184.2 Q 98.2 185.7, 98.2 188.5 Q 98.2 191.2, 97.2 192.7 Q 96.1 194.3, 94.1 194.3 M 94.1 193.0 Q 95.3 193.0, 95.9 191.9 Q 96.6 190.7, 96.6 188.5 Q 96.6 186.2, 95.9 185.1 Q 95.3 184.0, 94.1 184.0 Q 92.8 184.0, 92.2 185.1 Q 91.5 186.2, 91.5 188.5 Q 91.5 190.7, 92.2 191.9 Q 92.8 193.0, 94.1 193.0 " fill="#000000"/>
<path d="M 102.9 182.7 Q 104.9 182.7, 105.9 184.1 Q 106.9 185.4, 106.9 188.1 Q 106.9 191.2, 105.7 192.7 Q 104.4 194.3, 102.0 194.3 Q 101.3 194.3, 100.7 194.1 Q 100.1 194.0, 99.5 193.6 L 100.2 192.5 Q 101.0 193.0, 102.0 193.0 Q 103.6 193.0, 104.4 192.0 Q 105.2 190.9, 105.3 188.8 Q 104.7 189.3, 104.0 189.6 Q 103.3 189.9, 102.5 189.9 Q 101.5 189.9, 100.7 189.5 Q 99.9 189.0, 99.5 188.2 Q 99.1 187.5, 99.1 186.5 Q 99.1 185.4, 99.6 184.5 Q 100.1 183.6, 100.9 183.2 Q 101.8 182.7, 102.9 182.7 M 100.7 186.4 Q 100.7 187.5, 101.2 188.0 Q 101.8 188.6, 102.8 188.6 Q 103.5 188.6, 104.2 188.3 Q 104.8 188.0, 105.3 187.6 Q 105.3 185.7, 104.7 184.8 Q 104.1 184.0, 102.9 184.0 Q 102.3 184.0, 101.8 184.3 Q 101.3 184.6, 101.0 185.2 Q 100.7 185.8, 100.7 186.4 " fill="#000000"/>
<path d="M 108.4 192.9 L 110.9 192.9 L 110.9 184.4 L 108.2 185.2 L 107.8 184.3 L 111.3 182.8 L 112.4 182.9 L 112.4 192.9 L 114.6 192.9 L 114.6 194.1 L 108.4 194.1 L 108.4 192.9 " fill="#000000"/>
<path class="bond-0 atom-0 atom-1" d="M 222.6,84.7 L 234.7,78.5" style="fill:none;fill-rule:evenodd;stroke:#000000;stroke-width:2.0px;stroke-linecap:butt;stroke-linejoin:miter;stroke-opacity:1"/>
<path class="bond-0 atom-0 atom-1" d="M 234.7,78.5 L 246.8,72.3" style="fill:none;fill-rule:evenodd;stroke:#0000FF;stroke-width:2.0px;stroke-linecap:butt;stroke-linejoin:miter;stroke-opacity:1"/>
<path class="bond-1 atom-1 atom-2" d="M 255.2,72.9 L 266.5,80.2" style="fill:none;fill-rule:evenodd;stroke:#0000FF;stroke-width:2.0px;stroke-linecap:butt;stroke-linejoin:miter;stroke-opacity:1"/>
<path class="bond-1 atom-1 atom-2" d="M 266.5,80.2 L 277.8,87.5" style="fill:none;fill-rule:evenodd;stroke:#000000;stroke-width:2.0px;stroke-linecap:butt;stroke-linejoin:miter;stroke-opacity:1"/>
<path class="bond-2 atom-2 atom-3" d="M 277.8,87.5 L 290.1,81.2" style="fill:none;fill-rule:evenodd;stroke:#000000;stroke-width:2.0px;stroke-linecap:butt;stroke-linejoin:miter;stroke-opacity:1"/>
<path class="bond-2 atom-2 atom-3" d="M 290.1,81.2 L 302.5,74.8" style="fill:none;fill-rule:evenodd;stroke:#CCCC00;stroke-width:2.0px;stroke-linecap:butt;stroke-linejoin:miter;stroke-opacity:1"/>
<path class="bond-3 atom-3 atom-4" d="M 309.9,75.3 L 321.4,82.8" style="fill:none;fill-rule:evenodd;stroke:#CCCC00;stroke-width:2.0px;stroke-linecap:butt;stroke-linejoin:miter;stroke-opacity:1"/>
<path class="bond-3 atom-3 atom-4" d="M 321.4,82.8 L 333.0,90.3" style="fill:none;fill-rule:evenodd;stroke:#000000;stroke-width:2.0px;stroke-linecap:butt;stroke-linejoin:miter;stroke-opacity:1"/>
<path class="bond-4 atom-4 atom-5" d="M 334.4,93.1 L 362.8,78.6" style="fill:none;fill-rule:evenodd;stroke:#000000;stroke-width:2.0px;stroke-linecap:butt;stroke-linejoin:miter;stroke-opacity:1"/>
<path class="bond-4 atom-4 atom-5" d="M 331.5,87.4 L 359.9,72.9" style="fill:none;fill-rule:evenodd;stroke:#000000;stroke-width:2.0px;stroke-linecap:butt;stroke-linejoin:miter;stroke-opacity:1"/>
<path class="atom-1" d="M 249.0 65.6 L 252.0 70.4 Q 252.3 70.9, 252.7 71.7 Q 253.2 72.6, 253.2 72.6 L 253.2 65.6 L 254.4 65.6 L 254.4 74.7 L 253.2 74.7 L 250.0 69.4 Q 249.6 68.8, 249.2 68.1 Q 248.9 67.4, 248.7 67.2 L 248.7 74.7 L 247.6 74.7 L 247.6 65.6 L 249.0 65.6 " fill="#0000FF"/>
<path class="atom-1" d="M 247.5 55.7 L 248.7 55.7 L 248.7 59.5 L 253.3 59.5 L 253.3 55.7 L 254.5 55.7 L 254.5 64.7 L 253.3 64.7 L 253.3 60.6 L 248.7 60.6 L 248.7 64.7 L 247.5 64.7 L 247.5 55.7 " fill="#0000FF"/>
<path class="atom-3" d="M 303.6 76.1 Q 303.7 76.1, 304.2 76.3 Q 304.6 76.4, 305.0 76.6 Q 305.5 76.7, 306.0 76.7 Q 306.8 76.7, 307.3 76.3 Q 307.8 75.8, 307.8 75.1 Q 307.8 74.6, 307.6 74.3 Q 307.3 74.0, 306.9 73.8 Q 306.6 73.7, 305.9 73.5 Q 305.1 73.2, 304.6 73.0 Q 304.2 72.8, 303.8 72.3 Q 303.5 71.8, 303.5 71.0 Q 303.5 69.8, 304.3 69.1 Q 305.0 68.4, 306.6 68.4 Q 307.6 68.4, 308.8 68.9 L 308.5 69.9 Q 307.4 69.5, 306.6 69.5 Q 305.7 69.5, 305.2 69.8 Q 304.8 70.2, 304.8 70.8 Q 304.8 71.3, 305.0 71.6 Q 305.3 71.9, 305.6 72.1 Q 306.0 72.2, 306.6 72.4 Q 307.4 72.7, 307.9 72.9 Q 308.4 73.2, 308.7 73.7 Q 309.1 74.2, 309.1 75.1 Q 309.1 76.4, 308.2 77.0 Q 307.4 77.7, 306.0 77.7 Q 305.2 77.7, 304.6 77.5 Q 304.0 77.4, 303.3 77.1 L 303.6 76.1 " fill="#CCCC00"/>
<path class="note" d="M 225.0 91.7 Q 224.2 91.7, 223.8 91.1 Q 223.4 90.5, 223.4 89.4 Q 223.4 88.3, 223.8 87.7 Q 224.2 87.1, 225.0 87.1 Q 225.8 87.1, 226.3 87.7 Q 226.7 88.3, 226.7 89.4 Q 226.7 90.5, 226.3 91.1 Q 225.8 91.7, 225.0 91.7 M 225.0 91.2 Q 225.5 91.2, 225.8 90.8 Q 226.0 90.3, 226.0 89.4 Q 226.0 88.5, 225.8 88.1 Q 225.5 87.6, 225.0 87.6 Q 224.5 87.6, 224.3 88.1 Q 224.0 88.5, 224.0 89.4 Q 224.0 90.3, 224.3 90.8 Q 224.5 91.2, 225.0 91.2 " fill="#000000"/>
<path class="note" d="M 249.3 82.5 L 250.3 82.5 L 250.3 79.2 L 249.2 79.5 L 249.1 79.1 L 250.5 78.5 L 250.9 78.6 L 250.9 82.5 L 251.8 82.5 L 251.8 83.0 L 249.3 83.0 L 249.3 82.5 " fill="#000000"/>
<path class="note" d="M 276.0 91.4 Q 276.2 91.0, 276.6 90.8 Q 277.0 90.5, 277.5 90.5 Q 278.2 90.5, 278.6 90.9 Q 279.0 91.2, 279.0 91.9 Q 279.0 92.6, 278.5 93.2 Q 278.0 93.8, 277.0 94.6 L 279.0 94.6 L 279.0 95.1 L 276.0 95.1 L 276.0 94.6 Q 276.8 94.0, 277.3 93.6 Q 277.8 93.2, 278.1 92.8 Q 278.3 92.4, 278.3 91.9 Q 278.3 91.5, 278.1 91.3 Q 277.9 91.0, 277.5 91.0 Q 277.1 91.0, 276.9 91.2 Q 276.7 91.3, 276.5 91.6 L 276.0 91.4 " fill="#000000"/>
<path class="note" d="M 307.4 62.2 Q 307.8 62.4, 308.0 62.6 Q 308.3 62.9, 308.3 63.4 Q 308.3 63.8, 308.1 64.1 Q 307.9 64.4, 307.5 64.5 Q 307.2 64.7, 306.7 64.7 Q 306.2 64.7, 305.9 64.5 Q 305.5 64.3, 305.2 64.0 L 305.6 63.6 Q 305.9 63.9, 306.1 64.1 Q 306.3 64.2, 306.7 64.2 Q 307.1 64.2, 307.4 63.9 Q 307.6 63.7, 307.6 63.4 Q 307.6 62.9, 307.4 62.7 Q 307.1 62.5, 306.5 62.5 L 306.2 62.5 L 306.2 62.0 L 306.5 62.0 Q 307.0 62.0, 307.3 61.8 Q 307.5 61.6, 307.5 61.2 Q 307.5 60.9, 307.3 60.7 Q 307.1 60.6, 306.7 60.6 Q 306.3 60.6, 306.1 60.7 Q 305.9 60.8, 305.7 61.2 L 305.3 60.9 Q 305.4 60.5, 305.8 60.3 Q 306.2 60.0, 306.7 60.0 Q 307.4 60.0, 307.8 60.4 Q 308.2 60.7, 308.2 61.2 Q 308.2 61.6, 308.0 61.8 Q 307.8 62.1, 307.4 62.2 " fill="#000000"/>
<path class="note" d="M 333.9 96.3 L 334.4 96.3 L 334.4 96.8 L 333.9 96.8 L 333.9 97.9 L 333.3 97.9 L 333.3 96.8 L 331.0 96.8 L 331.0 96.4 L 332.9 93.3 L 333.9 93.3 L 333.9 96.3 M 331.7 96.3 L 333.3 96.3 L 333.3 93.7 L 331.7 96.3 " fill="#000000"/>
<path class="note" d="M 359.1 70.5 Q 359.5 70.5, 359.8 70.6 Q 360.1 70.8, 360.3 71.1 Q 360.5 71.4, 360.5 71.9 Q 360.5 72.3, 360.3 72.7 Q 360.0 73.0, 359.7 73.2 Q 359.3 73.3, 358.9 73.3 Q 358.5 73.3, 358.1 73.2 Q 357.7 73.0, 357.4 72.7 L 357.8 72.3 Q 358.0 72.6, 358.3 72.7 Q 358.6 72.8, 358.9 72.8 Q 359.3 72.8, 359.6 72.6 Q 359.9 72.3, 359.9 71.9 Q 359.9 71.4, 359.6 71.2 Q 359.3 70.9, 358.9 70.9 Q 358.5 70.9, 358.0 71.1 L 357.7 70.9 L 357.9 68.8 L 360.2 68.8 L 360.1 69.3 L 358.4 69.3 L 358.3 70.6 Q 358.7 70.5, 359.1 70.5 " fill="#000000"/>
<path d="M 286.2 194.2 Q 284.1 194.2, 283.1 192.7 Q 282.1 191.2, 282.1 188.4 Q 282.1 185.7, 283.1 184.2 Q 284.1 182.7, 286.2 182.7 Q 288.3 182.7, 289.3 184.2 Q 290.3 185.7, 290.3 188.4 Q 290.3 191.2, 289.3 192.7 Q 288.3 194.2, 286.2 194.2 M 286.2 193.0 Q 287.4 193.0, 288.1 191.8 Q 288.7 190.7, 288.7 188.4 Q 288.7 186.2, 288.1 185.1 Q 287.4 183.9, 286.2 183.9 Q 285.0 183.9, 284.3 185.1 Q 283.7 186.2, 283.7 188.4 Q 283.7 190.7, 284.3 191.8 Q 285.0 193.0, 286.2 193.0 " fill="#000000"/>
<path d="M 291.4 192.5 L 293.0 192.5 L 293.0 194.1 L 291.4 194.1 L 291.4 192.5 " fill="#000000"/>
<path d="M 298.1 194.2 Q 296.0 194.2, 295.0 192.7 Q 294.0 191.2, 294.0 188.4 Q 294.0 185.7, 295.0 184.2 Q 296.0 182.7, 298.1 182.7 Q 300.2 182.7, 301.2 184.2 Q 302.2 185.7, 302.2 188.4 Q 302.2 191.2, 301.2 192.7 Q 300.2 194.2, 298.1 194.2 M 298.1 193.0 Q 299.3 193.0, 300.0 191.8 Q 300.6 190.7, 300.6 188.4 Q 300.6 186.2, 300.0 185.1 Q 299.3 183.9, 298.1 183.9 Q 296.9 183.9, 296.2 185.1 Q 295.6 186.2, 295.6 188.4 Q 295.6 190.7, 296.2 191.8 Q 296.9 193.0, 298.1 193.0 " fill="#000000"/>
<path d="M 309.0 188.1 Q 310.1 188.6, 310.6 189.2 Q 311.2 189.9, 311.2 191.0 Q 311.2 192.0, 310.7 192.7 Q 310.2 193.5, 309.3 193.9 Q 308.5 194.3, 307.3 194.3 Q 305.4 194.3, 304.3 193.4 Q 303.2 192.5, 303.2 191.0 Q 303.2 190.1, 303.7 189.4 Q 304.2 188.7, 305.2 188.2 Q 304.5 187.7, 304.1 187.1 Q 303.7 186.5, 303.7 185.6 Q 303.7 184.2, 304.6 183.4 Q 305.6 182.7, 307.2 182.7 Q 308.9 182.7, 309.8 183.4 Q 310.8 184.2, 310.8 185.6 Q 310.8 186.4, 310.4 187.0 Q 309.9 187.6, 309.0 188.1 M 307.2 183.9 Q 306.3 183.9, 305.8 184.3 Q 305.3 184.8, 305.3 185.6 Q 305.3 186.1, 305.6 186.5 Q 306.0 186.9, 306.5 187.2 Q 307.0 187.4, 307.9 187.7 Q 308.6 187.2, 308.9 186.7 Q 309.2 186.2, 309.2 185.6 Q 309.2 184.8, 308.7 184.3 Q 308.2 183.9, 307.2 183.9 M 307.3 193.1 Q 308.4 193.1, 309.0 192.5 Q 309.6 191.9, 309.6 191.0 Q 309.6 190.4, 309.3 190.0 Q 309.0 189.6, 308.5 189.4 Q 308.0 189.2, 307.1 188.9 L 306.3 188.6 Q 305.5 189.1, 305.2 189.7 Q 304.8 190.3, 304.8 191.0 Q 304.8 191.9, 305.5 192.5 Q 306.2 193.1, 307.3 193.1 " fill="#000000"/>
<path class="bond-0 atom-0 atom-1" d="M 475.4,96.2 L 503.0,80.2" style="fill:none;fill-rule:evenodd;stroke:#000000;stroke-width:2.0px;stroke-linecap:butt;stroke-linejoin:miter;stroke-opacity:1"/>
<path class="bond-3 atom-0 atom-4" d="M 475.4,96.2 L 464.1,89.6" style="fill:none;fill-rule:evenodd;stroke:#000000;stroke-width:2.0px;stroke-linecap:butt;stroke-linejoin:miter;stroke-opacity:1"/>
<path class="bond-3 atom-0 atom-4" d="M 464.1,89.6 L 452.7,83.1" style="fill:none;fill-rule:evenodd;stroke:#FF0000;stroke-width:2.0px;stroke-linecap:butt;stroke-linejoin:miter;stroke-opacity:1"/>
<path class="bond-1 atom-1 atom-2" d="M 507.3,83.4 L 507.9,82.3" style="fill:none;fill-rule:evenodd;stroke:#000000;stroke-width:1.0px;stroke-linecap:butt;stroke-linejoin:miter;stroke-opacity:1"/>
<path class="bond-1 atom-1 atom-2" d="M 511.5,86.6 L 512.8,84.4" style="fill:none;fill-rule:evenodd;stroke:#000000;stroke-width:1.0px;stroke-linecap:butt;stroke-linejoin:miter;stroke-opacity:1"/>
<path class="bond-1 atom-1 atom-2" d="M 515.7,89.7 L 517.6,86.4" style="fill:none;fill-rule:evenodd;stroke:#FF0000;stroke-width:1.0px;stroke-linecap:butt;stroke-linejoin:miter;stroke-opacity:1"/>
<path class="bond-1 atom-1 atom-2" d="M 519.9,92.9 L 522.5,88.5" style="fill:none;fill-rule:evenodd;stroke:#FF0000;stroke-width:1.0px;stroke-linecap:butt;stroke-linejoin:miter;stroke-opacity:1"/>
<path class="bond-1 atom-1 atom-2" d="M 524.1,96.1 L 527.3,90.6" style="fill:none;fill-rule:evenodd;stroke:#FF0000;stroke-width:1.0px;stroke-linecap:butt;stroke-linejoin:miter;stroke-opacity:1"/>
<path class="bond-2 atom-1 atom-3" d="M 503.0,80.2 L 503.0,66.9" style="fill:none;fill-rule:evenodd;stroke:#000000;stroke-width:2.0px;stroke-linecap:butt;stroke-linejoin:miter;stroke-opacity:1"/>
<path class="bond-2 atom-1 atom-3" d="M 503.0,66.9 L 503.0,53.6" style="fill:none;fill-rule:evenodd;stroke:#A01EEF;stroke-width:2.0px;stroke-linecap:butt;stroke-linejoin:miter;stroke-opacity:1"/>
<path class="atom-2" d="M 526.5 96.2 Q 526.5 94.0, 527.6 92.8 Q 528.7 91.6, 530.7 91.6 Q 532.7 91.6, 533.8 92.8 Q 534.8 94.0, 534.8 96.2 Q 534.8 98.4, 533.7 99.6 Q 532.7 100.9, 530.7 100.9 Q 528.7 100.9, 527.6 99.6 Q 526.5 98.4, 526.5 96.2 M 530.7 99.9 Q 532.1 99.9, 532.8 98.9 Q 533.5 98.0, 533.5 96.2 Q 533.5 94.4, 532.8 93.5 Q 532.1 92.6, 530.7 92.6 Q 529.3 92.6, 528.5 93.5 Q 527.8 94.4, 527.8 96.2 Q 527.8 98.0, 528.5 98.9 Q 529.3 99.9, 530.7 99.9 " fill="#FF0000"/>
<path class="atom-2" d="M 535.9 91.7 L 537.1 91.7 L 537.1 95.5 L 541.8 95.5 L 541.8 91.7 L 543.0 91.7 L 543.0 100.7 L 541.8 100.7 L 541.8 96.6 L 537.1 96.6 L 537.1 100.7 L 535.9 100.7 L 535.9 91.7 " fill="#FF0000"/>
<path class="atom-3" d="M 502.4 43.8 L 503.6 43.8 L 503.6 52.8 L 502.4 52.8 L 502.4 43.8 " fill="#A01EEF"/>
<path class="atom-4" d="M 435.9 75.7 L 437.1 75.7 L 437.1 79.6 L 441.8 79.6 L 441.8 75.7 L 443.0 75.7 L 443.0 84.8 L 441.8 84.8 L 441.8 80.6 L 437.1 80.6 L 437.1 84.8 L 435.9 84.8 L 435.9 75.7 " fill="#FF0000"/>
<path class="atom-4" d="M 443.6 80.2 Q 443.6 78.1, 444.7 76.9 Q 445.8 75.6, 447.8 75.6 Q 449.8 75.6, 450.9 76.9 Q 451.9 78.1, 451.9 80.2 Q 451.9 82.4, 450.8 83.7 Q 449.8 84.9, 447.8 84.9 Q 445.8 84.9, 444.7 83.7 Q 443.6 82.4, 443.6 80.2 M 447.8 83.9 Q 449.2 83.9, 449.9 83.0 Q 450.6 82.1, 450.6 80.2 Q 450.6 78.5, 449.9 77.6 Q 449.2 76.7, 447.8 76.7 Q 446.4 76.7, 445.6 77.6 Q 444.9 78.5, 444.9 80.2 Q 444.9 82.1, 445.6 83.0 Q 446.4 83.9, 447.8 83.9 " fill="#FF0000"/>
<path class="note" d="M 475.4 103.8 Q 474.6 103.8, 474.2 103.2 Q 473.8 102.6, 473.8 101.5 Q 473.8 100.4, 474.2 99.8 Q 474.6 99.2, 475.4 99.2 Q 476.2 99.2, 476.7 99.8 Q 477.1 100.4, 477.1 101.5 Q 477.1 102.6, 476.6 103.2 Q 476.2 103.8, 475.4 103.8 M 475.4 103.3 Q 475.9 103.3, 476.2 102.9 Q 476.4 102.4, 476.4 101.5 Q 476.4 100.6, 476.2 100.2 Q 475.9 99.7, 475.4 99.7 Q 474.9 99.7, 474.7 100.2 Q 474.4 100.6, 474.4 101.5 Q 474.4 102.4, 474.7 102.9 Q 474.9 103.3, 475.4 103.3 " fill="#000000"/>
<path class="note" d="M 501.9 87.3 L 502.9 87.3 L 502.9 83.9 L 501.8 84.3 L 501.7 83.9 L 503.1 83.3 L 503.5 83.3 L 503.5 87.3 L 504.4 87.3 L 504.4 87.8 L 501.9 87.8 L 501.9 87.3 " fill="#000000"/>
<path class="note" d="M 538.4 100.1 Q 538.5 99.7, 538.9 99.4 Q 539.3 99.2, 539.9 99.2 Q 540.6 99.2, 540.9 99.6 Q 541.3 99.9, 541.3 100.6 Q 541.3 101.3, 540.8 101.9 Q 540.3 102.5, 539.3 103.3 L 541.4 103.3 L 541.4 103.8 L 538.4 103.8 L 538.4 103.3 Q 539.2 102.7, 539.7 102.3 Q 540.2 101.9, 540.5 101.4 Q 540.7 101.0, 540.7 100.6 Q 540.7 100.2, 540.5 100.0 Q 540.3 99.7, 539.9 99.7 Q 539.5 99.7, 539.3 99.9 Q 539.0 100.0, 538.9 100.3 L 538.4 100.1 " fill="#000000"/>
<path class="note" d="M 503.7 37.6 Q 504.1 37.7, 504.3 38.0 Q 504.6 38.3, 504.6 38.7 Q 504.6 39.1, 504.4 39.4 Q 504.2 39.7, 503.8 39.9 Q 503.5 40.0, 503.0 40.0 Q 502.5 40.0, 502.2 39.9 Q 501.8 39.7, 501.5 39.3 L 501.9 39.0 Q 502.2 39.3, 502.4 39.4 Q 502.6 39.5, 503.0 39.5 Q 503.4 39.5, 503.7 39.3 Q 503.9 39.1, 503.9 38.7 Q 503.9 38.3, 503.7 38.0 Q 503.4 37.8, 502.9 37.8 L 502.5 37.8 L 502.5 37.4 L 502.8 37.4 Q 503.3 37.4, 503.6 37.2 Q 503.8 36.9, 503.8 36.5 Q 503.8 36.2, 503.6 36.1 Q 503.4 35.9, 503.0 35.9 Q 502.6 35.9, 502.4 36.0 Q 502.2 36.2, 502.0 36.5 L 501.6 36.3 Q 501.7 35.9, 502.1 35.6 Q 502.5 35.4, 503.0 35.4 Q 503.7 35.4, 504.1 35.7 Q 504.5 36.0, 504.5 36.5 Q 504.5 36.9, 504.3 37.2 Q 504.1 37.4, 503.7 37.6 " fill="#000000"/>
<path class="note" d="M 439.8 75.6 L 440.3 75.6 L 440.3 76.1 L 439.8 76.1 L 439.8 77.2 L 439.2 77.2 L 439.2 76.1 L 436.8 76.1 L 436.8 75.7 L 438.8 72.6 L 439.8 72.6 L 439.8 75.6 M 437.6 75.6 L 439.2 75.6 L 439.2 73.0 L 437.6 75.6 " fill="#000000"/>
<path d="M 491.6 194.3 Q 489.6 194.3, 488.5 192.7 Q 487.5 191.2, 487.5 188.5 Q 487.5 185.7, 488.5 184.2 Q 489.5 182.7, 491.6 182.7 Q 493.7 182.7, 494.8 184.2 Q 495.8 185.7, 495.8 188.5 Q 495.8 191.2, 494.7 192.7 Q 493.7 194.3, 491.6 194.3 M 491.6 193.0 Q 492.9 193.0, 493.5 191.9 Q 494.2 190.7, 494.2 188.5 Q 494.2 186.2, 493.5 185.1 Q 492.9 184.0, 491.6 184.0 Q 490.4 184.0, 489.8 185.1 Q 489.1 186.2, 489.1 188.5 Q 489.1 190.7, 489.8 191.9 Q 490.4 193.0, 491.6 193.0 " fill="#000000"/>
<path d="M 496.8 192.5 L 498.4 192.5 L 498.4 194.1 L 496.8 194.1 L 496.8 192.5 " fill="#000000"/>
<path d="M 499.9 192.9 L 502.4 192.9 L 502.4 184.4 L 499.7 185.2 L 499.3 184.3 L 502.8 182.8 L 503.9 182.9 L 503.9 192.9 L 506.1 192.9 L 506.1 194.1 L 499.9 194.1 L 499.9 192.9 " fill="#000000"/>
<path class="bond-0 atom-1 atom-0" d="M 707.9,80.2 L 726.7,54.2 L 721.1,51.0 Z" style="fill:#000000;fill-rule:evenodd;fill-opacity:1;stroke:#000000;stroke-width:2.0px;stroke-linecap:butt;stroke-linejoin:miter;stroke-opacity:1;"/>
<path class="bond-1 atom-1 atom-2" d="M 707.9,80.2 L 676.0,80.2" style="fill:none;fill-rule:evenodd;stroke:#000000;stroke-width:2.0px;stroke-linecap:butt;stroke-linejoin:miter;stroke-opacity:1"/>
<path class="bond-4 atom-1 atom-5" d="M 707.9,80.2 L 714.4,91.3" style="fill:none;fill-rule:evenodd;stroke:#000000;stroke-width:2.0px;stroke-linecap:butt;stroke-linejoin:miter;stroke-opacity:1"/>
<path class="bond-4 atom-1 atom-5" d="M 714.4,91.3 L 720.8,102.5" style="fill:none;fill-rule:evenodd;stroke:#FF0000;stroke-width:2.0px;stroke-linecap:butt;stroke-linejoin:miter;stroke-opacity:1"/>
<path class="bond-2 atom-2 atom-3" d="M 676.0,80.2 L 660.1,107.8" style="fill:none;fill-rule:evenodd;stroke:#000000;stroke-width:2.0px;stroke-linecap:butt;stroke-linejoin:miter;stroke-opacity:1"/>
<path class="bond-3 atom-2 atom-4" d="M 676.0,80.2 L 669.6,69.2" style="fill:none;fill-rule:evenodd;stroke:#000000;stroke-width:2.0px;stroke-linecap:butt;stroke-linejoin:miter;stroke-opacity:1"/>
<path class="bond-3 atom-2 atom-4" d="M 669.6,69.2 L 663.3,58.1" style="fill:none;fill-rule:evenodd;stroke:#FF0000;stroke-width:2.0px;stroke-linecap:butt;stroke-linejoin:miter;stroke-opacity:1"/>
<path class="atom-4" d="M 648.2 48.1 L 649.5 48.1 L 649.5 52.0 L 654.1 52.0 L 654.1 48.1 L 655.3 48.1 L 655.3 57.2 L 654.1 57.2 L 654.1 53.0 L 649.5 53.0 L 649.5 57.2 L 648.2 57.2 L 648.2 48.1 " fill="#FF0000"/>
<path class="atom-4" d="M 655.9 52.6 Q 655.9 50.4, 657.0 49.2 Q 658.1 48.0, 660.1 48.0 Q 662.1 48.0, 663.2 49.2 Q 664.2 50.4, 664.2 52.6 Q 664.2 54.8, 663.1 56.1 Q 662.1 57.3, 660.1 57.3 Q 658.1 57.3, 657.0 56.1 Q 655.9 54.8, 655.9 52.6 M 660.1 56.3 Q 661.5 56.3, 662.2 55.4 Q 663.0 54.4, 663.0 52.6 Q 663.0 50.8, 662.2 49.9 Q 661.5 49.0, 660.1 49.0 Q 658.7 49.0, 658.0 49.9 Q 657.2 50.8, 657.2 52.6 Q 657.2 54.4, 658.0 55.4 Q 658.7 56.3, 660.1 56.3 " fill="#FF0000"/>
<path class="atom-5" d="M 719.7 107.9 Q 719.7 105.7, 720.8 104.5 Q 721.9 103.3, 723.9 103.3 Q 725.9 103.3, 727.0 104.5 Q 728.0 105.7, 728.0 107.9 Q 728.0 110.1, 727.0 111.3 Q 725.9 112.6, 723.9 112.6 Q 721.9 112.6, 720.8 111.3 Q 719.7 110.1, 719.7 107.9 M 723.9 111.5 Q 725.3 111.5, 726.0 110.6 Q 726.8 109.7, 726.8 107.9 Q 726.8 106.1, 726.0 105.2 Q 725.3 104.3, 723.9 104.3 Q 722.5 104.3, 721.8 105.2 Q 721.0 106.1, 721.0 107.9 Q 721.0 109.7, 721.8 110.6 Q 722.5 111.5, 723.9 111.5 " fill="#FF0000"/>
<path class="atom-5" d="M 729.1 103.4 L 730.4 103.4 L 730.4 107.2 L 735.0 107.2 L 735.0 103.4 L 736.2 103.4 L 736.2 112.4 L 735.0 112.4 L 735.0 108.2 L 730.4 108.2 L 730.4 112.4 L 729.1 112.4 L 729.1 103.4 " fill="#FF0000"/>
<path class="note" d="M 719.3 52.3 Q 718.5 52.3, 718.0 51.6 Q 717.6 51.0, 717.6 49.9 Q 717.6 48.9, 718.0 48.2 Q 718.5 47.6, 719.3 47.6 Q 720.1 47.6, 720.5 48.2 Q 720.9 48.9, 720.9 49.9 Q 720.9 51.0, 720.5 51.6 Q 720.1 52.3, 719.3 52.3 M 719.3 51.7 Q 719.8 51.7, 720.0 51.3 Q 720.3 50.8, 720.3 49.9 Q 720.3 49.1, 720.0 48.6 Q 719.8 48.2, 719.3 48.2 Q 718.8 48.2, 718.5 48.6 Q 718.3 49.1, 718.3 49.9 Q 718.3 50.8, 718.5 51.3 Q 718.8 51.7, 719.3 51.7 " fill="#000000"/>
<path class="note" d="M 704.2 77.4 L 705.2 77.4 L 705.2 74.0 L 704.1 74.3 L 703.9 74.0 L 705.3 73.3 L 705.8 73.4 L 705.8 77.4 L 706.6 77.4 L 706.6 77.9 L 704.2 77.9 L 704.2 77.4 " fill="#000000"/>
<path class="note" d="M 677.2 83.4 Q 677.4 83.0, 677.7 82.8 Q 678.1 82.5, 678.7 82.5 Q 679.4 82.5, 679.8 82.9 Q 680.1 83.3, 680.1 83.9 Q 680.1 84.6, 679.6 85.2 Q 679.2 85.9, 678.1 86.6 L 680.2 86.6 L 680.2 87.1 L 677.2 87.1 L 677.2 86.7 Q 678.0 86.1, 678.5 85.6 Q 679.0 85.2, 679.3 84.8 Q 679.5 84.4, 679.5 84.0 Q 679.5 83.5, 679.3 83.3 Q 679.1 83.0, 678.7 83.0 Q 678.3 83.0, 678.1 83.2 Q 677.8 83.3, 677.7 83.7 L 677.2 83.4 " fill="#000000"/>
<path class="note" d="M 665.3 110.4 Q 665.8 110.5, 666.0 110.8 Q 666.2 111.1, 666.2 111.6 Q 666.2 111.9, 666.0 112.2 Q 665.8 112.5, 665.5 112.7 Q 665.1 112.9, 664.7 112.9 Q 664.2 112.9, 663.8 112.7 Q 663.5 112.5, 663.2 112.2 L 663.5 111.8 Q 663.8 112.1, 664.0 112.2 Q 664.3 112.3, 664.7 112.3 Q 665.1 112.3, 665.3 112.1 Q 665.6 111.9, 665.6 111.5 Q 665.6 111.1, 665.3 110.9 Q 665.1 110.7, 664.5 110.7 L 664.2 110.7 L 664.2 110.2 L 664.5 110.2 Q 664.9 110.2, 665.2 110.0 Q 665.5 109.8, 665.5 109.4 Q 665.5 109.1, 665.3 108.9 Q 665.0 108.7, 664.7 108.7 Q 664.3 108.7, 664.1 108.9 Q 663.8 109.0, 663.6 109.3 L 663.2 109.1 Q 663.4 108.7, 663.7 108.5 Q 664.1 108.2, 664.7 108.2 Q 665.3 108.2, 665.7 108.5 Q 666.1 108.8, 666.1 109.4 Q 666.1 109.7, 665.9 110.0 Q 665.7 110.3, 665.3 110.4 " fill="#000000"/>
<path class="note" d="M 656.0 44.1 L 656.5 44.1 L 656.5 44.6 L 656.0 44.6 L 656.0 45.6 L 655.4 45.6 L 655.4 44.6 L 653.0 44.6 L 653.0 44.2 L 655.0 41.1 L 656.0 41.1 L 656.0 44.1 M 653.8 44.1 L 655.4 44.1 L 655.4 41.5 L 653.8 44.1 " fill="#000000"/>
<path class="note" d="M 729.3 116.5 Q 729.7 116.5, 730.0 116.7 Q 730.4 116.8, 730.6 117.1 Q 730.7 117.5, 730.7 117.9 Q 730.7 118.4, 730.5 118.7 Q 730.3 119.0, 729.9 119.2 Q 729.5 119.4, 729.1 119.4 Q 728.7 119.4, 728.3 119.2 Q 727.9 119.1, 727.7 118.8 L 728.1 118.4 Q 728.3 118.6, 728.6 118.7 Q 728.9 118.9, 729.1 118.9 Q 729.5 118.9, 729.8 118.6 Q 730.1 118.4, 730.1 117.9 Q 730.1 117.4, 729.8 117.2 Q 729.5 117.0, 729.1 117.0 Q 728.7 117.0, 728.3 117.1 L 727.9 117.0 L 728.1 114.8 L 730.5 114.8 L 730.4 115.3 L 728.7 115.3 L 728.5 116.7 Q 728.9 116.5, 729.3 116.5 " fill="#000000"/>
<path d="M 683.3 194.2 Q 681.2 194.2, 680.2 192.7 Q 679.2 191.2, 679.2 188.4 Q 679.2 185.7, 680.2 184.2 Q 681.2 182.7, 683.3 182.7 Q 685.4 182.7, 686.4 184.2 Q 687.4 185.7, 687.4 188.4 Q 687.4 191.2, 686.4 192.7 Q 685.4 194.2, 683.3 194.2 M 683.3 193.0 Q 684.5 193.0, 685.2 191.8 Q 685.8 190.7, 685.8 188.4 Q 685.8 186.2, 685.2 185.1 Q 684.5 183.9, 683.3 183.9 Q 682.1 183.9, 681.4 185.1 Q 680.8 186.2, 680.8 188.4 Q 680.8 190.7, 681.4 191.8 Q 682.1 193.0, 683.3 193.0 " fill="#000000"/>
<path d="M 688.5 192.5 L 690.1 192.5 L 690.1 194.1 L 688.5 194.1 L 688.5 192.5 " fill="#000000"/>
<path d="M 691.6 192.8 L 694.0 192.8 L 694.0 184.4 L 691.3 185.2 L 690.9 184.3 L 694.4 182.7 L 695.6 182.9 L 695.6 192.8 L 697.8 192.8 L 697.8 194.1 L 691.6 194.1 L 691.6 192.8 " fill="#000000"/>
<path d="M 699.3 192.8 L 701.7 192.8 L 701.7 184.4 L 699.0 185.2 L 698.6 184.3 L 702.1 182.7 L 703.2 182.9 L 703.2 192.8 L 705.5 192.8 L 705.5 194.1 L 699.3 194.1 L 699.3 192.8 " fill="#000000"/>
<path d="M 712.2 188.1 Q 713.3 188.6, 713.9 189.2 Q 714.5 189.9, 714.5 191.0 Q 714.5 192.0, 714.0 192.7 Q 713.5 193.5, 712.6 193.9 Q 711.7 194.3, 710.5 194.3 Q 708.6 194.3, 707.6 193.4 Q 706.5 192.5, 706.5 191.0 Q 706.5 190.1, 706.9 189.4 Q 707.4 188.7, 708.4 188.2 Q 707.7 187.7, 707.3 187.1 Q 706.9 186.5, 706.9 185.6 Q 706.9 184.2, 707.8 183.4 Q 708.8 182.7, 710.5 182.7 Q 712.1 182.7, 713.1 183.4 Q 714.0 184.2, 714.0 185.6 Q 714.0 186.4, 713.6 187.0 Q 713.1 187.6, 712.2 188.1 M 710.5 183.9 Q 709.5 183.9, 709.0 184.3 Q 708.5 184.8, 708.5 185.6 Q 708.5 186.1, 708.8 186.5 Q 709.2 186.9, 709.7 187.2 Q 710.2 187.4, 711.2 187.7 Q 711.9 187.2, 712.1 186.7 Q 712.4 186.2, 712.4 185.6 Q 712.4 184.8, 711.9 184.3 Q 711.4 183.9, 710.5 183.9 M 710.5 193.1 Q 711.6 193.1, 712.2 192.5 Q 712.9 191.9, 712.9 191.0 Q 712.9 190.4, 712.5 190.0 Q 712.2 189.6, 711.7 189.4 Q 711.2 189.2, 710.3 188.9 L 709.6 188.6 Q 708.8 189.1, 708.4 189.7 Q 708.1 190.3, 708.1 191.0 Q 708.1 191.9, 708.7 192.5 Q 709.4 193.1, 710.5 193.1 " fill="#000000"/>
<path class="bond-0 atom-0 atom-1" d="M 140.3,259.9 L 115.2,279.6" style="fill:none;fill-rule:evenodd;stroke:#000000;stroke-width:2.0px;stroke-linecap:butt;stroke-linejoin:miter;stroke-opacity:1"/>
<path class="bond-1 atom-1 atom-2" d="M 115.2,279.6 L 102.8,274.6" style="fill:none;fill-rule:evenodd;stroke:#000000;stroke-width:2.0px;stroke-linecap:butt;stroke-linejoin:miter;stroke-opacity:1"/>
<path class="bond-1 atom-1 atom-2" d="M 102.8,274.6 L 90.5,269.7" style="fill:none;fill-rule:evenodd;stroke:#FF0000;stroke-width:2.0px;stroke-linecap:butt;stroke-linejoin:miter;stroke-opacity:1"/>
<path class="bond-4 atom-1 atom-5" d="M 115.2,279.6 L 117.0,292.7" style="fill:none;fill-rule:evenodd;stroke:#000000;stroke-width:2.0px;stroke-linecap:butt;stroke-linejoin:miter;stroke-opacity:1"/>
<path class="bond-4 atom-1 atom-5" d="M 117.0,292.7 L 118.9,305.9" style="fill:none;fill-rule:evenodd;stroke:#33CCCC;stroke-width:2.0px;stroke-linecap:butt;stroke-linejoin:miter;stroke-opacity:1"/>
<path class="bond-2 atom-2 atom-3" d="M 80.6,271.6 L 70.5,279.5" style="fill:none;fill-rule:evenodd;stroke:#FF0000;stroke-width:2.0px;stroke-linecap:butt;stroke-linejoin:miter;stroke-opacity:1"/>
<path class="bond-2 atom-2 atom-3" d="M 70.5,279.5 L 60.5,287.4" style="fill:none;fill-rule:evenodd;stroke:#000000;stroke-width:2.0px;stroke-linecap:butt;stroke-linejoin:miter;stroke-opacity:1"/>
<path class="bond-3 atom-3 atom-4" d="M 60.5,287.4 L 47.4,282.2" style="fill:none;fill-rule:evenodd;stroke:#000000;stroke-width:2.0px;stroke-linecap:butt;stroke-linejoin:miter;stroke-opacity:1"/>
<path class="bond-3 atom-3 atom-4" d="M 47.4,282.2 L 34.3,276.9" style="fill:none;fill-rule:evenodd;stroke:#33CCCC;stroke-width:2.0px;stroke-linecap:butt;stroke-linejoin:miter;stroke-opacity:1"/>
<path class="atom-2" d="M 81.4 267.7 Q 81.4 265.6, 82.5 264.4 Q 83.5 263.1, 85.5 263.1 Q 87.5 263.1, 88.6 264.4 Q 89.7 265.6, 89.7 267.7 Q 89.7 269.9, 88.6 271.2 Q 87.5 272.4, 85.5 272.4 Q 83.6 272.4, 82.5 271.2 Q 81.4 269.9, 81.4 267.7 M 85.5 271.4 Q 86.9 271.4, 87.7 270.5 Q 88.4 269.5, 88.4 267.7 Q 88.4 266.0, 87.7 265.1 Q 86.9 264.2, 85.5 264.2 Q 84.2 264.2, 83.4 265.1 Q 82.7 265.9, 82.7 267.7 Q 82.7 269.6, 83.4 270.5 Q 84.2 271.4, 85.5 271.4 " fill="#FF0000"/>
<path class="atom-4" d="M 28.2 271.0 L 33.5 271.0 L 33.5 272.1 L 29.4 272.1 L 29.4 274.8 L 33.1 274.8 L 33.1 275.8 L 29.4 275.8 L 29.4 280.1 L 28.2 280.1 L 28.2 271.0 " fill="#33CCCC"/>
<path class="atom-5" d="M 117.0 306.7 L 122.4 306.7 L 122.4 307.7 L 118.2 307.7 L 118.2 310.4 L 121.9 310.4 L 121.9 311.5 L 118.2 311.5 L 118.2 315.7 L 117.0 315.7 L 117.0 306.7 " fill="#33CCCC"/>
<path class="note" d="M 137.0 258.0 Q 136.1 258.0, 135.7 257.4 Q 135.3 256.8, 135.3 255.7 Q 135.3 254.6, 135.7 254.0 Q 136.1 253.4, 137.0 253.4 Q 137.8 253.4, 138.2 254.0 Q 138.6 254.6, 138.6 255.7 Q 138.6 256.8, 138.2 257.4 Q 137.8 258.0, 137.0 258.0 M 137.0 257.5 Q 137.5 257.5, 137.7 257.1 Q 138.0 256.6, 138.0 255.7 Q 138.0 254.8, 137.7 254.4 Q 137.5 253.9, 137.0 253.9 Q 136.5 253.9, 136.2 254.4 Q 136.0 254.8, 136.0 255.7 Q 136.0 256.6, 136.2 257.1 Q 136.5 257.5, 137.0 257.5 " fill="#000000"/>
<path class="note" d="M 113.3 276.1 L 114.3 276.1 L 114.3 272.7 L 113.2 273.0 L 113.0 272.7 L 114.4 272.0 L 114.9 272.1 L 114.9 276.1 L 115.8 276.1 L 115.8 276.6 L 113.3 276.6 L 113.3 276.1 " fill="#000000"/>
<path class="note" d="M 82.5 255.8 Q 82.7 255.4, 83.1 255.1 Q 83.5 254.9, 84.0 254.9 Q 84.7 254.9, 85.1 255.3 Q 85.5 255.6, 85.5 256.3 Q 85.5 257.0, 85.0 257.6 Q 84.5 258.2, 83.5 259.0 L 85.6 259.0 L 85.6 259.5 L 82.5 259.5 L 82.5 259.0 Q 83.4 258.4, 83.9 258.0 Q 84.4 257.5, 84.6 257.1 Q 84.8 256.7, 84.8 256.3 Q 84.8 255.9, 84.6 255.6 Q 84.4 255.4, 84.0 255.4 Q 83.7 255.4, 83.4 255.6 Q 83.2 255.7, 83.0 256.0 L 82.5 255.8 " fill="#000000"/>
<path class="note" d="M 61.9 292.6 Q 62.3 292.7, 62.5 293.0 Q 62.7 293.3, 62.7 293.7 Q 62.7 294.1, 62.5 294.4 Q 62.3 294.7, 62.0 294.9 Q 61.6 295.0, 61.2 295.0 Q 60.7 295.0, 60.3 294.9 Q 60.0 294.7, 59.7 294.3 L 60.1 294.0 Q 60.3 294.3, 60.6 294.4 Q 60.8 294.5, 61.2 294.5 Q 61.6 294.5, 61.8 294.3 Q 62.1 294.1, 62.1 293.7 Q 62.1 293.3, 61.8 293.1 Q 61.6 292.8, 61.0 292.8 L 60.7 292.8 L 60.7 292.4 L 61.0 292.4 Q 61.5 292.4, 61.7 292.2 Q 62.0 292.0, 62.0 291.6 Q 62.0 291.3, 61.8 291.1 Q 61.6 290.9, 61.2 290.9 Q 60.8 290.9, 60.6 291.0 Q 60.3 291.2, 60.2 291.5 L 59.7 291.3 Q 59.9 290.9, 60.3 290.7 Q 60.7 290.4, 61.2 290.4 Q 61.9 290.4, 62.2 290.7 Q 62.6 291.0, 62.6 291.6 Q 62.6 291.9, 62.4 292.2 Q 62.2 292.4, 61.9 292.6 " fill="#000000"/>
<path class="note" d="M 22.2 272.3 L 22.7 272.3 L 22.7 272.8 L 22.2 272.8 L 22.2 273.8 L 21.6 273.8 L 21.6 272.8 L 19.2 272.8 L 19.2 272.4 L 21.2 269.3 L 22.2 269.3 L 22.2 272.3 M 20.0 272.3 L 21.6 272.3 L 21.6 269.7 L 20.0 272.3 " fill="#000000"/>
<path class="note" d="M 121.3 321.1 Q 121.7 321.1, 122.0 321.3 Q 122.4 321.5, 122.5 321.8 Q 122.7 322.1, 122.7 322.5 Q 122.7 323.0, 122.5 323.3 Q 122.3 323.7, 121.9 323.8 Q 121.5 324.0, 121.1 324.0 Q 120.7 324.0, 120.3 323.9 Q 119.9 323.7, 119.7 323.4 L 120.0 323.0 Q 120.3 323.2, 120.5 323.4 Q 120.8 323.5, 121.1 323.5 Q 121.5 323.5, 121.8 323.2 Q 122.1 323.0, 122.1 322.5 Q 122.1 322.1, 121.8 321.8 Q 121.5 321.6, 121.1 321.6 Q 120.7 321.6, 120.3 321.8 L 119.9 321.6 L 120.1 319.4 L 122.4 319.4 L 122.4 319.9 L 120.6 319.9 L 120.5 321.3 Q 120.9 321.1, 121.3 321.1 " fill="#000000"/>
<path d="M 82.7 394.2 Q 80.6 394.2, 79.6 392.7 Q 78.5 391.2, 78.5 388.4 Q 78.5 385.7, 79.6 384.2 Q 80.6 382.7, 82.7 382.7 Q 84.8 382.7, 85.8 384.2 Q 86.8 385.7, 86.8 388.4 Q 86.8 391.2, 85.8 392.7 Q 84.8 394.2, 82.7 394.2 M 82.7 393.0 Q 83.9 393.0, 84.6 391.8 Q 85.2 390.7, 85.2 388.4 Q 85.2 386.2, 84.6 385.1 Q 83.9 383.9, 82.7 383.9 Q 81.5 383.9, 80.8 385.1 Q 80.1 386.2, 80.1 388.4 Q 80.1 390.7, 80.8 391.8 Q 81.5 393.0, 82.7 393.0 " fill="#000000"/>
<path d="M 87.9 392.5 L 89.5 392.5 L 89.5 394.1 L 87.9 394.1 L 87.9 392.5 " fill="#000000"/>
<path d="M 90.9 392.8 L 93.4 392.8 L 93.4 384.4 L 90.7 385.2 L 90.3 384.3 L 93.8 382.7 L 94.9 382.9 L 94.9 392.8 L 97.2 392.8 L 97.2 394.1 L 90.9 394.1 L 90.9 392.8 " fill="#000000"/>
<path d="M 103.9 388.1 Q 105.0 388.6, 105.6 389.2 Q 106.1 389.9, 106.1 391.0 Q 106.1 392.0, 105.7 392.7 Q 105.2 393.5, 104.3 393.9 Q 103.4 394.3, 102.2 394.3 Q 100.3 394.3, 99.2 393.4 Q 98.1 392.5, 98.1 391.0 Q 98.1 390.1, 98.6 389.4 Q 99.1 388.7, 100.1 388.2 Q 99.4 387.7, 99.0 387.1 Q 98.6 386.5, 98.6 385.6 Q 98.6 384.2, 99.5 383.4 Q 100.5 382.7, 102.1 382.7 Q 103.8 382.7, 104.8 383.4 Q 105.7 384.2, 105.7 385.6 Q 105.7 386.4, 105.3 387.0 Q 104.8 387.6, 103.9 388.1 M 102.1 383.9 Q 101.2 383.9, 100.7 384.3 Q 100.2 384.8, 100.2 385.6 Q 100.2 386.1, 100.5 386.5 Q 100.9 386.9, 101.4 387.2 Q 101.9 387.4, 102.9 387.7 Q 103.5 387.2, 103.8 386.7 Q 104.1 386.2, 104.1 385.6 Q 104.1 384.8, 103.6 384.3 Q 103.1 383.9, 102.1 383.9 M 102.2 393.1 Q 103.3 393.1, 103.9 392.5 Q 104.5 391.9, 104.5 391.0 Q 104.5 390.4, 104.2 390.0 Q 103.9 389.6, 103.4 389.4 Q 102.9 389.2, 102.0 388.9 L 101.3 388.6 Q 100.5 389.1, 100.1 389.7 Q 99.7 390.3, 99.7 391.0 Q 99.7 391.9, 100.4 392.5 Q 101.1 393.1, 102.2 393.1 " fill="#000000"/>
<path d="M 107.0 384.9 Q 107.4 383.9, 108.4 383.3 Q 109.4 382.7, 110.8 382.7 Q 112.5 382.7, 113.4 383.6 Q 114.4 384.5, 114.4 386.2 Q 114.4 387.8, 113.1 389.4 Q 111.9 391.0, 109.3 392.8 L 114.6 392.8 L 114.6 394.1 L 106.9 394.1 L 106.9 393.0 Q 109.1 391.5, 110.3 390.4 Q 111.6 389.3, 112.2 388.3 Q 112.8 387.3, 112.8 386.2 Q 112.8 385.2, 112.2 384.5 Q 111.7 383.9, 110.8 383.9 Q 109.8 383.9, 109.2 384.3 Q 108.6 384.7, 108.2 385.5 L 107.0 384.9 " fill="#000000"/>
<path class="bond-0 atom-0 atom-1" d="M 209.1,287.1 L 220.4,280.5" style="fill:none;fill-rule:evenodd;stroke:#000000;stroke-width:2.0px;stroke-linecap:butt;stroke-linejoin:miter;stroke-opacity:1"/>
<path class="bond-0 atom-0 atom-1" d="M 220.4,280.5 L 231.8,274.0" style="fill:none;fill-rule:evenodd;stroke:#FF0000;stroke-width:2.0px;stroke-linecap:butt;stroke-linejoin:miter;stroke-opacity:1"/>
<path class="bond-1 atom-1 atom-2" d="M 241.7,274.0 L 253.0,280.5" style="fill:none;fill-rule:evenodd;stroke:#FF0000;stroke-width:2.0px;stroke-linecap:butt;stroke-linejoin:miter;stroke-opacity:1"/>
<path class="bond-1 atom-1 atom-2" d="M 253.0,280.5 L 264.4,287.1" style="fill:none;fill-rule:evenodd;stroke:#000000;stroke-width:2.0px;stroke-linecap:butt;stroke-linejoin:miter;stroke-opacity:1"/>
<path class="bond-2 atom-2 atom-3" d="M 264.4,287.1 L 292.0,271.1" style="fill:none;fill-rule:evenodd;stroke:#000000;stroke-width:2.0px;stroke-linecap:butt;stroke-linejoin:miter;stroke-opacity:1"/>
<path class="bond-3 atom-3 atom-4" d="M 292.0,271.1 L 303.3,277.6" style="fill:none;fill-rule:evenodd;stroke:#000000;stroke-width:2.0px;stroke-linecap:butt;stroke-linejoin:miter;stroke-opacity:1"/>
<path class="bond-3 atom-3 atom-4" d="M 303.3,277.6 L 314.7,284.2" style="fill:none;fill-rule:evenodd;stroke:#FF0000;stroke-width:2.0px;stroke-linecap:butt;stroke-linejoin:miter;stroke-opacity:1"/>
<path class="bond-4 atom-4 atom-5" d="M 324.6,284.2 L 335.9,277.6" style="fill:none;fill-rule:evenodd;stroke:#FF0000;stroke-width:2.0px;stroke-linecap:butt;stroke-linejoin:miter;stroke-opacity:1"/>
<path class="bond-4 atom-4 atom-5" d="M 335.9,277.6 L 347.3,271.1" style="fill:none;fill-rule:evenodd;stroke:#000000;stroke-width:2.0px;stroke-linecap:butt;stroke-linejoin:miter;stroke-opacity:1"/>
<path class="bond-5 atom-5 atom-6" d="M 347.3,271.1 L 359.3,278.1" style="fill:none;fill-rule:evenodd;stroke:#000000;stroke-width:2.0px;stroke-linecap:butt;stroke-linejoin:miter;stroke-opacity:1"/>
<path class="bond-5 atom-5 atom-6" d="M 359.3,278.1 L 371.4,285.0" style="fill:none;fill-rule:evenodd;stroke:#33CCCC;stroke-width:2.0px;stroke-linecap:butt;stroke-linejoin:miter;stroke-opacity:1"/>
<path class="atom-1" d="M 232.6 271.1 Q 232.6 269.0, 233.6 267.7 Q 234.7 266.5, 236.7 266.5 Q 238.7 266.5, 239.8 267.7 Q 240.9 269.0, 240.9 271.1 Q 240.9 273.3, 239.8 274.6 Q 238.7 275.8, 236.7 275.8 Q 234.7 275.8, 233.6 274.6 Q 232.6 273.3, 232.6 271.1 M 236.7 274.8 Q 238.1 274.8, 238.8 273.9 Q 239.6 272.9, 239.6 271.1 Q 239.6 269.4, 238.8 268.5 Q 238.1 267.6, 236.7 267.6 Q 235.3 267.6, 234.6 268.4 Q 233.9 269.3, 233.9 271.1 Q 233.9 273.0, 234.6 273.9 Q 235.3 274.8, 236.7 274.8 " fill="#FF0000"/>
<path class="atom-4" d="M 315.5 287.1 Q 315.5 284.9, 316.5 283.7 Q 317.6 282.5, 319.6 282.5 Q 321.6 282.5, 322.7 283.7 Q 323.8 284.9, 323.8 287.1 Q 323.8 289.3, 322.7 290.5 Q 321.6 291.8, 319.6 291.8 Q 317.6 291.8, 316.5 290.5 Q 315.5 289.3, 315.5 287.1 M 319.6 290.7 Q 321.0 290.7, 321.7 289.8 Q 322.5 288.9, 322.5 287.1 Q 322.5 285.3, 321.7 284.4 Q 321.0 283.5, 319.6 283.5 Q 318.2 283.5, 317.5 284.4 Q 316.8 285.3, 316.8 287.1 Q 316.8 288.9, 317.5 289.8 Q 318.2 290.7, 319.6 290.7 " fill="#FF0000"/>
<path class="atom-6" d="M 372.2 282.5 L 377.6 282.5 L 377.6 283.6 L 373.4 283.6 L 373.4 286.3 L 377.1 286.3 L 377.1 287.4 L 373.4 287.4 L 373.4 291.6 L 372.2 291.6 L 372.2 282.5 " fill="#33CCCC"/>
<path class="note" d="M 211.7 294.0 Q 210.9 294.0, 210.5 293.4 Q 210.1 292.8, 210.1 291.7 Q 210.1 290.6, 210.5 290.0 Q 210.9 289.4, 211.7 289.4 Q 212.6 289.4, 213.0 290.0 Q 213.4 290.6, 213.4 291.7 Q 213.4 292.8, 213.0 293.4 Q 212.6 294.0, 211.7 294.0 M 211.7 293.5 Q 212.2 293.5, 212.5 293.0 Q 212.8 292.6, 212.8 291.7 Q 212.8 290.8, 212.5 290.3 Q 212.2 289.9, 211.7 289.9 Q 211.3 289.9, 211.0 290.3 Q 210.7 290.8, 210.7 291.7 Q 210.7 292.6, 211.0 293.0 Q 211.3 293.5, 211.7 293.5 " fill="#000000"/>
<path class="note" d="M 235.6 262.2 L 236.6 262.2 L 236.6 258.8 L 235.5 259.2 L 235.4 258.8 L 236.7 258.2 L 237.2 258.3 L 237.2 262.2 L 238.1 262.2 L 238.1 262.7 L 235.6 262.7 L 235.6 262.2 " fill="#000000"/>
<path class="note" d="M 262.8 291.0 Q 263.0 290.6, 263.4 290.3 Q 263.8 290.1, 264.4 290.1 Q 265.0 290.1, 265.4 290.5 Q 265.8 290.8, 265.8 291.5 Q 265.8 292.2, 265.3 292.8 Q 264.8 293.4, 263.8 294.1 L 265.9 294.1 L 265.9 294.7 L 262.8 294.7 L 262.8 294.2 Q 263.7 293.6, 264.2 293.2 Q 264.7 292.7, 264.9 292.3 Q 265.2 291.9, 265.2 291.5 Q 265.2 291.1, 264.9 290.8 Q 264.7 290.6, 264.4 290.6 Q 264.0 290.6, 263.7 290.7 Q 263.5 290.9, 263.3 291.2 L 262.8 291.0 " fill="#000000"/>
<path class="note" d="M 292.6 265.7 Q 293.1 265.8, 293.3 266.1 Q 293.5 266.4, 293.5 266.8 Q 293.5 267.2, 293.3 267.5 Q 293.1 267.8, 292.8 268.0 Q 292.4 268.1, 292.0 268.1 Q 291.5 268.1, 291.1 268.0 Q 290.8 267.8, 290.5 267.4 L 290.8 267.1 Q 291.1 267.4, 291.4 267.5 Q 291.6 267.6, 292.0 267.6 Q 292.4 267.6, 292.6 267.4 Q 292.9 267.2, 292.9 266.8 Q 292.9 266.4, 292.6 266.2 Q 292.4 265.9, 291.8 265.9 L 291.5 265.9 L 291.5 265.5 L 291.8 265.5 Q 292.3 265.5, 292.5 265.3 Q 292.8 265.1, 292.8 264.7 Q 292.8 264.4, 292.6 264.2 Q 292.3 264.0, 292.0 264.0 Q 291.6 264.0, 291.4 264.1 Q 291.1 264.3, 290.9 264.6 L 290.5 264.4 Q 290.7 264.0, 291.1 263.8 Q 291.4 263.5, 292.0 263.5 Q 292.6 263.5, 293.0 263.8 Q 293.4 264.1, 293.4 264.7 Q 293.4 265.0, 293.2 265.3 Q 293.0 265.5, 292.6 265.7 " fill="#000000"/>
<path class="note" d="M 320.8 298.4 L 321.4 298.4 L 321.4 298.9 L 320.8 298.9 L 320.8 299.9 L 320.2 299.9 L 320.2 298.9 L 317.9 298.9 L 317.9 298.5 L 319.9 295.4 L 320.8 295.4 L 320.8 298.4 M 318.6 298.4 L 320.2 298.4 L 320.2 295.8 L 318.6 298.4 " fill="#000000"/>
<path class="note" d="M 347.4 265.2 Q 347.8 265.2, 348.1 265.4 Q 348.4 265.6, 348.6 265.9 Q 348.8 266.2, 348.8 266.6 Q 348.8 267.1, 348.6 267.4 Q 348.3 267.7, 348.0 267.9 Q 347.6 268.1, 347.2 268.1 Q 346.8 268.1, 346.4 267.9 Q 346.0 267.8, 345.7 267.5 L 346.1 267.1 Q 346.3 267.3, 346.6 267.5 Q 346.9 267.6, 347.2 267.6 Q 347.6 267.6, 347.9 267.3 Q 348.1 267.1, 348.1 266.6 Q 348.1 266.1, 347.9 265.9 Q 347.6 265.7, 347.1 265.7 Q 346.8 265.7, 346.3 265.9 L 346.0 265.7 L 346.2 263.5 L 348.5 263.5 L 348.4 264.0 L 346.7 264.0 L 346.6 265.4 Q 347.0 265.2, 347.4 265.2 " fill="#000000"/>
<path class="note" d="M 384.3 291.8 Q 384.7 291.8, 385.0 292.0 Q 385.3 292.2, 385.5 292.5 Q 385.7 292.8, 385.7 293.2 Q 385.7 293.6, 385.5 294.0 Q 385.3 294.3, 384.9 294.5 Q 384.6 294.7, 384.1 294.7 Q 383.3 294.7, 382.9 294.2 Q 382.5 293.6, 382.5 292.5 Q 382.5 291.3, 383.0 290.7 Q 383.5 290.1, 384.5 290.1 Q 384.8 290.1, 385.0 290.2 Q 385.3 290.2, 385.5 290.3 L 385.2 290.8 Q 384.9 290.6, 384.5 290.6 Q 383.9 290.6, 383.5 291.0 Q 383.2 291.4, 383.2 292.3 Q 383.4 292.1, 383.7 292.0 Q 384.0 291.8, 384.3 291.8 M 384.2 294.2 Q 384.4 294.2, 384.6 294.1 Q 384.8 293.9, 384.9 293.7 Q 385.0 293.5, 385.0 293.2 Q 385.0 292.8, 384.8 292.6 Q 384.6 292.3, 384.2 292.3 Q 383.9 292.3, 383.6 292.5 Q 383.4 292.6, 383.2 292.8 Q 383.2 293.5, 383.4 293.8 Q 383.7 294.2, 384.2 294.2 " fill="#000000"/>
<path d="M 283.1 394.3 Q 281.1 394.3, 280.0 392.7 Q 279.0 391.2, 279.0 388.5 Q 279.0 385.7, 280.0 384.2 Q 281.0 382.7, 283.1 382.7 Q 285.2 382.7, 286.3 384.2 Q 287.3 385.7, 287.3 388.5 Q 287.3 391.2, 286.2 392.7 Q 285.2 394.3, 283.1 394.3 M 283.1 393.0 Q 284.4 393.0, 285.0 391.9 Q 285.7 390.7, 285.7 388.5 Q 285.7 386.2, 285.0 385.1 Q 284.4 384.0, 283.1 384.0 Q 281.9 384.0, 281.3 385.1 Q 280.6 386.2, 280.6 388.5 Q 280.6 390.7, 281.3 391.9 Q 281.9 393.0, 283.1 393.0 " fill="#000000"/>
<path d="M 288.3 392.5 L 289.9 392.5 L 289.9 394.1 L 288.3 394.1 L 288.3 392.5 " fill="#000000"/>
<path d="M 291.4 392.9 L 293.9 392.9 L 293.9 384.4 L 291.2 385.2 L 290.8 384.3 L 294.3 382.8 L 295.4 382.9 L 295.4 392.9 L 297.6 392.9 L 297.6 394.1 L 291.4 394.1 L 291.4 392.9 " fill="#000000"/>
<path d="M 303.8 384.1 L 297.9 384.1 L 297.9 382.8 L 305.4 382.8 L 305.4 384.0 L 300.9 394.1 L 299.3 394.1 L 303.8 384.1 " fill="#000000"/>
<path d="M 313.3 390.3 L 314.6 390.3 L 314.6 391.5 L 313.3 391.5 L 313.3 394.1 L 311.8 394.1 L 311.8 391.5 L 305.9 391.5 L 305.9 390.5 L 310.9 382.8 L 313.3 382.8 L 313.3 390.3 M 307.8 390.3 L 311.8 390.3 L 311.8 383.8 L 307.8 390.3 " fill="#000000"/>
<path class="bond-0 atom-0 atom-1" d="M 444.5,271.4 L 467.7,293.3" style="fill:none;fill-rule:evenodd;stroke:#000000;stroke-width:2.0px;stroke-linecap:butt;stroke-linejoin:miter;stroke-opacity:1"/>
<path class="bond-1 atom-1 atom-2" d="M 467.7,293.3 L 498.3,284.1" style="fill:none;fill-rule:evenodd;stroke:#000000;stroke-width:2.0px;stroke-linecap:butt;stroke-linejoin:miter;stroke-opacity:1"/>
<path class="bond-2 atom-2 atom-3" d="M 498.3,284.1 L 512.0,287.3" style="fill:none;fill-rule:evenodd;stroke:#000000;stroke-width:2.0px;stroke-linecap:butt;stroke-linejoin:miter;stroke-opacity:1"/>
<path class="bond-2 atom-2 atom-3" d="M 512.0,287.3 L 525.6,290.6" style="fill:none;fill-rule:evenodd;stroke:#CCCC00;stroke-width:2.0px;stroke-linecap:butt;stroke-linejoin:miter;stroke-opacity:1"/>
<path class="bond-4 atom-4 atom-2" d="M 516.5,264.8 L 507.4,274.4" style="fill:none;fill-rule:evenodd;stroke:#CCCC00;stroke-width:2.0px;stroke-linecap:butt;stroke-linejoin:miter;stroke-opacity:1"/>
<path class="bond-4 atom-4 atom-2" d="M 507.4,274.4 L 498.3,284.1" style="fill:none;fill-rule:evenodd;stroke:#000000;stroke-width:2.0px;stroke-linecap:butt;stroke-linejoin:miter;stroke-opacity:1"/>
<path class="bond-3 atom-3 atom-4" d="M 527.7,286.1 L 521.8,266.3" style="fill:none;fill-rule:evenodd;stroke:#CCCC00;stroke-width:2.0px;stroke-linecap:butt;stroke-linejoin:miter;stroke-opacity:1"/>
<path class="atom-3" d="M 526.8 294.5 Q 526.9 294.6, 527.3 294.7 Q 527.7 294.9, 528.2 295.0 Q 528.6 295.1, 529.1 295.1 Q 530.0 295.1, 530.5 294.7 Q 531.0 294.3, 531.0 293.6 Q 531.0 293.1, 530.7 292.8 Q 530.5 292.5, 530.1 292.3 Q 529.7 292.1, 529.1 292.0 Q 528.3 291.7, 527.8 291.5 Q 527.3 291.3, 527.0 290.8 Q 526.6 290.3, 526.6 289.5 Q 526.6 288.3, 527.4 287.6 Q 528.2 286.9, 529.7 286.9 Q 530.7 286.9, 531.9 287.4 L 531.6 288.4 Q 530.6 288.0, 529.7 288.0 Q 528.9 288.0, 528.4 288.3 Q 527.9 288.7, 527.9 289.3 Q 527.9 289.8, 528.1 290.1 Q 528.4 290.4, 528.8 290.5 Q 529.1 290.7, 529.7 290.9 Q 530.6 291.2, 531.0 291.4 Q 531.5 291.7, 531.9 292.2 Q 532.2 292.7, 532.2 293.6 Q 532.2 294.8, 531.4 295.5 Q 530.6 296.2, 529.2 296.2 Q 528.4 296.2, 527.7 296.0 Q 527.1 295.8, 526.4 295.5 L 526.8 294.5 " fill="#CCCC00"/>
<path class="atom-4" d="M 517.6 264.0 Q 517.7 264.0, 518.1 264.2 Q 518.5 264.4, 519.0 264.5 Q 519.5 264.6, 519.9 264.6 Q 520.8 264.6, 521.3 264.2 Q 521.8 263.8, 521.8 263.0 Q 521.8 262.5, 521.5 262.2 Q 521.3 261.9, 520.9 261.8 Q 520.5 261.6, 519.9 261.4 Q 519.1 261.2, 518.6 260.9 Q 518.1 260.7, 517.8 260.2 Q 517.4 259.7, 517.4 258.9 Q 517.4 257.8, 518.2 257.1 Q 519.0 256.4, 520.5 256.4 Q 521.6 256.4, 522.8 256.9 L 522.5 257.8 Q 521.4 257.4, 520.6 257.4 Q 519.7 257.4, 519.2 257.8 Q 518.7 258.1, 518.7 258.8 Q 518.7 259.2, 519.0 259.5 Q 519.2 259.8, 519.6 260.0 Q 519.9 260.2, 520.6 260.3 Q 521.4 260.6, 521.9 260.9 Q 522.3 261.1, 522.7 261.6 Q 523.0 262.1, 523.0 263.0 Q 523.0 264.3, 522.2 265.0 Q 521.4 265.6, 520.0 265.6 Q 519.2 265.6, 518.6 265.4 Q 518.0 265.3, 517.3 265.0 L 517.6 264.0 " fill="#CCCC00"/>
<path class="note" d="M 440.8 277.6 Q 440.0 277.6, 439.6 277.0 Q 439.2 276.4, 439.2 275.3 Q 439.2 274.2, 439.6 273.6 Q 440.0 273.0, 440.8 273.0 Q 441.7 273.0, 442.1 273.6 Q 442.5 274.2, 442.5 275.3 Q 442.5 276.4, 442.1 277.0 Q 441.7 277.6, 440.8 277.6 M 440.8 277.1 Q 441.3 277.1, 441.6 276.6 Q 441.9 276.2, 441.9 275.3 Q 441.9 274.4, 441.6 274.0 Q 441.3 273.5, 440.8 273.5 Q 440.4 273.5, 440.1 274.0 Q 439.8 274.4, 439.8 275.3 Q 439.8 276.2, 440.1 276.6 Q 440.4 277.1, 440.8 277.1 " fill="#000000"/>
<path class="note" d="M 465.4 300.2 L 466.4 300.2 L 466.4 296.8 L 465.3 297.2 L 465.1 296.8 L 466.5 296.2 L 467.0 296.3 L 467.0 300.2 L 467.9 300.2 L 467.9 300.7 L 465.4 300.7 L 465.4 300.2 " fill="#000000"/>
<path class="note" d="M 496.9 288.0 Q 497.1 287.6, 497.5 287.4 Q 497.9 287.1, 498.4 287.1 Q 499.1 287.1, 499.5 287.5 Q 499.9 287.9, 499.9 288.5 Q 499.9 289.2, 499.4 289.8 Q 498.9 290.4, 497.9 291.2 L 500.0 291.2 L 500.0 291.7 L 496.9 291.7 L 496.9 291.3 Q 497.8 290.7, 498.2 290.2 Q 498.8 289.8, 499.0 289.4 Q 499.2 289.0, 499.2 288.6 Q 499.2 288.1, 499.0 287.9 Q 498.8 287.6, 498.4 287.6 Q 498.1 287.6, 497.8 287.8 Q 497.6 287.9, 497.4 288.3 L 496.9 288.0 " fill="#000000"/>
<path class="note" d="M 537.7 298.6 Q 538.2 298.8, 538.4 299.0 Q 538.6 299.3, 538.6 299.8 Q 538.6 300.2, 538.4 300.5 Q 538.2 300.7, 537.9 300.9 Q 537.5 301.1, 537.0 301.1 Q 536.6 301.1, 536.2 300.9 Q 535.8 300.7, 535.6 300.4 L 535.9 300.0 Q 536.2 300.3, 536.4 300.4 Q 536.7 300.6, 537.0 300.6 Q 537.5 300.6, 537.7 300.3 Q 537.9 300.1, 537.9 299.8 Q 537.9 299.3, 537.7 299.1 Q 537.4 298.9, 536.9 298.9 L 536.6 298.9 L 536.6 298.4 L 536.8 298.4 Q 537.3 298.4, 537.6 298.2 Q 537.9 298.0, 537.9 297.6 Q 537.9 297.3, 537.6 297.1 Q 537.4 296.9, 537.0 296.9 Q 536.7 296.9, 536.4 297.1 Q 536.2 297.2, 536.0 297.6 L 535.6 297.3 Q 535.7 296.9, 536.1 296.7 Q 536.5 296.4, 537.0 296.4 Q 537.7 296.4, 538.1 296.8 Q 538.5 297.1, 538.5 297.6 Q 538.5 298.0, 538.3 298.2 Q 538.1 298.5, 537.7 298.6 " fill="#000000"/>
<path class="note" d="M 523.8 251.2 L 524.3 251.2 L 524.3 251.7 L 523.8 251.7 L 523.8 252.8 L 523.2 252.8 L 523.2 251.7 L 520.9 251.7 L 520.9 251.3 L 522.8 248.3 L 523.8 248.3 L 523.8 251.2 M 521.6 251.2 L 523.2 251.2 L 523.2 248.7 L 521.6 251.2 " fill="#000000"/>
<path d="M 487.4 394.3 Q 485.3 394.3, 484.3 392.7 Q 483.2 391.2, 483.2 388.5 Q 483.2 385.7, 484.3 384.2 Q 485.3 382.7, 487.4 382.7 Q 489.5 382.7, 490.5 384.2 Q 491.5 385.7, 491.5 388.5 Q 491.5 391.2, 490.5 392.7 Q 489.5 394.3, 487.4 394.3 M 487.4 393.0 Q 488.6 393.0, 489.3 391.9 Q 489.9 390.7, 489.9 388.5 Q 489.9 386.2, 489.3 385.1 Q 488.6 384.0, 487.4 384.0 Q 486.2 384.0, 485.5 385.1 Q 484.8 386.2, 484.8 388.5 Q 484.8 390.7, 485.5 391.9 Q 486.2 393.0, 487.4 393.0 " fill="#000000"/>
<path d="M 492.6 392.5 L 494.2 392.5 L 494.2 394.1 L 492.6 394.1 L 492.6 392.5 " fill="#000000"/>
<path d="M 495.7 392.9 L 498.1 392.9 L 498.1 384.4 L 495.4 385.2 L 495.0 384.3 L 498.5 382.8 L 499.6 382.9 L 499.6 392.9 L 501.9 392.9 L 501.9 394.1 L 495.7 394.1 L 495.7 392.9 " fill="#000000"/>
<path d="M 506.7 387.1 Q 507.7 387.1, 508.5 387.5 Q 509.3 387.9, 509.8 388.7 Q 510.3 389.5, 510.3 390.6 Q 510.3 391.7, 509.7 392.6 Q 509.1 393.4, 508.2 393.8 Q 507.3 394.3, 506.2 394.3 Q 505.2 394.3, 504.2 393.9 Q 503.3 393.5, 502.6 392.8 L 503.6 391.8 Q 504.1 392.4, 504.8 392.7 Q 505.5 393.0, 506.3 393.0 Q 507.3 393.0, 508.0 392.4 Q 508.7 391.7, 508.7 390.6 Q 508.7 389.4, 508.0 388.8 Q 507.3 388.3, 506.2 388.3 Q 505.2 388.3, 504.1 388.7 L 503.2 388.3 L 503.7 382.8 L 509.6 382.8 L 509.4 384.1 L 505.0 384.1 L 504.7 387.5 Q 505.7 387.1, 506.7 387.1 " fill="#000000"/>
<path class="bond-0 atom-0 atom-1" d="M 609.1,287.1 L 636.7,271.1" style="fill:none;fill-rule:evenodd;stroke:#000000;stroke-width:2.0px;stroke-linecap:butt;stroke-linejoin:miter;stroke-opacity:1"/>
<path class="bond-1 atom-1 atom-2" d="M 636.7,271.1 L 664.4,287.1" style="fill:none;fill-rule:evenodd;stroke:#000000;stroke-width:2.0px;stroke-linecap:butt;stroke-linejoin:miter;stroke-opacity:1"/>
<path class="bond-2 atom-2 atom-3" d="M 664.4,287.1 L 692.0,271.1" style="fill:none;fill-rule:evenodd;stroke:#000000;stroke-width:2.0px;stroke-linecap:butt;stroke-linejoin:miter;stroke-opacity:1"/>
<path class="bond-3 atom-3 atom-4" d="M 692.0,271.1 L 703.7,277.9" style="fill:none;fill-rule:evenodd;stroke:#000000;stroke-width:2.0px;stroke-linecap:butt;stroke-linejoin:miter;stroke-opacity:1"/>
<path class="bond-3 atom-3 atom-4" d="M 703.7,277.9 L 715.4,284.6" style="fill:none;fill-rule:evenodd;stroke:#0000FF;stroke-width:2.0px;stroke-linecap:butt;stroke-linejoin:miter;stroke-opacity:1"/>
<path class="bond-4 atom-4 atom-5" d="M 723.8,284.6 L 735.6,277.9" style="fill:none;fill-rule:evenodd;stroke:#0000FF;stroke-width:2.0px;stroke-linecap:butt;stroke-linejoin:miter;stroke-opacity:1"/>
<path class="bond-4 atom-4 atom-5" d="M 735.6,277.9 L 747.3,271.1" style="fill:none;fill-rule:evenodd;stroke:#000000;stroke-width:2.0px;stroke-linecap:butt;stroke-linejoin:miter;stroke-opacity:1"/>
<path class="bond-5 atom-5 atom-6" d="M 747.3,271.1 L 759.0,277.9" style="fill:none;fill-rule:evenodd;stroke:#000000;stroke-width:2.0px;stroke-linecap:butt;stroke-linejoin:miter;stroke-opacity:1"/>
<path class="bond-5 atom-5 atom-6" d="M 759.0,277.9 L 770.7,284.6" style="fill:none;fill-rule:evenodd;stroke:#0000FF;stroke-width:2.0px;stroke-linecap:butt;stroke-linejoin:miter;stroke-opacity:1"/>
<path class="atom-4" d="M 717.6 282.5 L 720.6 287.3 Q 720.9 287.8, 721.4 288.6 Q 721.8 289.5, 721.8 289.6 L 721.8 282.5 L 723.0 282.5 L 723.0 291.6 L 721.8 291.6 L 718.6 286.3 Q 718.3 285.7, 717.9 285.0 Q 717.5 284.3, 717.4 284.1 L 717.4 291.6 L 716.2 291.6 L 716.2 282.5 L 717.6 282.5 " fill="#0000FF"/>
<path class="atom-4" d="M 716.1 292.5 L 717.3 292.5 L 717.3 296.3 L 721.9 296.3 L 721.9 292.5 L 723.2 292.5 L 723.2 301.5 L 721.9 301.5 L 721.9 297.3 L 717.3 297.3 L 717.3 301.5 L 716.1 301.5 L 716.1 292.5 " fill="#0000FF"/>
<path class="atom-6" d="M 772.9 282.5 L 775.9 287.3 Q 776.1 287.8, 776.6 288.6 Q 777.1 289.5, 777.1 289.6 L 777.1 282.5 L 778.3 282.5 L 778.3 291.6 L 777.1 291.6 L 773.9 286.3 Q 773.5 285.7, 773.1 285.0 Q 772.7 284.3, 772.6 284.1 L 772.6 291.6 L 771.5 291.6 L 771.5 282.5 L 772.9 282.5 " fill="#0000FF"/>
<path class="atom-6" d="M 779.4 282.5 L 780.6 282.5 L 780.6 286.4 L 785.2 286.4 L 785.2 282.5 L 786.5 282.5 L 786.5 291.6 L 785.2 291.6 L 785.2 287.4 L 780.6 287.4 L 780.6 291.6 L 779.4 291.6 L 779.4 282.5 " fill="#0000FF"/>
<path class="atom-6" d="M 786.9 291.3 Q 787.1 290.7, 787.6 290.4 Q 788.2 290.1, 788.9 290.1 Q 789.8 290.1, 790.3 290.5 Q 790.8 291.0, 790.8 291.9 Q 790.8 292.8, 790.2 293.6 Q 789.5 294.4, 788.2 295.4 L 790.9 295.4 L 790.9 296.1 L 786.9 296.1 L 786.9 295.5 Q 788.0 294.7, 788.7 294.1 Q 789.3 293.6, 789.6 293.0 Q 790.0 292.5, 790.0 291.9 Q 790.0 291.4, 789.7 291.1 Q 789.4 290.7, 788.9 290.7 Q 788.4 290.7, 788.1 290.9 Q 787.8 291.1, 787.5 291.5 L 786.9 291.3 " fill="#0000FF"/>
<path class="note" d="M 611.7 294.0 Q 610.9 294.0, 610.5 293.4 Q 610.1 292.8, 610.1 291.7 Q 610.1 290.6, 610.5 290.0 Q 610.9 289.4, 611.7 289.4 Q 612.6 289.4, 613.0 290.0 Q 613.4 290.6, 613.4 291.7 Q 613.4 292.8, 613.0 293.4 Q 612.6 294.0, 611.7 294.0 M 611.7 293.5 Q 612.2 293.5, 612.5 293.0 Q 612.8 292.6, 612.8 291.7 Q 612.8 290.8, 612.5 290.3 Q 612.2 289.9, 611.7 289.9 Q 611.3 289.9, 611.0 290.3 Q 610.7 290.8, 610.7 291.7 Q 610.7 292.6, 611.0 293.0 Q 611.3 293.5, 611.7 293.5 " fill="#000000"/>
<path class="note" d="M 635.6 267.5 L 636.6 267.5 L 636.6 264.2 L 635.5 264.5 L 635.4 264.1 L 636.7 263.5 L 637.2 263.6 L 637.2 267.5 L 638.1 267.5 L 638.1 268.1 L 635.6 268.1 L 635.6 267.5 " fill="#000000"/>
<path class="note" d="M 662.8 291.0 Q 663.0 290.6, 663.4 290.3 Q 663.8 290.1, 664.4 290.1 Q 665.0 290.1, 665.4 290.5 Q 665.8 290.8, 665.8 291.5 Q 665.8 292.2, 665.3 292.8 Q 664.8 293.4, 663.8 294.1 L 665.9 294.1 L 665.9 294.7 L 662.8 294.7 L 662.8 294.2 Q 663.7 293.6, 664.2 293.2 Q 664.7 292.7, 664.9 292.3 Q 665.2 291.9, 665.2 291.5 Q 665.2 291.1, 664.9 290.8 Q 664.7 290.6, 664.4 290.6 Q 664.0 290.6, 663.7 290.7 Q 663.5 290.9, 663.3 291.2 L 662.8 291.0 " fill="#000000"/>
<path class="note" d="M 692.6 265.7 Q 693.1 265.8, 693.3 266.1 Q 693.5 266.4, 693.5 266.8 Q 693.5 267.2, 693.3 267.5 Q 693.1 267.8, 692.8 268.0 Q 692.4 268.1, 692.0 268.1 Q 691.5 268.1, 691.1 268.0 Q 690.8 267.8, 690.5 267.4 L 690.8 267.1 Q 691.1 267.4, 691.4 267.5 Q 691.6 267.6, 692.0 267.6 Q 692.4 267.6, 692.6 267.4 Q 692.9 267.2, 692.9 266.8 Q 692.9 266.4, 692.6 266.2 Q 692.4 265.9, 691.8 265.9 L 691.5 265.9 L 691.5 265.5 L 691.8 265.5 Q 692.3 265.5, 692.5 265.3 Q 692.8 265.1, 692.8 264.7 Q 692.8 264.4, 692.6 264.2 Q 692.3 264.0, 692.0 264.0 Q 691.6 264.0, 691.4 264.1 Q 691.1 264.3, 690.9 264.6 L 690.5 264.4 Q 690.7 264.0, 691.1 263.8 Q 691.4 263.5, 692.0 263.5 Q 692.6 263.5, 693.0 263.8 Q 693.4 264.1, 693.4 264.7 Q 693.4 265.0, 693.2 265.3 Q 693.0 265.5, 692.6 265.7 " fill="#000000"/>
<path class="note" d="M 720.8 277.1 L 721.4 277.1 L 721.4 277.6 L 720.8 277.6 L 720.8 278.7 L 720.2 278.7 L 720.2 277.6 L 717.9 277.6 L 717.9 277.2 L 719.9 274.2 L 720.8 274.2 L 720.8 277.1 M 718.6 277.1 L 720.2 277.1 L 720.2 274.6 L 718.6 277.1 " fill="#000000"/>
<path class="note" d="M 747.4 265.2 Q 747.8 265.2, 748.1 265.4 Q 748.4 265.6, 748.6 265.9 Q 748.8 266.2, 748.8 266.6 Q 748.8 267.1, 748.6 267.4 Q 748.3 267.7, 748.0 267.9 Q 747.6 268.1, 747.2 268.1 Q 746.8 268.1, 746.4 267.9 Q 746.0 267.8, 745.7 267.5 L 746.1 267.1 Q 746.3 267.3, 746.6 267.5 Q 746.9 267.6, 747.2 267.6 Q 747.6 267.6, 747.9 267.3 Q 748.1 267.1, 748.1 266.6 Q 748.1 266.1, 747.9 265.9 Q 747.6 265.7, 747.1 265.7 Q 746.8 265.7, 746.3 265.9 L 746.0 265.7 L 746.2 263.5 L 748.5 263.5 L 748.4 264.0 L 746.7 264.0 L 746.6 265.4 Q 747.0 265.2, 747.4 265.2 " fill="#000000"/>
<path class="note" d="M 784.3 291.8 Q 784.7 291.8, 785.0 292.0 Q 785.3 292.2, 785.5 292.5 Q 785.7 292.8, 785.7 293.2 Q 785.7 293.6, 785.5 294.0 Q 785.3 294.3, 784.9 294.5 Q 784.6 294.7, 784.1 294.7 Q 783.3 294.7, 782.9 294.2 Q 782.5 293.6, 782.5 292.5 Q 782.5 291.3, 783.0 290.7 Q 783.5 290.1, 784.5 290.1 Q 784.8 290.1, 785.0 290.2 Q 785.3 290.2, 785.5 290.3 L 785.2 290.8 Q 784.9 290.6, 784.5 290.6 Q 783.9 290.6, 783.5 291.0 Q 783.2 291.4, 783.2 292.3 Q 783.4 292.1, 783.7 292.0 Q 784.0 291.8, 784.3 291.8 M 784.2 294.2 Q 784.4 294.2, 784.6 294.1 Q 784.8 293.9, 784.9 293.7 Q 785.0 293.5, 785.0 293.2 Q 785.0 292.8, 784.8 292.6 Q 784.6 292.3, 784.2 292.3 Q 783.9 292.3, 783.6 292.5 Q 783.4 292.6, 783.2 292.8 Q 783.2 293.5, 783.4 293.8 Q 783.7 294.2, 784.2 294.2 " fill="#000000"/>
<path d="M 637.4,268.2 L 637.4,268.2 L 637.4,268.1 L 637.3,268.1 L 637.3,268.0 L 637.3,268.0 L 637.3,267.9 L 637.2,267.9 L 637.2,267.8 L 637.2,267.8 L 637.1,267.7 L 637.1,267.7 L 637.1,267.7 L 637.0,267.7 L 637.0,267.6 L 636.9,267.6 L 636.8,267.6 L 636.8,267.6 L 636.7,267.6 L 636.7,267.6 L 636.6,267.6 L 636.6,267.6 L 636.5,267.6 L 636.5,267.6 L 636.4,267.7 L 636.4,267.7 L 636.3,267.7 L 636.3,267.8 L 636.2,267.8 L 636.2,267.8 L 636.2,267.9 L 636.2,267.9 L 636.1,268.0 L 636.1,268.0 L 636.1,268.1 L 636.1,268.1 L 636.1,268.2 L 636.1,268.3 L 636.1,268.3 L 636.1,268.4 L 636.1,268.4 L 636.1,268.5 L 636.2,268.5 L 636.2,268.6 L 636.2,268.6 L 636.2,268.7 L 636.3,268.7 L 636.3,268.7 L 636.4,268.8 L 636.4,268.8 L 636.5,268.8 L 636.5,268.8 L 636.6,268.8 L 636.6,268.9 L 636.7,268.9 L 636.7,268.9 L 636.8,268.9 L 636.8,268.9 L 636.9,268.8 L 637.0,268.8 L 637.0,268.8 L 637.1,268.8 L 637.1,268.7 L 637.1,268.7 L 637.2,268.7 L 637.2,268.6 L 637.2,268.6 L 637.3,268.5 L 637.3,268.5 L 637.3,268.4 L 637.3,268.4 L 637.4,268.3 L 637.4,268.3 L 637.4,268.2 L 636.7,268.2 Z" style="fill:#000000;fill-rule:evenodd;fill-opacity:1;stroke:#000000;stroke-width:0.0px;stroke-linecap:butt;stroke-linejoin:miter;stroke-opacity:1;"/>
<path d="M 682.2 394.3 Q 680.1 394.3, 679.1 392.7 Q 678.0 391.2, 678.0 388.5 Q 678.0 385.7, 679.1 384.2 Q 680.1 382.7, 682.2 382.7 Q 684.3 382.7, 685.3 384.2 Q 686.3 385.7, 686.3 388.5 Q 686.3 391.2, 685.3 392.7 Q 684.3 394.3, 682.2 394.3 M 682.2 393.0 Q 683.4 393.0, 684.1 391.9 Q 684.7 390.7, 684.7 388.5 Q 684.7 386.2, 684.1 385.1 Q 683.4 384.0, 682.2 384.0 Q 681.0 384.0, 680.3 385.1 Q 679.6 386.2, 679.6 388.5 Q 679.6 390.7, 680.3 391.9 Q 681.0 393.0, 682.2 393.0 " fill="#000000"/>
<path d="M 687.4 392.5 L 689.0 392.5 L 689.0 394.1 L 687.4 394.1 L 687.4 392.5 " fill="#000000"/>
<path d="M 694.1 394.3 Q 692.0 394.3, 691.0 392.7 Q 689.9 391.2, 689.9 388.5 Q 689.9 385.7, 691.0 384.2 Q 692.0 382.7, 694.1 382.7 Q 696.2 382.7, 697.2 384.2 Q 698.2 385.7, 698.2 388.5 Q 698.2 391.2, 697.2 392.7 Q 696.2 394.3, 694.1 394.3 M 694.1 393.0 Q 695.3 393.0, 696.0 391.9 Q 696.6 390.7, 696.6 388.5 Q 696.6 386.2, 696.0 385.1 Q 695.3 384.0, 694.1 384.0 Q 692.9 384.0, 692.2 385.1 Q 691.5 386.2, 691.5 388.5 Q 691.5 390.7, 692.2 391.9 Q 692.9 393.0, 694.1 393.0 " fill="#000000"/>
<path d="M 704.5 384.1 L 698.5 384.1 L 698.5 382.8 L 706.0 382.8 L 706.0 384.0 L 701.5 394.1 L 699.9 394.1 L 704.5 384.1 " fill="#000000"/>
<path d="M 713.9 390.3 L 715.2 390.3 L 715.2 391.5 L 713.9 391.5 L 713.9 394.1 L 712.4 394.1 L 712.4 391.5 L 706.5 391.5 L 706.5 390.5 L 711.5 382.8 L 713.9 382.8 L 713.9 390.3 M 708.4 390.3 L 712.4 390.3 L 712.4 383.8 L 708.4 390.3 " fill="#000000"/>
<path class="bond-0 atom-0 atom-1" d="M 60.1,480.2 L 75.3,480.2" style="fill:none;fill-rule:evenodd;stroke:#000000;stroke-width:2.0px;stroke-linecap:butt;stroke-linejoin:miter;stroke-opacity:1"/>
<path class="bond-0 atom-0 atom-1" d="M 75.3,480.2 L 90.6,480.2" style="fill:none;fill-rule:evenodd;stroke:#A01EEF;stroke-width:2.0px;stroke-linecap:butt;stroke-linejoin:miter;stroke-opacity:1"/>
<path class="bond-1 atom-1 atom-2" d="M 93.4,480.2 L 108.6,480.2" style="fill:none;fill-rule:evenodd;stroke:#A01EEF;stroke-width:2.0px;stroke-linecap:butt;stroke-linejoin:miter;stroke-opacity:1"/>
<path class="bond-1 atom-1 atom-2" d="M 108.6,480.2 L 123.9,480.2" style="fill:none;fill-rule:evenodd;stroke:#000000;stroke-width:2.0px;stroke-linecap:butt;stroke-linejoin:miter;stroke-opacity:1"/>
<path class="atom-1" d="M 91.4 475.7 L 92.6 475.7 L 92.6 484.8 L 91.4 484.8 L 91.4 475.7 " fill="#A01EEF"/>
<path class="atom-1" d="M 88.5 485.7 L 89.7 485.7 L 89.7 489.5 L 94.3 489.5 L 94.3 485.7 L 95.5 485.7 L 95.5 494.7 L 94.3 494.7 L 94.3 490.5 L 89.7 490.5 L 89.7 494.7 L 88.5 494.7 L 88.5 485.7 " fill="#A01EEF"/>
<path class="note" d="M 60.1 487.9 Q 59.3 487.9, 58.8 487.3 Q 58.4 486.6, 58.4 485.6 Q 58.4 484.5, 58.8 483.9 Q 59.2 483.2, 60.1 483.2 Q 60.9 483.2, 61.3 483.9 Q 61.7 484.5, 61.7 485.6 Q 61.7 486.6, 61.3 487.3 Q 60.9 487.9, 60.1 487.9 M 60.1 487.4 Q 60.6 487.4, 60.8 486.9 Q 61.1 486.4, 61.1 485.6 Q 61.1 484.7, 60.8 484.2 Q 60.6 483.8, 60.1 483.8 Q 59.6 483.8, 59.3 484.2 Q 59.1 484.7, 59.1 485.6 Q 59.1 486.4, 59.3 486.9 Q 59.6 487.4, 60.1 487.4 " fill="#000000"/>
<path class="note" d="M 90.9 492.6 L 91.9 492.6 L 91.9 489.2 L 90.8 489.6 L 90.6 489.2 L 92.0 488.6 L 92.5 488.7 L 92.5 492.6 L 93.4 492.6 L 93.4 493.1 L 90.9 493.1 L 90.9 492.6 " fill="#000000"/>
<path class="note" d="M 122.4 473.5 Q 122.6 473.1, 122.9 472.9 Q 123.3 472.6, 123.9 472.6 Q 124.6 472.6, 125.0 473.0 Q 125.3 473.4, 125.3 474.0 Q 125.3 474.7, 124.8 475.3 Q 124.4 475.9, 123.3 476.7 L 125.4 476.7 L 125.4 477.2 L 122.4 477.2 L 122.4 476.8 Q 123.2 476.2, 123.7 475.7 Q 124.2 475.3, 124.5 474.9 Q 124.7 474.5, 124.7 474.0 Q 124.7 473.6, 124.5 473.4 Q 124.3 473.1, 123.9 473.1 Q 123.5 473.1, 123.3 473.3 Q 123.0 473.4, 122.9 473.7 L 122.4 473.5 " fill="#000000"/>
<path d="M 81.9 594.3 Q 79.8 594.3, 78.8 592.7 Q 77.7 591.2, 77.7 588.5 Q 77.7 585.7, 78.8 584.2 Q 79.8 582.7, 81.9 582.7 Q 84.0 582.7, 85.0 584.2 Q 86.0 585.7, 86.0 588.5 Q 86.0 591.2, 85.0 592.7 Q 84.0 594.3, 81.9 594.3 M 81.9 593.0 Q 83.1 593.0, 83.8 591.9 Q 84.4 590.7, 84.4 588.5 Q 84.4 586.2, 83.8 585.1 Q 83.1 584.0, 81.9 584.0 Q 80.7 584.0, 80.0 585.1 Q 79.3 586.2, 79.3 588.5 Q 79.3 590.7, 80.0 591.9 Q 80.7 593.0, 81.9 593.0 " fill="#000000"/>
<path d="M 87.1 592.5 L 88.7 592.5 L 88.7 594.1 L 87.1 594.1 L 87.1 592.5 " fill="#000000"/>
<path d="M 93.8 594.3 Q 91.7 594.3, 90.7 592.7 Q 89.6 591.2, 89.6 588.5 Q 89.6 585.7, 90.7 584.2 Q 91.7 582.7, 93.8 582.7 Q 95.9 582.7, 96.9 584.2 Q 97.9 585.7, 97.9 588.5 Q 97.9 591.2, 96.9 592.7 Q 95.9 594.3, 93.8 594.3 M 93.8 593.0 Q 95.0 593.0, 95.7 591.9 Q 96.3 590.7, 96.3 588.5 Q 96.3 586.2, 95.7 585.1 Q 95.0 584.0, 93.8 584.0 Q 92.6 584.0, 91.9 585.1 Q 91.2 586.2, 91.2 588.5 Q 91.2 590.7, 91.9 591.9 Q 92.6 593.0, 93.8 593.0 " fill="#000000"/>
<path d="M 103.5 587.1 Q 104.4 587.1, 105.2 587.5 Q 106.0 587.9, 106.4 588.7 Q 106.9 589.5, 106.9 590.5 Q 106.9 591.6, 106.4 592.5 Q 105.9 593.3, 105.0 593.8 Q 104.2 594.3, 103.1 594.3 Q 101.1 594.3, 100.0 592.9 Q 99.0 591.5, 99.0 588.8 Q 99.0 585.8, 100.3 584.3 Q 101.5 582.7, 103.9 582.7 Q 104.7 582.7, 105.2 582.8 Q 105.9 583.0, 106.4 583.3 L 105.8 584.4 Q 105.0 584.0, 104.0 584.0 Q 102.4 584.0, 101.5 585.0 Q 100.7 586.0, 100.6 588.2 Q 101.2 587.6, 101.9 587.4 Q 102.7 587.1, 103.5 587.1 M 103.1 593.0 Q 103.7 593.0, 104.2 592.6 Q 104.7 592.3, 105.0 591.8 Q 105.3 591.2, 105.3 590.5 Q 105.3 589.5, 104.7 588.9 Q 104.2 588.4, 103.2 588.4 Q 102.5 588.4, 101.8 588.6 Q 101.1 588.9, 100.6 589.4 Q 100.7 591.3, 101.3 592.1 Q 101.9 593.0, 103.1 593.0 " fill="#000000"/>
<path d="M 113.1 584.1 L 107.2 584.1 L 107.2 582.8 L 114.7 582.8 L 114.7 584.0 L 110.1 594.1 L 108.6 594.1 L 113.1 584.1 " fill="#000000"/>
<path class="bond-0 atom-0 atom-1" d="M 319.1,480.2 L 300.4,454.4" style="fill:none;fill-rule:evenodd;stroke:#000000;stroke-width:2.0px;stroke-linecap:butt;stroke-linejoin:miter;stroke-opacity:1"/>
<path class="bond-0 atom-0 atom-1" d="M 311.2,480.1 L 298.0,462.0" style="fill:none;fill-rule:evenodd;stroke:#000000;stroke-width:2.0px;stroke-linecap:butt;stroke-linejoin:miter;stroke-opacity:1"/>
<path class="bond-4 atom-4 atom-0" d="M 304.1,500.9 L 311.6,490.6" style="fill:none;fill-rule:evenodd;stroke:#CCCC00;stroke-width:2.0px;stroke-linecap:butt;stroke-linejoin:miter;stroke-opacity:1"/>
<path class="bond-4 atom-4 atom-0" d="M 311.6,490.6 L 319.1,480.2" style="fill:none;fill-rule:evenodd;stroke:#000000;stroke-width:2.0px;stroke-linecap:butt;stroke-linejoin:miter;stroke-opacity:1"/>
<path class="bond-1 atom-1 atom-2" d="M 300.4,454.4 L 270.0,464.3" style="fill:none;fill-rule:evenodd;stroke:#000000;stroke-width:2.0px;stroke-linecap:butt;stroke-linejoin:miter;stroke-opacity:1"/>
<path class="bond-2 atom-2 atom-3" d="M 270.0,464.3 L 270.0,477.6" style="fill:none;fill-rule:evenodd;stroke:#000000;stroke-width:2.0px;stroke-linecap:butt;stroke-linejoin:miter;stroke-opacity:1"/>
<path class="bond-2 atom-2 atom-3" d="M 270.0,477.6 L 270.0,490.9" style="fill:none;fill-rule:evenodd;stroke:#0000FF;stroke-width:2.0px;stroke-linecap:butt;stroke-linejoin:miter;stroke-opacity:1"/>
<path class="bond-2 atom-2 atom-3" d="M 276.4,468.3 L 276.4,477.6" style="fill:none;fill-rule:evenodd;stroke:#000000;stroke-width:2.0px;stroke-linecap:butt;stroke-linejoin:miter;stroke-opacity:1"/>
<path class="bond-2 atom-2 atom-3" d="M 276.4,477.6 L 276.4,486.9" style="fill:none;fill-rule:evenodd;stroke:#0000FF;stroke-width:2.0px;stroke-linecap:butt;stroke-linejoin:miter;stroke-opacity:1"/>
<path class="bond-3 atom-3 atom-4" d="M 274.3,497.5 L 285.5,501.2" style="fill:none;fill-rule:evenodd;stroke:#0000FF;stroke-width:2.0px;stroke-linecap:butt;stroke-linejoin:miter;stroke-opacity:1"/>
<path class="bond-3 atom-3 atom-4" d="M 285.5,501.2 L 296.8,504.9" style="fill:none;fill-rule:evenodd;stroke:#CCCC00;stroke-width:2.0px;stroke-linecap:butt;stroke-linejoin:miter;stroke-opacity:1"/>
<path class="atom-3" d="M 268.0 491.7 L 271.0 496.4 Q 271.3 496.9, 271.8 497.8 Q 272.2 498.6, 272.3 498.7 L 272.3 491.7 L 273.5 491.7 L 273.5 500.7 L 272.2 500.7 L 269.0 495.5 Q 268.7 494.8, 268.3 494.1 Q 267.9 493.4, 267.8 493.2 L 267.8 500.7 L 266.6 500.7 L 266.6 491.7 L 268.0 491.7 " fill="#0000FF"/>
<path class="atom-4" d="M 297.8 509.1 Q 297.9 509.2, 298.3 509.3 Q 298.8 509.5, 299.2 509.6 Q 299.7 509.7, 300.2 509.7 Q 301.0 509.7, 301.5 509.3 Q 302.0 508.9, 302.0 508.2 Q 302.0 507.7, 301.8 507.4 Q 301.5 507.1, 301.1 506.9 Q 300.7 506.7, 300.1 506.6 Q 299.3 506.3, 298.8 506.1 Q 298.3 505.9, 298.0 505.4 Q 297.7 504.9, 297.7 504.1 Q 297.7 502.9, 298.4 502.2 Q 299.2 501.5, 300.7 501.5 Q 301.8 501.5, 303.0 502.0 L 302.7 503.0 Q 301.6 502.6, 300.8 502.6 Q 299.9 502.6, 299.4 502.9 Q 298.9 503.3, 298.9 503.9 Q 298.9 504.4, 299.2 504.7 Q 299.4 505.0, 299.8 505.1 Q 300.2 505.3, 300.8 505.5 Q 301.6 505.8, 302.1 506.0 Q 302.6 506.3, 302.9 506.8 Q 303.3 507.3, 303.3 508.2 Q 303.3 509.4, 302.4 510.1 Q 301.6 510.8, 300.2 510.8 Q 299.4 510.8, 298.8 510.6 Q 298.2 510.4, 297.5 510.1 L 297.8 509.1 " fill="#CCCC00"/>
<path class="note" d="M 324.4 482.6 Q 323.6 482.6, 323.2 481.9 Q 322.8 481.3, 322.8 480.2 Q 322.8 479.1, 323.2 478.5 Q 323.6 477.9, 324.4 477.9 Q 325.3 477.9, 325.7 478.5 Q 326.1 479.1, 326.1 480.2 Q 326.1 481.3, 325.7 481.9 Q 325.3 482.6, 324.4 482.6 M 324.4 482.0 Q 324.9 482.0, 325.2 481.6 Q 325.5 481.1, 325.5 480.2 Q 325.5 479.3, 325.2 478.9 Q 324.9 478.4, 324.4 478.4 Q 324.0 478.4, 323.7 478.9 Q 323.4 479.3, 323.4 480.2 Q 323.4 481.1, 323.7 481.6 Q 324.0 482.0, 324.4 482.0 " fill="#000000"/>
<path class="note" d="M 300.9 451.1 L 301.9 451.1 L 301.9 447.7 L 300.8 448.1 L 300.7 447.7 L 302.0 447.1 L 302.5 447.1 L 302.5 451.1 L 303.4 451.1 L 303.4 451.6 L 300.9 451.6 L 300.9 451.1 " fill="#000000"/>
<path class="note" d="M 264.2 459.8 Q 264.4 459.3, 264.8 459.1 Q 265.2 458.9, 265.7 458.9 Q 266.4 458.9, 266.8 459.2 Q 267.2 459.6, 267.2 460.2 Q 267.2 460.9, 266.7 461.5 Q 266.2 462.2, 265.2 462.9 L 267.3 462.9 L 267.3 463.4 L 264.2 463.4 L 264.2 463.0 Q 265.0 462.4, 265.5 461.9 Q 266.1 461.5, 266.3 461.1 Q 266.5 460.7, 266.5 460.3 Q 266.5 459.8, 266.3 459.6 Q 266.1 459.4, 265.7 459.4 Q 265.4 459.4, 265.1 459.5 Q 264.9 459.7, 264.7 460.0 L 264.2 459.8 " fill="#000000"/>
<path class="note" d="M 262.1 502.3 Q 262.5 502.5, 262.7 502.7 Q 262.9 503.0, 262.9 503.5 Q 262.9 503.9, 262.8 504.2 Q 262.6 504.4, 262.2 504.6 Q 261.9 504.8, 261.4 504.8 Q 260.9 504.8, 260.6 504.6 Q 260.2 504.4, 259.9 504.1 L 260.3 503.7 Q 260.6 504.0, 260.8 504.1 Q 261.0 504.3, 261.4 504.3 Q 261.8 504.3, 262.1 504.0 Q 262.3 503.8, 262.3 503.5 Q 262.3 503.0, 262.0 502.8 Q 261.8 502.6, 261.2 502.6 L 260.9 502.6 L 260.9 502.1 L 261.2 502.1 Q 261.7 502.1, 261.9 501.9 Q 262.2 501.7, 262.2 501.3 Q 262.2 501.0, 262.0 500.8 Q 261.8 500.6, 261.4 500.6 Q 261.0 500.6, 260.8 500.8 Q 260.6 500.9, 260.4 501.3 L 259.9 501.0 Q 260.1 500.6, 260.5 500.4 Q 260.9 500.1, 261.4 500.1 Q 262.1 500.1, 262.5 500.4 Q 262.8 500.8, 262.8 501.3 Q 262.8 501.7, 262.7 501.9 Q 262.5 502.2, 262.1 502.3 " fill="#000000"/>
<path class="note" d="M 304.9 516.9 L 305.4 516.9 L 305.4 517.4 L 304.9 517.4 L 304.9 518.4 L 304.3 518.4 L 304.3 517.4 L 301.9 517.4 L 301.9 517.0 L 303.9 513.9 L 304.9 513.9 L 304.9 516.9 M 302.7 516.9 L 304.3 516.9 L 304.3 514.3 L 302.7 516.9 " fill="#000000"/>
<path d="M 301.0,451.5 L 301.0,451.5 L 301.0,451.4 L 301.0,451.4 L 301.0,451.3 L 301.0,451.3 L 300.9,451.2 L 300.9,451.2 L 300.9,451.1 L 300.8,451.1 L 300.8,451.0 L 300.7,451.0 L 300.7,451.0 L 300.7,451.0 L 300.6,450.9 L 300.6,450.9 L 300.5,450.9 L 300.4,450.9 L 300.4,450.9 L 300.3,450.9 L 300.3,450.9 L 300.2,450.9 L 300.2,450.9 L 300.1,450.9 L 300.1,451.0 L 300.0,451.0 L 300.0,451.0 L 299.9,451.1 L 299.9,451.1 L 299.9,451.1 L 299.8,451.2 L 299.8,451.2 L 299.8,451.3 L 299.8,451.3 L 299.8,451.4 L 299.7,451.4 L 299.7,451.5 L 299.7,451.6 L 299.7,451.6 L 299.8,451.7 L 299.8,451.7 L 299.8,451.8 L 299.8,451.8 L 299.8,451.9 L 299.9,451.9 L 299.9,452.0 L 299.9,452.0 L 300.0,452.0 L 300.0,452.1 L 300.1,452.1 L 300.1,452.1 L 300.2,452.1 L 300.2,452.2 L 300.3,452.2 L 300.3,452.2 L 300.4,452.2 L 300.4,452.2 L 300.5,452.2 L 300.6,452.1 L 300.6,452.1 L 300.7,452.1 L 300.7,452.1 L 300.7,452.0 L 300.8,452.0 L 300.8,452.0 L 300.9,451.9 L 300.9,451.9 L 300.9,451.8 L 301.0,451.8 L 301.0,451.7 L 301.0,451.7 L 301.0,451.6 L 301.0,451.6 L 301.0,451.5 L 300.4,451.5 Z" style="fill:#000000;fill-rule:evenodd;fill-opacity:1;stroke:#000000;stroke-width:0.0px;stroke-linecap:butt;stroke-linejoin:miter;stroke-opacity:1;"/>
<path d="M 291.0 594.3 Q 288.9 594.3, 287.9 592.7 Q 286.9 591.2, 286.9 588.5 Q 286.9 585.7, 287.9 584.2 Q 288.9 582.7, 291.0 582.7 Q 293.1 582.7, 294.1 584.2 Q 295.1 585.7, 295.1 588.5 Q 295.1 591.2, 294.1 592.7 Q 293.1 594.3, 291.0 594.3 M 291.0 593.0 Q 292.2 593.0, 292.9 591.9 Q 293.5 590.7, 293.5 588.5 Q 293.5 586.2, 292.9 585.1 Q 292.2 584.0, 291.0 584.0 Q 289.8 584.0, 289.1 585.1 Q 288.5 586.2, 288.5 588.5 Q 288.5 590.7, 289.1 591.9 Q 289.8 593.0, 291.0 593.0 " fill="#000000"/>
<path d="M 296.2 592.5 L 297.8 592.5 L 297.8 594.1 L 296.2 594.1 L 296.2 592.5 " fill="#000000"/>
<path d="M 302.9 594.3 Q 300.8 594.3, 299.8 592.7 Q 298.8 591.2, 298.8 588.5 Q 298.8 585.7, 299.8 584.2 Q 300.8 582.7, 302.9 582.7 Q 305.0 582.7, 306.0 584.2 Q 307.0 585.7, 307.0 588.5 Q 307.0 591.2, 306.0 592.7 Q 305.0 594.3, 302.9 594.3 M 302.9 593.0 Q 304.1 593.0, 304.8 591.9 Q 305.4 590.7, 305.4 588.5 Q 305.4 586.2, 304.8 585.1 Q 304.1 584.0, 302.9 584.0 Q 301.7 584.0, 301.0 585.1 Q 300.4 586.2, 300.4 588.5 Q 300.4 590.7, 301.0 591.9 Q 301.7 593.0, 302.9 593.0 " fill="#000000"/>
</svg>