<svg xmlns="http://www.w3.org/2000/svg" xmlns:rdkit="http://www.rdkit.org/xml" xmlns:xlink="http://www.w3.org/1999/xlink" version="1.1" baseProfile="full" xml:space="preserve" width="600px" height="400px" viewBox="0 0 600 400">
<!-- END OF HEADER -->
<rect style="opacity:1.0;fill:#FFFFFF;stroke:none" width="600.0" height="400.0" x="0.0" y="0.0"> </rect>
<rect style="opacity:1.0;fill:#FFFFFF;stroke:none" width="600.0" height="400.0" x="0.0" y="0.0"> </rect>
<rect style="opacity:1.0;fill:#FFFFFF;stroke:none" width="600.0" height="400.0" x="0.0" y="0.0"> </rect>
<rect style="opacity:1.0;fill:#FFFFFF;stroke:none" width="600.0" height="400.0" x="0.0" y="0.0"> </rect>
<rect style="opacity:1.0;fill:#FFFFFF;stroke:none" width="600.0" height="400.0" x="0.0" y="0.0"> </rect>
<path class="bond-0 atom-0 atom-1" d="M 96.7,74.7 L 140.5,49.4" style="fill:none;fill-rule:evenodd;stroke:#000000;stroke-width:2.0px;stroke-linecap:butt;stroke-linejoin:miter;stroke-opacity:1"/>
<path class="bond-1 atom-1 atom-2" d="M 138.0,53.8 L 156.0,64.2" style="fill:none;fill-rule:evenodd;stroke:#000000;stroke-width:2.0px;stroke-linecap:butt;stroke-linejoin:miter;stroke-opacity:1"/>
<path class="bond-1 atom-1 atom-2" d="M 156.0,64.2 L 174.0,74.6" style="fill:none;fill-rule:evenodd;stroke:#FF0000;stroke-width:2.0px;stroke-linecap:butt;stroke-linejoin:miter;stroke-opacity:1"/>
<path class="bond-1 atom-1 atom-2" d="M 143.1,45.0 L 161.0,55.4" style="fill:none;fill-rule:evenodd;stroke:#000000;stroke-width:2.0px;stroke-linecap:butt;stroke-linejoin:miter;stroke-opacity:1"/>
<path class="bond-1 atom-1 atom-2" d="M 161.0,55.4 L 179.0,65.8" style="fill:none;fill-rule:evenodd;stroke:#FF0000;stroke-width:2.0px;stroke-linecap:butt;stroke-linejoin:miter;stroke-opacity:1"/>
<path class="atom-2" d="M 177.8 74.7 Q 177.8 71.3, 179.5 69.4 Q 181.2 67.5, 184.3 67.5 Q 187.5 67.5, 189.2 69.4 Q 190.9 71.3, 190.9 74.7 Q 190.9 78.2, 189.2 80.2 Q 187.5 82.2, 184.3 82.2 Q 181.2 82.2, 179.5 80.2 Q 177.8 78.2, 177.8 74.7 M 184.3 80.6 Q 186.5 80.6, 187.7 79.1 Q 188.9 77.6, 188.9 74.7 Q 188.9 71.9, 187.7 70.5 Q 186.5 69.1, 184.3 69.1 Q 182.1 69.1, 181.0 70.5 Q 179.8 71.9, 179.8 74.7 Q 179.8 77.6, 181.0 79.1 Q 182.1 80.6, 184.3 80.6 " fill="#FF0000"/>
<path class="bond-0 atom-0 atom-1" d="M 252.9,49.4 L 296.7,74.7" style="fill:none;fill-rule:evenodd;stroke:#000000;stroke-width:2.0px;stroke-linecap:butt;stroke-linejoin:miter;stroke-opacity:1"/>
<path class="bond-1 atom-1 atom-2" d="M 296.7,74.7 L 340.5,49.4" style="fill:none;fill-rule:evenodd;stroke:#000000;stroke-width:2.0px;stroke-linecap:butt;stroke-linejoin:miter;stroke-opacity:1"/>
<path class="bond-2 atom-2 atom-3" d="M 338.0,53.8 L 356.0,64.2" style="fill:none;fill-rule:evenodd;stroke:#000000;stroke-width:2.0px;stroke-linecap:butt;stroke-linejoin:miter;stroke-opacity:1"/>
<path class="bond-2 atom-2 atom-3" d="M 356.0,64.2 L 374.0,74.6" style="fill:none;fill-rule:evenodd;stroke:#FF0000;stroke-width:2.0px;stroke-linecap:butt;stroke-linejoin:miter;stroke-opacity:1"/>
<path class="bond-2 atom-2 atom-3" d="M 343.1,45.0 L 361.0,55.4" style="fill:none;fill-rule:evenodd;stroke:#000000;stroke-width:2.0px;stroke-linecap:butt;stroke-linejoin:miter;stroke-opacity:1"/>
<path class="bond-2 atom-2 atom-3" d="M 361.0,55.4 L 379.0,65.8" style="fill:none;fill-rule:evenodd;stroke:#FF0000;stroke-width:2.0px;stroke-linecap:butt;stroke-linejoin:miter;stroke-opacity:1"/>
<path class="atom-3" d="M 377.8 74.7 Q 377.8 71.3, 379.5 69.4 Q 381.2 67.5, 384.3 67.5 Q 387.5 67.5, 389.2 69.4 Q 390.9 71.3, 390.9 74.7 Q 390.9 78.2, 389.2 80.2 Q 387.5 82.2, 384.3 82.2 Q 381.2 82.2, 379.5 80.2 Q 377.8 78.2, 377.8 74.7 M 384.3 80.6 Q 386.5 80.6, 387.7 79.1 Q 388.9 77.6, 388.9 74.7 Q 388.9 71.9, 387.7 70.5 Q 386.5 69.1, 384.3 69.1 Q 382.1 69.1, 381.0 70.5 Q 379.8 71.9, 379.8 74.7 Q 379.8 77.6, 381.0 79.1 Q 382.1 80.6, 384.3 80.6 " fill="#FF0000"/>
<path class="bond-0 atom-0 atom-1" d="M 409.1,74.7 L 452.9,49.4" style="fill:none;fill-rule:evenodd;stroke:#000000;stroke-width:2.0px;stroke-linecap:butt;stroke-linejoin:miter;stroke-opacity:1"/>
<path class="bond-1 atom-1 atom-2" d="M 452.9,49.4 L 496.7,74.7" style="fill:none;fill-rule:evenodd;stroke:#000000;stroke-width:2.0px;stroke-linecap:butt;stroke-linejoin:miter;stroke-opacity:1"/>
<path class="bond-2 atom-2 atom-3" d="M 496.7,74.7 L 540.5,49.4" style="fill:none;fill-rule:evenodd;stroke:#000000;stroke-width:2.0px;stroke-linecap:butt;stroke-linejoin:miter;stroke-opacity:1"/>
<path class="bond-3 atom-3 atom-4" d="M 538.0,53.8 L 556.0,64.2" style="fill:none;fill-rule:evenodd;stroke:#000000;stroke-width:2.0px;stroke-linecap:butt;stroke-linejoin:miter;stroke-opacity:1"/>
<path class="bond-3 atom-3 atom-4" d="M 556.0,64.2 L 574.0,74.6" style="fill:none;fill-rule:evenodd;stroke:#FF0000;stroke-width:2.0px;stroke-linecap:butt;stroke-linejoin:miter;stroke-opacity:1"/>
<path class="bond-3 atom-3 atom-4" d="M 543.1,45.0 L 561.0,55.4" style="fill:none;fill-rule:evenodd;stroke:#000000;stroke-width:2.0px;stroke-linecap:butt;stroke-linejoin:miter;stroke-opacity:1"/>
<path class="bond-3 atom-3 atom-4" d="M 561.0,55.4 L 579.0,65.8" style="fill:none;fill-rule:evenodd;stroke:#FF0000;stroke-width:2.0px;stroke-linecap:butt;stroke-linejoin:miter;stroke-opacity:1"/>
<path class="atom-4" d="M 577.8 74.7 Q 577.8 71.3, 579.5 69.4 Q 581.2 67.5, 584.3 67.5 Q 587.5 67.5, 589.2 69.4 Q 590.9 71.3, 590.9 74.7 Q 590.9 78.2, 589.2 80.2 Q 587.5 82.2, 584.3 82.2 Q 581.2 82.2, 579.5 80.2 Q 577.8 78.2, 577.8 74.7 M 584.3 80.6 Q 586.5 80.6, 587.7 79.1 Q 588.9 77.6, 588.9 74.7 Q 588.9 71.9, 587.7 70.5 Q 586.5 69.1, 584.3 69.1 Q 582.1 69.1, 581.0 70.5 Q 579.8 71.9, 579.8 74.7 Q 579.8 77.6, 581.0 79.1 Q 582.1 80.6, 584.3 80.6 " fill="#FF0000"/>
<path class="bond-0 atom-0 atom-1" d="M 179.0,265.8 L 161.0,255.4" style="fill:none;fill-rule:evenodd;stroke:#FF0000;stroke-width:2.0px;stroke-linecap:butt;stroke-linejoin:miter;stroke-opacity:1"/>
<path class="bond-0 atom-0 atom-1" d="M 161.0,255.4 L 143.1,245.0" style="fill:none;fill-rule:evenodd;stroke:#000000;stroke-width:2.0px;stroke-linecap:butt;stroke-linejoin:miter;stroke-opacity:1"/>
<path class="bond-0 atom-0 atom-1" d="M 174.0,274.6 L 156.0,264.2" style="fill:none;fill-rule:evenodd;stroke:#FF0000;stroke-width:2.0px;stroke-linecap:butt;stroke-linejoin:miter;stroke-opacity:1"/>
<path class="bond-0 atom-0 atom-1" d="M 156.0,264.2 L 138.0,253.8" style="fill:none;fill-rule:evenodd;stroke:#000000;stroke-width:2.0px;stroke-linecap:butt;stroke-linejoin:miter;stroke-opacity:1"/>
<path class="bond-1 atom-1 atom-2" d="M 140.5,249.4 L 96.7,274.7" style="fill:none;fill-rule:evenodd;stroke:#000000;stroke-width:2.0px;stroke-linecap:butt;stroke-linejoin:miter;stroke-opacity:1"/>
<path class="bond-2 atom-2 atom-3" d="M 96.7,274.7 L 96.7,325.3" style="fill:none;fill-rule:evenodd;stroke:#000000;stroke-width:2.0px;stroke-linecap:butt;stroke-linejoin:miter;stroke-opacity:1"/>
<path class="bond-7 atom-7 atom-2" d="M 52.9,249.4 L 96.7,274.7" style="fill:none;fill-rule:evenodd;stroke:#000000;stroke-width:2.0px;stroke-linecap:butt;stroke-linejoin:miter;stroke-opacity:1"/>
<path class="bond-3 atom-3 atom-4" d="M 96.7,325.3 L 52.9,350.6" style="fill:none;fill-rule:evenodd;stroke:#000000;stroke-width:2.0px;stroke-linecap:butt;stroke-linejoin:miter;stroke-opacity:1"/>
<path class="bond-4 atom-4 atom-5" d="M 52.9,350.6 L 9.1,325.3" style="fill:none;fill-rule:evenodd;stroke:#000000;stroke-width:2.0px;stroke-linecap:butt;stroke-linejoin:miter;stroke-opacity:1"/>
<path class="bond-5 atom-5 atom-6" d="M 9.1,325.3 L 9.1,274.7" style="fill:none;fill-rule:evenodd;stroke:#000000;stroke-width:2.0px;stroke-linecap:butt;stroke-linejoin:miter;stroke-opacity:1"/>
<path class="bond-6 atom-6 atom-7" d="M 9.1,274.7 L 52.9,249.4" style="fill:none;fill-rule:evenodd;stroke:#000000;stroke-width:2.0px;stroke-linecap:butt;stroke-linejoin:miter;stroke-opacity:1"/>
<path class="atom-0" d="M 177.8 274.7 Q 177.8 271.3, 179.5 269.4 Q 181.2 267.5, 184.3 267.5 Q 187.5 267.5, 189.2 269.4 Q 190.9 271.3, 190.9 274.7 Q 190.9 278.2, 189.2 280.2 Q 187.5 282.2, 184.3 282.2 Q 181.2 282.2, 179.5 280.2 Q 177.8 278.2, 177.8 274.7 M 184.3 280.6 Q 186.5 280.6, 187.7 279.1 Q 188.9 277.6, 188.9 274.7 Q 188.9 271.9, 187.7 270.5 Q 186.5 269.1, 184.3 269.1 Q 182.1 269.1, 181.0 270.5 Q 179.8 271.9, 179.8 274.7 Q 179.8 277.6, 181.0 279.1 Q 182.1 280.6, 184.3 280.6 " fill="#FF0000"/>
</svg>