<svg xmlns="http://www.w3.org/2000/svg" xmlns:rdkit="http://www.rdkit.org/xml" xmlns:xlink="http://www.w3.org/1999/xlink" version="1.1" baseProfile="full" xml:space="preserve" width="600px" height="200px" viewBox="0 0 600 200">
<!-- END OF HEADER -->
<rect style="opacity:1.0;fill:#FFFFFF;stroke:none" width="600.0" height="200.0" x="0.0" y="0.0"> </rect>
<rect style="opacity:1.0;fill:#FFFFFF;stroke:none" width="600.0" height="200.0" x="0.0" y="0.0"> </rect>
<rect style="opacity:1.0;fill:#FFFFFF;stroke:none" width="600.0" height="200.0" x="0.0" y="0.0"> </rect>
<rect style="opacity:1.0;fill:#FFFFFF;stroke:none" width="600.0" height="200.0" x="0.0" y="0.0"> </rect>
<path class="bond-0 atom-0 atom-1" d="M 115.3,143.6 L 90.1,187.3" style="fill:none;fill-rule:evenodd;stroke:#000000;stroke-width:2.0px;stroke-linecap:butt;stroke-linejoin:miter;stroke-opacity:1"/>
<path class="bond-0 atom-0 atom-1" d="M 102.8,145.2 L 85.2,175.7" style="fill:none;fill-rule:evenodd;stroke:#000000;stroke-width:2.0px;stroke-linecap:butt;stroke-linejoin:miter;stroke-opacity:1"/>
<path class="bond-5 atom-0 atom-5" d="M 115.3,143.6 L 90.1,100.0" style="fill:none;fill-rule:evenodd;stroke:#000000;stroke-width:2.0px;stroke-linecap:butt;stroke-linejoin:miter;stroke-opacity:1"/>
<path class="bond-7 atom-6 atom-0" d="M 157.9,143.6 L 136.6,143.6" style="fill:none;fill-rule:evenodd;stroke:#FF0000;stroke-width:2.0px;stroke-linecap:butt;stroke-linejoin:miter;stroke-opacity:1"/>
<path class="bond-7 atom-6 atom-0" d="M 136.6,143.6 L 115.3,143.6" style="fill:none;fill-rule:evenodd;stroke:#000000;stroke-width:2.0px;stroke-linecap:butt;stroke-linejoin:miter;stroke-opacity:1"/>
<path class="bond-1 atom-1 atom-2" d="M 90.1,187.3 L 39.7,187.3" style="fill:none;fill-rule:evenodd;stroke:#000000;stroke-width:2.0px;stroke-linecap:butt;stroke-linejoin:miter;stroke-opacity:1"/>
<path class="bond-2 atom-2 atom-3" d="M 39.7,187.3 L 29.5,169.7" style="fill:none;fill-rule:evenodd;stroke:#000000;stroke-width:2.0px;stroke-linecap:butt;stroke-linejoin:miter;stroke-opacity:1"/>
<path class="bond-2 atom-2 atom-3" d="M 29.5,169.7 L 19.4,152.0" style="fill:none;fill-rule:evenodd;stroke:#0000FF;stroke-width:2.0px;stroke-linecap:butt;stroke-linejoin:miter;stroke-opacity:1"/>
<path class="bond-2 atom-2 atom-3" d="M 45.4,177.0 L 38.3,164.6" style="fill:none;fill-rule:evenodd;stroke:#000000;stroke-width:2.0px;stroke-linecap:butt;stroke-linejoin:miter;stroke-opacity:1"/>
<path class="bond-2 atom-2 atom-3" d="M 38.3,164.6 L 31.1,152.3" style="fill:none;fill-rule:evenodd;stroke:#0000FF;stroke-width:2.0px;stroke-linecap:butt;stroke-linejoin:miter;stroke-opacity:1"/>
<path class="bond-3 atom-3 atom-4" d="M 19.4,135.3 L 29.5,117.6" style="fill:none;fill-rule:evenodd;stroke:#0000FF;stroke-width:2.0px;stroke-linecap:butt;stroke-linejoin:miter;stroke-opacity:1"/>
<path class="bond-3 atom-3 atom-4" d="M 29.5,117.6 L 39.7,100.0" style="fill:none;fill-rule:evenodd;stroke:#000000;stroke-width:2.0px;stroke-linecap:butt;stroke-linejoin:miter;stroke-opacity:1"/>
<path class="bond-4 atom-4 atom-5" d="M 39.7,100.0 L 90.1,100.0" style="fill:none;fill-rule:evenodd;stroke:#000000;stroke-width:2.0px;stroke-linecap:butt;stroke-linejoin:miter;stroke-opacity:1"/>
<path class="bond-4 atom-4 atom-5" d="M 47.3,110.1 L 82.5,110.1" style="fill:none;fill-rule:evenodd;stroke:#000000;stroke-width:2.0px;stroke-linecap:butt;stroke-linejoin:miter;stroke-opacity:1"/>
<path class="bond-6 atom-6 atom-7" d="M 170.7,152.3 L 180.8,169.8" style="fill:none;fill-rule:evenodd;stroke:#FF0000;stroke-width:2.0px;stroke-linecap:butt;stroke-linejoin:miter;stroke-opacity:1"/>
<path class="bond-6 atom-6 atom-7" d="M 180.8,169.8 L 190.9,187.3" style="fill:none;fill-rule:evenodd;stroke:#000000;stroke-width:2.0px;stroke-linecap:butt;stroke-linejoin:miter;stroke-opacity:1"/>
<path class="atom-3" d="M 11.3 136.5 L 16.0 144.1 Q 16.5 144.8, 17.2 146.2 Q 18.0 147.5, 18.0 147.6 L 18.0 136.5 L 19.9 136.5 L 19.9 150.8 L 18.0 150.8 L 12.9 142.5 Q 12.4 141.6, 11.7 140.4 Q 11.1 139.3, 10.9 139.0 L 10.9 150.8 L 9.1 150.8 L 9.1 136.5 L 11.3 136.5 " fill="#0000FF"/>
<path class="atom-6" d="M 159.2 143.7 Q 159.2 140.3, 160.8 138.3 Q 162.5 136.4, 165.7 136.4 Q 168.9 136.4, 170.6 138.3 Q 172.3 140.3, 172.3 143.7 Q 172.3 147.2, 170.5 149.1 Q 168.8 151.1, 165.7 151.1 Q 162.6 151.1, 160.8 149.1 Q 159.2 147.2, 159.2 143.7 M 165.7 149.5 Q 167.9 149.5, 169.1 148.0 Q 170.2 146.6, 170.2 143.7 Q 170.2 140.9, 169.1 139.5 Q 167.9 138.0, 165.7 138.0 Q 163.5 138.0, 162.3 139.5 Q 161.2 140.9, 161.2 143.7 Q 161.2 146.6, 162.3 148.0 Q 163.5 149.5, 165.7 149.5 " fill="#FF0000"/>
<path class="bond-0 atom-0 atom-1" d="M 315.3,143.6 L 290.1,187.3" style="fill:none;fill-rule:evenodd;stroke:#000000;stroke-width:2.0px;stroke-linecap:butt;stroke-linejoin:miter;stroke-opacity:1"/>
<path class="bond-0 atom-0 atom-1" d="M 302.8,145.2 L 285.2,175.7" style="fill:none;fill-rule:evenodd;stroke:#000000;stroke-width:2.0px;stroke-linecap:butt;stroke-linejoin:miter;stroke-opacity:1"/>
<path class="bond-5 atom-0 atom-5" d="M 315.3,143.6 L 290.1,100.0" style="fill:none;fill-rule:evenodd;stroke:#000000;stroke-width:2.0px;stroke-linecap:butt;stroke-linejoin:miter;stroke-opacity:1"/>
<path class="bond-1 atom-1 atom-2" d="M 290.1,187.3 L 239.7,187.3" style="fill:none;fill-rule:evenodd;stroke:#000000;stroke-width:2.0px;stroke-linecap:butt;stroke-linejoin:miter;stroke-opacity:1"/>
<path class="bond-2 atom-2 atom-3" d="M 239.7,187.3 L 229.5,169.7" style="fill:none;fill-rule:evenodd;stroke:#000000;stroke-width:2.0px;stroke-linecap:butt;stroke-linejoin:miter;stroke-opacity:1"/>
<path class="bond-2 atom-2 atom-3" d="M 229.5,169.7 L 219.4,152.0" style="fill:none;fill-rule:evenodd;stroke:#0000FF;stroke-width:2.0px;stroke-linecap:butt;stroke-linejoin:miter;stroke-opacity:1"/>
<path class="bond-2 atom-2 atom-3" d="M 245.4,177.0 L 238.3,164.6" style="fill:none;fill-rule:evenodd;stroke:#000000;stroke-width:2.0px;stroke-linecap:butt;stroke-linejoin:miter;stroke-opacity:1"/>
<path class="bond-2 atom-2 atom-3" d="M 238.3,164.6 L 231.1,152.3" style="fill:none;fill-rule:evenodd;stroke:#0000FF;stroke-width:2.0px;stroke-linecap:butt;stroke-linejoin:miter;stroke-opacity:1"/>
<path class="bond-3 atom-3 atom-4" d="M 219.4,135.3 L 229.5,117.6" style="fill:none;fill-rule:evenodd;stroke:#0000FF;stroke-width:2.0px;stroke-linecap:butt;stroke-linejoin:miter;stroke-opacity:1"/>
<path class="bond-3 atom-3 atom-4" d="M 229.5,117.6 L 239.7,100.0" style="fill:none;fill-rule:evenodd;stroke:#000000;stroke-width:2.0px;stroke-linecap:butt;stroke-linejoin:miter;stroke-opacity:1"/>
<path class="bond-4 atom-4 atom-5" d="M 239.7,100.0 L 290.1,100.0" style="fill:none;fill-rule:evenodd;stroke:#000000;stroke-width:2.0px;stroke-linecap:butt;stroke-linejoin:miter;stroke-opacity:1"/>
<path class="bond-4 atom-4 atom-5" d="M 247.3,110.1 L 282.5,110.1" style="fill:none;fill-rule:evenodd;stroke:#000000;stroke-width:2.0px;stroke-linecap:butt;stroke-linejoin:miter;stroke-opacity:1"/>
<path class="bond-7 atom-6 atom-4" d="M 219.5,65.1 L 229.6,82.5" style="fill:none;fill-rule:evenodd;stroke:#FF0000;stroke-width:2.0px;stroke-linecap:butt;stroke-linejoin:miter;stroke-opacity:1"/>
<path class="bond-7 atom-6 atom-4" d="M 229.6,82.5 L 239.7,100.0" style="fill:none;fill-rule:evenodd;stroke:#000000;stroke-width:2.0px;stroke-linecap:butt;stroke-linejoin:miter;stroke-opacity:1"/>
<path class="bond-6 atom-6 atom-7" d="M 219.4,47.9 L 229.6,30.3" style="fill:none;fill-rule:evenodd;stroke:#FF0000;stroke-width:2.0px;stroke-linecap:butt;stroke-linejoin:miter;stroke-opacity:1"/>
<path class="bond-6 atom-6 atom-7" d="M 229.6,30.3 L 239.7,12.7" style="fill:none;fill-rule:evenodd;stroke:#000000;stroke-width:2.0px;stroke-linecap:butt;stroke-linejoin:miter;stroke-opacity:1"/>
<path class="atom-3" d="M 211.3 136.5 L 216.0 144.1 Q 216.5 144.8, 217.2 146.2 Q 218.0 147.5, 218.0 147.6 L 218.0 136.5 L 219.9 136.5 L 219.9 150.8 L 218.0 150.8 L 212.9 142.5 Q 212.4 141.6, 211.7 140.4 Q 211.1 139.3, 210.9 139.0 L 210.9 150.8 L 209.1 150.8 L 209.1 136.5 L 211.3 136.5 " fill="#0000FF"/>
<path class="atom-6" d="M 208.0 56.4 Q 208.0 53.0, 209.6 51.0 Q 211.3 49.1, 214.5 49.1 Q 217.7 49.1, 219.4 51.0 Q 221.1 53.0, 221.1 56.4 Q 221.1 59.9, 219.3 61.8 Q 217.6 63.8, 214.5 63.8 Q 211.4 63.8, 209.6 61.8 Q 208.0 59.9, 208.0 56.4 M 214.5 62.2 Q 216.7 62.2, 217.9 60.7 Q 219.0 59.3, 219.0 56.4 Q 219.0 53.6, 217.9 52.2 Q 216.7 50.7, 214.5 50.7 Q 212.3 50.7, 211.1 52.2 Q 210.0 53.6, 210.0 56.4 Q 210.0 59.3, 211.1 60.7 Q 212.3 62.2, 214.5 62.2 " fill="#FF0000"/>
<path class="bond-0 atom-0 atom-1" d="M 515.3,143.6 L 490.1,187.3" style="fill:none;fill-rule:evenodd;stroke:#000000;stroke-width:2.0px;stroke-linecap:butt;stroke-linejoin:miter;stroke-opacity:1"/>
<path class="bond-0 atom-0 atom-1" d="M 502.8,145.2 L 485.2,175.7" style="fill:none;fill-rule:evenodd;stroke:#000000;stroke-width:2.0px;stroke-linecap:butt;stroke-linejoin:miter;stroke-opacity:1"/>
<path class="bond-5 atom-0 atom-5" d="M 515.3,143.6 L 490.1,100.0" style="fill:none;fill-rule:evenodd;stroke:#000000;stroke-width:2.0px;stroke-linecap:butt;stroke-linejoin:miter;stroke-opacity:1"/>
<path class="bond-1 atom-1 atom-2" d="M 490.1,187.3 L 439.7,187.3" style="fill:none;fill-rule:evenodd;stroke:#000000;stroke-width:2.0px;stroke-linecap:butt;stroke-linejoin:miter;stroke-opacity:1"/>
<path class="bond-2 atom-2 atom-3" d="M 439.7,187.3 L 429.5,169.7" style="fill:none;fill-rule:evenodd;stroke:#000000;stroke-width:2.0px;stroke-linecap:butt;stroke-linejoin:miter;stroke-opacity:1"/>
<path class="bond-2 atom-2 atom-3" d="M 429.5,169.7 L 419.4,152.0" style="fill:none;fill-rule:evenodd;stroke:#0000FF;stroke-width:2.0px;stroke-linecap:butt;stroke-linejoin:miter;stroke-opacity:1"/>
<path class="bond-2 atom-2 atom-3" d="M 445.4,177.0 L 438.3,164.6" style="fill:none;fill-rule:evenodd;stroke:#000000;stroke-width:2.0px;stroke-linecap:butt;stroke-linejoin:miter;stroke-opacity:1"/>
<path class="bond-2 atom-2 atom-3" d="M 438.3,164.6 L 431.1,152.3" style="fill:none;fill-rule:evenodd;stroke:#0000FF;stroke-width:2.0px;stroke-linecap:butt;stroke-linejoin:miter;stroke-opacity:1"/>
<path class="bond-3 atom-3 atom-4" d="M 419.4,135.3 L 429.5,117.6" style="fill:none;fill-rule:evenodd;stroke:#0000FF;stroke-width:2.0px;stroke-linecap:butt;stroke-linejoin:miter;stroke-opacity:1"/>
<path class="bond-3 atom-3 atom-4" d="M 429.5,117.6 L 439.7,100.0" style="fill:none;fill-rule:evenodd;stroke:#000000;stroke-width:2.0px;stroke-linecap:butt;stroke-linejoin:miter;stroke-opacity:1"/>
<path class="bond-4 atom-4 atom-5" d="M 439.7,100.0 L 490.1,100.0" style="fill:none;fill-rule:evenodd;stroke:#000000;stroke-width:2.0px;stroke-linecap:butt;stroke-linejoin:miter;stroke-opacity:1"/>
<path class="bond-4 atom-4 atom-5" d="M 447.3,110.1 L 482.5,110.1" style="fill:none;fill-rule:evenodd;stroke:#000000;stroke-width:2.0px;stroke-linecap:butt;stroke-linejoin:miter;stroke-opacity:1"/>
<path class="bond-7 atom-6 atom-5" d="M 510.3,65.1 L 500.2,82.5" style="fill:none;fill-rule:evenodd;stroke:#FF0000;stroke-width:2.0px;stroke-linecap:butt;stroke-linejoin:miter;stroke-opacity:1"/>
<path class="bond-7 atom-6 atom-5" d="M 500.2,82.5 L 490.1,100.0" style="fill:none;fill-rule:evenodd;stroke:#000000;stroke-width:2.0px;stroke-linecap:butt;stroke-linejoin:miter;stroke-opacity:1"/>
<path class="bond-6 atom-6 atom-7" d="M 523.1,56.4 L 544.4,56.4" style="fill:none;fill-rule:evenodd;stroke:#FF0000;stroke-width:2.0px;stroke-linecap:butt;stroke-linejoin:miter;stroke-opacity:1"/>
<path class="bond-6 atom-6 atom-7" d="M 544.4,56.4 L 565.7,56.4" style="fill:none;fill-rule:evenodd;stroke:#000000;stroke-width:2.0px;stroke-linecap:butt;stroke-linejoin:miter;stroke-opacity:1"/>
<path class="atom-3" d="M 411.3 136.5 L 416.0 144.1 Q 416.5 144.8, 417.2 146.2 Q 418.0 147.5, 418.0 147.6 L 418.0 136.5 L 419.9 136.5 L 419.9 150.8 L 418.0 150.8 L 412.9 142.5 Q 412.4 141.6, 411.7 140.4 Q 411.1 139.3, 410.9 139.0 L 410.9 150.8 L 409.1 150.8 L 409.1 136.5 L 411.3 136.5 " fill="#0000FF"/>
<path class="atom-6" d="M 508.8 56.4 Q 508.8 53.0, 510.4 51.0 Q 512.1 49.1, 515.3 49.1 Q 518.5 49.1, 520.2 51.0 Q 521.9 53.0, 521.9 56.4 Q 521.9 59.9, 520.1 61.8 Q 518.4 63.8, 515.3 63.8 Q 512.2 63.8, 510.4 61.8 Q 508.8 59.9, 508.8 56.4 M 515.3 62.2 Q 517.5 62.2, 518.7 60.7 Q 519.8 59.3, 519.8 56.4 Q 519.8 53.6, 518.7 52.2 Q 517.5 50.7, 515.3 50.7 Q 513.1 50.7, 511.9 52.2 Q 510.8 53.6, 510.8 56.4 Q 510.8 59.3, 511.9 60.7 Q 513.1 62.2, 515.3 62.2 " fill="#FF0000"/>
</svg>