<svg xmlns="http://www.w3.org/2000/svg" xmlns:rdkit="http://www.rdkit.org/xml" xmlns:xlink="http://www.w3.org/1999/xlink" version="1.1" baseProfile="full" xml:space="preserve" width="600px" height="400px" viewBox="0 0 600 400">
<!-- END OF HEADER -->
<rect style="opacity:1.0;fill:#FFFFFF;stroke:none" width="600.0" height="400.0" x="0.0" y="0.0"> </rect>
<rect style="opacity:1.0;fill:#FFFFFF;stroke:none" width="600.0" height="400.0" x="0.0" y="0.0"> </rect>
<rect style="opacity:1.0;fill:#FFFFFF;stroke:none" width="600.0" height="400.0" x="0.0" y="0.0"> </rect>
<rect style="opacity:1.0;fill:#FFFFFF;stroke:none" width="600.0" height="400.0" x="0.0" y="0.0"> </rect>
<rect style="opacity:1.0;fill:#FFFFFF;stroke:none" width="600.0" height="400.0" x="0.0" y="0.0"> </rect>
<path class="bond-0 atom-0 atom-1" d="M 71.3,107.5 L 106.4,87.2" style="fill:none;fill-rule:evenodd;stroke:#000000;stroke-width:2.0px;stroke-linecap:butt;stroke-linejoin:miter;stroke-opacity:1"/>
<path class="bond-1 atom-1 atom-2" d="M 106.4,87.2 L 120.8,95.5" style="fill:none;fill-rule:evenodd;stroke:#000000;stroke-width:2.0px;stroke-linecap:butt;stroke-linejoin:miter;stroke-opacity:1"/>
<path class="bond-1 atom-1 atom-2" d="M 120.8,95.5 L 135.2,103.9" style="fill:none;fill-rule:evenodd;stroke:#FF0000;stroke-width:2.0px;stroke-linecap:butt;stroke-linejoin:miter;stroke-opacity:1"/>
<path class="atom-2" d="M 136.2 107.5 Q 136.2 104.8, 137.6 103.2 Q 139.0 101.7, 141.5 101.7 Q 144.0 101.7, 145.4 103.2 Q 146.8 104.8, 146.8 107.5 Q 146.8 110.3, 145.4 111.9 Q 144.0 113.5, 141.5 113.5 Q 139.0 113.5, 137.6 111.9 Q 136.2 110.3, 136.2 107.5 M 141.5 112.2 Q 143.3 112.2, 144.2 111.0 Q 145.1 109.8, 145.1 107.5 Q 145.1 105.3, 144.2 104.1 Q 143.3 103.0, 141.5 103.0 Q 139.8 103.0, 138.8 104.1 Q 137.9 105.2, 137.9 107.5 Q 137.9 109.8, 138.8 111.0 Q 139.8 112.2, 141.5 112.2 " fill="#FF0000"/>
<path class="atom-2" d="M 148.1 101.8 L 149.7 101.8 L 149.7 106.7 L 155.6 106.7 L 155.6 101.8 L 157.1 101.8 L 157.1 113.3 L 155.6 113.3 L 155.6 108.0 L 149.7 108.0 L 149.7 113.3 L 148.1 113.3 L 148.1 101.8 " fill="#FF0000"/>
<path class="bond-0 atom-0 atom-1" d="M 253.0,104.4 L 290.2,88.6" style="fill:none;fill-rule:evenodd;stroke:#000000;stroke-width:2.0px;stroke-linecap:butt;stroke-linejoin:miter;stroke-opacity:1"/>
<path class="bond-1 atom-1 atom-2" d="M 290.2,88.6 L 322.6,112.9" style="fill:none;fill-rule:evenodd;stroke:#000000;stroke-width:2.0px;stroke-linecap:butt;stroke-linejoin:miter;stroke-opacity:1"/>
<path class="bond-2 atom-2 atom-3" d="M 322.6,112.9 L 338.1,106.3" style="fill:none;fill-rule:evenodd;stroke:#000000;stroke-width:2.0px;stroke-linecap:butt;stroke-linejoin:miter;stroke-opacity:1"/>
<path class="bond-2 atom-2 atom-3" d="M 338.1,106.3 L 353.6,99.7" style="fill:none;fill-rule:evenodd;stroke:#FF0000;stroke-width:2.0px;stroke-linecap:butt;stroke-linejoin:miter;stroke-opacity:1"/>
<path class="atom-3" d="M 354.6 97.1 Q 354.6 94.3, 356.0 92.8 Q 357.3 91.2, 359.9 91.2 Q 362.4 91.2, 363.8 92.8 Q 365.1 94.3, 365.1 97.1 Q 365.1 99.9, 363.8 101.5 Q 362.4 103.0, 359.9 103.0 Q 357.4 103.0, 356.0 101.5 Q 354.6 99.9, 354.6 97.1 M 359.9 101.7 Q 361.6 101.7, 362.6 100.6 Q 363.5 99.4, 363.5 97.1 Q 363.5 94.8, 362.6 93.7 Q 361.6 92.5, 359.9 92.5 Q 358.1 92.5, 357.2 93.7 Q 356.2 94.8, 356.2 97.1 Q 356.2 99.4, 357.2 100.6 Q 358.1 101.7, 359.9 101.7 " fill="#FF0000"/>
<path class="atom-3" d="M 366.5 91.4 L 368.1 91.4 L 368.1 96.3 L 373.9 96.3 L 373.9 91.4 L 375.5 91.4 L 375.5 102.8 L 373.9 102.8 L 373.9 97.6 L 368.1 97.6 L 368.1 102.8 L 366.5 102.8 L 366.5 91.4 " fill="#FF0000"/>
<path class="bond-0 atom-0 atom-1" d="M 436.3,108.8 L 471.3,88.6" style="fill:none;fill-rule:evenodd;stroke:#000000;stroke-width:2.0px;stroke-linecap:butt;stroke-linejoin:miter;stroke-opacity:1"/>
<path class="bond-1 atom-1 atom-2" d="M 471.3,88.6 L 506.4,108.8" style="fill:none;fill-rule:evenodd;stroke:#000000;stroke-width:2.0px;stroke-linecap:butt;stroke-linejoin:miter;stroke-opacity:1"/>
<path class="bond-2 atom-2 atom-3" d="M 506.4,108.8 L 541.5,88.6" style="fill:none;fill-rule:evenodd;stroke:#000000;stroke-width:2.0px;stroke-linecap:butt;stroke-linejoin:miter;stroke-opacity:1"/>
<path class="bond-3 atom-3 atom-4" d="M 541.5,88.6 L 555.9,96.9" style="fill:none;fill-rule:evenodd;stroke:#000000;stroke-width:2.0px;stroke-linecap:butt;stroke-linejoin:miter;stroke-opacity:1"/>
<path class="bond-3 atom-3 atom-4" d="M 555.9,96.9 L 570.3,105.2" style="fill:none;fill-rule:evenodd;stroke:#FF0000;stroke-width:2.0px;stroke-linecap:butt;stroke-linejoin:miter;stroke-opacity:1"/>
<path class="atom-4" d="M 571.3 108.9 Q 571.3 106.1, 572.7 104.6 Q 574.0 103.0, 576.6 103.0 Q 579.1 103.0, 580.5 104.6 Q 581.8 106.1, 581.8 108.9 Q 581.8 111.7, 580.5 113.2 Q 579.1 114.8, 576.6 114.8 Q 574.1 114.8, 572.7 113.2 Q 571.3 111.7, 571.3 108.9 M 576.6 113.5 Q 578.3 113.5, 579.3 112.4 Q 580.2 111.2, 580.2 108.9 Q 580.2 106.6, 579.3 105.5 Q 578.3 104.3, 576.6 104.3 Q 574.8 104.3, 573.9 105.5 Q 572.9 106.6, 572.9 108.9 Q 572.9 111.2, 573.9 112.4 Q 574.8 113.5, 576.6 113.5 " fill="#FF0000"/>
<path class="atom-4" d="M 583.2 103.2 L 584.8 103.2 L 584.8 108.0 L 590.6 108.0 L 590.6 103.2 L 592.2 103.2 L 592.2 114.6 L 590.6 114.6 L 590.6 109.3 L 584.8 109.3 L 584.8 114.6 L 583.2 114.6 L 583.2 103.2 " fill="#FF0000"/>
<path class="bond-0 atom-0 atom-1" d="M 29.4,294.9 L 40.0,306.3" style="fill:none;fill-rule:evenodd;stroke:#FF0000;stroke-width:2.0px;stroke-linecap:butt;stroke-linejoin:miter;stroke-opacity:1"/>
<path class="bond-0 atom-0 atom-1" d="M 40.0,306.3 L 50.6,317.8" style="fill:none;fill-rule:evenodd;stroke:#000000;stroke-width:2.0px;stroke-linecap:butt;stroke-linejoin:miter;stroke-opacity:1"/>
<path class="bond-1 atom-1 atom-2" d="M 50.6,317.8 L 90.1,308.9" style="fill:none;fill-rule:evenodd;stroke:#000000;stroke-width:2.0px;stroke-linecap:butt;stroke-linejoin:miter;stroke-opacity:1"/>
<path class="bond-2 atom-2 atom-3" d="M 90.1,308.9 L 102.1,270.2" style="fill:none;fill-rule:evenodd;stroke:#000000;stroke-width:2.0px;stroke-linecap:butt;stroke-linejoin:miter;stroke-opacity:1"/>
<path class="bond-7 atom-7 atom-2" d="M 117.6,338.7 L 90.1,308.9" style="fill:none;fill-rule:evenodd;stroke:#000000;stroke-width:2.0px;stroke-linecap:butt;stroke-linejoin:miter;stroke-opacity:1"/>
<path class="bond-3 atom-3 atom-4" d="M 102.1,270.2 L 141.7,261.3" style="fill:none;fill-rule:evenodd;stroke:#000000;stroke-width:2.0px;stroke-linecap:butt;stroke-linejoin:miter;stroke-opacity:1"/>
<path class="bond-4 atom-4 atom-5" d="M 141.7,261.3 L 169.1,291.1" style="fill:none;fill-rule:evenodd;stroke:#000000;stroke-width:2.0px;stroke-linecap:butt;stroke-linejoin:miter;stroke-opacity:1"/>
<path class="bond-5 atom-5 atom-6" d="M 169.1,291.1 L 157.1,329.8" style="fill:none;fill-rule:evenodd;stroke:#000000;stroke-width:2.0px;stroke-linecap:butt;stroke-linejoin:miter;stroke-opacity:1"/>
<path class="bond-6 atom-6 atom-7" d="M 157.1,329.8 L 117.6,338.7" style="fill:none;fill-rule:evenodd;stroke:#000000;stroke-width:2.0px;stroke-linecap:butt;stroke-linejoin:miter;stroke-opacity:1"/>
<path class="atom-0" d="M 8.1 282.4 L 9.6 282.4 L 9.6 287.3 L 15.5 287.3 L 15.5 282.4 L 17.0 282.4 L 17.0 293.9 L 15.5 293.9 L 15.5 288.6 L 9.6 288.6 L 9.6 293.9 L 8.1 293.9 L 8.1 282.4 " fill="#FF0000"/>
<path class="atom-0" d="M 17.8 288.1 Q 17.8 285.3, 19.2 283.8 Q 20.6 282.3, 23.1 282.3 Q 25.7 282.3, 27.0 283.8 Q 28.4 285.3, 28.4 288.1 Q 28.4 290.9, 27.0 292.5 Q 25.6 294.0, 23.1 294.0 Q 20.6 294.0, 19.2 292.5 Q 17.8 290.9, 17.8 288.1 M 23.1 292.7 Q 24.9 292.7, 25.8 291.6 Q 26.8 290.4, 26.8 288.1 Q 26.8 285.8, 25.8 284.7 Q 24.9 283.6, 23.1 283.6 Q 21.4 283.6, 20.4 284.7 Q 19.5 285.8, 19.5 288.1 Q 19.5 290.4, 20.4 291.6 Q 21.4 292.7, 23.1 292.7 " fill="#FF0000"/>
</svg>